<svg xmlns="http://www.w3.org/2000/svg" width="69.978" height="70.863" viewBox="0 0 69.978 70.863">
  <g id="Group_128" data-name="Group 128" transform="translate(-275.084 -491.176)">
    <g id="Group_134" data-name="Group 134" transform="translate(275.084 491.176)">
      <path id="GM" d="M891.6,413.636l.159-.577,1.214-.02.259-.319.359-.02.438.319h.338l.378-.2.219.358-.5.3-.478-.04-.478-.259-.418.3h-.2l-.279.179Z" transform="translate(-884.83 -389.738)" fill="#efdbbc"/>
      <path id="GW" d="M895.745,420.76l-.02.438-.12.139.08.418-.179.159-.239.02-.3.2-.339-.02-.518.617-.577-.518-.478-.1-.259-.358.02-.2-.339-.259-.08-.279.6-.2.378.04.3-.159Z" transform="translate(-885.471 -396.607)" fill="#efdbbc"/>
      <path id="Path_350" data-name="Path 350" d="M857.819,397.64l.06-.04.1.04.02.04v.139l-.08.06-.06.04h-.06l-.1-.04v-.1l.04-.04v-.12l.02-.02Z" transform="translate(-857.68 -376.896)" fill="#efdbbc"/>
      <path id="Path_352" data-name="Path 352" d="M857.7,393.779l.02.02-.02.12-.04.02v-.1l-.04-.06v-.06l-.02-.06.08-.06.04.04-.02.119Z" transform="translate(-857.6 -373.509)" fill="#efdbbc"/>
      <path id="Path_490" data-name="Path 490" d="M887.119,323.08l-.06.1-.08.1-.06-.08h-.08l-.04-.04.04-.06.08.02.08-.08.06-.04.04.02Z" transform="translate(-880.986 -310.875)" fill="#efdbbc"/>
      <path id="Path_491" data-name="Path 491" d="M900.158,321.02v.1l.04.08-.04.139.02.06-.08.08-.1.04-.04.04-.12-.04-.1-.1-.04-.08v-.119l.119-.08.02-.1V321l.12.02h.079l.06.02Z" transform="translate(-891.318 -309.273)" fill="#efdbbc"/>
      <path id="Path_492" data-name="Path 492" d="M891.539,320.939h-.04l-.06-.04-.04-.06.02-.08.02-.06h.12l.1.08.02.06-.1.1Z" transform="translate(-884.67 -309.033)" fill="#efdbbc"/>
      <path id="Path_493" data-name="Path 493" d="M894.676,318.32v.04l-.12.06-.079.1-.06.04v.08l-.08.139-.02.08-.1.12-.02.04h-.04l-.12.04-.02-.02-.02-.08-.06-.08-.02-.04-.039-.06v-.06l-.08-.119.1-.06.06.04.12-.04h.079l.1-.04.1-.08v-.04l.12-.06h.12l.06-.02Z" transform="translate(-886.593 -307.111)" fill="#efdbbc"/>
      <path id="Path_494" data-name="Path 494" d="M907.279,318l-.06.08-.08.02-.06-.02H907v-.04h.06l.119-.04.08-.06.06-.06.02-.1.02-.06.04-.1.06-.08.06-.12.04-.159.04-.04.08-.02.06.06.02.1-.02.1-.02.1v.1l-.02.02-.06.139-.06.06-.119.02-.139.06Z" transform="translate(-897.165 -306.23)" fill="#efdbbc"/>
      <path id="Path_495" data-name="Path 495" d="M888.159,316.62l.06-.02.04.06.039.1-.039.06.02.08-.12.2-.02-.02-.02-.08-.079-.179-.02-.06-.02-.04.04-.08.06-.04Z" transform="translate(-881.948 -305.749)" fill="#efdbbc"/>
      <g id="Group_24" data-name="Group 24" transform="translate(5.933)">
        <path id="Path_209" data-name="Path 209" d="M1065.377,545.97l.12.4-.139.617.179.6-.179.478.079.438-2.33-.02-.159,4.082.717,1.035.717.8-2.071.518-2.687-.179-.757-.6-4.52.04-.159.1-.657-.577-.716-.04-.677.219-.537.239-.1-.8.179-1.135.4-1.175.06-.538.378-1.155.279-.518.657-.837.378-.577.12-.936-.06-.737-.318-.458-.3-.776-.259-.757.059-.279.339-.5-.318-1.234-.239-.856-.557-.816.12-.239.458-.179.339.02.4-.139,3.325.02.259.935.318.776.259.419.418.657.756-.1.358-.179.617.179.179-.318.3-.737.7-.06.06-.219h.577l-.1.458,1.354-.02.02.816.219.478-.179.777.079.8.359.478-.08,1.513.279-.12.477.04.7-.2Z" transform="translate(-1028.067 -499.638)" fill="#e5c28b"/>
        <path id="Path_210" data-name="Path 210" d="M1054.1,532.032l-.3-.956.458-.557.338-.219.419.438-.4.279-.2.319-.04.557Z" transform="translate(-1028.583 -489.515)" fill="#e5c28b"/>
        <path id="BI" d="M1151.616,519.588l-.119.02v-.06l-.4-1.214,0-.012-.018-.207-.279-.577.7.1.338-.737.617.08.06.5.239.3v.418l-.279.259-.458.677Z" transform="translate(-1110.996 -478.283)" fill="#e5c28b"/>
        <path id="BJ" d="M993.885,424.037l-.04.418.259.757-.219.518.119.338-.557.8-.339.4-.219.8.039.816-.06,2.051-.936.159-.279-.876.06-2.947-.239-.259-.04-.637-.4-.438-.338-.378.139-.677.4-.139.219-.558.558-.119.239-.378.378-.378h.4Z" transform="translate(-975.18 -399.329)" fill="#e5c28b"/>
        <path id="BF" d="M962.07,405.039l-.1.617.159.577.617.836.04.617,1.294.3-.02.876-.239.378-.557.119-.219.558-.4.139-.975-.02-.518-.1-.358.2-.5-.1-1.951.06-.039.737.159.956-.776-.319-.518.04-.4.319-.5-.259-.2-.438-.5-.279-.08-.737.319-.538-.04-.438.9-1.055.179-.876.3-.318.537.179.478-.259.159-.338.856-.558.219-.4,1.055-.537.618-.179.278.239Z" transform="translate(-945.497 -383.517)" fill="#e5c28b"/>
        <path id="BW" d="M1102.452,615.3l.378,1.015.219.239.319.737,1.215,1.394.458.139-.02.458.3.816.856.2.677.577-1.613.936-1.035.956-.4.856-.359.478-.6.1-.239.617-.12.4-.716.279-.9-.06-.5-.358-.458-.139-.558.279-.3.617-.538.378-.558.578-.8.139-.219-.458.12-.776-.6-1.214-.279-.2.12-3.723,1.1-.04.159-4.559.837-.04,1.732-.458.4.537.737-.5h.339l.637-.3Z" transform="translate(-1065.839 -566.277)" fill="#e5c28b"/>
        <path id="CF" d="M1078.772,433.525l.777.5.617.518.02.418.776.657.478.558.279.756.856.518.179.4-.358.139-.737-.02-.836-.139-.418.1-.179.318-.358.04-.438-.279-1.254.637-.518-.12-.159.1-.319.777-.856-.259-.816-.12-.717-.478-.936-.438-.6.418-.438.637-.1.9L1072,440l-.776-.219-.657.677-.6,1.195-.119-.378-.06-.577-.518-.418-.418-.657-.1-.458-.537-.677.1-.378-.119-.538.08-1,.279-.219.557-1.294.916-.1.2-.338.2.04.278.279,1.414-.478.478-.5.578-.458-.12-.438.318-.12,1.1.08,1.035-.6.8-1.394.557-.518.717-.219.139.537.657.8v.538l-.16.518.08.4.378.378.1.06Z" transform="translate(-1042.459 -405.662)" fill="#e5c28b"/>
        <path id="CI" d="M941.324,434.479l.5.279.2.438.5.259.4-.319.518-.04.777.319.3,1.832-.478,1.055-.3,1.453.478,1.1-.04.518h-.518l-.777-.239h-.737l-1.334.239-.776.358-1.115.478-.219-.04.08-1.055.12-.159-.04-.5-.478-.538-.358-.08-.319-.358.239-.577-.1-.617.04-.358h.179l.079-.557-.079-.259.1-.179.418-.139-.279-1.035-.258-.518.1-.438.219-.1.159-.119.3.2h.876l.2-.358.2.02.319-.139.179.538.258-.159Z" transform="translate(-927.685 -408.706)" fill="#e5c28b"/>
        <path id="CM" d="M1042.045,426.249l-.557,1.294-.279.219-.079,1,.12.538-.1.378.538.677.1.458.418.657.518.418.06.577.12.378-.08.677-.9-.3-.916-.339-1.414-.04-.14-.08-.677.159-.677-.159-.537.08-1.852-.02.179-1.016-.458-.856-.518-.2-.219-.577-.3-.179.02-.358.279-.916.538-1.234h.318l.677-.757.418-.02.636.538.777-.438.1-.537.259-.518.16-.637.6-.518.219-.9.239-.3.159-.657.279-.816.936-1,.059-.418.12-.239-.458-.5.04-.418.3-.06.458.816.1.836-.04.856.637,1.155h-.637l-.318.08-.518-.12-.239.6.677.757.5.219.159.518.358.876Z" transform="translate(-1012.8 -396.577)" fill="#e5c28b"/>
        <path id="CD" d="M1072.422,468.12l.7,1.055.518.159.3-.219.518.08.617-.259.279.538,1.016.856-.06,1.493.458.179-.378.438-.418.358-.438.657-.239.6-.06,1.015-.259.5-.02.956-.318.358-.04.757-.159.1-.12.717.279.578.02.2-.239,2.051.3.717-.2.537.359.916.677.7.139.7.318.339-.06.219-.179-.06-1.533.219-.3.159-.339.816.239.557-.219,1.513-.179,1.274.3.239.776.5.318-.239.04,1.374h-.857l-.438-.7-.4-.557-.856-.179-.239-.657-.7.4-.876-.179-.379-.577-.7-.119-.538.02-.06-.4-.378-.02-.517-.08-.7.2-.478-.04-.279.119.08-1.513-.358-.478-.08-.8.179-.776-.219-.478-.02-.816-1.354.02.1-.458h-.577l-.06.219-.7.06-.3.737-.179.319-.617-.179-.359.179-.756.1-.418-.657-.259-.418-.318-.776-.259-.936-3.325-.02-.4.139-.339-.02-.458.179-.159-.4.279-.139.04-.557.2-.319.4-.279.3.139.4-.5.617.02.06.358.418.219.677-.8.657-.617.279-.418-.02-1.055.5-1.234.518-.657.736-.617.14-.4.02-.478.179-.438-.059-.737.139-1.135.219-.8.339-.677.06-.777.1-.9.438-.637.6-.418.936.438.717.478.816.119.856.259.318-.776.159-.1.518.12,1.254-.637.438.279.358-.04.179-.319.418-.1.836.139.736.02.358-.139Z" transform="translate(-1032.451 -439.87)" fill="#e5c28b"/>
        <path id="CG" d="M1057.5,478.179l-.06.776-.339.677-.219.8-.139,1.135.06.737-.179.438-.02.478-.139.4-.737.617-.518.657-.5,1.234.02,1.055-.279.418-.657.617-.677.8-.418-.219-.06-.358-.617-.02-.4.5-.3-.139-.418-.438-.339.219-.458.558-.916-1.354.856-.717-.418-.836.4-.318.756-.159.08-.577.617.617,1,.06.339-.6.139-.856-.119-1-.538-.757.5-1.493-.279-.239-.836.1-.319-.657.08-.557,1.413.04.916.338.9.3.08-.677.6-1.195.657-.677.777.219Z" transform="translate(-1025.403 -446.27)" fill="#e5c28b"/>
        <path id="DZ" d="M957.077,263.719l-.2.657.2,1.215-.219,1.055-.637.717.12.956.9.776.02.3.677.518.518,2.29.378,1.135.08.6-.159,1.035.08.6-.119.7.119.8-.438.538.677.936.04.538.418.717.5-.239.9.6.5.8-3.743,2.449-3.185,2.509-1.553.557-1.235.139-.02-.816-.518-.219-.7-.359-.259-.6-3.723-2.787-3.7-2.787-4.082-3.106.02-.239.02-.08.02-1.513,1.772-.956,1.075-.2.9-.338.418-.637,1.274-.5.06-.956.617-.119.5-.458,1.414-.219.2-.5-.279-.279-.378-1.354-.06-.776-.378-.816,1.015-.7,1.155-.219.657-.518,1.015-.4,1.792-.219,1.752-.1.537.179.976-.5,1.135-.02.438.3Z" transform="translate(-928.486 -263.221)" fill="#e5c28b"/>
        <path id="EG" d="M1131.014,299.478l.777,1.872.139.319-.259.518-.139.956-.239.677-.239.219-.4-.418-.537-.557-.936-1.832-.1.12.557,1.334.777,1.294.975,1.991.458.7.4.717,1.075,1.413-.2.219.08.836,1.354,1.155.219.259h-13.12l-.2-4.719-.259-4.539-.4-1.035.219-.776-.2-.557.338-.617,1.433-.02,1.075.339,1.1.378.517.2.8-.4.418-.358.936-.12.776.159.359.637.219-.418.876.3.856.08Z" transform="translate(-1087.46 -291.653)" fill="#e5c28b"/>
        <path id="ER" d="M1197.985,393.069l-.338.319-.478-.119-.4-.418-.5-.737-.518-.418-.3-.438-1-.518-.777-.02-.279-.259-.638.3-.716-.577-.3.956-1.314-.279-.139-.5.4-1.891.06-.836.338-.4.8-.219.538-.717.717,1.473.378,1.175.637.617,1.592,1.215.657.717.637.757.359.438Z" transform="translate(-1145.623 -367.78)" fill="#e5c28b"/>
        <path id="ET" d="M1179.509,406.338l.777.02,1,.518.3.438.518.418.5.737.4.418-.378.557-.359.6.1.359.04.4.637.02.259-.1.259.239-.239.438.438.717.438.617.438.458,3.723,1.513.956-.02-3.106,3.843-1.453.06-1,.9-.717.02-.3.418h-.776l-.458-.438-1.035.538-.319.538-.757-.119-.259-.139-.259.04-.359-.02-1.433-1.075h-.8l-.378-.418-.02-.717-.578-.219-.7-1.394-.517-.3-.2-.518-.6-.617-.7-.1.378-.717.6-.04.159-.378-.04-1v-.159l.3-1.334.518-.358.1-.518.459-1,.657-.617.4-1.274.139-1.1,1.314.279.3-.956.717.577.637-.3Z" transform="translate(-1135.534 -385.083)" fill="#e5c28b"/>
        <path id="GA" d="M1041.038,486.98l-.08.558.319.657.836-.1.278.239-.5,1.493.537.756.12,1-.139.856-.339.6-1-.06-.617-.617-.079.577-.757.159-.4.318.418.836-.856.717-1.155-1.294-.737-1.055-.7-1.314.04-.438.259-.4.259-.936.239-.956.378-.06h1.633V486.98l.537-.08.677.159.677-.159Z" transform="translate(-1014.12 -453.51)" fill="#e5c28b"/>
        <path id="GH" d="M971.683,430.7l-.079.4.458.657v.936l.12,1,.279.478L972.2,435.3l.1.637.3.816.259.458-1.772.737-.637.438-1.016.378-1-.358.04-.518-.478-1.1.3-1.453.478-1.055-.3-1.832-.159-.956.04-.737,1.951-.06.5.1.359-.2Z" transform="translate(-955.963 -405.582)" fill="#e5c28b"/>
        <path id="GN" d="M905.082,421.179l.06.478h.179l.3-.179.179.04.319.339.478.1.3-.279.378-.179.259-.179.219.04.259.279.119.358.458.538-.219.318-.06.418.239-.119.14.139-.06.378.338.378-.219.1-.1.438.259.518.279,1.035-.418.139-.1.179.08.259-.08.558h-.179l-.319-.04-.219.518h-.319l-.219-.279.08-.518-.478-.776-.279.139-.259.04-.3.06.02-.458-.179-.339.04-.378-.239-.538-.318-.458h-.9l-.259.239-.318.04-.2.279-.12.338-.617.577-.478-.757-.438-.5-.279-.179-.279-.259-.12-.557-.159-.279-.338-.219.518-.617.338.02.3-.2.239-.02.179-.159-.08-.418.119-.139.02-.438.537.02.816.3.239-.02.08-.139.617.1Z" transform="translate(-898.292 -397.275)" fill="#e5c28b"/>
        <path id="GQ" d="M1041.33,487.22v1.533H1039.7l-.378.06-.219-.179.379-1.434Z" transform="translate(-1016.201 -452.955)" fill="#e5c28b"/>
        <path id="KE" d="M1187.459,468.531l-.975,1.433.04,4.659.657,1.055-.8.518-.279.538-.438.079-.159.916-.378.518-.219.836-.458.418-1.613-1.274-.059-.737-4.081-2.608.08-.936-.279-.5v-.06l.319-.518.557-.836.418-.936-.518-1.473-.139-.637-.538-.9.677-.757.757-.836.577.219.02.717.378.418h.8l1.433,1.075.359.02.259-.04.258.139.757.12.318-.538,1.035-.537.458.438h.777Z" transform="translate(-1135.819 -436.784)" fill="#e5c28b"/>
        <path id="LR" d="M924.985,448.095l-.04.358.1.617-.239.577.319.358.358.08.478.538.04.5-.12.159-.08,1.055-.3.02-1.155-.617-1.035-.976-.956-.7-.757-.816.279-.418.06-.378.518-.677.518-.6.259-.04.279-.139.478.776-.08.518.219.279h.318l.219-.518Z" transform="translate(-914.791 -419.245)" fill="#e5c28b"/>
        <path id="LY" d="M1054.524,291.091l-.339.617.2.557-.219.776.4,1.035.259,4.539.2,4.719.1,2.548h-1.274v.537l-4.5-2.449-4.48-2.449-1.095.7-.757.478-.637-.7-1.752-.558-.5-.8-.9-.6-.5.239-.418-.717-.04-.538-.677-.936.438-.538-.12-.8.12-.7-.08-.6.159-1.035-.079-.6-.379-1.135.518-.279.08-.557-.12-.518.717-.5.319-.418.518-.358.02-.976,1.274.438.458-.12.9.219,1.454.577.557,1.135.975.239,1.553.538,1.195.637.5-.339.5-.577-.319-.976.3-.637.737-.6.736-.159,1.473.259.4.557.4.02.359.219,1.075.139Z" transform="translate(-1016.597 -283.724)" fill="#e5c28b"/>
        <path id="LS" d="M1134.535,688.129l-.4.139-.737-1,.637-.8.617-.5.538-.279.438.4.339.4-.378.617-.219.418-.617.2Z" transform="translate(-1096.316 -622.741)" fill="#e5c28b"/>
        <path id="MA" d="M908.325,272.957l.378.816.06.776.378,1.354.279.279-.2.5-1.414.219-.5.458-.617.119-.06.956-1.274.5-.418.637-.9.338-1.075.2-1.772.956-.02,1.513H901l.02.677-.677.04-.358.3h-.5l-.4-.179-.916.139-.378,1-.359.1-.537,1.613-1.573,1.374-.4,1.772-.478.577-.139.458-2.489.1h-.02l.06-.6.438-.339.378-.677-.059-.438.4-.9.637-.816.378-.2.318-.737.04-.7.418-.776.756-.478.717-1.294.02-.02.577-.5,1.015-.139.876-.876.557-.339.936-1.075-.239-1.573.438-1.115.179-.677.717-.856,1.075-.577.816-.538.737-1.314.358-.8.776.02.617.537,1.016-.08,1.1.279Z" transform="translate(-890.924 -270.189)" fill="#e5c28b"/>
        <path id="MG" d="M1234.663,581.051l.08,1.533.259.6-.14.617-.239.358-.318-.737-.239.378.159.936-.14.557-.339.279-.139,1.095-.538,1.493-.677,1.752-.856,2.429-.577,1.772-.618,1.493-.916.3-1.015.537-.6-.319-.836-.458-.239-.677v-1.135l-.3-1.015-.04-.936.259-.916.518-.219.04-.418.578-.976.159-.816-.219-.6-.159-.816-.02-1.174.438-.717.2-.816.557-.04.637-.259.438-.239.478-.02.677-.717.976-.8.358-.637-.12-.557.478.159.657-.876.06-.776.4-.577.358.557.279.538Z" transform="translate(-1178.623 -537.365)" fill="#e5c28b"/>
        <path id="ML" d="M936.357,348.926l.02,2.947-.617.856-.08.8-1,.2-1.533.1-.4.458-.717.06h-.717l-.279-.239-.617.179-1.055.538-.219.4-.856.558-.159.338-.478.259-.537-.179-.3.319-.179.876-.9,1.055.039.438-.318.538.08.737-.478.2-.259.159-.179-.538-.318.139-.2-.02-.2.358h-.876l-.3-.2-.159.119-.339-.378.06-.378-.139-.139-.239.119.06-.418.219-.319-.458-.538-.12-.358-.259-.279-.219-.04-.259.179-.378.179-.3.279-.478-.1-.318-.339-.179-.04-.3.179h-.179l-.06-.478.06-.4-.1-.478-.4-.358-.219-.737-.04-.8.378-.239.2-.757.358-.02.776.358.637-.259.418.08.179-.279,4.48-.02.259-.9-.2-.159-.5-5.515-.478-5.515,1.692-.02,3.7,2.787,3.723,2.787.259.6.7.359.518.219.02.816Z" transform="translate(-911.908 -330.307)" fill="#e5c28b"/>
        <path id="MZ" d="M1157.971,589.085h-.816l-.06-.577-.119-.577-.08-.458.279-1.414-.219-.916-.438-1.792,1.235-1.453.338-.916.159-.12.179-.757-.159-.378.08-.956.259-.876.079-1.633-.557-.4-.537-.1-.219-.318-.518-.259-.935.02-.04-.478-.079-.916,3.424-1.055.637.617.3-.119.438.319.04.518-.259.6.04.9.7.8.378-.9.5-.259-.02-1.652-.438-.916-.379-.418h-.079l-.12-1.453.3-1.214.438-.04,1.334.359.3-.159.776-.04.418-.378.677.02,1.234-.5.916-.737.179.557-.1,1.274.1,1.135-.04,1.991.159.617-.379.916-.478.9-.736.8-1.055.478-1.294.617-1.314,1.374-.438.239-.836.916-.458.279-.159.916.478.976.179.736v.4l.2-.08-.1,1.254-.219.6.239.219-.2.537-.478.458-.936.418-1.374.7-.5.478.06.538.259.079Z" transform="translate(-1117.014 -528.555)" fill="#e5c28b"/>
        <path id="MR" d="M904.979,329.006l-1.692.02.478,5.515.5,5.515.2.159-.259.9-4.48.02-.179.279-.418-.08-.637.259-.776-.358-.359.02-.2.757-.378.239-.717-.876-.677-.956-.716-.338-.538-.358h-.617l-.557.279-.538-.1-.4.4-.08-.677.319-.637.159-1.195-.08-1.274-.119-.637.119-.637-.279-.6-.557-.557.258-.418h4.32l-.179-1.852.3-.657,1.035-.1.04-3.285,3.584.08.04-1.951Z" transform="translate(-890.684 -313.198)" fill="#e5c28b"/>
        <path id="MW" d="M1172.529,566.635h.079l.378.418.438.916.02,1.652-.5.259-.378.9-.7-.8-.04-.9.259-.6-.04-.518-.438-.319-.3.119-.637-.617-.578-.318.4-1.195.359-.438-.179-1.075.259-1.036.2-.339-.259-1.075-.518-.578,1.095.239.2.339-.02.159.359.816.04,1.533-.358.717.318.936-.04.557.239.378-.02.478.179.279.2-.318.379.5.039-.159-.2-.677-.219-.06Z" transform="translate(-1127.615 -516.984)" fill="#e5c28b"/>
        <path id="NA" d="M1064.782,611.337l.916-.279.717.06.438.3v.1l-.637.3h-.339l-.737.5-.4-.538-1.732.458-.836.04-.159,4.559-1.1.04-.12,3.723-.219,4.719-1,.657-.577.1-.677-.239-.5-.1-.159-.537-.4-.358-.558.637-.776-.976-.4-.916-.2-1.255-.239-.916-.319-1.971.02-1.533-.12-.7-.418-.538-.558-1.055-.557-1.533-.218-.8-.876-1.255-.06-.976.538-.239.677-.219.717.04.657.577.159-.1,4.52-.04.757.6,2.688.179Z" transform="translate(-1028.605 -562.594)" fill="#e5c28b"/>
        <path id="NE" d="M1004.048,351.877l.318,1.991.438.338.02.4.478.438-.239.558-.358,2.588-.039,1.672-1.394,1.195-.458,1.692.478.478v.816l.737.02-.119.617-.3.06-.04.418-.2.02-.776-1.394-.278-.06-.856.717-.876-.378-.6-.06-.318.179-.657-.04-.657.538-.578.04-1.354-.657-.537.3-.577-.02-.418-.478-1.115-.478-1.214.159-.279.259-.16.737-.318.518-.08,1.155-.856-.737h-.4l-.378.378.02-.876-1.295-.3-.04-.617-.617-.836-.159-.577.1-.617.717-.06.4-.458,1.533-.1,1-.2.079-.8.617-.856-.02-2.947,1.553-.558,3.186-2.509,3.743-2.449,1.752.558.637.7Z" transform="translate(-973.913 -338.292)" fill="#e5c28b"/>
        <path id="NG" d="M1014.462,414.572l.458.5-.119.239-.06.418-.936,1-.279.816-.159.657-.239.3-.219.9-.6.518-.159.637-.259.518-.1.538-.776.438-.637-.537-.418.02-.677.757h-.318l-.538,1.234-.278.916-1.175.458-.418-.06-.438.279-.9-.02-.617-.816-.378-.916-.8-.836H1001.6l.06-2.051-.04-.816.219-.8.339-.4.557-.8-.119-.339.219-.518-.259-.757.04-.418.08-1.155.319-.518.159-.737.279-.259,1.215-.159,1.115.478.418.478.578.02.538-.3,1.354.657.577-.04.657-.538.657.04.318-.179.6.06.876.378.857-.717.278.06.777,1.394Z" transform="translate(-985.227 -390.82)" fill="#e5c28b"/>
        <path id="RW" d="M1152.393,509.1l.438.717-.06.757-.318.159-.617-.08-.338.737-.7-.1.12-.717.159-.1.04-.757.319-.358.278.139Z" transform="translate(-1111.008 -471.611)" fill="#e5c28b"/>
        <path id="EH" d="M900.938,324.3l-.02.08-.02.239-.04,1.951-3.584-.08-.04,3.285-1.035.1-.3.657.179,1.852h-4.32l-.259.418.06-.538h.02l2.489-.1.139-.458.478-.577.4-1.772,1.573-1.374.538-1.613.358-.1.379-1,.915-.139.4.179h.5l.358-.3.677-.04-.02-.677Z" transform="translate(-890.684 -311.916)" fill="#e5c28b"/>
        <path id="SD" d="M1126.047,370.276l-.139,1.1-.4,1.274-.657.617-.458,1-.1.518-.518.358-.3,1.334v.159l-.159-.04.02-.637-.159-.438-.577-.5-.179-.916.12-.956-.518-.079-.08.279-.677.08.3.359.1.777-.6.7-.537.916-.577.139-.956-.737-.418.259-.1.358-.577.259-.04.259h-1.115l-.159-.259-.817-.06-.4.219-.318-.1-.578-.756-.2-.339-.816.179-.3.577-.259,1.155-.4.239-.339.139-.1-.06-.379-.378-.08-.4.16-.518v-.538l-.657-.8-.139-.538v-.318l-.418-.378-.02-.737-.259-.5-.378.08.1-.478.279-.518-.139-.537.358-.4-.239-.3.259-.777.5-.956.956.1-.219-5.077v-.538h1.275l-.1-2.548h13.12l.419,1.254-.24.219.24,1.334.5,1.513.438.318.637.478-.537.717-.8.219-.338.4-.06.836-.4,1.891Z" transform="translate(-1078.91 -346.569)" fill="#e5c28b"/>
        <path id="SS" d="M1132.609,426.764l.04,1-.159.378-.6.04-.378.717.7.1.6.617.2.518.517.3.7,1.394-.756.836-.677.757-.7.6h-.8l-.9.3-.717-.3-.458.358-1.015-.856-.279-.537-.617.259-.518-.08-.3.219-.518-.159-.7-1.055-.179-.4-.856-.518-.278-.757-.478-.558-.776-.657-.02-.418-.617-.518-.776-.5.339-.139.4-.239.259-1.155.3-.577.816-.179.2.338.578.757.318.1.4-.219.816.06.159.259h1.115l.04-.259.578-.259.1-.358.419-.259.956.737.577-.139.538-.916.6-.7-.1-.776-.3-.358.677-.08.08-.279.518.08-.12.956.179.916.577.5.159.438-.02.637Z" transform="translate(-1087.692 -399.583)" fill="#e5c28b"/>
        <path id="SN" d="M893.492,397.829l.04.8.219.737.4.359.1.478-.06.4-.159.08-.617-.1-.08.139-.239.02-.816-.3-.538-.02-2.071-.06-.3.159-.379-.04-.6.2-.159-.976,1.016.02.279-.179h.2l.418-.3.478.259.478.04.5-.3-.219-.358-.378.2h-.339l-.438-.319-.359.02-.259.318-1.214.02-.458-1-.537-.438.5-.259.557-.9.279-.657.4-.4.537.1.558-.279h.617l.537.358.717.338.677.956Z" transform="translate(-887.4 -375.311)" fill="#e5c28b"/>
        <path id="SL" d="M914.885,439.41l-.518.6-.518.677-.06.378-.279.418-.3-.1-.8-.518-.6-.677-.179-.478-.139-.936.617-.577.12-.338.2-.279.318-.04.259-.239h.9l.319.458.239.538-.04.378.179.338-.019.458Z" transform="translate(-906.701 -410.886)" fill="#e5c28b"/>
        <path id="SZ" d="M1156.253,666.819l.12.577.06.577-.278.558-.637.139-.617-.7.02-.438.338-.478.119-.379.339-.08Z" transform="translate(-1114.411 -607.444)" fill="#e5c28b"/>
        <path id="TD" d="M1073.708,356.4l.219,5.077-.955-.1-.5.956-.259.776.239.3-.359.4.139.538-.278.518-.1.478.378-.08.259.5.02.737.418.378v.319l-.717.219-.557.518-.8,1.394-1.035.6-1.1-.08-.318.12.119.438-.578.458-.478.5-1.413.478-.279-.279-.2-.04-.2.339-.916.1.16-.358-.358-.876-.16-.518-.5-.219-.677-.757.239-.6.518.119.319-.08h.637l-.637-1.155.04-.856-.1-.836-.458-.816.119-.617-.737-.02v-.816l-.478-.478.458-1.692,1.394-1.195.04-1.672.358-2.588.239-.557-.478-.438-.02-.4-.438-.339-.319-1.991,1.1-.7,4.48,2.449,4.5,2.449Z" transform="translate(-1037.068 -339.001)" fill="#e5c28b"/>
        <path id="TG" d="M987.155,431.12l-.139.677.339.378.4.438.039.637.239.259-.06,2.947.279.876-.9.279-.259-.458-.3-.816-.1-.637.259-1.135-.279-.478-.12-1v-.936l-.458-.657.08-.4Z" transform="translate(-971.197 -405.843)" fill="#e5c28b"/>
        <path id="TN" d="M1030.981,267.476l-.02.975-.518.358-.319.418-.716.5.12.518-.08.557-.518.279-.517-2.29-.677-.518-.02-.3-.9-.776-.12-.956.637-.717.219-1.055-.2-1.214.2-.657,1.135-.5.737.139v.657l.876-.478.079.239-.5.637.02.577.378.319-.1,1.115-.7.637.239.7.557.02.279.617Z" transform="translate(-1005.846 -262.1)" fill="#e5c28b"/>
        <path id="TZ" d="M1156.589,508.32l-.04.777-.219.9.318.5.5-.3.657-.079.139.159.657-.318-.458-.438.379-.577.557-.577,4.082,2.608.06.737,1.613,1.274-.557,1.593.06.717.7.458.039.339-.338.776.06.378-.079.617.358.8.438,1.274.4.279-.916.737-1.234.5-.677-.02-.418.379-.776.04-.3.159-1.334-.358-.438.04.02-.02-.359-.478-.06-1.354-.578-.677-.079.239-.2-.338-1.1-.239-.637-.378-.717-.219-.438-.219-.06-.04-.537-1.314-.08-.776-.9-.876.278-.478-.219-.518.04-.538-.2-.179.06-.557.12-.02.4-.458.458-.677.279-.259v-.418l-.239-.3-.06-.5.318-.159.06-.757-.438-.717.4-.159Z" transform="translate(-1115.486 -472.624)" fill="#e5c28b"/>
        <path id="UG" d="M1158.977,474.5l.538.9.139.637.518,1.473-.418.936-.557.836-.319.518v.06l-.04-.08-.6-.259-.478.318-.717.179-.518.737.06.5-1.235-.02-.4.159-.677.4-.279-.139.02-.956.259-.5.059-1.015.239-.6.438-.657.418-.358.378-.438-.458-.179.06-1.493.458-.358.718.3.9-.3h.8Z" transform="translate(-1114.409 -442.853)" fill="#e5c28b"/>
        <path id="ZM" d="M1119.572,555.118l.06.04.438.219.717.219.637.378.518.577.259,1.075-.2.338-.258,1.035.179,1.075-.358.438-.4,1.195.578.318-3.425,1.055.079.916-.856.179-.657.5-.159.438-.4.119-1.016,1.035-.637.836-.378.02-.358-.139-1.234-.139-.2-.1v-.1l-.438-.3-.717-.06-.916.279-.717-.8-.717-1.035.159-4.082,2.329.02-.079-.438.179-.478-.179-.6.139-.617-.119-.4.378.02.06.4.538-.02.7.12.378.577.876.179.7-.4.239.657.856.179.4.558.438.7h.856l-.04-1.374-.319.239-.777-.5-.3-.239.18-1.274.219-1.513-.239-.557.338-.816.3-.159,1.533-.219.179.06-.06.279.378.1.239.259.2-.06Z" transform="translate(-1077.208 -512.047)" fill="#e5c28b"/>
        <path id="ZW" d="M1133.932,610.021l-.577-.14-.378.16-.538-.219H1132l-.677-.578-.856-.2-.3-.816.02-.458-.458-.139-1.215-1.394-.318-.737-.219-.239-.378-1.015,1.235.139.358.139.378-.02.638-.836,1.015-1.035.4-.12.159-.438.657-.5.856-.179.04.478.936-.02.517.259.219.319.537.1.558.4-.08,1.633-.259.876-.08.956.16.378-.179.757-.159.12-.339.916-1.235,1.454Z" transform="translate(-1092.305 -551.121)" fill="#e5c28b"/>
        <path id="SO" d="M1219.3,442.121l-.657-1.055-.04-4.659.976-1.434.3-.418.717-.02,1-.9,1.453-.06,3.106-3.843-.956.02-3.723-1.513-.439-.458-.438-.617-.438-.717.239-.438.379-.7.378.239.239.538.538.538h.557l1.036-.339,1.214-.139.976-.4.557-.08.4-.239.637-.04.358-.04.5-.179.6-.139.5-.438h.438l.04.358-.08.737.04.677-.219.458-.278,1.394-.478,1.414-.657,1.633-.916,1.872-.936,1.434-1.314,1.752-1.115,1.035-1.672,1.274-1.055.956-1.234,1.553-.259.677Z" transform="translate(-1172.376 -401.503)" fill="#e5c28b"/>
        <path id="ZA" d="M1092.365,643.9l.438,1.792.219.916-.279,1.413.08.458-.538-.219-.338.08-.12.378-.339.478-.02.438.618.7.637-.139.279-.557h.816l-.338.936-.2,1.055-.338.578-.8.657-.219.179-.518.657-.358.657-.7.916-1.334,1.314-.816.757-.856.6-1.175.478-.537.08-.179.359-.637-.2-.537.239-1.135-.239-.657.159-.438-.08-1.155.518-.915.2-.7.478-.478.04-.418-.458-.358-.02-.438-.577-.06.179-.119-.339.06-.757-.3-.856.358-.239.02-.976-.657-1.194-.478-1.075v-.02l-.717-1.652.557-.637.4.358.159.537.5.1.677.239.577-.1,1-.657.219-4.719.279.2.6,1.215-.12.776.219.458.8-.139.557-.578.537-.378.3-.617.557-.279.458.139.5.358.9.06.717-.279.12-.4.239-.617.6-.1.358-.478.4-.856,1.035-.956,1.612-.936h.439l.537.219.379-.159.577.14Zm-4.042,10.592.219-.4.617-.2.219-.418.378-.617-.338-.4-.438-.4-.538.279-.617.5-.637.8.737,1,.4-.139Z" transform="translate(-1049.47 -589.103)" fill="#e5c28b"/>
        <path id="Path_343" data-name="Path 343" d="M1232.319,580.659l-.179-.02-.04-.08v-.06l.1.02.139.1Z" transform="translate(-1183.188 -531.825)" fill="#e5c28b"/>
        <path id="Path_344" data-name="Path 344" d="M1235.7,579.32l.04.2v.139l-.02.04-.04-.06-.08-.06-.02-.04-.06-.02-.12-.08.02-.02.1.04.06-.02.04-.08v-.04l.06-.02Z" transform="translate(-1185.831 -530.847)" fill="#e5c28b"/>
        <path id="Path_345" data-name="Path 345" d="M1230.159,575.517l-.1-.08-.06-.02-.06-.04-.04-.119.02-.06v-.04l.039-.239-.02-.02.04-.079.1-.02.04.06-.04.239.02.06.04.08.02.1.04.12Z" transform="translate(-1181.426 -527.084)" fill="#e5c28b"/>
        <path id="Path_391" data-name="Path 391" d="M1305.778,630.239l.08.179-.04.119-.08.08.02.06-.06.06-.1.04h-.1l-.12-.02-.02.02-.06-.06.04-.04.02-.08.02-.139.039-.079.1-.08.02-.04.04-.1.08-.06.079.02Z" transform="translate(-1241.813 -573.939)" fill="#e5c28b"/>
        <path id="Path_452" data-name="Path 452" d="M1023.18,499.618h-.04l-.04.06h-.04l-.02-.079-.04-.159v-.06l.079-.1.06-.02.059-.06.08.02.04.08.02.06-.02.079-.04.06-.06.08Z" transform="translate(-1002.384 -462.992)" fill="#e5c28b"/>
        <path id="Path_453" data-name="Path 453" d="M1028.019,491.02l-.02.06-.04.02-.06-.02v-.06l.04-.02v-.06l.04-.04.059.02Z" transform="translate(-1006.522 -455.927)" fill="#e5c28b"/>
        <path id="Path_454" data-name="Path 454" d="M1247.719,561.94l-.06.04h-.1l-.08.04h-.08v-.04h.1l.08-.02.079-.06h.04Z" transform="translate(-1195.441 -516.062)" fill="#e5c28b"/>
        <path id="Path_455" data-name="Path 455" d="M1248.019,561.72l-.04.02h-.079v-.04Z" transform="translate(-1195.842 -515.881)" fill="#e5c28b"/>
        <path id="Path_456" data-name="Path 456" d="M1300.16,531.26l.08.08-.04.06-.04-.06-.06-.04.04-.1Z" transform="translate(-1237.649 -490.067)" fill="#e5c28b"/>
        <path id="YT" d="M1239.96,583.1l.04.06.1.04v.06l-.039.04.02.04-.06.12.02.04-.06.02-.039-.06v-.06l.039-.04-.039-.14-.02-.02-.02-.04Z" transform="translate(-1189.434 -534.069)" fill="#e5c28b"/>
        <path id="RE" d="M1293.718,635.8h.08l.08.04.06.06v.06l.02.1.06.04.04.04.02.04-.04.12-.02.08-.04.04-.08.02h-.179l-.04-.04-.159-.08-.06-.1v-.06l-.06-.12.02-.08.04-.04.04-.08h.02l.1-.04Z" transform="translate(-1232.283 -582.776)" fill="#e5c28b"/>
      </g>
    </g>
  </g>
</svg>
