<svg xmlns="http://www.w3.org/2000/svg" width="55.235" height="67.334" viewBox="0 0 55.235 67.334">
  <g id="Group_43" data-name="Group 43" transform="translate(-1316 -5122)">
    <g id="Group_42" data-name="Group 42" transform="translate(1316 5122)">
      <g id="Group_41" data-name="Group 41" transform="translate(0 0)">
        <g id="eucalyptus">
          <g id="Group_40" data-name="Group 40" transform="translate(1.315 1.315)">
            <path id="Path_846" data-name="Path 846" d="M226.521,24.466c0,7.989-5.26,14.466-5.26,14.466S216,32.456,216,24.466,221.26,10,221.26,10,226.521,16.477,226.521,24.466Z" transform="translate(-194.958 -10)" fill="#464e25"/>
            <path id="Path_847" data-name="Path 847" d="M319.45,285.45C314,290.9,306,291.727,306,291.727s.829-8,6.277-13.45S325.727,272,325.727,272,324.9,280,319.45,285.45Z" transform="translate(-273.122 -237.544)" fill="#464e25"/>
            <path id="Path_848" data-name="Path 848" d="M62.277,209.45c5.447,5.447,13.45,6.277,13.45,6.277s-.829-8-6.277-13.45S56,196,56,196,56.829,204,62.277,209.45Z" transform="translate(-56 -171.539)" fill="#464e25"/>
            <path id="Path_849" data-name="Path 849" d="M319.45,129.45C314,134.9,306,135.727,306,135.727s.829-8,6.277-13.45S325.727,116,325.727,116,324.9,124,319.45,129.45Z" transform="translate(-273.122 -102.06)" fill="#464e25"/>
          </g>
          <path id="Path_850" data-name="Path 850" d="M99.785,34.463c-.346.036-8.533.943-14.244,6.655-5,5-6.317,11.887-6.593,13.766L74.933,58.9V42.1l5.874-5.874c1.879-.276,8.769-1.6,13.766-6.593,5.712-5.712,6.619-13.9,6.655-14.244a1.315,1.315,0,0,0-1.444-1.444c-.346.036-8.533.943-14.244,6.655-5,5-6.317,11.887-6.593,13.766l-4.015,4.014V30.7c1.159-1.555,5.26-7.578,5.26-14.914,0-8.36-5.328-15.016-5.555-15.3a1.315,1.315,0,0,0-2.042,0c-.227.279-5.555,6.935-5.555,15.3,0,7.335,4.1,13.358,5.26,14.914V48.9l-4.015-4.015c-.276-1.879-1.6-8.769-6.593-13.766-5.712-5.712-13.9-6.619-14.244-6.655a1.315,1.315,0,0,0-1.444,1.444c.036.346.943,8.533,6.655,14.244,5,5,11.887,6.317,13.766,6.593L72.3,52.624v13.4a1.315,1.315,0,0,0,2.63,0v-3.4l5.874-5.874c1.879-.276,8.769-1.6,13.766-6.593,5.712-5.712,6.619-13.9,6.655-14.244a1.315,1.315,0,0,0-1.444-1.444Zm-12.384-12a22.687,22.687,0,0,1,10.9-5.586,22.688,22.688,0,0,1-5.586,10.9,21.133,21.133,0,0,1-8.338,4.885l8.584-8.584a1.315,1.315,0,1,0-1.86-1.86L82.515,30.8A21.134,21.134,0,0,1,87.4,22.462ZM54.522,38.3a22.688,22.688,0,0,1-5.586-10.9,22.688,22.688,0,0,1,10.9,5.586,21.135,21.135,0,0,1,4.885,8.338l-8.584-8.584a1.315,1.315,0,0,0-1.86,1.86l8.584,8.584A21.135,21.135,0,0,1,54.522,38.3Zm15.15-22.515c0-5.272,2.492-9.918,3.945-12.179,1.454,2.262,3.945,6.908,3.945,12.179a22.085,22.085,0,0,1-2.63,9.9V13.151a1.315,1.315,0,0,0-2.63,0v12.53a22.087,22.087,0,0,1-2.63-9.9Zm23.041,32.51a21.133,21.133,0,0,1-8.338,4.885l8.584-8.584a1.315,1.315,0,0,0-1.86-1.86l-8.584,8.584A21.132,21.132,0,0,1,87.4,42.978a22.687,22.687,0,0,1,10.9-5.586A22.687,22.687,0,0,1,92.713,48.291Z" transform="translate(-46 0)" fill="#464e25"/>
        </g>
      </g>
    </g>
  </g>
</svg>
