<svg xmlns="http://www.w3.org/2000/svg" width="162.516" height="162.516" viewBox="0 0 162.516 162.516">
  <g id="Groupe_107" data-name="Groupe 107" transform="translate(0 0)">
    <g id="Master_Combo_Bowl" data-name="Master/Combo/Bowl" transform="translate(0 0)">
      <g id="Backgrounds_Circle" data-name="Backgrounds/Circle" transform="translate(0 0)">
        <g id="Backgrounds_Circle_Peach" data-name="Backgrounds/Circle/Peach">
          <path id="Oval-Copy" d="M81.258,0A81.258,81.258,0,1,1,0,81.258,81.258,81.258,0,0,1,81.258,0Z" fill="#fde4d8"/>
        </g>
      </g>
      <g id="Bowl_Plate" data-name="Bowl Plate" transform="translate(28.93 67.575)">
        <g id="Bowl_Plate_Square_Orange" data-name="Bowl Plate/Square Orange" transform="translate(0 0)">
          <g id="Bowl-Red-White" transform="translate(0 0)">
            <g id="Color" transform="translate(1.898 0.208)">
              <path id="Fill-4" d="M52.71.092c75.741-2.35,60.426,41.261,12.686,43.766-19.667,1.568-57.612-.412-63.748-18.08-3.256-7.079,1.787-10.19,5.817-13.79C20.633,2.1,37.15,1.26,52.71.092" transform="translate(-0.605)" fill="#7973e7" fill-rule="evenodd"/>
              <path id="Fill-6" d="M3.192,268.681c1.512,3.122,3.506,4.7,6.39,6.684,10.393,7.137,25,7.323,33.1,9.1,20.146,1.513,54.618-3.031,63.068-20.832-.872,4.807-2.418,10.608-3.073,14.346-5.331,30.4-5.241,27.783-18.975,31.508-23.7,7.219-53.381,8.326-72.835-3.339C6.2,304.176,2.857,286.63,1.3,275.366a46.843,46.843,0,0,1,0-10.253Z" transform="translate(-0.964 -239.804)" fill="#fbcf75" fill-rule="evenodd"/>
            </g>
            <g id="Outline">
              <path id="Fill-1" d="M2.235,28.471c1.276,15.662,6.23,34.755,8.952,36.86C33.5,80.12,66.687,76.156,84.633,70.539c5.052-1.712,12.514-4.6,12.954-7.126A301.135,301.135,0,0,0,105.4,27.366C93.924,54.055,9.687,50.221,2.235,28.471M53.554,3C19.03,3.882-12.722,17.993,11.491,35.454c14.551,8.64,43.874,8.8,53.327,7.939,14.821-.465,45.05-7.85,38.948-27.188C95.164,2.185,62.636,2.806,53.554,3M.331,29.334c0-.825-.855-6.287.188-8.558,1.873-4.151,5.4-6.987,9.01-9.527C29.914-2.546,79.84-1.609,96.508,7.167c16.218,8.239,10.353,20.527,9.31,28.805-3.052,15.874-5.806,28.775-7.946,30.3-10.444,7.666-27.74,9.67-34.9,10.467-18.091,2.1-37.33-.04-53.136-9.864C2.844,56.06,1.19,34,.331,29.334" transform="translate(0 -0.703)" fill-rule="evenodd"/>
            </g>
          </g>
        </g>
      </g>
      <g id="Bowl_Food" data-name="Bowl Food" transform="translate(30.582 39.582)">
        <g id="Bowl_Food_Soup" data-name="Bowl Food/Soup" transform="translate(0 0)">
          <g id="Fish-Soup" transform="translate(0 0)">
            <g id="Color-2" data-name="Color" transform="translate(0 1.573)">
              <path id="Fill-1-2" data-name="Fill-1" d="M28.752,342.616c-1.134,1.97,5.406,2.837,4.118.679-.574-.864-2.264.139-2.632-.789.569-3.83-2.018-3.471-1.487.11Zm2.94-19.272c.939,4.94,6.429,1.421,5-2.278-1.573-1.954-5.136.056-5,2.278Zm-8.276,5.6c-.307,1.186.534,3.68,1.529,1.5-.109-2.275.568-6.715-.92-6.791-1.316.147-3.93,4.559-4.131,5.383.359,1.405,1.48.514,1.927-.522l1.6.427Zm19.414,6.027c.653-3.281-3.43-2.724-4.213-.333.479,1.441,1.482,2.576,2.059,4.128,1.622,3.614,5.86-2.986,2.155-3.795Zm-34.9,1.377c-1.373-3.955-3.455.769-3.723,2.5,1.046,1.685,1.827-.873,2.291-1.807,1.647,4.463,3.532-.075,3.633-2.252-.986-1.27-2.036.342-2.2,1.557ZM48.558,330.3h0c3.794-7.023-8.421-1.545-.981-1.734-2.7,4.291-.63,4.3,2.842,2.586.638-1.37-.693-1.416-1.862-.853ZM58,356.286c1.676-.142,2.208-2.325,2.069-3.905,3.662-1.167-1.327-2.005-2.855-1.431-.94.457-.215,1.828.887,1.41-.192.7.189,2.334-.918,2.548-2.6.068-1.3,2.243.818,1.379Zm33.262-17.24c.53-.16.672-.6.735-1.1,1.617.817,3.21-2.164-.328-1.668.07-.5.011-.334,1.069-.49,4.612-1.016-1.055-2.533-2.392-.955-.326,1.2-1.457,6.561.916,4.215Zm1.772,3.1c.649-1.341-1.7-1.589-2.595-1.328-4.1,3.13,2.994,6.957,2.595,1.328Zm-81.765.44c-1.082,4.316,6.693,4.09,1.872,1.275a1.2,1.2,0,0,1-.27-1.155c.264-.357.647-.95,1.308-.487,3.562,1.242-.307-5-2.91.367Zm29-13.9-.005,0c2.328,1.32,6.068-2.627,3.521-4.669-4.683-1.946-6.539,3.947-3.516,4.671Zm-7.071,6.04-.005.007c2.869-3.827-3.746-7.522-5.858-3.471-2,3.651.021,4.342,1.822,6.631,1.435.606,3.992-1.929,4.042-3.167Zm3.72,16.853,0,0c1.186-.845,1.555-1.412-.031-2.241-.158-1.155-.656-2.405-2.014-.644v0c-1.409.646-2.912,5.583-.189,3.471.573.554,1.715.168,2.236-.585Zm30.617,2.579v0c1.18,2.574,4.169-.349,3.079-2.364-1.648-1.983-4.4.419-3.079,2.367ZM22.579,338.6l0,0c.077-.181-.435-.952.093-1.151,4.137-2.892-4.388-1.556-3.874.022.561,1.508,1.889-.544,2.114,1.055.585,3.58,3.016,3.467,1.665.069Zm3.988,10.684c.2-.172.431-.486.777-.843l0,0c.7-.908.85-2.9-.643-3.416.409-.416.4-1.69-.647-1.567-.792.126-1.2,1.222-2.123.7-7.709.111-2.82,12.847,2.647,5.112Zm65.775,1.859c.622.518,1.913-.294.979-1.208-.089-.3-1.305-.368-.906-.975.838-1.914-1.69-2.739-3.085-1.655l0-.007c-3.482.482-.287,6.289.64,4.956.851-.7.13-2.311,2.132-1.264h0l.125.078-.006-.005.124.081ZM50.487,322.96l-.066.069,0,0-.968,1.1,0-.005-.132.263,0-.005-.069.069,0-.005c-1.51,3.6,2.963,4.64,5.7,3.86,1.138-.648,1.414-1.593,2.653-2.381l0,0,.2-.131,0,0,.069-.068,0,0,.069-.069-.006.005a6.867,6.867,0,0,0,1.355-1.1l0,0c.713-.456.322-1.2.073-1.949-2.355-4.418-2.474-7.872-5.951-1.545-.923.335-2.324.767-2.93,1.886Zm-36.976,9.9c-1.6,1-.561,4.341.921,3.709.514-1.073,1.668.112,2.5-.9,1.6-2.324-1.578-5.138-3.354-2.864h0l-.068.06Z" transform="translate(-3.854 -288.907)" fill="#bafeba" fill-rule="evenodd"/>
              <path id="Path" d="M97.712,343.616C87.69,355.517,60.627,355.4,48.7,355.4a92.085,92.085,0,0,1-10.061-.782c-12.361.269-30.114-4.346-35.588-13.319-5.266-9.039-2.326-9.756,2.919-15.139,15.591-12.691,49.489-12.561,58.119-11.943-12.328,11.108-16.925,14.051-22.325,24.7h0a2.516,2.516,0,0,0-.129,3.343c-2.782.45-5.786,1.141-8.122-.8-.758-.539-1.869-1.794-2.3-.7-.18,2.476,8.224,4.312,9.424,4.069a18.669,18.669,0,0,0,7.221-1.633c4.722,2.583,10.705,3.925,15.673,1.326a11.191,11.191,0,0,0,6.052,2.278,8.687,8.687,0,0,0,4.135,3.509c1.786,1.153,10.039,1.226,6.711-1.593-2.219-.166-4.637-.428-6.655-1.821,1.312.1,3.282,2.3,4-.369,8.312-18.745,6.982-20.386,8.562-21.413,5.358,5.7,9.3,4.867,15.03,5.383.131.233,1.6-.831,1.894.932C103.549,333.165,102.694,337.7,97.712,343.616Z" transform="translate(-0.273 -285.618)" fill="#e2912c" fill-rule="evenodd"/>
              <path id="Path-2" data-name="Path" d="M1021.058,390.791c3.138-.761,1.526-3.006-.993-3.719-3.183-1.477-5.778-3.752-7.373-2.288-2.606,2.234,7.364,5.613,8.366,6.008" transform="translate(-920.789 -349.574)" fill="#fee966" fill-rule="evenodd"/>
              <path id="Path-3" data-name="Path" d="M997.168,94.848c-2.265-.049-1.7,4.775-2.22,6.181-.744,2.668-.618,6.732,2.4,4.293,1.54-7.431,2.035-10.443-.184-10.473" transform="translate(-904.696 -86.274)" fill="#fee966" fill-rule="evenodd"/>
              <path id="Path-4" data-name="Path" d="M1043.046,344.434c6.481-1.633-6.447-6.984-7.961-7.662a1.613,1.613,0,0,0-.584,3.172c3.035,1.136,5.563,3.17,8.545,4.491" transform="translate(-939.844 -306.306)" fill="#fee966" fill-rule="evenodd"/>
              <path id="Path-5" data-name="Path" d="M939.465,89.776c2.091.087,2.462-5.363,3.232-6.489.83-2.136,3.1-7.972-1.161-5.86-4,10.155-4.449,12.109-2.071,12.35" transform="translate(-853.254 -70.016)" fill="#fee966" fill-rule="evenodd"/>
              <path id="Path-6" data-name="Path" d="M751.189,339.42c.671-.972,2.585-.953,2.766-2.356-.281-4.042-5.735-.069-6.238,1.931-1.467,5.484,4.462,2.176,4.337,4.3a2.8,2.8,0,0,0,1.9,2.582c1.091.247,1.91-.211,3.094-.393,1.278.613.7,3.785,2.89,3.7,3.057-.438.51-4.619-.349-6.04-1.274-1.225-2.822-.838-4.464-.444.035-2.652-1.86-3.381-3.935-3.28" transform="translate(-679.945 -305.009)" fill="#fee966" fill-rule="evenodd"/>
              <path id="Path-7" data-name="Path" d="M637.152,438.143c7.031-3.367.227-5.906-3-1.518-3.171,5.457,1.574,4.731,4.728,4.743,1.862,5.849,4.766,1.317,5.645,2.748,4.393,6.973,12.226-1.3,4.053-.488a1.207,1.207,0,0,1-1.021-.554c-1.331-2.984-2.871-2.883-5.426-2.005-.442-2.352-2.749-3.39-4.984-2.926" transform="translate(-575.909 -395.035)" fill="#fee966" fill-rule="evenodd"/>
              <path id="Path-8" data-name="Path" d="M500.388,59.836a23.754,23.754,0,0,0-6.373-3.728c-2.529.054-4.219-1.482-6.559-2.225-3.061-.581-5.971,1.388-9.133.666-8.621-2.7-5.68-4.324-13.322-1.13,1.875-1.452,3.577-4.409,5.235-6.366-.719-1.795,5.391-7.012,5.786-7.894,11.006-12.193,17.422-12.608,24.649-15.985,4.967-6.381,1.6-9.95,4.466-13.784,5.614-8.638,3.7-3.212,6.486-6.8,2.81-3.439,3.465-2.84,6.59-1.678-.273,1.3.551,2.323,1.025,3.729a18.938,18.938,0,0,1,.706,4.322c.346,1.317,1.971,2.027,1.4,3.662a13.726,13.726,0,0,1-2.485,5.506c-.329,1.738-.955,6.547-1.5,8.316-.009.773,3.332,1.936,8.373,4.376.388-.378,7.167,7.069,7.141,7.952-.81,5.141-4.123,6.063-8.748,6.045-2.613-.553-9.691-1.206-11.854-3.855-1.07-1.4-3.427-4.177-3.948-1.71C506,45.892,504.447,53.924,500.388,59.836Z" transform="translate(-422.995 0)" fill="#fee966" fill-rule="evenodd"/>
              <path id="Fill-5" d="M456.219,569.633c8.795-4.623,9.076,2.14,16.151,1.162,8.26-1.621,6.618.5,10.782,1.369,3.4-.035,5.6,2.523,8.239,4.453.621,1.957-1.161,3.12-2.9,1.67-3.986-2.158-2.007-2.777-6.746-3.151h0c-.309-.09-.531-.175-1.034-.324l0,0c-5.974-3.933-8.26,2.5-18.554-3.744-1.863-.223-9.021,4.31-6.7-1.117h0l.763-.322" transform="translate(-413.899 -516.66)" fill="#fdefc1" fill-rule="evenodd"/>
              <path id="Fill-7" d="M1042.3,543.708c2.6-1.662,3.828-.186,5.021,2.211-.97.5-.953,2.229-1.843,3.161-.4.9-2.065,2-.893,2.315a2.5,2.5,0,0,1-1.917.491c-.354-.121-.733-1.089-1.359-.806-4.749.11-1-5.882.967-7.339a.317.317,0,0,0,.024-.032" transform="translate(-945.113 -493.92)" fill="#fdefc1" fill-rule="evenodd"/>
              <path id="Fill-9" d="M418.931,697.33c4.4-4.062,11.109,2.167,4.8,5.54.085-.669-5.66-1.119-5.569-.586-2.191-1.984-.914-3.393.768-4.954" transform="translate(-379.333 -633.091)" fill="#fdefc1" fill-rule="evenodd"/>
              <path id="Fill-11" d="M1079.271,641.067c-.146.236-.2.047-.271-.067Z" transform="translate(-981.497 -583.062)" fill="#bafeba" fill-rule="evenodd"/>
              <path id="Fill-13" d="M371.277,607.047c3.869,2.279,4.412,1.682,7.574,2.556h0c6.257,6.092,10.5,2.141,10.057,5.33-3.185,2.905-10.218,0-11.892-3.44-3.279.025-3.847-1.277-6.075-2.179-9.8,4.39-15.661-1.6-15.511-1.426.026.031-2.03.966-2.071,1-13.517,4.285-20.047-7.984-10.227-2.221,4.866,1.5,5.059-.37,6.665.661,2.24-.6,4.082-1.976,6.543-2.327C362.282,607.712,366.255,607.687,371.277,607.047Z" transform="translate(-307.85 -550.316)" fill="#f23d61" fill-rule="evenodd"/>
              <path id="Fill-15" d="M499.428,361.912a2.5,2.5,0,0,1-.127-2.521c.007-.006,0,0,.065-.064l0,.005.132-.264c.2-.221.569-.65.963-1.1.006-.008,0,0,.062-.065.793-1.206,3.571-2.954,4.71-1.077,1.666-.73,5.363-.056,4.083,2.7l0,0a6.4,6.4,0,0,1-1.353,1.105c0,.005,0,0-.063.065l-.064.065,0,0-.2.132,0,0c-2.843,1.815-5.254,4.3-8.216,1.034" transform="translate(-453.922 -323.822)" fill="#fdefc1" fill-rule="evenodd"/>
              <path id="Fill-17" d="M182.148,613.034c.754-.146,1.672.56,2.582.722,1.561.71,1.239,1.875.639,3.428-.178.169-.412.494-.773.842-6.074,7.931-9.99-5.794-2.448-4.992" transform="translate(-161.936 -557.593)" fill="#fdefc1" fill-rule="evenodd"/>
              <path id="Fill-19" d="M256.017,450.622c1.755.65.741,3.032.743,4.594-.165,1.545-1.929,2.668-3.388,3.28-1.8.031-1.04-1.362-2.3-1.959-2.421-1.818-.216-5.926,1.586-6.4,1.782-.452,1.725.385,3.363.489" transform="translate(-227.428 -409.326)" fill="#fdefc1" fill-rule="evenodd"/>
              <path id="Fill-21" d="M387.745,486.852l.366.619c.05-.177.363-.311.391-.914a1.047,1.047,0,0,0-.757.3m1.679,3.313c.734-.3,1.288-2.2-.544-1.163l.544,1.163m.752-3.038c3.808,1.437-.595,6.352-1.844,4.367-.76-1.647-1.6-3.052-2.332-4.7.481-2.187,4.23-2.711,4.176.331" transform="translate(-351.135 -441.162)" fill="#6f5030" fill-rule="evenodd"/>
              <path id="Fill-23" d="M182.367,387.7v-1.046l-.663.873.663.174m.023,1.61c-.53.047-1.578-.936-1.9.054-4.071,3.629,1.3-6.644,2.936-5.229,2.2,7.255-1.361,9.9-1.04,5.175" transform="translate(-162.845 -349.291)" fill="#6f5030" fill-rule="evenodd"/>
              <path id="Fill-25" d="M930.875,644.6c-.222-.224-.765.216-1.337.338l.166.455,1.17-.793m-.477,3.366c-1.273,1.927-4.2-4.418-.83-4.713,1.557-.566,3.674-.31,2.958,1.941,1.242.346,2.256,2.521.062,1.877-.041-.025,0,0-.122-.079-.035-.017,0,0-.119-.072h0c-1.112-1-2.347-.61-1.95,1.047" transform="translate(-844.145 -584.881)" fill="#6f5030" fill-rule="evenodd"/>
              <path id="Fill-27" d="M311.955,348.617l.006-.006c-1.514.034-2.087,2.7-.186,2.139.469-.191,1.639-2.537.18-2.132M309,350.036A3.224,3.224,0,0,1,312.189,347c5.8.72-1.857,9.77-3.189,3.036" transform="translate(-281.095 -315.636)" fill="#6f5030" fill-rule="evenodd"/>
              <path id="Fill-29" d="M389.579,386.02c2.8-.381,3.45,4.941-1.066,4.952-2.909-1.031-1.1-4.163,1.066-4.952" transform="translate(-352.045 -351.111)" fill="#f13d60" fill-rule="evenodd"/>
              <path id="Fill-31" d="M11.542,502.113c2.823-1.243-.674,8.294-2.507,2.553-4.247,8.079-.911-7.463,1.557-.36a10.522,10.522,0,0,1,.95-2.193" transform="translate(-6.392 -456.626)" fill="#6f5030" fill-rule="evenodd"/>
              <path id="Fill-33" d="M459.431,421.542c6.914-1.509-6.031,6.323-.97-1.721-7.479.16,4.846-5.181.944,1.72l.016.027Z" transform="translate(-414.808 -380.218)" fill="#6f5030" fill-rule="evenodd"/>
              <path id="Fill-35" d="M576.272,690.534c-1.1.439-3.264-.031-1.755-1.306,2.043.053,1.667-1.071,1.855-2.6-3.884-.752,1.243-2.058,2.772-1.484,1.11.82.011,1.728-1.218,1.506-.185,1.26.032,3.3-1.654,3.886" transform="translate(-522.143 -623.085)" fill="#6f5030" fill-rule="evenodd"/>
              <path id="Fill-37" d="M952.451,504.9c-2.343,2.793-1.413-4.936-.24-4.635,3.843-.944,4.107.862,2.38,1.28-.512.275-1.587-.217-1.736.588,1.09-.3,3.364.542,1.43,1.451-1.167.189-1.8-.245-1.833,1.316" transform="translate(-865.067 -454.806)" fill="#6f5030" fill-rule="evenodd"/>
              <path id="Fill-39" d="M947.833,574.423c.5,2.675-2.558,4.16-3.654,1.561-1-2.864,2.46-4.2,3.654-1.561" transform="translate(-858.699 -521.208)" fill="#f23f61" fill-rule="evenodd"/>
              <path id="Fill-41" d="M167.995,518.265c1.231,4.2-1.629,2.359-2.016-1.007-.713.378-2.56.337-1.8-1.033,5.526-2.833,6.149.067,3.324.55l.424,1.284c.016.062,0,0,.065.206" transform="translate(-149.201 -468.451)" fill="#6f5030" fill-rule="evenodd"/>
              <path id="Fill-43" d="M98.358,486.856c-.626-.905-.429-1.825.583-2.664,5.457-1.374,3.929,5.174-.583,2.664" transform="translate(-89.167 -440.253)" fill="#f23e61" fill-rule="evenodd"/>
              <path id="Fill-45" d="M85.593,571.564c-2.888,1.341.679,2.157.872,3.233-.394,2.228-3.606-.747-3.46-1.861-.049-5.258,7.486-1.972,2.588-1.372" transform="translate(-75.523 -518.479)" fill="#6f5030" fill-rule="evenodd"/>
              <path id="Fill-47" d="M550.369,321.632c-2.833-.061-.532-1.58.363-2.8,2.125-2.727,3.033,2.03,3.692,3.6-2.462-.26-1.691-.57-2.547-2.541l-1.507,1.743" transform="translate(-499.402 -289.257)" fill="#6f5030" fill-rule="evenodd"/>
              <path id="Fill-49" d="M702.273,691.956a1.9,1.9,0,0,1,3.053-2.248c1.164,1.744-1.449,4.15-2.988,2.376-.022-.037,0,0-.065-.128" transform="translate(-638.573 -626.723)" fill="#f23f61" fill-rule="evenodd"/>
              <path id="Fill-51" d="M274.173,562.056c-.371-4.463,2.11-3.729,1.746.2.846.364,2.3-.3,2.9.753.758,2.1-5.973,1.021-4.648-.955" transform="translate(-249.259 -508.474)" fill="#6f5030" fill-rule="evenodd"/>
              <path id="Fill-53" d="M333.915,660.475a2.533,2.533,0,0,1,.189,2.493c-1.986,2.5-4.637-1.3-1.992-2.874a1.789,1.789,0,0,1,1.8.381" transform="translate(-301.107 -600.344)" fill="#f23f61" fill-rule="evenodd"/>
              <path id="Fill-55" d="M404,390.924c4.613-.161,3.5-4.864,1.6-4.917,5.149-.248,2.119,6.45-1.6,4.917" transform="translate(-367.508 -351.111)" fill="#725232" fill-rule="evenodd"/>
              <path id="Fill-57" d="M232.2,601.446c-.631-.064-1.352-.576-2.2-.735,1.023-.587,3.158-1.551,2.2.735" transform="translate(-209.236 -545.768)" fill="#66b333" fill-rule="evenodd"/>
              <path id="Fill-59" d="M112.345,478.717a2.548,2.548,0,0,0-3.345-.967c.73-1.53,4.368-.475,3.345.967" transform="translate(-99.172 -433.885)" fill="#f7cb77" fill-rule="evenodd"/>
              <path id="Fill-61" d="M1038.525,552c-1.577,1.542-3.521,3.689-3.187,6.056-1.43-1.2,2.065-6,3.187-6.056" transform="translate(-941.474 -502.106)" fill="#6ab537" fill-rule="evenodd"/>
              <path id="Fill-63" d="M324.563,678a1.793,1.793,0,0,0,.973,1.919c-1.7,1.527-1.937-.659-.973-1.919" transform="translate(-294.739 -616.718)" fill="#f7cb77" fill-rule="evenodd"/>
              <path id="Fill-65" d="M599,705.977c1.457-.629,1.407-1.995,1.549-3.533.653-2.034.886,3.581-1.549,3.533" transform="translate(-544.883 -638.548)" fill="#e0faca" fill-rule="evenodd"/>
              <path id="Fill-67" d="M488.6,698.9c-.623-1.5-1.376-.927-2.6-1.787.916-.457,3.24.564,2.6,1.787" transform="translate(-442.097 -634)" fill="#66b333" fill-rule="evenodd"/>
              <path id="Fill-69" d="M344.777,653.175a1.654,1.654,0,0,0-1.777-.366c.485-.9,2.044-1.381,1.777.366" transform="translate(-312.022 -593.068)" fill="#f7cb77" fill-rule="evenodd"/>
              <path id="Fill-71" d="M559,413.332A17.585,17.585,0,0,1,562.254,411c-1.034.477-1.856,2.565-3.254,2.332" transform="translate(-508.498 -373.851)" fill="#6ab537" fill-rule="evenodd"/>
              <path id="Fill-73" d="M454.062,613.35c-.53.075-1.53-.6-.81-1.35a1.654,1.654,0,0,0,1.556.7c-.12.289-.273.3-.746.65" transform="translate(-412.079 -556.683)" fill="#fee966" fill-rule="evenodd"/>
              <path id="Fill-75" d="M325,480.531l.246-2.531c1.163.533.258,1.595-.246,2.531" transform="translate(-295.649 -434.795)" fill="#66b333" fill-rule="evenodd"/>
              <path id="Fill-77" d="M366,672.989c.461-.421-.1-1.682.338-1.989,1.173.359.592,1.45-.338,1.989" transform="translate(-332.943 -610.35)" fill="#f7cb77" fill-rule="evenodd"/>
              <path id="Fill-79" d="M125.982,494.255l.169-.255c.425,1.384-.41,3.313-2.15,2.372a1.671,1.671,0,0,0,1.982-2.117" transform="translate(-112.817 -449.349)" fill="#8ad078" fill-rule="evenodd"/>
              <path id="Fill-81" d="M417.989,711.007c-.745.8-2.079,1.748-1.973,3.156-.13-.992.543-3.311,1.973-3.156" transform="translate(-378.424 -646.735)" fill="#6ab537" fill-rule="evenodd"/>
              <path id="Fill-83" d="M102,515a1.777,1.777,0,0,0,1.808.48c-.26,1.148-1.779.794-1.808-.48" transform="translate(-92.805 -468.451)" fill="#8ad078" fill-rule="evenodd"/>
              <path id="Fill-85" d="M967.006,541.356c-.1-1.544,1.062-1.179,2.164-1.356-.338.511-.643.52-1.432.251-.062.507-.2.944-.732,1.1" transform="translate(-879.62 -491.191)" fill="#ddf5c5" fill-rule="evenodd"/>
              <path id="Fill-87" d="M516.289,721.717,516,720c.808.136,1.2.949.289,1.717" transform="translate(-469.385 -654.921)" fill="#66b333" fill-rule="evenodd"/>
              <path id="Fill-89" d="M706,722a1.752,1.752,0,0,0,2.621.07c-.078,1.284-2.326,1.2-2.621-.07" transform="translate(-642.211 -656.741)" fill="#f7cb77" fill-rule="evenodd"/>
              <path id="Fill-91" d="M948.879,643.35c.715-2.085-1.3-2.538-2.879-1.9,1.4-1.029,4.031-.255,2.879,1.9" transform="translate(-860.518 -583.062)" fill="#ddf5c5" fill-rule="evenodd"/>
              <path id="Fill-93" d="M407.365,485.26c-.109-1.563-.964-2.347-2.365-2.015,1.444-.773,2.775.4,2.365,2.015" transform="translate(-368.418 -439.343)" fill="#ddf5c5" fill-rule="evenodd"/>
              <path id="Fill-95" d="M112,581.672c.412,0,1.3.053,1.5-.672.489.823-.472,1.58-1.5.672" transform="translate(-101.901 -528.485)" fill="#e0faca" fill-rule="evenodd"/>
              <path id="Fill-97" d="M954.075,682.537c-.36-1.367.621-2.1,1.913-1.006-1.2-.591-1.346-.445-1.913,1.006" transform="translate(-867.795 -619.446)" fill="#ddf5c5" fill-rule="evenodd"/>
              <path id="Fill-99" d="M81.136,594a3.2,3.2,0,0,0,1.853,3.163A2.533,2.533,0,0,1,81.136,594" transform="translate(-73.703 -540.31)" fill="#ddf5c5" fill-rule="evenodd"/>
              <path id="Fill-101" d="M395.9,386.025c-.718.152-1.178.85-1.9,1.331.336-.619.866-1.518,1.9-1.331" transform="translate(-358.412 -351.111)" fill="#725232" fill-rule="evenodd"/>
              <path id="Fill-103" d="M46.994,504a10.663,10.663,0,0,0-.928,2.169c-.242-.342.209-2.055.928-2.169" transform="translate(-41.867 -458.445)" fill="#ddf5c5" fill-rule="evenodd"/>
              <path id="Fill-105" d="M976.06,576.265A2.9,2.9,0,0,0,975,575.023c.55-.141,1.506.389,1.059,1.243" transform="translate(-886.897 -523.027)" fill="#f7cb77" fill-rule="evenodd"/>
              <path id="Fill-107" d="M1047,630a2.2,2.2,0,0,0,1.536.242A.85.85,0,0,1,1047,630" transform="translate(-952.39 -573.056)" fill="#6ab537" fill-rule="evenodd"/>
              <path id="Fill-109" d="M798.474,665.265c-.29-.316-1.129-.726-1.474-1.266l1.627,1.138-.153.127" transform="translate(-724.986 -603.983)" fill="#fee966" fill-rule="evenodd"/>
              <path id="Fill-113" d="M504,421a2.3,2.3,0,0,1,.994.994A1.2,1.2,0,0,1,504,421" transform="translate(-458.47 -382.947)" fill="#6ab537" fill-rule="evenodd"/>
              <path id="Fill-115" d="M538,436.056a2.62,2.62,0,0,1,1.356.086,1.012,1.012,0,0,1-1.356-.086" transform="translate(-489.397 -396.591)" fill="#6ab537" fill-rule="evenodd"/>
              <path id="Fill-117" d="M306.085,452.362c-.152-.094-.867.131-1.085-.288a.868.868,0,0,1,1.085.288" transform="translate(-277.457 -411.145)" fill="#6ab537" fill-rule="evenodd"/>
              <path id="Fill-119" d="M469.175,693.361,468,693.2a.765.765,0,0,1,1.175.162" transform="translate(-425.723 -630.362)" fill="#6ab537" fill-rule="evenodd"/>
              <path id="Fill-121" d="M614,383.175l.265-1.175a.75.75,0,0,1-.265,1.175" transform="translate(-558.527 -347.472)" fill="#6ab537" fill-rule="evenodd"/>
              <path id="Fill-123" d="M212.175,610.266a4.6,4.6,0,0,1-1.175-.088.884.884,0,0,1,1.175.088" transform="translate(-191.953 -554.864)" fill="#6ab537" fill-rule="evenodd"/>
              <path id="Fill-125" d="M504.994,378,504,379.085l.994-1.085" transform="translate(-458.47 -343.834)" fill="#6ab537" fill-rule="evenodd"/>
              <path id="Fill-127" d="M260,647.085l.34-1.085a1.13,1.13,0,0,1-.34,1.085" transform="translate(-236.524 -587.61)" fill="#6ab537" fill-rule="evenodd"/>
              <path id="Fill-129" d="M245,668.723a.71.71,0,0,1,.633-.723l-.633.723" transform="translate(-222.88 -607.621)" fill="#6ab537" fill-rule="evenodd"/>
              <path id="Fill-131" d="M498.271,396l-.184,1.085a1.074,1.074,0,0,1,.184-1.085" transform="translate(-453.012 -360.207)" fill="#6ab537" fill-rule="evenodd"/>
              <path id="Fill-133" d="M503.09,390l-.09.271.09-.271" transform="translate(-457.56 -354.749)" fill="#6ab537" fill-rule="evenodd"/>
              <path id="Fill-135" d="M595,408.09l.181-.09-.181.09" transform="translate(-541.244 -371.122)" fill="#6ab537" fill-rule="evenodd"/>
              <path id="Fill-137" d="M612.044,395.181l.082-.181-.082.181" transform="translate(-556.748 -359.297)" fill="#6ab537" fill-rule="evenodd"/>
              <path id="Fill-139" d="M515.1,432.112l.073.07-.073-.07" transform="translate(-468.564 -393.055)" fill="#6ab537" fill-rule="evenodd"/>
              <path id="Fill-141" d="M501.277,394l-.049.09.049-.09" transform="translate(-455.948 -358.387)" fill="#6ab537" fill-rule="evenodd"/>
              <path id="Fill-143" d="M207.271,550.181,207.22,550l.051.181" transform="translate(-188.515 -500.287)" fill="#ddf5c5" fill-rule="evenodd"/>
              <path id="Fill-145" d="M402,440.28l.09.04-.09-.04" transform="translate(-365.689 -400.485)" fill="#725232" fill-rule="evenodd"/>
              <path id="Fill-147" d="M705.214,721l.052.09-.052-.09" transform="translate(-641.497 -655.831)" fill="#f7cb77" fill-rule="evenodd"/>
              <path id="Fill-149" d="M324.276,507.107l.041-.087-.041.087" transform="translate(-294.99 -461.192)" fill="#66b333" fill-rule="evenodd"/>
              <path id="Fill-151" d="M945.181,645.23l-.181.049.181-.049" transform="translate(-859.609 -586.909)" fill="#ddf5c5" fill-rule="evenodd"/>
              <path id="Fill-153" d="M599,406.181l.09-.07-.09.07" transform="translate(-544.883 -369.404)" fill="#6ab537" fill-rule="evenodd"/>
              <path id="Fill-155" d="M978,687.157l.09.062-.09-.062" transform="translate(-889.626 -625.046)" fill="#ddf5c5" fill-rule="evenodd"/>
              <path id="Fill-157" d="M977,686.169l.09.06-.09-.06" transform="translate(-888.716 -624.148)" fill="#ddf5c5" fill-rule="evenodd"/>
              <path id="Fill-159" d="M252.259,667.348l.044-.033-.044.033" transform="translate(-229.482 -606.998)" fill="#6ab537" fill-rule="evenodd"/>
              <path id="Fill-161" d="M597.208,407.262l.053-.053-.053.053" transform="translate(-543.253 -370.403)" fill="#6ab537" fill-rule="evenodd"/>
              <path id="Fill-163" d="M598.206,407.26l.053-.053-.053.053" transform="translate(-544.16 -370.401)" fill="#6ab537" fill-rule="evenodd"/>
              <path id="Fill-165" d="M515.362,376.344a.059.059,0,0,0-.031.028.1.1,0,0,0,.031-.028" transform="translate(-468.777 -342.327)" fill="#6ab537" fill-rule="evenodd"/>
              <path id="Fill-167" d="M342.24,660.25l-.057.045.057-.045" transform="translate(-311.278 -600.572)" fill="#f7cb77" fill-rule="evenodd"/>
              <path id="Fill-169" d="M515.27,376.207l-.051.053.051-.053" transform="translate(-468.675 -342.202)" fill="#6ab537" fill-rule="evenodd"/>
              <path id="Fill-171" d="M979.161,688.236l.061.048-.061-.048" transform="translate(-890.683 -626.028)" fill="#ddf5c5" fill-rule="evenodd"/>
              <path id="Fill-173" d="M364.235,693.262l.048-.052-.048.052" transform="translate(-331.337 -630.552)" fill="#f7cb77" fill-rule="evenodd"/>
              <path id="Fill-175" d="M259.223,658.268l.05-.051-.05.051" transform="translate(-235.817 -598.723)" fill="#6ab537" fill-rule="evenodd"/>
              <path id="Fill-177" d="M106.283,486.243l-.048.046.048-.046" transform="translate(-96.658 -442.293)" fill="#f7cb77" fill-rule="evenodd"/>
              <path id="Fill-179" d="M107.263,485.245l-.052.046.052-.046" transform="translate(-97.545 -441.385)" fill="#f7cb77" fill-rule="evenodd"/>
              <path id="Fill-181" d="M502.26,393.207l-.053.053.053-.053" transform="translate(-456.839 -357.666)" fill="#6ab537" fill-rule="evenodd"/>
              <path id="Fill-183" d="M253.366,621.342a.094.094,0,0,1-.03-.035.224.224,0,0,0,.03.035" transform="translate(-230.463 -565.149)" fill="#66b333" fill-rule="evenodd"/>
              <path id="Fill-185" d="M1074.418,551.365l-.018.024a.023.023,0,0,0,.018-.024" transform="translate(-977.312 -501.529)" fill="#6ab537" fill-rule="evenodd"/>
              <path id="Fill-187" d="M642.084,438.727c1.575-.5,1.5-1.233,3.763-.548,1.284.389,2.263,2.965,2.392,2.965,3.34,0,5.135.416,3.1,3.223-3.9,1.623-5.676-.389-7.372-2.541-3.542,1.322-4.108.562-5.328-2.507-7.838,1.433-6.738-4.561-1.4-6.9,1.743-.979,3.969.05,2.926,1.618a22.357,22.357,0,0,1-2.278,1.752C640,435.3,641.646,436.347,642.084,438.727Z" transform="translate(-575.81 -392.986)" fill="#fdefc1" fill-rule="evenodd"/>
              <path id="Fill-189" d="M753.724,341.75c2.694-1.151,4.9-.313,5.834,1.54,1.079,2.13.8,4.909-1.054,4.639-1.922-.12-.847-3.1-2.131-3.7-1,.137-3.145,1.1-4.306.521-1.925-.773-.787-3.333-2.144-3.141-5.73.336-4.418-4.424-.932-6.5,2.151-1.864,4.65-.4,3.533,1.607-.642.788-1.85.692-2.532,1.6h-.069Q754.768,338.054,753.724,341.75Z" transform="translate(-678.596 -304.036)" fill="#fdefc1" fill-rule="evenodd"/>
              <path id="Fill-191" d="M937.521,90.835c-3.043-.393-.651-4.154-.221-6.011.975-2.334,1.134-4.824,2.5-6.6,4.542-1.482,1.164,4.88.688,6.85-1.011,2.273-1.089,5.8-2.971,5.763" transform="translate(-851.422 -70.95)" fill="#fdefc1" fill-rule="evenodd"/>
              <path id="Fill-193" d="M1042.829,345.592c-3.073-1.488-6.117-3.537-9.339-4.933-2.436-5.2,4.918-1.374,6.535-.24,1.981,1.1,7.468,3.888,2.8,5.172" transform="translate(-939.655 -307.449)" fill="#fdefc1" fill-rule="evenodd"/>
              <path id="Fill-195" d="M996.688,95.036c3.115.265.577,6.089.735,7.751-.159,4.609-2.823,3.933-3.422,2.186.368-3.183.749-10.549,2.688-9.937" transform="translate(-904.18 -86.413)" fill="#fdefc1" fill-rule="evenodd"/>
              <path id="Fill-197" d="M1020.721,391.417c-8.149-3.228-9.579-4.422-8.321-5.961,1.556-1.842,7.045,2.476,8.245,2.738,2.4.412,2.236,3.158.076,3.224" transform="translate(-920.553 -350.201)" fill="#fdefc1" fill-rule="evenodd"/>
              <path id="Fill-199" d="M556.919,609.875c-3.981,1.919-13.578.214-13.919-1.875,3.526,1.639,7.468,3.115,11.408,2.071a22.1,22.1,0,0,1,2.511-.2" transform="translate(-493.944 -553.045)" fill="#bafeb9" fill-rule="evenodd"/>
              <path id="Fill-201" d="M493.615,605.008a14.753,14.753,0,0,0-3.47,1.348l-.145-.048c.6-.913,2.313-1.374,3.615-1.3" transform="translate(-445.735 -550.316)" fill="#bbfab6" fill-rule="evenodd"/>
              <path id="Fill-203" d="M714.248,632.627A7.764,7.764,0,0,1,710,631a7.39,7.39,0,0,1,2.51,1.008l0,0c.16.309.626.219,1.031.314l.71.307" transform="translate(-645.85 -573.966)" fill="#bafeb9" fill-rule="evenodd"/>
              <path id="Fill-205" d="M673.61,627.542a11.556,11.556,0,0,0-4.61-.184c1.373-.165,3.168-.811,4.61.184" transform="translate(-608.556 -570.327)" fill="#e6d876" fill-rule="evenodd"/>
              <path id="Fill-207" d="M768.8,649.269l-.01.087a12.687,12.687,0,0,1-1.014-.8A14.366,14.366,0,0,1,766,648a3.47,3.47,0,0,1,2.8,1.269" transform="translate(-696.788 -589.429)" fill="#e6d876" fill-rule="evenodd"/>
              <path id="Fill-209" d="M513.647,601.366l-1.647.086c.5-.284,1.5-.776,2.169-.145l-.522.059" transform="translate(-465.746 -546.677)" fill="#e6d876" fill-rule="evenodd"/>
              <path id="Fill-211" d="M648.994,632a.73.73,0,0,1-.994.136l.994-.136" transform="translate(-589.454 -574.875)" fill="#fee966" fill-rule="evenodd"/>
              <path id="Fill-213" d="M738.814,643.239A.713.713,0,0,1,738,643l.814.24" transform="translate(-671.319 -584.881)" fill="#fee966" fill-rule="evenodd"/>
              <path id="Fill-215" d="M737.09,642.279l-.09-.049.09.049" transform="translate(-670.409 -584.181)" fill="#fee966" fill-rule="evenodd"/>
              <path id="Fill-217" d="M667.317,630.289l-.04.038.04-.038" transform="translate(-606.988 -573.319)" fill="#e6d876" fill-rule="evenodd"/>
              <path id="Fill-219" d="M465.662,620.194c.437.142,1.154-.22,1.778-.193l-2.44.9c-.008-.3.17-.336.662-.71" transform="translate(-422.995 -563.96)" fill="#0e1208" fill-rule="evenodd"/>
              <path id="Fill-221" d="M784,653.219l.181.051-.181-.051" transform="translate(-713.161 -594.176)" fill="#fdefc1" fill-rule="evenodd"/>
              <path id="Fill-223" d="M786.2,654.122l.054.068-.054-.068" transform="translate(-715.165 -594.998)" fill="#fdefc1" fill-rule="evenodd"/>
              <path id="Fill-225" d="M568.291,342l.7,1.939a1.714,1.714,0,0,0-1.852.14c-.556-.46.745-1.324,1.155-2.079" transform="translate(-515.775 -311.088)" fill="#bbfab6" fill-rule="evenodd"/>
              <path id="Fill-227" d="M567.446,339.2a17.306,17.306,0,0,1-1.374,1.7c-.388-.413.9-1.276,1.293-1.9l.081.2" transform="translate(-514.866 -308.359)" fill="#ddf5c5" fill-rule="evenodd"/>
              <path id="Fill-229" d="M417.546,528.446,417,527.283c1.36-.821,1.749.328.546,1.164" transform="translate(-379.333 -479.366)" fill="#c6f7ba" fill-rule="evenodd"/>
              <path id="Fill-231" d="M405,503.293a1.067,1.067,0,0,1,.723-.292c-.024.294-.015.374-.374.9l-.35-.611" transform="translate(-368.418 -457.535)" fill="#c6f7ba" fill-rule="evenodd"/>
              <path id="Fill-233" d="M209.633,414.994l-.633-.165.633-.829Z" transform="translate(-190.134 -376.58)" fill="#c6f7ba" fill-rule="evenodd"/>
              <path id="Fill-235" d="M947.265,661.046l-1.108.768-.158-.441c.249.011.917-.53,1.265-.327" transform="translate(-860.518 -601.254)" fill="#c6f7ba" fill-rule="evenodd"/>
              <path id="Fill-237" d="M330.257,365c2.3,1.29-3.549,3.934-.188.031.058.006,0,0,.188-.031" transform="translate(-299.287 -332.009)" fill="#bbfab6" fill-rule="evenodd"/>
              <path id="Fill-239" d="M327.356,365c-.564.321-1.9,2.328-.185,2.074-1.774.624-1.387-2.029.185-2.074" transform="translate(-296.558 -332.009)" fill="#ddf5c5" fill-rule="evenodd"/>
              <path id="Fill-241" d="M341.181,364.336l-.181.03.181-.03" transform="translate(-310.203 -331.404)" fill="#ddf5c5" fill-rule="evenodd"/>
              <path id="Fill-243" d="M494.41,458.384l-.007.02-.012-.021a.094.094,0,0,0,.02,0" transform="translate(-449.729 -416.951)" fill="#bafeba" fill-rule="evenodd"/>
            </g>
            <g id="Outilne" transform="translate(7.658)">
              <path id="Fill-245" d="M286.577,38.792c6.594-4.951-11.019-5.862-6.11,1.466,1.847,1.761,6.819-.666,2.923-2.264-.8-2.614,2.888-.822,3.187.8M276.2,56.3c8.222-4.065,8.07,2.394,14.6,1.777,12.154-3.617,5.46,1.441,13.874.944,1.615.208,3.859,4.914,4.792,3.037,11.052-16.4,6.412-24.158,9.771-24.271.893.087,1.051.726,1.613,1.541,4.686,8.255,19.456,8.062,21.858,1.16-10-13.629-19.3-8.325-15.246-15.6,2.659-7.277,5.588-17.6-1.719-22.993-11.3,7.844-10.815,16.255-12.225,22.276a2.539,2.539,0,0,1-2.288,1.8C295.554,30.017,283.9,42.615,276.2,56.3m6.906-13.776c-9.536.438-5.029-15.09,6.958-7.121,17.281-14.572,21.637-8.751,21.817-13.562C313.5,11.189,315.99,7.907,321.7,2.393c5.325-6.539,9.8,1.839,10.55,7.049a20.275,20.275,0,0,1-.242,6.975c-4.638,19.114-5.21,5.387,9.214,19.148,7.072,5.361,2.026,9.508-3.644,11.5-6.7,1.962-14.539-.781-17.846-5.725-1.127,9.085-4.191,15.213-8.505,21.864,1.6,0,6,.108,2.867,2.392-2.329-.308-4.964-.233-7.065-1.8-5.8-5.831-3.05.186-9.97-5.162-9.091,2.728-9.42,1.5-15.973-1.832-4.922,1.9-9.919,3.157-14.822.692-1.547-.252-1.494-2.325.141-2.114,1.936.662,4.175,1.718,6.4,1.42.894.07,1.006-.291,1.417-1.187a82.555,82.555,0,0,1,8.89-13.093" transform="translate(-241.173 0)" fill-rule="evenodd"/>
              <path id="Fill-248" d="M160.192,463.335c-5.774,6.56,5.944,7.174,4.011.7-3-3.366-1.883,1.682-2.777,2.193-1.887.988-1.14-1.664-1.234-2.894m.506,6.994c-6.371-.323-3.505-10.118,1.066-8.806,6.857-.955,4.972,9.361-1.066,8.806" transform="translate(-142.809 -419.698)" fill-rule="evenodd"/>
              <path id="Fill-250" d="M87.379,620.236c-2.1.9-2.46,4.983.2,5.456,2.465.44,4.94-3.374,2.8-5.371-1.767-.991-1.332,1.963-2.174,2.9-1.912.948-1.217-1.9-.826-2.981m5.465,2.039c-.5,6.885-9.86,6.7-8.753-.156.538-4.855,9.157-5.108,8.753.156" transform="translate(-76.407 -562.507)" fill-rule="evenodd"/>
              <path id="Fill-252" d="M331.5,713.091c-1.926.579-2.555-4.729-.372-3.6.891,5.612,3.72.843,3.2-.587-1.337-3.32-6.3-1.8-7.532.965-.55,1.022.354,1.657.4,2.669-.458,1.253-2.1.212-2.135-.916-1.027-7.234,12.336-8.921,10.856-.924-.162,1.469-3.99,4.925-4.417,2.4" transform="translate(-295.624 -641.643)" fill-rule="evenodd"/>
              <path id="Fill-254" d="M947.279,557.4c5.882.134,5.055,5.673,3.2,3.536-4.542-6.551-11.4,6-2.146,4.165a.813.813,0,0,1,.657.712c-.045,1.493-3.457,1.282-4.255.852-5.322-2.069-2.021-9.054,2.54-9.265" transform="translate(-856.855 -507.021)" fill-rule="evenodd"/>
              <path id="Fill-256" d="M1.638,489.3c2.1.272,2.9.716,3.054-1.889-1.669-1-2.528.28-3.054,1.889m1.839-3.874c5.262-.111,2.354,5.338,1.009,5.647-7.891,1.117-3.476-6.1-1.009-5.647" transform="translate(0 -441.529)" fill-rule="evenodd"/>
              <path id="Fill-258" d="M853.443,582.144c-1.884.259-2.628-.208-2.7,2.177,2.141.952,2.456-.486,2.7-2.177m-1.577,4.13c-3.677-.141-3.314-2.965-1.7-5.114,3.927-1.676,6.125-.586,4.369,3.4a2.464,2.464,0,0,1-2.668,1.713" transform="translate(-772.261 -527.942)" fill-rule="evenodd"/>
              <path id="Fill-260" d="M302.543,401.136c-1.725-.132-2.742.028-2.816,1.939,2.451,1,2.145-.238,2.816-1.939Zm-.73-1.679c3.231-.559,2.474,3.785.834,5.323-6.912,1.992-5.182-6.071-.834-5.329Z" transform="translate(-271.065 -363.302)" fill-rule="evenodd"/>
              <path id="Fill-262" d="M227.874,670.216c2.285.349,2.16-.254,2.662-2.1-1.128.145-2.491.644-2.662,2.1m1.256,1.791c-9.572-.883,6.225-11.159,2.409-1.48a2.237,2.237,0,0,1-2.409,1.48" transform="translate(-205.573 -606.169)" fill-rule="evenodd"/>
              <path id="Fill-264" d="M605.892,698.694c2.113-.056,2.6-.556,1.585-2.435-1.667.132-1.892.806-1.585,2.435m.307,1.641c-4.022-.546-1.994-6.337,1.813-5.911,2.839,1.958,1.988,6.363-1.813,5.911" transform="translate(-549.406 -631.638)" fill-rule="evenodd"/>
              <path id="Fill-266" d="M1005.784,614.029c-.688.044-1.207-1.215-.294-1.568,1.087-.4,1.547,1.454.294,1.568" transform="translate(-914.161 -557.049)" fill-rule="evenodd"/>
              <path id="Fill-268" d="M542.906,454.157c-5.394,2.541-8.658-1.389-5.914-4.985.94-1.888,7.614-4.52,6.211-1.141-1.759.447-7.845,3.28-3.893,4.879,1.9.292,4.456-2.305,5.522-.283.286,7.206,2.81.281,5.453,3.123,3.716,7.939,4.759-1.143,6.911,1.774.8,1.394-2.184,3.279-3,3.463-5.051.631-4.688-4.1-5.861-3.619-3.484,1.605-5.336.3-5.425-3.211" transform="translate(-487.553 -406.054)" fill-rule="evenodd"/>
              <path id="Fill-270" d="M655.476,358.251c-12.721,1.2.6-11.866,1.373-6.587-.44,1.177-1.8.8-2.809,1.633-5.914,5.294,3.182,1.553,3.542,3.446-.354,6.68.7,3.038,5.035,2.169,1.3.316.762,1.616,1.029,2.8,2.751,3.686-1.576,4.265-2.133-.129-3.715,1.953-6.855,1.435-6.035-3.336" transform="translate(-591.248 -318.731)" fill-rule="evenodd"/>
              <path id="Fill-272" d="M848,104.5c.311-2.121,2.275-15.274,5.152-11.375-3.32,7.43-2.581,15.459-5.152,11.375" transform="translate(-771.352 -84.051)" fill-rule="evenodd"/>
              <path id="Fill-274" d="M905,123.605c1.35-6.167.97-11.825,3.319-9.775.651,1.575-1.575,15.481-3.319,9.775" transform="translate(-823.2 -103.152)" fill-rule="evenodd"/>
              <path id="Fill-276" d="M966.82,376.7c-1.084.595-4.2-1.33-5.855-2.144s-7.43-2.729-3.776-4.156C959.681,371.62,969.568,375.033,966.82,376.7Z" transform="translate(-869.59 -336.923)" fill-rule="evenodd"/>
              <path id="Fill-278" d="M945.948,417.083c.07,2.832-8.528-2.4-8.879-3.164-.574-3.191,2.582-.427,3.627.045,2.2,1.224,5.012,1.524,5.251,3.119" transform="translate(-852.307 -375.127)" fill-rule="evenodd"/>
            </g>
          </g>
        </g>
      </g>
      <g id="Extras" transform="translate(103.222 122.189)">
        <g id="Extras_Edamame" data-name="Extras/Edamame" transform="translate(0 0)">
          <g id="Edamame">
            <g id="Color-2-2" data-name="Color-2" transform="translate(1.148 6.706)">
              <path id="Fill-1-3" data-name="Fill-1" d="M15.3,8.8c7.261-9.174,44.5-11.612,50.336.011-2.936,8.4-27.127,6.247-31.076,6.739-.189-.055-1.313.183-1.38-.539-.267-2.092.839.529-15.873-4.6-.609-.555-1.7-.383-2.008-1.613" transform="translate(-13.984 -0.89)" fill="#f23d61" fill-rule="evenodd"/>
              <path id="Fill-3" d="M4.17,110.912c-.739-1.289-1.3-3.945-2.424-5.344-.269-.768-.2-1.728-1.023-2.429-.178-.67,1.057-2.055,2.4-.272l.014-.015c.03.1,0,0,.22.224,12.205,6.5,35.864,6.236,48.394.206,2.4.24-.933,9.089-1.711,9.034-22.065,3.6-45.73,1.246-45.874-1.4" transform="translate(-0.705 -92.776)" fill="#fe7a95" fill-rule="evenodd"/>
              <path id="Fill-5-2" data-name="Fill-5" d="M41.824,196.974c31.637,5.188,52.144-3.771,44.619,1.55,4.125,7.906-40.856,5.917-42.591,3.657-.489-.675.912-1.337.043-1.933-.715.031-1.282-.872-1.829-1.221-1.262.163-2.149-1.64-.242-2.053" transform="translate(-37.104 -178.984)" fill="#f23d61" fill-rule="evenodd"/>
              <path id="Fill-7-2" data-name="Fill-7" d="M101.814,260.025c12.4.037,24.59,2.288,36.686-.512-10.11,9.232-28.615,10.885-36.686.512" transform="translate(-92.675 -236.058)" fill="#fe7a95" fill-rule="evenodd"/>
              <path id="Fill-9-2" data-name="Fill-9" d="M266.8,159.749a57.354,57.354,0,0,1,6.047.285,36.571,36.571,0,0,1-6.047-.285" transform="translate(-242.747 -145.271)" fill="#f9aaba" fill-rule="evenodd"/>
              <path id="Fill-11-2" data-name="Fill-11" d="M299.444,339.943a25.7,25.7,0,0,1,3.626-.349,12.421,12.421,0,0,1-3.626.349" transform="translate(-272.442 -308.902)" fill="#fec8d3" fill-rule="evenodd"/>
              <path id="Fill-13-2" data-name="Fill-13" d="M426.048,155.193a15.456,15.456,0,0,1-3.407.652,17.326,17.326,0,0,1,3.407-.652" transform="translate(-384.503 -141.168)" fill="#fee3e9" fill-rule="evenodd"/>
              <path id="Fill-15-2" data-name="Fill-15" d="M91.869,31.517l-2.171.789a9.157,9.157,0,0,1,2.171-.789" transform="translate(-81.654 -28.67)" fill="#fbd5dd" fill-rule="evenodd"/>
              <path id="Fill-17-2" data-name="Fill-17" d="M233.3,160.456l2.153-.123a9.9,9.9,0,0,1-2.158.255l0-.132" transform="translate(-212.269 -145.844)" fill="#f9aaba" fill-rule="evenodd"/>
              <path id="Fill-19-2" data-name="Fill-19" d="M529.572,47.959l-1.95-.994a4.981,4.981,0,0,1,1.95.994" transform="translate(-479.996 -42.723)" fill="#fbd0d9" fill-rule="evenodd"/>
              <path id="Fill-21-2" data-name="Fill-21" d="M135.983,18.329a14.41,14.41,0,0,1-2.226.63,11.035,11.035,0,0,1,2.226-.63" transform="translate(-121.73 -16.675)" fill="#fcd8df" fill-rule="evenodd"/>
              <path id="Fill-23-2" data-name="Fill-23" d="M190.41,7.756l-1.98.308c.244-.368,1.3-.295,2.06-.438l-.08.13" transform="translate(-171.462 -6.939)" fill="#fde8ec" fill-rule="evenodd"/>
              <path id="Fill-25-2" data-name="Fill-25" d="M204.787,146.415c-.461-.151.233-.865-.878-1.254.711-.166.822.508.878,1.254" transform="translate(-185.542 -132.02)" fill="#f792a6" fill-rule="evenodd"/>
              <path id="Fill-27-2" data-name="Fill-27" d="M9.626,120.985c.626.291.616.659.6,1.465-.179-.445-.091-.894-.6-1.465" transform="translate(-8.82 -110.052)" fill="#feb2c2" fill-rule="evenodd"/>
              <path id="Fill-29-2" data-name="Fill-29" d="M186.875,143.167c0,.022,0,.044,0,.066a6.921,6.921,0,0,1-1.7-.288,8.168,8.168,0,0,1,1.693.223" transform="translate(-168.508 -130.026)" fill="#f9b0bf" fill-rule="evenodd"/>
              <path id="Fill-31-2" data-name="Fill-31" d="M446.168,12.246a6.385,6.385,0,0,1-1.639-.424c.321.15,1.159.036,1.639.424" transform="translate(-404.414 -10.756)" fill="#fcd8df" fill-rule="evenodd"/>
              <path id="Fill-33-2" data-name="Fill-33" d="M277.164.113l.147.088-1.548.027a4.356,4.356,0,0,1,1.4-.116" transform="translate(-250.902 -0.101)" fill="#f5708a" fill-rule="evenodd"/>
              <path id="Fill-35-2" data-name="Fill-35" d="M556.99,101.431l.98-1.021a1.719,1.719,0,0,1-.98,1.021" transform="translate(-506.709 -91.336)" fill="#fbcfd7" fill-rule="evenodd"/>
              <path id="Fill-37-2" data-name="Fill-37" d="M384.083,165.187l-1.42.131,1.42-.131" transform="translate(-348.139 -150.259)" fill="#fec2ce" fill-rule="evenodd"/>
              <path id="Fill-39-2" data-name="Fill-39" d="M321.172,169.307l-1.347.043,1.347-.043" transform="translate(-290.98 -154.006)" fill="#fec0cd" fill-rule="evenodd"/>
              <path id="Fill-41-2" data-name="Fill-41" d="M223.736,162.46a3.581,3.581,0,0,1-1.033-.077c.252-.147.069-.322,1.033.077" transform="translate(-202.637 -147.556)" fill="#f9aaba" fill-rule="evenodd"/>
              <path id="Fill-43-2" data-name="Fill-43" d="M45.594,56.76l-.849.545.849-.545" transform="translate(-40.765 -51.632)" fill="#fbd5dd" fill-rule="evenodd"/>
              <path id="Fill-45-2" data-name="Fill-45" d="M309.223.126c.14-.04.539-.23.739.06l-.737.007a.44.44,0,0,0,0-.067" transform="translate(-281.337 -0.028)" fill="#fdebef" fill-rule="evenodd"/>
              <path id="Fill-47-2" data-name="Fill-47" d="M396.332,4.511l-.592-.124.592.124" transform="translate(-360.034 -3.993)" fill="#fcdde3" fill-rule="evenodd"/>
              <path id="Fill-49-2" data-name="Fill-49" d="M399,158.714l.592-.055Z" transform="translate(-363.003 -144.321)" fill="#fcdee4" fill-rule="evenodd"/>
              <path id="Fill-51-2" data-name="Fill-51" d="M39.5,63.14l-.462.337.462-.337" transform="translate(-35.571 -57.435)" fill="#fbd5dd" fill-rule="evenodd"/>
              <path id="Fill-53-2" data-name="Fill-53" d="M420.732,7.633l-.516-.072c.188-.093.373-.159.516.072" transform="translate(-382.298 -6.803)" fill="#fcdde3" fill-rule="evenodd"/>
              <path id="Fill-55-2" data-name="Fill-55" d="M246.379,340.913l.531.042-.531-.042" transform="translate(-224.174 -310.101)" fill="#feb9c7" fill-rule="evenodd"/>
              <path id="Fill-57-2" data-name="Fill-57" d="M343.213,168.436l-.534.062.534-.062" transform="translate(-311.769 -153.214)" fill="#fec0cd" fill-rule="evenodd"/>
              <path id="Fill-59-2" data-name="Fill-59" d="M375.779,166.829l-.462.049Z" transform="translate(-341.457 -151.752)" fill="#fec2ce" fill-rule="evenodd"/>
              <path id="Fill-61-2" data-name="Fill-61" d="M228.479,161.842l-.087-.107.448-.043c-.05.166.045.136-.361.149" transform="translate(-207.812 -147.08)" fill="#f792a6" fill-rule="evenodd"/>
              <path id="Fill-63-2" data-name="Fill-63" d="M388.4,159.554l.445-.053-.445.053" transform="translate(-353.357 -145.087)" fill="#fcdee4" fill-rule="evenodd"/>
              <path id="Fill-65-2" data-name="Fill-65" d="M300.433,169.294l-.386-.052.386.052" transform="translate(-272.99 -153.948)" fill="#fec0cd" fill-rule="evenodd"/>
              <path id="Fill-67-2" data-name="Fill-67" d="M400.192,164.38l-.387.064.387-.064" transform="translate(-363.731 -149.525)" fill="#fec2ce" fill-rule="evenodd"/>
              <path id="Fill-69-2" data-name="Fill-69" d="M369.828,3.169l-.3-.029.3.029" transform="translate(-336.186 -2.858)" fill="#f56a85" fill-rule="evenodd"/>
              <path id="Fill-71-2" data-name="Fill-71" d="M407.461,163.555l-.314.063.314-.063" transform="translate(-370.41 -148.774)" fill="#fec2ce" fill-rule="evenodd"/>
              <path id="Fill-73-2" data-name="Fill-73" d="M226.3,5.51l-.308.059.308-.059" transform="translate(-205.628 -5.014)" fill="#f792a6" fill-rule="evenodd"/>
              <path id="Fill-75-2" data-name="Fill-75" d="M404.207,5.948l-.3-.052.3.052" transform="translate(-367.465 -5.366)" fill="#fcdde3" fill-rule="evenodd"/>
              <path id="Fill-77-2" data-name="Fill-77" d="M220.59,6.346l-.308.059.308-.059" transform="translate(-200.435 -5.775)" fill="#f792a6" fill-rule="evenodd"/>
              <path id="Fill-79-2" data-name="Fill-79" d="M409.921,6.759l-.3-.058.3.058" transform="translate(-372.663 -6.098)" fill="#fcdde3" fill-rule="evenodd"/>
              <path id="Fill-81-2" data-name="Fill-81" d="M214.887,7.212l-.309.06.309-.06" transform="translate(-195.246 -6.563)" fill="#f792a6" fill-rule="evenodd"/>
              <path id="Fill-83-2" data-name="Fill-83" d="M362.488,167.376l-.225.058.225-.058" transform="translate(-329.583 -152.25)" fill="#fec0cd" fill-rule="evenodd"/>
              <path id="Fill-85-2" data-name="Fill-85" d="M414.729,162.758l-.241.057.241-.057" transform="translate(-377.088 -148.05)" fill="#fec2ce" fill-rule="evenodd"/>
              <path id="Fill-87-2" data-name="Fill-87" d="M415.561,7.567l-.224-.048.224.048" transform="translate(-377.859 -6.842)" fill="#fcdde3" fill-rule="evenodd"/>
              <path id="Fill-89-2" data-name="Fill-89" d="M210.336,7.8c.053,0-.027-.178.243-.11l-.243.11" transform="translate(-191.388 -6.983)" fill="#f792a6" fill-rule="evenodd"/>
              <path id="Fill-91-2" data-name="Fill-91" d="M54.788,54.831l-.2.132.2-.132" transform="translate(-49.717 -49.877)" fill="#fbd5dd" fill-rule="evenodd"/>
              <path id="Fill-93-2" data-name="Fill-93" d="M269.234,342.672l.16.034-.16-.034" transform="translate(-244.963 -311.701)" fill="#feb9c7" fill-rule="evenodd"/>
              <path id="Fill-95-2" data-name="Fill-95" d="M233.458,4.368l-.152.053c.016-.069-.022-.067.152-.053" transform="translate(-212.282 -3.968)" fill="#f792a6" fill-rule="evenodd"/>
              <path id="Fill-97-2" data-name="Fill-97" d="M341.076,339.306l.144-.017-.144.017" transform="translate(-310.311 -308.625)" fill="#fec8d3" fill-rule="evenodd"/>
              <path id="Fill-99-2" data-name="Fill-99" d="M36.728,67.986l-.083.065.083-.065" transform="translate(-33.397 -61.844)" fill="#fbd5dd" fill-rule="evenodd"/>
              <path id="Fill-101-2" data-name="Fill-101" d="M212.5,160.757c-.237.27-.6.041-1.177.008.284-.275.5-.191,1.177-.008" transform="translate(-192.288 -146.076)" fill="#f792a6" fill-rule="evenodd"/>
              <path id="Fill-103-2" data-name="Fill-103" d="M258.471,1.748l.673-.053-.673.053" transform="translate(-235.173 -1.545)" fill="#fabdc9" fill-rule="evenodd"/>
              <path id="Fill-105-2" data-name="Fill-105" d="M250.453,2.61l.514-.021-.514.021" transform="translate(-227.879 -2.358)" fill="#fabdc9" fill-rule="evenodd"/>
              <path id="Fill-107-2" data-name="Fill-107" d="M307.641,1.111a.44.44,0,0,1,0,.067l-.159-.029.157-.038" transform="translate(-279.755 -1.013)" fill="#f5708a" fill-rule="evenodd"/>
            </g>
            <g id="Outline-2" transform="translate(0 4.734)">
              <path id="Fill-110" d="M3.121,9.608c12.107,8.277,33.669,7.169,43.268,4.606C64.536,8.893,38.146,2.731,32.37,2.755,21,2.13,9.692,4.656,3.121,9.608m-.443,2.705c4.607,15.752,16.257,23.517,30.815,19.6,11.433-2.424,18.184-8.1,19.771-18.284-13.042,8.377-41.679,4.76-50.587-1.318M27.63.206C38.654.375,60.238,2.772,54.924,17.315c-3.27,12.642-16.769,17.337-28.549,18C9.106,36.3-.466,16.466.017,9.652,4.592,2.387,22.916.194,27.63.206" transform="translate(0.001 -0.206)" fill-rule="evenodd"/>
            </g>
            <g id="Color-1" transform="translate(2.499 1.535)">
              <path id="Fill-113-2" data-name="Fill-113" d="M35.224,2.279a5.215,5.215,0,0,1,4.63,2.33,6.835,6.835,0,0,1,7.157,1.614c1.944,2,.032,2.938,1.858,3.72,2.813.6,3.084,3.952.865,5.613-7.894,7.695-44.065,4.88-48.832-2C.182,11.408.966,9.769,3.55,9.72A5.715,5.715,0,0,1,7.166,5.113a5.841,5.841,0,0,1,4.5.193c1.15-.966,1.871-3.517,4-4.072a5.65,5.65,0,0,1,5.172.5c.793.286,1,1.5,1.968.778A7.768,7.768,0,0,1,26.893.977c6.7.46,1.522,3.21,8.331,1.3" transform="translate(-0.648 -0.823)" fill="#e2912c" fill-rule="evenodd"/>
              <path id="Fill-115-2" data-name="Fill-115" d="M255.952,211.837a6.633,6.633,0,0,1-1.7-.076c.346.083,1.153-.221,1.7.076" transform="translate(-231.332 -192.642)" fill="#ddfedc" fill-rule="evenodd"/>
              <path id="Fill-117-2" data-name="Fill-117" d="M226.045,210.358a5.409,5.409,0,0,1-2.073-.194,7.532,7.532,0,0,1,2.073.194" transform="translate(-203.786 -191.242)" fill="#ddfedc" fill-rule="evenodd"/>
              <path id="Fill-119-2" data-name="Fill-119" d="M330.671,211.863l-1.4.074c.255-.247.723-.034,1.4-.074" transform="translate(-299.564 -192.744)" fill="#d3fed2" fill-rule="evenodd"/>
              <path id="Fill-121-2" data-name="Fill-121" d="M376.887,211c-.331.256-.686.133-1.037.068l1.037-.068" transform="translate(-341.937 -192.007)" fill="#e4fee4" fill-rule="evenodd"/>
              <path id="Fill-123-2" data-name="Fill-123" d="M181.632.95l.3-.064-.3.064" transform="translate(-165.273 -0.88)" fill="#d6fed5" fill-rule="evenodd"/>
              <path id="Fill-125-2" data-name="Fill-125" d="M297.8,213.153l-.295,0,.295,0" transform="translate(-270.669 -193.958)" fill="#ddfedc" fill-rule="evenodd"/>
              <path id="Fill-127-2" data-name="Fill-127" d="M192.97.891l.228.061L192.97.891" transform="translate(-175.586 -0.885)" fill="#d6fed5" fill-rule="evenodd"/>
              <path id="Fill-129-2" data-name="Fill-129" d="M200.317,1.7l.228.063-.228-.063" transform="translate(-182.269 -1.618)" fill="#d6fed5" fill-rule="evenodd"/>
              <path id="Fill-131-2" data-name="Fill-131" d="M284.441,2.582l.228-.057-.228.057" transform="translate(-258.79 -2.371)" fill="#d5fed4" fill-rule="evenodd"/>
              <path id="Fill-133-2" data-name="Fill-133" d="M216.937,210.022l-.221,0,.221,0" transform="translate(-197.186 -191.109)" fill="#ddfedc" fill-rule="evenodd"/>
              <path id="Fill-135-2" data-name="Fill-135" d="M303.128,2.538l.154.062Z" transform="translate(-275.787 -2.383)" fill="#d5fed4" fill-rule="evenodd"/>
              <path id="Fill-137-2" data-name="Fill-137" d="M308.027,3.342l.154.062-.154-.062" transform="translate(-280.244 -3.114)" fill="#d5fed4" fill-rule="evenodd"/>
              <path id="Fill-139-2" data-name="Fill-139" d="M311.345,4.053l.081.064-.081-.064" transform="translate(-283.262 -3.761)" fill="#d5fed4" fill-rule="evenodd"/>
            </g>
            <path id="Outline-1" d="M32.952,10.919c-2.255.789-3.547-.719-3.989.978-.833,3.4,1.776,3.268,3.575,1.991a8,8,0,0,1,.414-2.968m17.13,4.973c4.142-.453,6.368-3.529,1.452-4.357-3.454.32-5.289,3.985-1.452,4.357M41.651,9.5c-5.961-2.855-9.642,5.34-5.274,4.629,4.189-.361,2.929-2.818,5.274-4.629m6.777,1.03c-1.242-.138-2.044-1.438-3.109-1.482-5.436,3.294-5.729,9.193.494,5.463a5.334,5.334,0,0,1,2.615-3.981m8.663,3.412c-1.571,7.5,13.5-1.1,5.724-2.94-1.154,2.1-3.258,2.961-5.724,2.94M51.073,8.871c6.857-1.169-.322-6.979-3.489-5.363-.683,5-1.223,4.814,3.489,5.363m6.133,3.075c7.845-.436,2.587-7.644-1.593-6.575.147,1.084.511,2.264-.18,3.266-2.787,2.187.271,3.011,1.773,3.309M42.784,7.559C47.31,7.462,45.809,1.6,41.657,2c-6.051.243-4.025,6.023,1.128,5.555M23.413,12.932C34.3,5.839,19.358,3.181,19.723,9.209a6.075,6.075,0,0,1,3.689,3.723m7.547-3.645c4.326-.027,7.926-6.243,2.79-7.1-2.87-.633-7.308,1.835-4.646,4.783.6,1.961-.464,1.923,1.856,2.315M26.8,12.853c-2.159,1.759-3.1,1.285-2.925,4.145-.025,2.006-1.879,1.727-1.878-.3.525-3.4-2.743-7.521-5.677-5.2-1.3,8.357-4.966-1.941.964-2.581.375-.293.247-.876.568-1.44,2.28-4.06,5.319-3.629,8.55-3.43.768-2.171,3.867-4.193,6.992-3.9,5.774,1.827,2.882,1.049,7.058.008,2.319-.59,4.287.611,6.187,1.623a7.859,7.859,0,0,1,7.932,1.81,4.8,4.8,0,0,1,3.232-.1c2.762.648,4.248,2.274,5.443,4.833,11.355,6.957-6.712,14.8-8.285,7.672-.889.906-2.679,1.152-3.7,1.975.453,1.244.47,3.77-1.423,2.014-.459-2.869-1.636-2.323-3.4-3.536-.688.531-2.915.478-2.248,2.031,1.033,2.271-.941,3.393-1.791,1.3-.377-1.261.236-2.158-1.65-2.441.22,1.427-.224,4.419-1.922,2.25-.369-1.069.506-3.32-1.04-3.708-3.617.193-2.987,1.678-4.884,3.951-2.672.516-.555-2.707.106-3.866-1.175.724-2.9.634-4.309.7-.479,1.523-3.824,4.178-3.409,1.139,1.645-1.767,2.348-2.588,1.511-4.938" transform="translate(-12.735 0)" fill-rule="evenodd"/>
          </g>
        </g>
      </g>
    </g>
  </g>
</svg>
