<svg xmlns="http://www.w3.org/2000/svg" width="165.553" height="165" viewBox="0 0 165.553 165">
  <g id="Groupe_144" data-name="Groupe 144" transform="translate(-593 -255)">
    <circle id="Ellipse_265" data-name="Ellipse 265" cx="82.5" cy="82.5" r="82.5" transform="translate(593 255)" fill="#daeeff"/>
    <g id="Background_Nature_3" data-name="Background/Nature 3" transform="translate(758.553 411.722) rotate(180)">
      <g id="Group-79-Copy" transform="translate(16.447 40.104)">
        <g id="Group-3" transform="translate(2.642 0)">
          <path id="Fill-1" d="M55.727,4.6c.1-.014.151.066.218.116a11.257,11.257,0,0,1,2.56,2.8,54.514,54.514,0,0,1,3.216,5.7c.454.888.891,1.785,1.384,2.651,1.055,1.852,2.075,3.722,3.044,5.619.665,1.3,1.406,2.557,2.183,3.795a11.527,11.527,0,0,1,1.143,2.071c.06.162.225.382-.02.5s-.309-.137-.407-.285C68.7,27.035,68.36,26.5,68,25.976a33.524,33.524,0,0,1-1.935-3.04c-.5-.9-.972-1.819-1.472-2.72C63.7,18.61,62.757,17.029,61.9,15.4c-.979-1.855-1.882-3.749-2.907-5.58a21.705,21.705,0,0,0-2.664-3.905,4.03,4.03,0,0,1-.658-1.1c-.033-.077-.048-.167.058-.216m47.939,41.7a2.974,2.974,0,0,1,1.43.325,3.838,3.838,0,0,1,1.9,2.084.721.721,0,0,1-.073.776c-.611.767-1.091,1.63-1.746,2.367-.342.385-.636.813-.952,1.221a32.462,32.462,0,0,1-2.98,3.282,3.745,3.745,0,0,1-3.176,1.035,7.91,7.91,0,0,1-4.273-1.9,73.034,73.034,0,0,1-7.805-7.809c-.17-.194-.317-.407-.468-.617a1.2,1.2,0,0,1-.142-.272.2.2,0,0,1,.044-.238.209.209,0,0,1,.241,0,2.508,2.508,0,0,1,.2.158,6.1,6.1,0,0,0,2.24,1.011,1.914,1.914,0,0,0,1.855-.49c.505-.49,1.056-.936,1.6-1.38a5.57,5.57,0,0,1,2.717-1.167,2.526,2.526,0,0,1,2.272.708,6.648,6.648,0,0,1,1.071,1.384c.176.3.35.593.536.882a1.237,1.237,0,0,0,.835.55,1.63,1.63,0,0,0,1.366-.3c.3-.226.58-.485.865-.735a3.54,3.54,0,0,1,2.434-.877m-54.013-5.93c-.189,0-.379.008-.568,0A22.366,22.366,0,0,1,40.648,38.2a43.855,43.855,0,0,1-5.782-3.489c-.485-.325-.958-.671-1.43-1.015-.109-.08-.227-.194-.135-.346.074-.121.214-.086.331-.059s.232.062.347.1c.474.155.946.316,1.42.468a13.53,13.53,0,0,0,4.054.677A1.559,1.559,0,0,0,40.686,34a7.693,7.693,0,0,0,.9-1.255c.244-.415.478-.838.747-1.236a5.928,5.928,0,0,1,2.191-2,2.726,2.726,0,0,1,3.14.277,6.461,6.461,0,0,1,1.193,1.28c.363.48.715.97,1.09,1.44a3.835,3.835,0,0,0,1.03.93,1.091,1.091,0,0,0,1.541-.146c.353-.327.676-.686,1.01-1.034a5.5,5.5,0,0,1,1.713-1.22c1.213-.547,1.78-.344,2.354.856a7.39,7.39,0,0,0,.715,1.252,1.971,1.971,0,0,0,1.123.771,8.694,8.694,0,0,0,2.082.323,1.052,1.052,0,0,1,.205.015c.137.029.277.069.315.227a.314.314,0,0,1-.138.313c-.154.137-.3.279-.459.416a30.2,30.2,0,0,1-4.273,2.972,13.376,13.376,0,0,1-7.517,2.193m-10.519-.614c.189-.055.328.07.479.139a29.114,29.114,0,0,0,8.173,2.43,15.256,15.256,0,0,0,5.136.046,23.788,23.788,0,0,0,4.339-1.3,55.114,55.114,0,0,0,6.769-3.51c2.137-1.25,4.283-2.486,6.369-3.821a5.551,5.551,0,0,1,1.828-.812,1.406,1.406,0,0,1,1.289.34,5.123,5.123,0,0,1,.715.812c1.144,1.508,2.349,2.966,3.557,4.424a78.972,78.972,0,0,1,5,6.762,80.892,80.892,0,0,0,7.148,9.2,15.722,15.722,0,0,0,5.594,4.139,10.843,10.843,0,0,0,2.182.556,4.554,4.554,0,0,0,3.622-.952,24.14,24.14,0,0,0,3.474-3.433c.676-.8,1.27-1.661,1.909-2.489.444-.716.854-1.456,1.337-2.144a37.576,37.576,0,0,0,3.894-7.432c1.053-2.566,1.915-5.2,2.859-7.8.628-1.731,1.3-3.445,2.079-5.113.489-1.044.922-2.112,1.333-3.189a31.464,31.464,0,0,1,1.974-4.2,50.141,50.141,0,0,1,3.146-4.97,15.968,15.968,0,0,1,1.928-2.15,8.782,8.782,0,0,1,1.276-.961c.409-.269.411-.554.017-.851q-2.847-2.144-5.869-4.034a26.267,26.267,0,0,0-6.052-2.6,107.279,107.279,0,0,0-13.533-3.239c-2.61-.465-5.242-.774-7.884-.981a50.214,50.214,0,0,0-7.53-.117c-1.957.141-3.9.382-5.85.622q-2.742.338-5.5.512c-2.853.184-5.709.25-8.566.168a35.324,35.324,0,0,1-7.792-1.168c-1.765-.454-3.52-.944-5.289-1.382A47.028,47.028,0,0,0,45.98.2,42.655,42.655,0,0,0,39.793.05a42.4,42.4,0,0,0-12.8,2.783C23.556,4.1,20.165,5.485,16.778,6.877c-1.67.686-3.37,1.293-5.067,1.909-1.181.429-2.342.9-3.478,1.437-1.914.9-3.876,1.691-5.841,2.474A8.763,8.763,0,0,0,0,14.274a44.233,44.233,0,0,1,4.312,1.862c.544.253,1.082.52,1.633.758a39.4,39.4,0,0,1,6.213,3.344c1.977,1.312,3.871,2.738,5.761,4.171,1.684,1.277,3.332,2.6,4.989,3.909,1.591,1.257,3.183,2.512,4.8,3.74q2.153,1.639,4.348,3.222a47.427,47.427,0,0,0,6.678,4.184c.149.073.336.105.4.295" fill="#3c2917" fill-rule="evenodd"/>
        </g>
        <g id="Group-6" transform="translate(0 15.289)">
          <path id="Fill-4" d="M32.239,21.489a1.261,1.261,0,0,1-.256.606.142.142,0,0,1-.135.011.136.136,0,0,1-.05-.122.942.942,0,0,1,.442-.495m2.475.937a1.657,1.657,0,0,1-.256,1.195c-.048.091-.117.187-.237.125s-.1-.174-.065-.271a2.53,2.53,0,0,1,.559-1.049M25.2,68.546a1.767,1.767,0,0,1-.356,1.3.177.177,0,0,1-.218.09.159.159,0,0,1-.1-.211,3.058,3.058,0,0,1,.67-1.183m3.853-29.982a3.27,3.27,0,0,1-.6,1.412.16.16,0,1,1-.282-.15,3.677,3.677,0,0,1,.88-1.262M14.924,9.907A8.612,8.612,0,0,1,14.35,8.5c-.047-.158-.089-.329.1-.391s.254.133.312.266a5.04,5.04,0,0,1,.3,1.084.545.545,0,0,1-.138.449M17.476,24.8a3.475,3.475,0,0,1,.494,1.567c.014.121-.012.256-.162.273s-.2-.115-.233-.228a2.79,2.79,0,0,1-.1-1.612m16.518-3a3.189,3.189,0,0,1-.668,1.564.213.213,0,0,1-.272.079.188.188,0,0,1-.1-.258A2.925,2.925,0,0,1,33.994,21.8M18.532,55.692c.056-.032.118-.041.146,0a2.57,2.57,0,0,1,.466,1.4c0,.143-.01.293-.185.321s-.231-.122-.272-.253a3.685,3.685,0,0,1-.155-1.468M12.1,11.428A3.964,3.964,0,0,1,11.1,9.781a.35.35,0,0,1-.017-.1c0-.106,0-.218.12-.255a.21.21,0,0,1,.248.138,5.83,5.83,0,0,1,.273.612,4.991,4.991,0,0,1,.37,1.254M31.473,40.086a2.317,2.317,0,0,1-.743,1.786.136.136,0,0,1-.183.036.161.161,0,0,1-.082-.172.852.852,0,0,1,.066-.245,4.782,4.782,0,0,1,.943-1.4M21.241,55.062c.1-.038.145-.015.175.029a3.34,3.34,0,0,1,.469,1.813c.006.123-.044.246-.2.256a.231.231,0,0,1-.229-.175,4.194,4.194,0,0,1-.219-1.922m-.854-29.8a3.028,3.028,0,0,1,.449,2.19.318.318,0,0,1-.037.1.2.2,0,0,1-.192.141.2.2,0,0,1-.183-.155,2.964,2.964,0,0,1-.107-.552,3.2,3.2,0,0,1,.07-1.719M30.8,39.023a1.3,1.3,0,0,1-.21.776c-.217.468-.452.928-.693,1.384-.087.166-.135.47-.412.334-.232-.113-.127-.368-.049-.552A5.949,5.949,0,0,1,30.5,39.209c.079-.085.134-.207.3-.186M14.089,11.044c-.2-.053-.283-.232-.381-.381a14.772,14.772,0,0,1-.93-1.712c-.076-.155-.289-.356-.082-.495s.373.1.5.249a4.354,4.354,0,0,1,.872,1.781c.041.17.163.347.026.558m4.953,13.635c.152-.01.166.064.193.124a6.3,6.3,0,0,1,.514,2.658,2.294,2.294,0,0,1-.026.359.219.219,0,0,1-.431.037,1.5,1.5,0,0,1-.06-.3c-.063-.494-.134-.987-.18-1.482a6.413,6.413,0,0,1-.01-1.4m5.6,42.532c.037.085.051.1.05.116a11.92,11.92,0,0,1-1.145,3.222.249.249,0,0,1-.028.043.19.19,0,0,1-.358-.1,1.054,1.054,0,0,1,.057-.454,19.257,19.257,0,0,1,.82-2.047,1.785,1.785,0,0,1,.6-.779m-4.925-12.9a1.183,1.183,0,0,1,.337.554,19.489,19.489,0,0,1,.609,2.766.566.566,0,0,1,0,.205.164.164,0,0,1-.3.087.873.873,0,0,1-.182-.306,7.931,7.931,0,0,1-.256-.891,6.176,6.176,0,0,1-.2-2.414m22.178-29.64c-.067-.19-.254-.221-.4-.295a47.474,47.474,0,0,1-6.683-4.184q-2.2-1.581-4.352-3.222c-1.614-1.228-3.208-2.483-4.8-3.74C24,11.921,22.348,10.6,20.663,9.321,18.771,7.888,16.875,6.462,14.9,5.151A39.472,39.472,0,0,0,8.679,1.807c-.551-.237-1.09-.5-1.635-.758-.1.214-.295.137-.452.132A8.14,8.14,0,0,1,4.469.766C3.681.522,2.9.239,2.092.07A2.483,2.483,0,0,0,.766.112,1.047,1.047,0,0,0,0,1.157,3.782,3.782,0,0,0,.436,2.894,15.991,15.991,0,0,0,2.83,6.436c1.406,1.608,2.85,3.182,4.225,4.816a25.194,25.194,0,0,1,3.966,6.142,9.644,9.644,0,0,1,.721,2.255c.008.051.021.1.027.152.1.785-.178,1.07-.953.958a8.922,8.922,0,0,1-1.989-.541c-.769-.3-1.532-.619-2.3-.918a4.539,4.539,0,0,0-1.7-.392,1.277,1.277,0,0,0-1.372,1.533,7.229,7.229,0,0,0,.452,1.8,28.075,28.075,0,0,0,1.682,3.542c1.51,2.748,3.235,5.367,4.852,8.051,1.092,1.814,2.241,3.594,3.225,5.472a13.852,13.852,0,0,1,1.064,2.516,1.148,1.148,0,0,1,.047.768,2.366,2.366,0,0,1-.924-.452,27.024,27.024,0,0,1-2.766-2.163c-.534-.461-1.061-.933-1.639-1.341a4.092,4.092,0,0,0-1.186-.617,1.14,1.14,0,0,0-1.583,1.31A7.331,7.331,0,0,0,7,40.732a22.565,22.565,0,0,0,1.6,3.69c1.127,2.169,2.311,4.308,3.384,6.506,1.346,2.758,2.4,5.635,3.509,8.491.883,2.279,1.829,4.532,2.643,6.838a51.754,51.754,0,0,1,1.926,7.331,6.57,6.57,0,0,1,.1,1.13,16.862,16.862,0,0,0,.854,4.551,1.793,1.793,0,0,0,.494.836.7.7,0,0,0,1.09-.017,1.911,1.911,0,0,0,.261-.319,6.388,6.388,0,0,0,.425-.707c1.127-2.363,2.452-4.623,3.61-6.969a18.92,18.92,0,0,1,1.017-1.8c.982-1.54,1.866-3.138,2.71-4.755.924-1.769,1.91-3.508,2.71-5.341a8.849,8.849,0,0,0,.725-2.253,2.844,2.844,0,0,0-.035-1.026.762.762,0,0,0-.915-.7,4.281,4.281,0,0,0-2.016.737c-.286.19-.551.413-.825.622a1.323,1.323,0,0,1-.463.294,6.626,6.626,0,0,1,.345-1.779,18.735,18.735,0,0,1,1.737-3.739c1.637-2.674,3.367-5.285,5.213-7.82,1.186-1.628,2.33-3.287,3.49-4.934.317-.451.641-.9.994-1.32a13.146,13.146,0,0,0,2.2-3.893,5.443,5.443,0,0,0,.265-2.947,1.381,1.381,0,0,0-1.335-1.277,6.993,6.993,0,0,0-2.254.178c-.389.071-.774.166-1.162.246-.176.036-.269-.03-.227-.22.049-.218.092-.439.158-.651a9.4,9.4,0,0,1,.968-2.162q.748-1.207,1.477-2.427a.934.934,0,0,0,.219-.458" transform="translate(0 0)" fill="#747b44" fill-rule="evenodd"/>
        </g>
        <path id="Fill-7" d="M11.269,2.489A24.138,24.138,0,0,1,7.8,5.923a4.543,4.543,0,0,1-3.617.953A10.829,10.829,0,0,1,2,6.319a.414.414,0,0,1-.1.232A7.829,7.829,0,0,0,.1,10.812a9.909,9.909,0,0,0,1.1,6.241,11.326,11.326,0,0,0,3.33,3.615,12.2,12.2,0,0,0,5.984,2.306,9.57,9.57,0,0,0,4.794-.63,8.549,8.549,0,0,0,3.3-2.5,15.278,15.278,0,0,0,3.209-6.174,12.96,12.96,0,0,0,.36-3.994,7.846,7.846,0,0,0-1.148-3.5,17.273,17.273,0,0,0-2.5-3.272A10.121,10.121,0,0,0,13.571.113c-.133-.032-.264-.075-.4-.113C12.537.828,11.944,1.69,11.269,2.489Z" transform="translate(96.063 52.474)" fill="#d5bb67" fill-rule="evenodd"/>
        <path id="Fill-9" d="M0,2.145C0,2.5,0,2.852,0,3.206c0,.19.058.365.3.4.275.037.389-.124.435-.338A6.839,6.839,0,0,0,.778,1.259a10.714,10.714,0,0,0-.2-1.1A.174.174,0,0,0,.448,0C.322-.018.283.075.253.158A3.4,3.4,0,0,0,0,1.3c0,.283,0,.566,0,.849Z" transform="translate(106.891 78.294)" fill="#d5bb67" fill-rule="evenodd"/>
        <path id="Fill-11" d="M2.2,0a1.921,1.921,0,0,0-.8.62c-.412.5-.8,1.03-1.2,1.549a1.787,1.787,0,0,0-.135.222c-.063.114-.1.23.011.337.093.091.182.036.266-.023a1.667,1.667,0,0,0,.2-.152A8.063,8.063,0,0,0,1.959.871,1.087,1.087,0,0,0,2.2,0" transform="translate(119.107 49.42)" fill="#d5bb67" fill-rule="evenodd"/>
        <path id="Fill-13" d="M3.332.69A.986.986,0,0,0,2.719.276,5.739,5.739,0,0,0,.416.013.533.533,0,0,0,.166.089a.3.3,0,0,0-.019.52.589.589,0,0,0,.246.1,11.912,11.912,0,0,0,2.85.074c.026,0,.05-.049.09-.091" transform="translate(86.623 65.245)" fill="#d5bb67" fill-rule="evenodd"/>
        <path id="Fill-15" d="M3.332.372A1.81,1.81,0,0,0,2.323.03,16.046,16.046,0,0,0,.483.023a.865.865,0,0,0-.1.007C.21.056.005.09,0,.261c-.006.2.222.175.383.2A12.757,12.757,0,0,0,2.728.538a1.344,1.344,0,0,0,.6-.166" transform="translate(124.659 62.746)" fill="#d5bb67" fill-rule="evenodd"/>
        <path id="Fill-17" d="M1.907,2.194a.816.816,0,0,0-.177-.749A6.6,6.6,0,0,0,.486.119C.374.025.23-.073.088.078A.263.263,0,0,0,.069.451,11.415,11.415,0,0,0,1.7,2.176a.171.171,0,0,0,.207.018" transform="translate(119.94 76.35)" fill="#d5bb67" fill-rule="evenodd"/>
        <path id="Fill-19" d="M1.622,2.207a.432.432,0,0,0,0-.385A5.228,5.228,0,0,0,.517.162.614.614,0,0,0,.3.023.2.2,0,0,0,0,.229a.4.4,0,0,0,.044.14,4.975,4.975,0,0,0,1.34,1.8.233.233,0,0,0,.237.041" transform="translate(113.554 79.127)" fill="#d5bb67" fill-rule="evenodd"/>
        <path id="Fill-21" d="M2.5,0A5.383,5.383,0,0,0,.175,1.665a1.029,1.029,0,0,0-.135.229c-.05.1-.068.213.036.288a.255.255,0,0,0,.3-.025.422.422,0,0,0,.042-.034A19.762,19.762,0,0,0,2.255.481.737.737,0,0,0,2.5,0" transform="translate(93.286 75.517)" fill="#d5bb67" fill-rule="evenodd"/>
        <path id="Fill-23" d="M1.111,0a.711.711,0,0,0-.4.5C.494,1.059.289,1.625.08,2.189A.7.7,0,0,0,0,2.549a.24.24,0,0,0,.39.175.713.713,0,0,0,.222-.292A5.593,5.593,0,0,0,1.111,0" transform="translate(100.227 78.571)" fill="#d5bb67" fill-rule="evenodd"/>
        <path id="Fill-25" d="M1.111.318c-.019-.146.012-.263-.1-.306a.209.209,0,0,0-.241.1A1.61,1.61,0,0,0,.549.43,11.554,11.554,0,0,0,.034,1.869c-.034.11-.07.243.041.317C.2,2.27.317,2.192.4,2.08A4.447,4.447,0,0,0,1.111.318" transform="translate(115.497 45.255)" fill="#d5bb67" fill-rule="evenodd"/>
        <path id="Fill-27" d="M2.211.015a.883.883,0,0,0-.691.218A8.058,8.058,0,0,0,.169,1.414a.523.523,0,0,0-.164.277.214.214,0,0,0,.05.2.146.146,0,0,0,.2.019A9.9,9.9,0,0,0,2.113.334a.35.35,0,0,0,.1-.319" transform="translate(122.716 54.972)" fill="#d5bb67" fill-rule="evenodd"/>
        <path id="Fill-29" d="M.266,0C.091.007.014.085,0,.219A.382.382,0,0,0,.144.53,5.5,5.5,0,0,0,1.463,1.547a1.432,1.432,0,0,0,.244.1.192.192,0,0,0,.2-.023.134.134,0,0,0,0-.182,3.886,3.886,0,0,0-.3-.413A7.244,7.244,0,0,0,.531.128,1.394,1.394,0,0,0,.266,0" transform="translate(89.122 54.695)" fill="#d5bb67" fill-rule="evenodd"/>
        <path id="Fill-31" d="M1.723,0a2.463,2.463,0,0,0-1,.444C.527.571.335.713.148.861a.321.321,0,0,0-.128.377.23.23,0,0,0,.338.121,3.466,3.466,0,0,0,1.5-1A.253.253,0,0,0,1.934.112.208.208,0,0,0,1.723,0" transform="translate(89.955 71.075)" fill="#d5bb67" fill-rule="evenodd"/>
        <path id="Fill-33" d="M1.943,1.061A.654.654,0,0,0,1.615.576,4.058,4.058,0,0,0,.356.022C.216-.02.074-.016.018.154A.24.24,0,0,0,.129.468a5.138,5.138,0,0,0,1.708.642c.029,0,.06-.027.106-.049" transform="translate(124.382 70.798)" fill="#d5bb67" fill-rule="evenodd"/>
        <path id="Fill-35" d="M2.221,1.111A4.305,4.305,0,0,0,.772.2C.6.128.419.067.238.012A.172.172,0,0,0,.017.09C-.03.183.029.253.093.308A2.539,2.539,0,0,0,.77.669a4.668,4.668,0,0,0,1.451.441" transform="translate(88.289 59.97)" fill="#d5bb67" fill-rule="evenodd"/>
        <path id="Fill-37" d="M0,.084a.1.1,0,0,0,.1.13A.128.128,0,0,0,.2.164.107.107,0,0,0,.151.008.116.116,0,0,0,0,.084" transform="translate(125.244 66.109)" fill="#d5bb67" fill-rule="evenodd"/>
        <path id="Fill-39" d="M16.439,11.1a13.572,13.572,0,0,0,7.542-2.166A30.345,30.345,0,0,0,28.268,6c.155-.135.306-.275.46-.411a.309.309,0,0,0,.138-.31c-.039-.156-.179-.2-.316-.224a1.037,1.037,0,0,0-.206-.015,8.867,8.867,0,0,1-2.089-.319,1.981,1.981,0,0,1-1.127-.761,7.266,7.266,0,0,1-.717-1.237c-.575-1.186-1.145-1.386-2.361-.845A5.522,5.522,0,0,0,20.331,3.08c-.335.343-.659.7-1.013,1.021a1.106,1.106,0,0,1-1.546.145,3.831,3.831,0,0,1-1.033-.919c-.377-.465-.73-.948-1.094-1.423A6.423,6.423,0,0,0,14.447.64,2.768,2.768,0,0,0,11.3.367,5.914,5.914,0,0,0,9.1,2.339c-.27.394-.505.811-.75,1.221A7.592,7.592,0,0,1,7.443,4.8a1.574,1.574,0,0,1-1.237.532,13.767,13.767,0,0,1-4.067-.669c-.476-.15-.95-.309-1.425-.463C.6,4.163.483,4.128.365,4.1s-.258-.061-.332.059c-.093.151.025.264.135.342.474.34.948.681,1.435,1A44.16,44.16,0,0,0,7.4,8.953,22.718,22.718,0,0,0,15.87,11.1c.189.009.38,0,.569,0" transform="translate(35.815 29.43)" fill="#fefdfd" fill-rule="evenodd"/>
        <path id="Fill-41" d="M18.255,1.655a3.527,3.527,0,0,0-2.428.876c-.284.249-.561.509-.863.735a1.624,1.624,0,0,1-1.363.3,1.235,1.235,0,0,1-.833-.55c-.186-.289-.359-.586-.535-.882A6.634,6.634,0,0,0,11.165.746,2.516,2.516,0,0,0,8.9.038a5.552,5.552,0,0,0-2.71,1.167c-.546.444-1.1.889-1.6,1.38a1.905,1.905,0,0,1-1.85.49A6.074,6.074,0,0,1,.506,2.064a2.514,2.514,0,0,0-.2-.158.209.209,0,0,0-.241,0,.2.2,0,0,0-.044.238,1.2,1.2,0,0,0,.142.272c.15.21.3.423.466.616A72.887,72.887,0,0,0,8.413,10.84a7.877,7.877,0,0,0,4.262,1.9,3.73,3.73,0,0,0,3.167-1.035,32.451,32.451,0,0,0,2.972-3.281c.316-.407.609-.835.95-1.22.653-.737,1.131-1.6,1.741-2.366a.722.722,0,0,0,.072-.776,3.834,3.834,0,0,0-1.9-2.084,2.958,2.958,0,0,0-1.426-.325" transform="translate(88.011 44.7)" fill="#fefdfd" fill-rule="evenodd"/>
        <path id="Fill-43" d="M.082,0C-.023.05-.009.141.024.218a4.043,4.043,0,0,0,.656,1.1A21.753,21.753,0,0,1,3.333,5.234c1.021,1.835,1.92,3.732,2.9,5.59.854,1.627,1.789,3.211,2.678,4.82.5.9.97,1.821,1.466,2.725A33.619,33.619,0,0,0,12.3,21.416c.363.521.7,1.062,1.048,1.592.1.149.175.4.406.286s.079-.338.019-.5a11.57,11.57,0,0,0-1.138-2.075c-.773-1.24-1.511-2.5-2.174-3.8-.965-1.9-1.98-3.774-3.031-5.63C6.938,10.419,6.5,9.519,6.051,8.63a54.709,54.709,0,0,0-3.2-5.707A11.254,11.254,0,0,0,.3.118C.233.068.183-.012.082,0" transform="translate(58.304 4.72)" fill="#020201" fill-rule="evenodd"/>
        <path id="Fill-45" d="M.062,0A5.412,5.412,0,0,0,.287,2.364a7.082,7.082,0,0,0,.281.873.844.844,0,0,0,.2.3A.184.184,0,0,0,1.1,3.452a.5.5,0,0,0,0-.2A17.287,17.287,0,0,0,.432.542,1.143,1.143,0,0,0,.062,0" transform="translate(19.712 69.687)" fill="#020201" fill-rule="evenodd"/>
        <path id="Fill-47" d="M1.612,0A1.864,1.864,0,0,0,.957.807,19.475,19.475,0,0,0,.068,2.929,1.044,1.044,0,0,0,.005,3.4a.208.208,0,0,0,.15.2.221.221,0,0,0,.238-.1A.271.271,0,0,0,.424,3.46,12.009,12.009,0,0,0,1.666.12c0-.015-.014-.032-.054-.12" transform="translate(23.044 82.458)" fill="#020201" fill-rule="evenodd"/>
        <path id="Fill-49" d="M.039,0a5.667,5.667,0,0,0,.011,1.39c.052.493.132.984.2,1.476a1.347,1.347,0,0,0,.067.3.245.245,0,0,0,.26.165.232.232,0,0,0,.224-.2,2.055,2.055,0,0,0,.029-.357A5.659,5.659,0,0,0,.255.124C.225.064.21-.009.039,0" transform="translate(18.879 39.98)" fill="#020201" fill-rule="evenodd"/>
        <path id="Fill-51" d="M1.6,2.5c.148-.2.015-.369-.029-.531A3.957,3.957,0,0,0,.629.277C.5.135.32-.093.095.04S.1.363.183.51a13.606,13.606,0,0,0,1,1.627c.106.142.193.312.411.362" transform="translate(12.494 23.599)" fill="#020201" fill-rule="evenodd"/>
        <path id="Fill-53" d="M1.378,0C1.222-.018,1.17.1,1.1.186A5.925,5.925,0,0,0,.088,1.92c-.074.182-.173.434.046.545C.4,2.6.442,2.3.524,2.135c.228-.45.45-.9.655-1.366A1.326,1.326,0,0,0,1.378,0" transform="translate(29.43 54.139)" fill="#020201" fill-rule="evenodd"/>
        <path id="Fill-55" d="M.136,0a3.907,3.907,0,0,0-.06,1.77,3.58,3.58,0,0,0,.092.569.18.18,0,0,0,.158.16c.085,0,.132-.062.166-.145a.369.369,0,0,0,.032-.1A3.622,3.622,0,0,0,.136,0" transform="translate(20.268 40.535)" fill="#020201" fill-rule="evenodd"/>
        <path id="Fill-57" d="M.025.02A5.541,5.541,0,0,0,.205,2.037c.029.1.092.192.188.184.125-.011.166-.14.161-.269A4.276,4.276,0,0,0,.169.05C.144,0,.108-.02.025.02" transform="translate(21.1 70.242)" fill="#020201" fill-rule="evenodd"/>
        <path id="Fill-59" d="M1.1,0A5.033,5.033,0,0,0,.075,1.48.871.871,0,0,0,0,1.739a.168.168,0,0,0,.089.182.15.15,0,0,0,.2-.037A2.412,2.412,0,0,0,1.1,0" transform="translate(30.263 55.25)" fill="#020201" fill-rule="evenodd"/>
        <path id="Fill-61" d="M1.111,1.943A4.407,4.407,0,0,0,.705.733a5.369,5.369,0,0,0-.3-.591A.236.236,0,0,0,.133.009C0,.044,0,.153,0,.255a.3.3,0,0,0,.019.1,3.77,3.77,0,0,0,1.09,1.59" transform="translate(11.106 24.71)" fill="#020201" fill-rule="evenodd"/>
        <path id="Fill-63" d="M.015.025a3.764,3.764,0,0,0,.137,1.4c.036.124.083.267.24.24s.162-.169.163-.305A2.572,2.572,0,0,0,.144.029C.119-.014.065,0,.015.025" transform="translate(18.602 70.798)" fill="#020201" fill-rule="evenodd"/>
        <path id="Fill-65" d="M1.111,0A2.942,2.942,0,0,0,.02,1.386a.185.185,0,0,0,.1.258A.23.23,0,0,0,.41,1.564,3.859,3.859,0,0,0,1,.477,3.782,3.782,0,0,0,1.111,0" transform="translate(32.761 36.926)" fill="#020201" fill-rule="evenodd"/>
        <path id="Fill-67" d="M.076,0A3.207,3.207,0,0,0,.171,1.7c.034.119.082.259.225.24s.17-.161.156-.289A3.922,3.922,0,0,0,.076,0" transform="translate(17.491 39.98)" fill="#020201" fill-rule="evenodd"/>
        <path id="Fill-69" d="M.672,1.943a.576.576,0,0,0,.151-.481A5.3,5.3,0,0,0,.5.3C.432.157.374-.057.154.014s-.162.25-.11.42a9.107,9.107,0,0,0,.629,1.51" transform="translate(14.16 23.322)" fill="#020201" fill-rule="evenodd"/>
        <path id="Fill-71" d="M.833,0A3.393,3.393,0,0,0,.02,1.164a.145.145,0,0,0,.059.2.145.145,0,0,0,.2-.065A3.014,3.014,0,0,0,.833,0" transform="translate(28.041 53.862)" fill="#020201" fill-rule="evenodd"/>
        <path id="Fill-73" d="M.808,0A2.931,2.931,0,0,0,.014,1.168a.151.151,0,0,0,.114.208.228.228,0,0,0,.259-.089A1.543,1.543,0,0,0,.808,0" transform="translate(24.432 83.847)" fill="#020201" fill-rule="evenodd"/>
        <path id="Fill-75" d="M.528,0A2.765,2.765,0,0,0,.021,1.087c-.03.1-.041.221.059.281S.252,1.333.3,1.238A1.916,1.916,0,0,0,.528,0" transform="translate(34.149 37.759)" fill="#020201" fill-rule="evenodd"/>
        <path id="Fill-77" d="M.555,0A1,1,0,0,0,0,.437C-.012.465.027.529.066.545A.243.243,0,0,0,.235.535.988.988,0,0,0,.555,0" transform="translate(31.651 36.648)" fill="#020201" fill-rule="evenodd"/>
      </g>
      <g id="Group-166" transform="translate(0 0)">
        <g id="Group-3-2" data-name="Group-3" transform="translate(0 0)">
          <path id="Fill-1-2" data-name="Fill-1" d="M151.08,53.251a31.454,31.454,0,0,0,3.714-1.195,19.069,19.069,0,0,0,6.036-3.54,8.386,8.386,0,0,0,2.767-4.941,10.88,10.88,0,0,0-.22-3.819,19.754,19.754,0,0,0-2.274-5.424,33.983,33.983,0,0,1-2.32-4.771,9.424,9.424,0,0,1-.566-3.118,49.331,49.331,0,0,1,.38-5.432,10.653,10.653,0,0,0-.153-3.111,11.376,11.376,0,0,0-3.233-5.832,15.459,15.459,0,0,0-5.1-3.385,25.442,25.442,0,0,0-3.886-1.321,24.8,24.8,0,0,0-7.856-.6c-1.189.083-2.37.324-3.553.453a21.628,21.628,0,0,0-4.938,1.368c-1.1.392-2.2.765-3.308,1.129a10.128,10.128,0,0,1-2.586.437,14.372,14.372,0,0,1-2.518-.134,10.846,10.846,0,0,1-1.959-.346,36.633,36.633,0,0,1-4.283-1.543c-2.12-.958-4.1-2.183-6.175-3.213a25.733,25.733,0,0,0-5.364-2.081c-.965-.233-1.931-.431-2.909-.57a15.439,15.439,0,0,0-4.166.013c-.83.107-1.66.22-2.487.354a20.192,20.192,0,0,0-2.781.79,12.436,12.436,0,0,0-1.549.57c-1.525.71-3.087,1.33-4.639,1.973a24.046,24.046,0,0,1-4.024,1.365,9.067,9.067,0,0,1-5.707-.675,34.7,34.7,0,0,1-5.193-3.1A22.233,22.233,0,0,0,65.554,1.04,17.311,17.311,0,0,0,61.1.048a14.8,14.8,0,0,0-6.383.938,16.219,16.219,0,0,0-2.952,1.522c-1.265.78-2.434,1.7-3.726,2.444a6.358,6.358,0,0,1-3.765.772,29.682,29.682,0,0,1-6.2-1.436A60.834,60.834,0,0,0,31.115,2.53a11.655,11.655,0,0,0-6.664.584,8.2,8.2,0,0,0-3.535,3.03,50.321,50.321,0,0,0-2.944,4.981,11.492,11.492,0,0,1-1.535,2.326,6.706,6.706,0,0,1-3.92,1.947c-1.717.329-3.448.586-5.157.95a10.6,10.6,0,0,0-4.621,2.1,7.12,7.12,0,0,0-2.718,5.34,16.526,16.526,0,0,0,2.4,9.33c.624,1.074,1.278,2.131,1.879,3.216a7.881,7.881,0,0,1,.739,5.674A13.51,13.51,0,0,0,4.7,45.569a8.517,8.517,0,0,0,1.244,4.087,17.359,17.359,0,0,0,4.106,4.407,13.439,13.439,0,0,0,6.157,2.831,1.428,1.428,0,0,1,.249.094,4.76,4.76,0,0,1,.921.062,14.991,14.991,0,0,0,3.033.087l.481-.016,4.705-.511.287-.012,1.509-.09,3.146-.18c.18-.174.408-.127.621-.127.61,0,1.22.01,1.83.016l2.31.215H35.28a17.9,17.9,0,0,1,2.306.173c.454.084.913.145,1.36.258a3.077,3.077,0,0,1,1.24.415,1.075,1.075,0,0,1,.448.1A7.824,7.824,0,0,1,43.9,59.585a14.786,14.786,0,0,1,1.839,2.6A12.731,12.731,0,0,0,49.58,66.6a1.837,1.837,0,0,1,.853.525c.762.212,1.469.575,2.232.79,1.209.341,2.442.564,3.672.809a5.88,5.88,0,0,1,.727.054,16.043,16.043,0,0,0,1.847.192,19.336,19.336,0,0,0,3.585-.107,23.419,23.419,0,0,0,7.863-2.083c.785-.358,1.553-.754,2.328-1.132l.268-.118a20.579,20.579,0,0,1,6.267-2.577,2.042,2.042,0,0,1,.243-.1A19.224,19.224,0,0,1,85,62.207c.1.112.242.09.37.1a24.378,24.378,0,0,1,3.008.416,8.562,8.562,0,0,1,2.031.525l.27.014c.607.206,1.22.394,1.818.624a2.72,2.72,0,0,1,1.114.555,7.109,7.109,0,0,1,2.407,1.218,1.375,1.375,0,0,1,.724.3,63.293,63.293,0,0,0,6.052,3.048,17.066,17.066,0,0,0,8.491,1.456c.617-.064,1.237-.1,1.855-.142.043.092.092.045.14.006.261-.049.52-.108.782-.146a28.264,28.264,0,0,0,8.743-2.654,14.37,14.37,0,0,0,4.725-3.818,30.379,30.379,0,0,0,2.405-3.509c.618-1.026,1.241-2.048,1.958-3.01a8.6,8.6,0,0,1,4.5-3.143,14.059,14.059,0,0,1,4.131-.608c1.2,0,2.394.059,3.591.092a.211.211,0,0,0,.229,0l3.106.12.352.008,3.28-.41" fill="#99a8b4" fill-rule="evenodd"/>
        </g>
      </g>
    </g>
  </g>
</svg>
