<svg xmlns="http://www.w3.org/2000/svg" width="25.738" height="90.62" viewBox="0 0 25.738 90.62">
  <g id="Master_Character_Standing" data-name="Master/Character/Standing" transform="translate(-354 3)">
    <g id="Lower_Body_Standing" data-name="Lower Body Standing" transform="translate(359.292 47.597)">
      <g id="Lower_Body_Standing_High_Rise_Pants" data-name="Lower Body Standing/High Rise Pants" transform="translate(0 0)">
        <path id="Fill-1" d="M197.025,342.248a2.284,2.284,0,0,1-1.618,1.465.565.565,0,0,1-.391-.016c-.128-.068-.193-.212-.3-.31-.472-.442-1.435.174-1.823-.342-.07-.092-.1-.208-.169-.3-.337-.489-1.139-.147-1.678-.4s-.687-1.023-1.247-1.193c-.34-.1-.838-.015-.941-.355a1.31,1.31,0,0,1,.022-.425c.025-.673-1-.892-1.217-1.528-.187-.543.348-1.116.917-1.194a2.953,2.953,0,0,1,1.64.431l3.246,1.58a11.151,11.151,0,0,1,1.468.808,5.9,5.9,0,0,0,2.093,1.246" transform="translate(-177.913 -306.195)" fill="#3d2b26" fill-rule="evenodd"/>
        <path id="SKIN" d="M191.487,194.63c-1.108-2.391-1.082-5.135-.951-7.768.069-1.382.187-2.487.307-3.812a1.065,1.065,0,0,1,.378-.722h0a2.337,2.337,0,0,0-1.686-2.27,6.831,6.831,0,0,0-3.027-.1,30.7,30.7,0,0,0-.309,8.145,29.109,29.109,0,0,0,1.135,4.542,4.794,4.794,0,0,0,.756,1.65,3.018,3.018,0,0,0,3.207.8.353.353,0,0,0,.237-.164.377.377,0,0,0-.049-.3" transform="translate(-176.469 -163.048)" fill="#f2b592" fill-rule="evenodd"/>
        <path id="SHADOW" d="M191.487,194.63c-1.108-2.391-1.082-5.135-.951-7.768.069-1.382.187-2.487.307-3.812a1.065,1.065,0,0,1,.378-.722h0a2.337,2.337,0,0,0-1.686-2.27,6.831,6.831,0,0,0-3.027-.1,30.7,30.7,0,0,0-.309,8.145,29.109,29.109,0,0,0,1.135,4.542,4.794,4.794,0,0,0,.756,1.65,3.018,3.018,0,0,0,3.207.8.353.353,0,0,0,.237-.164.377.377,0,0,0-.049-.3" transform="translate(-176.469 -163.048)" fill="rgba(0,0,0,0.12)" fill-rule="evenodd"/>
        <path id="Fill-5" d="M172.732,11.99a1.281,1.281,0,0,0-.16-.663c-.089-.125-.221-.2-.312-.322a1.35,1.35,0,0,1-.159-.8q.022-2.556.044-5.113a6.729,6.729,0,0,0-.233-2.241c-.092-.267-.219-.518-.287-.795a4,4,0,0,1-.084-.851q-.029-1.071-.057-2.143l-.114.332c.014-.183-.188-.262-.342-.276a26.839,26.839,0,0,0-6.98.261,30.58,30.58,0,0,1,.386,5.221c-.03.743-.114,1.485-.076,2.228a20.578,20.578,0,0,0,.539,3.013,19.1,19.1,0,0,1,.378,3.644c.007.982.058,2.206.816,2.6a1.487,1.487,0,0,0,1.224-.061,19.5,19.5,0,0,1,3.129-1.382c.7-.136,1.525-.1,1.984-.74a3.039,3.039,0,0,0,.3-1.908" transform="translate(-156.524 1)" fill="#45546b" fill-rule="evenodd"/>
        <path id="Fill-7" d="M183.641,160.678a.465.465,0,0,0-.343-.116,12.592,12.592,0,0,0-6.9,1.671.21.21,0,0,0-.018.352h0a3.576,3.576,0,0,1,.429,1.832.458.458,0,0,0,.056.307c.092.116.268.106.415.088a8.323,8.323,0,0,1,4.482.724c.409.192.859.425,1.3.114a.962.962,0,0,0,.282-.325,2.477,2.477,0,0,0,.2-1.226,28.1,28.1,0,0,1,.164-3.056.478.478,0,0,0-.058-.365" transform="translate(-167.629 -145.548)" fill="#768c8c" fill-rule="evenodd"/>
        <path id="Fill-9" d="M188.135,281.8a5.891,5.891,0,0,1-2.2-1.15.59.59,0,0,1-.15-.277c-.035-.212.124-.4.182-.61a.71.71,0,0,0-.877-.815q.035-2.595.069-5.19c-2.208-.341-6.139.759-6.139.759a.571.571,0,0,0-.59.5,1.349,1.349,0,0,0,.185.819,8.112,8.112,0,0,1,1.176,2.437c.047.37,0,.746.022,1.118a4.511,4.511,0,0,0,2.01,3.105,10.032,10.032,0,0,0,5.606,2c.7.028,1.551-.108,1.842-.751.344-.761-.38-1.594-1.138-1.945" transform="translate(-169.562 -248.189)" fill="#d37946" fill-rule="evenodd"/>
        <path id="Fill-11" d="M209.019,292.9l.491,1.465.26.776c.068.2.211.471.143.689-.075.244-.4.4-.371.679.024.25.284.326.5.353a1.5,1.5,0,0,1,.5.076c.3.144.2.371.012.585-.165.192-.318.378-.192.637.119.244.428.358.657.465a3.922,3.922,0,0,1,1.227.877c.058.061.313-.035.251-.1a3.822,3.822,0,0,0-.916-.727c-.307-.172-.946-.316-.985-.73-.036-.383.882-.907.111-1.162-.284-.093-.89.045-.878-.382.008-.278.361-.433.382-.724a4.057,4.057,0,0,0-.4-1.3l-.52-1.551c-.028-.084-.3-.007-.269.072" transform="translate(-197.318 -265.513)" fill="#ffbf77" fill-rule="evenodd"/>
        <path id="Fill-13" d="M202.2,183.137a1.441,1.441,0,0,1-.751-.573c-.1-.106-.182-.234-.335-.234a.21.21,0,0,0-.209.136c-.018.039,0,.083,0,.123-.005.064-.006.123-.007.181a2.084,2.084,0,0,1-.3-.562c-.044-.124-.312-.05-.269.072a2.234,2.234,0,0,0,.549.869.162.162,0,0,0,.259-.069,1.851,1.851,0,0,0,.049-.321,1.361,1.361,0,0,0-.006-.14c.136.128.283.356.367.432a1.126,1.126,0,0,0,.563.284c.134.026.271-.164.092-.2" transform="translate(-189.429 -165.142)" fill="#45546b" fill-rule="evenodd"/>
        <path id="Fill-15" d="M222.934,185.218a3.851,3.851,0,0,1-.75-.76c-.071-.1-.328.008-.247.117a4.05,4.05,0,0,0,.789.8c.092.071.329-.061.208-.153" transform="translate(-209.024 -167.206)" fill="#45546b" fill-rule="evenodd"/>
        <path id="Fill-17" d="M238.269,188.141l-.4-.309c-.042-.032-.131,0-.174.013-.018.007-.119.05-.079.08l.4.31c.042.032.131,0,.174-.013.018-.007.119-.049.079-.08" transform="translate(-223.252 -170.288)" fill="#45546b" fill-rule="evenodd"/>
        <path id="Fill-19" d="M105.629,36.47c1.155.165,2.049-1.306,2.415-2.187.015-.037-.237-.017-.265.05a5.165,5.165,0,0,1-.571,1.056c-.262.362-.847,1.054-1.357.98-.061-.009-.287.091-.222.1" transform="translate(-103.518 -30.991)" fill="#5a819e" fill-rule="evenodd"/>
        <path id="Fill-21" d="M91.271,359.107q-.03-1.181-.059-2.363a.928.928,0,0,0-.138-.565c-.1-.133-.271-.21-.387-.332a4.926,4.926,0,0,1-.342-.59c-.134-.187-.445-.31-.611-.147l-5.3,4.948A3.74,3.74,0,0,0,87.456,362c.552.041,1.234-.129,1.364-.626a1.275,1.275,0,0,0,1.362-.623,3.113,3.113,0,0,1,.222-.48c.215-.3.671-.412.815-.742a.978.978,0,0,0,.051-.421" transform="translate(-84.299 -321.981)" fill="#3d2b26" fill-rule="evenodd"/>
        <path id="SKIN-2" data-name="SKIN" d="M98.088,178.47a2.772,2.772,0,0,0-3.324-1.263l-1.406.922c-1.238,2.2-1.161,4.9-.652,7.369s1.413,4.856,1.73,7.357l1.693.03a1.074,1.074,0,0,0,.551-.088c.331-.186.367-.639.366-1.019A51.351,51.351,0,0,1,98.09,181.47a4.831,4.831,0,0,0,0-3" transform="translate(-91.49 -160.535)" fill="#f2b592" fill-rule="evenodd"/>
        <path id="Fill-26" d="M100.128,3.992q-.1-2.128-.2-4.255a55.155,55.155,0,0,0-8.268-.2c-.239.012-.527.064-.619.322l-.068.075c.632,1.291.081,2.892-.016,4.375-.1,1.578.336,3.166.152,4.733-.065.556-.208,1.1-.312,1.644a24.211,24.211,0,0,0-.245,5.008.7.7,0,0,0,.1.419.48.48,0,0,0,.422.126L97.279,16a.719.719,0,0,0,.391-.091c.239-.163.273-.544.28-.868l.079-3.913c.038-1.877.163-3.984,1.371-5.221a2.942,2.942,0,0,0,.566-.646,2.489,2.489,0,0,0,.161-1.266" transform="translate(-89.832 0.578)" fill="#5a819e" fill-rule="evenodd"/>
        <path id="Fill-28" d="M91.479,164.306c.006-.017.013-.033.02-.049l.036-.21Z" transform="translate(-90.692 -148.724)" fill="#a0b4b5" fill-rule="evenodd"/>
        <path id="Fill-30" d="M92.294,161.436a1.179,1.179,0,0,0-.488-.305,12.806,12.806,0,0,0-5.18-.933c-.483.014-1.063.129-1.248.563l-.617,3.56c-.044.257-.068.571.14.728a.739.739,0,0,0,.588.047,20.753,20.753,0,0,1,6.008-.284.533.533,0,0,0,.411-.071.523.523,0,0,0,.132-.309l.363-1.964a1.254,1.254,0,0,0-.109-1.03" transform="translate(-84.57 -145.228)" fill="#a0b4b5" fill-rule="evenodd"/>
        <path id="Fill-32" d="M89.565,284.67a6.109,6.109,0,0,0-5.516.149,1.3,1.3,0,0,0-.655.638c-.172.488.2.98.49,1.408a5.056,5.056,0,0,1,.823,2.071,6.962,6.962,0,0,1-.976,4.275c-.455.839-1.016,1.838-.565,2.679a1.919,1.919,0,0,0,.969.8,4.162,4.162,0,0,0,4.174-.721,2.3,2.3,0,0,0,.965-1.976c.018-1.022-.277-2.026-.317-3.048-.075-1.909.738-3.749.839-5.657a1.166,1.166,0,0,0-.23-.62" transform="translate(-83 -257.617)" fill="#ffbf77" fill-rule="evenodd"/>
        <path id="Fill-34" d="M112.464,296.234l.443,1.858.232.973c.066.278.2.59-.016.831-.3.333-1.335.476-.828,1.161.26.352.756.41,1.019.758.215.285-.071.548-.309.7-.052.034-.112.056-.162.094a.426.426,0,0,0-.2.319c0,.189.174.33.248.494a1.34,1.34,0,0,1,.085.767,2.091,2.091,0,0,1-1.319,1.448c-.169.078-.015.171.107.115a2.112,2.112,0,0,0,1.485-2.083,1.239,1.239,0,0,0-.12-.377c-.11-.218-.134-.141,0-.45.168-.4.051-.159.267-.332.082-.066.167-.089.231-.177.224-.309-.021-.636-.278-.833-.34-.26-1.417-.717-.633-1.207.242-.151.595-.23.749-.5a.615.615,0,0,0,.031-.455c-.066-.356-.169-.709-.253-1.062l-.507-2.124c-.023-.1-.292-.026-.269.072" transform="translate(-108.929 -268.533)" fill="#ffee9c" fill-rule="evenodd"/>
        <path id="Fill-36" d="M98.435,186.667a2.765,2.765,0,0,1-.38.357c-.114.087-.221.255-.33.072a1.106,1.106,0,0,1-.023-.326q-.015-.25-.03-.5c0-.082-.233,0-.258.039a2.733,2.733,0,0,1-.722.75c-.117.083.151.071.212.029a2.89,2.89,0,0,0,.494-.444c-.009.318.007.711.315.694.372-.02.742-.424.969-.677.068-.076-.2-.052-.248.005" transform="translate(-95.394 -168.854)" fill="#5a819e" fill-rule="evenodd"/>
        <path id="Fill-38" d="M132.044,185.676a1.519,1.519,0,0,1-.143.415c-.058.111.21.082.25,0a1.652,1.652,0,0,0,.162-.454c.019-.1-.251-.056-.269.034" transform="translate(-127.353 -168.262)" fill="#5a819e" fill-rule="evenodd"/>
      </g>
    </g>
    <g id="Head" transform="translate(354.557 -3)">
      <g id="Head_Poofy" data-name="Head/Poofy" transform="translate(0 0)">
        <g id="face" transform="translate(4.511 12.459)">
          <path id="SKIN-3" data-name="SKIN" d="M51.845,152.426a.323.323,0,0,1-.147-.124.342.342,0,0,1-.025-.161q.005-.885.01-1.769a13.932,13.932,0,0,0-2.968-.64,1.981,1.981,0,0,1-.564-.3q.033,1.269-.044,2.538a10.031,10.031,0,0,1-1.64.132l1.1,1.171A4.953,4.953,0,0,0,50.6,155.2a2.439,2.439,0,0,0,2.587-2.488,2.52,2.52,0,0,1-1.342-.283" transform="translate(-42.154 -135.559)" fill="#f2b592" fill-rule="evenodd"/>
          <path id="SHADOW-2" data-name="SHADOW" d="M63.124,151.5a.373.373,0,0,0,.01.246,3.7,3.7,0,0,0,.8,1.54,1.99,1.99,0,0,0,1.555.672,1.091,1.091,0,0,0,.435-.116,1.059,1.059,0,0,0,.29-.238,2.944,2.944,0,0,0,.479-2.007.086.086,0,0,0-.084-.107,15.606,15.606,0,0,0-3.27-.3.483.483,0,0,0-.254.051.17.17,0,0,0-.069.225" transform="translate(-57.146 -137.148)" fill="rgba(0,0,0,0.12)" fill-rule="evenodd"/>
          <path id="SKIN-4" data-name="SKIN" d="M2.749,8.048A1.558,1.558,0,0,0,.613,7.984a2.086,2.086,0,0,0-.5,2.19c.439,1.3,2.647,2.067,3.166.427-.079.251.495,1.223.627,1.488a4.825,4.825,0,0,0,1.078,1.485,6.67,6.67,0,0,0,3.538,1.473,7.053,7.053,0,0,0,4.744-.915,6.847,6.847,0,0,0,2.828-4.3A11.4,11.4,0,0,0,15.882,4.6a6.084,6.084,0,0,0-.975-2.259A5.2,5.2,0,0,0,13.239,1,7.923,7.923,0,0,0,5.83.845,6.651,6.651,0,0,0,2.515,8.009a.86.86,0,0,0,.238-.2" transform="translate(0 0)" fill="#f2b592" fill-rule="evenodd"/>
          <path id="SKIN-5" data-name="SKIN" d="M6.094,93.049c.556-.453,1.116-.015,1.541.368l.04-.1a1.974,1.974,0,0,0-.518.42c-.1.121-.34.388-.3.562.083.344.754.456,1.043.493.109.014.283-.138.1-.161-.3-.038-.957-.17-.774-.635a1.422,1.422,0,0,1,.613-.592c.026-.015.075-.066.04-.1-.6-.542-1.3-.889-2.008-.311-.121.1.146.109.218.051" transform="translate(-5.303 -84.094)" fill="#f2b592" fill-rule="evenodd"/>
          <path id="SHADOW-3" data-name="SHADOW" d="M6.094,93.049c.556-.453,1.116-.015,1.541.368l.04-.1a1.974,1.974,0,0,0-.518.42c-.1.121-.34.388-.3.562.083.344.754.456,1.043.493.109.014.283-.138.1-.161-.3-.038-.957-.17-.774-.635a1.422,1.422,0,0,1,.613-.592c.026-.015.075-.066.04-.1-.6-.542-1.3-.889-2.008-.311-.121.1.146.109.218.051" transform="translate(-5.303 -84.094)" fill="rgba(0,0,0,0.12)" fill-rule="evenodd"/>
        </g>
        <g id="hair" transform="translate(0 0)">
          <path id="Fill-11-2" data-name="Fill-11" d="M24.771,8.492c-.176-.219-.181-.3-.019-.546.059-.091.1-.095.138-.2a.274.274,0,0,0-.076-.335c-.077-.071-.331.035-.248.11.213.2-.2.491-.226.679s.106.315.226.444a.919.919,0,0,1,.333.86c-.032.255-.277,1.349-.775.994-.067-.048-.3.024-.23.125a.96.96,0,0,1-.356,1.412,1.22,1.22,0,0,1-.431.1,1.2,1.2,0,0,0,.22-.224,2.584,2.584,0,0,0,.4-1.139,3.392,3.392,0,0,0-.521-2.906,3.979,3.979,0,0,0-.094-3.33,2.788,2.788,0,0,0-1.267-1.308,1.773,1.773,0,0,0-1.765.122,5.054,5.054,0,0,0-2.937-2.224c-.121-.037-.242-.069-.365-.1a1.833,1.833,0,0,0-1.01-.941,1.46,1.46,0,0,0-1.493.3c-.681-.7-2.029-.14-2.806.239-.5-1.039-2.18,1.092-2.447,1.368-.118.122.14.174.226.084l.739-.763c.22-.228,1.035-1.2,1.261-.5.025.079.135.077.195.047.668-.335,2.115-1.038,2.694-.23.052.073.189.045.236-.018A1.153,1.153,0,0,1,16.027.5a1.9,1.9,0,0,1,.394.448A9.37,9.37,0,0,0,13.408.929a8.342,8.342,0,0,0-3.046.967A4.727,4.727,0,0,0,8.268,4.252,1.771,1.771,0,0,0,6.3,3.231,1.772,1.772,0,0,0,4.97,5.013,1.593,1.593,0,0,0,3.5,5.125,3.192,3.192,0,0,0,1.924,8.564a1.611,1.611,0,0,0-.956,1.755c0,.04.008.08.013.121-.021.025-.043.049-.063.076a1.506,1.506,0,0,0-.056,1.43.828.828,0,0,0-.785.565,1.521,1.521,0,0,0,.6,1.7.7.7,0,0,0-.327.771c.108.557.735.78,1.2.941.07.024.313-.084.218-.117a1.9,1.9,0,0,1-1.02-.6c-.193-.28-.242-.809.144-.967.017-.007.123-.06.076-.091a1.532,1.532,0,0,1-.645-.88c-.085-.32-.056-1.484.626-1.12.043.023.27-.02.243-.094a2.419,2.419,0,0,1-.156-1.277c.115.557.324,1.1.391,1.665.049.414.021.836.1,1.246A1.363,1.363,0,0,0,2.18,14.7c.271.132.613.136.821.353a1.766,1.766,0,0,1,.269.553,1.394,1.394,0,0,0,1.3.814A1.394,1.394,0,0,0,5.8,15.51l.281.1a5.912,5.912,0,0,0,1.513-1.634,8.292,8.292,0,0,1,4.891-2.7,24.68,24.68,0,0,1,5.683-.237,1.221,1.221,0,0,1,.553.107c.277.153.388.486.551.757s.5.518.776.359a1.439,1.439,0,0,0,1.143.972.981.981,0,0,0,1.073-.9.828.828,0,0,0,.559-.03,1.611,1.611,0,0,0,.98-.2,1.118,1.118,0,0,0,.463-1.331c.5.007.82-.794.894-1.224.087-.507-.1-.687-.388-1.051" transform="translate(0 0)" fill="#3d2b26" fill-rule="evenodd"/>
          <path id="Fill-14" d="M74.679,109.448a2.579,2.579,0,0,0-.863-.955,5.011,5.011,0,0,0-1.728-1,5.26,5.26,0,0,0-2.271.073,28.153,28.153,0,0,0-2.814.606,15.68,15.68,0,0,0-5.271,2.735,3.741,3.741,0,0,0-.977,1.01,4.236,4.236,0,0,0,0,3.2c.146.545.14,1.065.24,1.62.431,2.383,1.147,1.727,1.338,2.253a10.9,10.9,0,0,1,3.554-5.752,9.276,9.276,0,0,1,5.9-1.987,3.874,3.874,0,0,1,1.259.2,3.154,3.154,0,0,1,1.621,1.5,11.79,11.79,0,0,1,.7,2.286c-.131-1.445.131-3.009,0-4.454a9.314,9.314,0,0,0-.687-1.341" transform="translate(-54.823 -97.428)" fill="#8280ce" fill-rule="evenodd"/>
          <path id="Fill-16" d="M219.884,182.739c-.03-.177-.064-.354-.1-.531l.056.615Z" transform="translate(-199.378 -165.293)" fill="#8280ce" fill-rule="evenodd"/>
          <path id="Fill-18" d="M65.047,47.409a1.932,1.932,0,0,0-.969,2.835l.2-.156A1.4,1.4,0,0,0,62.667,51a1.864,1.864,0,0,0,.32,2.048l.032-.128a.342.342,0,0,0-.148.352c.011.131.281.064.269-.072l.061-.147c.031-.026.07-.089.032-.128a1.639,1.639,0,0,1-.453-1.326c.057-.618.57-1.563,1.345-1.327.086.026.269-.039.2-.156a1.727,1.727,0,0,1,.846-2.542c.17-.067.021-.227-.122-.171" transform="translate(-56.695 -42.997)" fill="#261510" fill-rule="evenodd"/>
          <path id="Fill-20" d="M191.973,79.328a.956.956,0,0,0,1.12.215,2,2,0,0,0,1.006-1.259l-.259.069c1.03.862,2.138-.834,1.663-1.775-.035-.069-.293.025-.269.072.315.624-.2,2.4-1.141,1.609a.249.249,0,0,0-.259.069c-.24.583-.826,1.709-1.608.906-.05-.051-.3.047-.253.093" transform="translate(-174.146 -69.446)" fill="#261510" fill-rule="evenodd"/>
        </g>
      </g>
    </g>
    <g id="Upper_Body" data-name="Upper Body" transform="translate(354 24.945)">
      <g id="Upper_Body_Sweater_3" data-name="Upper Body/Sweater 3" transform="translate(0 0)">
        <g id="torso">
          <path id="Fill-1-2" data-name="Fill-1" d="M56.067,20.652a3.818,3.818,0,0,0-.085-1.566c-.186-1.051-.305-2.084-.387-3.112-.181-2.281-.178-4.535-.312-6.9A22.7,22.7,0,0,0,54.724,5.2,6.172,6.172,0,0,0,53.5,2.4a4.445,4.445,0,0,0-1.345-.979,13.439,13.439,0,0,0-1.644-.65c.122,1.154-1.35,1.954-2.458,1.611A4.569,4.569,0,0,1,45.662,0l-.233.094-5.7,2.312a1.44,1.44,0,0,0-.761.527,1.392,1.392,0,0,0-.124.719A23.427,23.427,0,0,0,39.81,10c.422,1.421.978,2.8,1.33,4.241.521,2.135.054,4.593.111,6.79a16.238,16.238,0,0,1-.156,3.673.873.873,0,0,0,.84,1.059c4.024.069,9.066-.99,13.053-.675a.87.87,0,0,0,.923-1.04,5.4,5.4,0,0,1-.129-2.676,4.709,4.709,0,0,0,.284-.726" transform="translate(-35.239 0)" fill="#5a819e" fill-rule="evenodd"/>
          <path id="Fill-4" d="M147.657,24.322c-.344-1.961-1.583-3.69-2.48-5.5a10.3,10.3,0,0,0-1.792-2.985A2.883,2.883,0,0,0,141,15.021a4.445,4.445,0,0,1,1.345.979,6.171,6.171,0,0,1,1.228,2.794,22.678,22.678,0,0,1,.522,3.361l-3.109.461a6.145,6.145,0,0,0-1.347.3,4.732,4.732,0,0,0-2.279,2.287,3.862,3.862,0,0,0-.568,2.056A1.774,1.774,0,0,0,138,28.89a.275.275,0,0,0,.088.435l-.179-.03a15.579,15.579,0,0,0,4.571,1.17,5.818,5.818,0,0,0,4.112-.817,4.086,4.086,0,0,0,1.521-3.189,5.21,5.21,0,0,0-.453-2.137" transform="translate(-124.088 -13.597)" fill="#6cc2bd" fill-rule="evenodd"/>
          <path id="Fill-8" d="M17.2,34.014a3.461,3.461,0,0,0-3.85-1.569c-.65.187-1.227.565-1.855.815a5,5,0,0,1-2.318.329,1.12,1.12,0,0,1-.573-.176c-.343-.256-.334-.76-.335-1.188a6.676,6.676,0,0,0-1.87-4.6,2.991,2.991,0,0,0-1.642-.966l-.022,0s-.076-.225-.595.033a1.4,1.4,0,0,0-.854.568,2.777,2.777,0,0,0-.348.374,5.212,5.212,0,0,0-.742,1.69l-1.216,4a21.669,21.669,0,0,0-.948,4.03,3.03,3.03,0,0,0,.105,1.4,3.127,3.127,0,0,0,.875,1.13,11.033,11.033,0,0,0,5.914,2.906,8.579,8.579,0,0,0,6.217-1.834A14.175,14.175,0,0,0,14.7,39.434c.527-.551,1.315-.788,1.872-1.309a3.461,3.461,0,0,0,.626-4.11" transform="translate(0 -24.102)" fill="#6cc2bd" fill-rule="evenodd"/>
          <path id="Fill-10" d="M78.465,245.606q6.282-1.12,12.614-1.926" transform="translate(-71.181 -221.057)" fill="#5a819e" fill-rule="evenodd"/>
          <path id="Fill-12" d="M69.367,59.475a6.886,6.886,0,0,0-1.489-2.39c-.073-.076-.329.026-.248.111A6.777,6.777,0,0,1,69.1,59.547c.039.106.306.029.269-.072" transform="translate(-61.337 -51.761)" fill="#5a819e" fill-rule="evenodd"/>
          <path id="Fill-14-2" data-name="Fill-14" d="M149.1,96.29a4.793,4.793,0,0,1,1.147-1.141,6.728,6.728,0,0,0,1.278-.858,4.764,4.764,0,0,0,.956-3.016A2.869,2.869,0,0,0,149.8,88.22c-.062-.008-.309.1-.173.115a2.9,2.9,0,0,1,2.134,1.216,3.284,3.284,0,0,1,.431,2.129,3.612,3.612,0,0,1-1.452,3.034,5.414,5.414,0,0,0-1.906,1.621c-.022.032.219.022.266-.045" transform="translate(-135.017 -80.03)" fill="#5a819e" fill-rule="evenodd"/>
          <path id="Fill-16-2" data-name="Fill-16" d="M220.656,88.447a2.736,2.736,0,0,1,1.211.5,5.69,5.69,0,0,1,.9,1.021c.06.072.206.015.251-.047.584-.822-1.1-1.785-1.7-1.993-.1-.033-.315.107-.161.16.509.174,2.115,1.109,1.611,1.818l.251-.047a5.778,5.778,0,0,0-.935-1.051,2.873,2.873,0,0,0-1.262-.518c-.1-.016-.317.134-.161.16" transform="translate(-200.121 -79.759)" fill="#5a819e" fill-rule="evenodd"/>
          <path id="Fill-18-2" data-name="Fill-18" d="M70.879,241.766c3.6-1.207,7.527.832,11.067-.8.171-.079.012-.139-.1-.087-3.5,1.618-7.46-.406-11.067.8-.18.06-.013.125.1.087" transform="translate(-64.136 -218.497)" fill="#37576b" fill-rule="evenodd"/>
          <path id="Fill-20-2" data-name="Fill-20" d="M104.042,14.315c.826,1.132,1.867,2.452,3.423,2.4a3.073,3.073,0,0,0,2.633-1.87c.033-.074-.231-.046-.268.037a2.565,2.565,0,0,1-2.995,1.588,5.354,5.354,0,0,1-2.542-2.258c-.049-.068-.31.021-.251.1" transform="translate(-94.375 -12.871)" fill="#37576b" fill-rule="evenodd"/>
          <path id="Fill-28-2" data-name="Fill-28" d="M25.064,123.579a3.863,3.863,0,0,0-1.3.776,2.924,2.924,0,0,0-.874,1.292c-.043.153-.126.474.075.559a.425.425,0,0,0,.492-.229,4.715,4.715,0,0,1,.946-1.264,10.947,10.947,0,0,1,1.427-1.1c.044-.03.034-.047-.014-.053a.335.335,0,0,0-.19.051,8,8,0,0,0-2.067,1.8A4.092,4.092,0,0,0,23.2,126c-.02.04-.055.081-.073.121l-.013.016q.123-.01.059-.045c0-.014-.03-.039-.037-.052a.5.5,0,0,1-.015-.328,2.6,2.6,0,0,1,.721-1.226,3.457,3.457,0,0,1,1.31-.853c.026-.009.105-.035.082-.071s-.151.01-.172.018" transform="translate(-20.714 -112.079)" fill="#5a819e" fill-rule="evenodd"/>
          <path id="Fill-30-2" data-name="Fill-30" d="M37.357,35.453a3.3,3.3,0,0,1,2.077,1.191c.076.095.332-.012.246-.118a3.527,3.527,0,0,0-2.23-1.268c-.132-.019-.274.169-.093.2" transform="translate(-33.812 -31.983)" fill="#5a819e" fill-rule="evenodd"/>
          <path id="Fill-32-2" data-name="Fill-32" d="M209.751,40.294A4.832,4.832,0,0,1,210,43.329c-.031.127.244.094.272-.022a4.93,4.93,0,0,0-.254-3.085c-.05-.117-.316-.039-.269.072" transform="translate(-190.273 -36.435)" fill="#5a819e" fill-rule="evenodd"/>
          <path id="Fill-34-2" data-name="Fill-34" d="M153.537,129.55a33.185,33.185,0,0,0-1.408,3.367c-.027.075.239.042.268-.039a33.163,33.163,0,0,1,1.408-3.367c.025-.052-.092-.048-.113-.045a.2.2,0,0,0-.155.084" transform="translate(-138.004 -117.445)" fill="#5a819e" fill-rule="evenodd"/>
        </g>
        <path id="SKIN-6" data-name="SKIN" d="M268.491,86a3.687,3.687,0,0,1,2.529-.643,2.58,2.58,0,0,1,2.036,1.53.449.449,0,0,1,.021.364.454.454,0,0,1-.177.162,2.718,2.718,0,0,1-1.917.344,5.418,5.418,0,0,1-2.316-1.357.915.915,0,0,1-.358-.47l.28-.02" transform="translate(-253.612 -77.684)" fill="#f2b592" fill-rule="evenodd"/>
        <g id="hand" transform="translate(4.994 8.462)">
          <path id="SKIN-7" data-name="SKIN" d="M5.982.485A.744.744,0,0,0,5.8.439L2.976,0,2.662.207A2.309,2.309,0,0,0,0,2.339c-.015.236.036.521.253.616.26.114.534-.128.687-.367.172-.268.3-.561.5-.815a1.16,1.16,0,0,1,.781-.5l-.726,1.3a2.255,2.255,0,0,0-.295.708.765.765,0,0,0,.21.706.842.842,0,0,0,1.123-.227,6.663,6.663,0,0,0,.6-1.121,2.562,2.562,0,0,1,.741-.827l-.4,1.067c-.124.331-.226.759.039.993a.632.632,0,0,0,.824-.107,2.647,2.647,0,0,0,.452-.79A3.984,3.984,0,0,1,5.645,1.8a2.1,2.1,0,0,0,.529-.609.535.535,0,0,0-.191-.7" transform="translate(0 0)" fill="#f2b592" fill-rule="evenodd"/>
          <path id="SHADOW-4" data-name="SHADOW" d="M26.024,4.395q.072-.08.149-.154l.079-.073.045-.039.018-.015.016-.013.011-.009.023-.019.043-.033.087-.063c.06-.042.122-.082.186-.119.042-.025.075-.091.019-.12a.2.2,0,0,0-.192.021,3.057,3.057,0,0,0-.7.577.063.063,0,0,0,.03.111.209.209,0,0,0,.19-.051" transform="translate(-23.388 -3.376)" fill="rgba(0,0,0,0.12)" fill-rule="evenodd"/>
          <path id="SHADOW-5" data-name="SHADOW" d="M40.753,10.041a9.541,9.541,0,0,1,.786-.823c.046-.043-.04-.06-.067-.058a.286.286,0,0,0-.179.068,9.5,9.5,0,0,0-.786.823c-.039.046.034.06.067.058a.266.266,0,0,0,.179-.068" transform="translate(-36.736 -8.309)" fill="rgba(0,0,0,0.12)" fill-rule="evenodd"/>
        </g>
      </g>
    </g>
    <g id="Expression" transform="translate(363.284 14.175)">
      <g id="Expression_Intellectual" data-name="Expression/Intellectual" transform="translate(0 0)">
        <path id="Fill-1-3" data-name="Fill-1" d="M-9.579,17.6a2.912,2.912,0,0,0-2.029.9,3.571,3.571,0,0,0-.942,2.034,2.392,2.392,0,0,0,.163,1.328,2.409,2.409,0,0,0,.385.554,3.666,3.666,0,0,0,3.363,1.21c2.687-.541,2.848-3.72.975-5.31a1.349,1.349,0,0,0-1.241-.406" transform="translate(12.709 -17.542)" fill="#ededf9" fill-rule="evenodd"/>
        <path id="Fill-3" d="M-10.813,17a3.3,3.3,0,0,0-3.038,2.42A2.577,2.577,0,0,0-13.6,21.7a3.8,3.8,0,0,0,1.731,1.272A3.482,3.482,0,0,0-8.541,22.5a2.807,2.807,0,0,0,.912-2.723c-.208-1.113-1.254-2.781-2.58-2.456-.157.039-.136.125.023.086.775-.19,1.562.778,1.894,1.366a3.469,3.469,0,0,1,.439,1.414,2.608,2.608,0,0,1-1.49,2.665A3.432,3.432,0,0,1-13.6,21.146a3.161,3.161,0,0,1,2.674-4.035c.074,0,.293-.117.116-.11" transform="translate(14 -17)" fill-rule="evenodd"/>
        <path id="Fill-6" d="M66,17.6a2.912,2.912,0,0,0-2.029.9,3.571,3.571,0,0,0-.942,2.034,2.1,2.1,0,0,0,.548,1.882,3.666,3.666,0,0,0,3.363,1.21c2.687-.541,2.848-3.72.975-5.31a1.349,1.349,0,0,0-1.241-.406" transform="translate(-55.853 -17.542)" fill="#ededf9" fill-rule="evenodd"/>
        <path id="Fill-8-2" data-name="Fill-8" d="M64.766,17a3.3,3.3,0,0,0-3.038,2.42,2.577,2.577,0,0,0,.251,2.281,3.8,3.8,0,0,0,1.731,1.272,3.482,3.482,0,0,0,3.328-.469,2.807,2.807,0,0,0,.912-2.723C67.742,18.668,66.7,17,65.37,17.325c-.157.039-.136.125.023.086.775-.19,1.562.778,1.894,1.366a3.469,3.469,0,0,1,.439,1.414,2.608,2.608,0,0,1-1.49,2.665,3.431,3.431,0,0,1-4.261-1.709A3.161,3.161,0,0,1,64.65,17.11c.074,0,.293-.117.116-.11" transform="translate(-54.562 -17)" fill-rule="evenodd"/>
        <path id="Fill-11-3" data-name="Fill-11" d="M53.642,53.3a.39.39,0,0,1,.554-.093c.074.049.314-.06.251-.1a.808.808,0,0,0-1.054.2c-.066.09.2.063.249,0" transform="translate(-47.127 -49.652)" fill-rule="evenodd"/>
        <path id="Fill-13-2" data-name="Fill-13" d="M39.461,95.2a1.784,1.784,0,0,0,1.279.447,5.849,5.849,0,0,0,1.8-.142c.163-.037.127-.17-.036-.133a5.3,5.3,0,0,1-1.482.136,1.8,1.8,0,0,1-1.307-.412c-.059-.07-.317.025-.25.1" transform="translate(-34.488 -87.823)" fill-rule="evenodd"/>
        <path id="Fill-15-2" data-name="Fill-15" d="M-3.287,33.225q1.333-1.55,2.657-3.107c.06-.071-.2-.041-.245.013Q-2.2,31.688-3.533,33.238c-.06.07.2.04.245-.013" transform="translate(4.513 -28.862)" fill="#fff" fill-rule="evenodd"/>
        <path id="Fill-17-2" data-name="Fill-17" d="M23.178,45.846q.72-.885,1.523-1.695c.119-.12-.139-.172-.226-.084q-.8.81-1.523,1.695c-.108.133.146.182.226.084" transform="translate(-19.498 -41.515)" fill="#fff" fill-rule="evenodd"/>
        <path id="Fill-19-2" data-name="Fill-19" d="M71.632,28.706l2.081-2.631c.075-.1-.2-.079-.251-.008L71.381,28.7c-.075.1.2.079.251.008" transform="translate(-63.443 -25.173)" fill="#fff" fill-rule="evenodd"/>
        <path id="Fill-21-2" data-name="Fill-21" d="M93.016,33.912q.856-1.245,1.829-2.4c.108-.128-.149-.157-.223-.07q-.99,1.179-1.861,2.448c-.08.116.194.114.255.024" transform="translate(-82.836 -30.054)" fill="#fff" fill-rule="evenodd"/>
      </g>
    </g>
  </g>
</svg>
