<svg id="Master_Scene_Back_to_Back" data-name="Master/Scene/Back to Back" xmlns="http://www.w3.org/2000/svg" width="52.409" height="81.242" viewBox="0 0 52.409 81.242">
  <g id="Master_Character_Standing" data-name="Master/Character/Standing" transform="translate(24.88 0)">
    <g id="Master_Character_Standing-2" data-name="Master/Character/Standing" transform="translate(0 0)">
      <g id="Lower_Body_Standing" data-name="Lower Body Standing" transform="translate(9.95 45.291)">
        <g id="Lower_Body_Standing_Kakhis" data-name="Lower Body Standing/Kakhis" transform="translate(0 0)">
          <path id="Fill-1" d="M212.067,323.354c0-.561-.6-.863-1.094-1.106a7.436,7.436,0,0,1-2.209-1.668,7.239,7.239,0,0,0-1.486-1.067,2.32,2.32,0,0,0-1.887-.193,1.982,1.982,0,0,0-1,1.932,2.142,2.142,0,0,0,1.172,1.882.279.279,0,0,0,.337-.091.157.157,0,0,1,.1-.07.445.445,0,0,1,.317.122,6.713,6.713,0,0,0,4.348,1.234,1.817,1.817,0,0,0,1.108-.365.828.828,0,0,0,.3-.611" transform="translate(-194.489 -291.726)" fill="#3d2d2a" fill-rule="evenodd"/>
          <path id="Fill-4" d="M239.892,339.644a2.635,2.635,0,0,1,.859-.577c.163-.067.01-.1-.087-.061a3.034,3.034,0,0,0-1,.654c-.053.053.181.027.226-.017" transform="translate(-226.736 -309.826)" fill="#aa7959" fill-rule="evenodd"/>
          <path id="Fill-6" d="M244.676,345.256a3.986,3.986,0,0,1,1.052-.709c.148-.068-.085-.055-.142-.029a4.292,4.292,0,0,0-1.134.759c-.049.046.181.02.224-.021" transform="translate(-231.111 -314.86)" fill="#aa7959" fill-rule="evenodd"/>
          <path id="Fill-8" d="M233.337,334.535a.765.765,0,0,1,.611-.4c.122-.009.207-.149.034-.136a1.109,1.109,0,0,0-.877.528c-.058.1.19.075.231,0" transform="translate(-220.736 -305.266)" fill="#aa7959" fill-rule="evenodd"/>
          <path id="Fill-10" d="M238.553,361.869a5.674,5.674,0,0,0,3.659.467c.155-.031.113-.179-.04-.149a5.337,5.337,0,0,1-3.424-.45c-.085-.042-.308.077-.195.133" transform="translate(-225.696 -330.614)" fill="#aa7959" fill-rule="evenodd"/>
          <path id="Fill-12" d="M173.287-.847c1.569-.009,3.164-.081,4.733-.113a.293.293,0,0,1,.3.3c-.147,4.942-.32,12.286-.466,17.22a30.634,30.634,0,0,0,.319,6.932,33.474,33.474,0,0,1,.8,3.918,5.8,5.8,0,0,0-4.034.7,23.824,23.824,0,0,0-1.058-5.239,23.207,23.207,0,0,1-1.057-3.623c-.414-2.762.669-5.593.215-8.349-.154-.937-.483-1.839-.644-2.775a15.821,15.821,0,0,1-.019-3.908c.085-1.093.912-5.071.912-5.071" transform="translate(-165.12 0.963)" fill="#774e44" fill-rule="evenodd"/>
          <path id="Fill-14" d="M213.478,262.884a9.229,9.229,0,0,1,1.625-1.066c.047-.024.111-.091.044-.135a4.032,4.032,0,0,0-.957-.471,3.772,3.772,0,0,0-.461-.119c-.066-.013-.244-.007-.295-.046-.139-.106-.072-.343-.034-.472a6.685,6.685,0,0,1,.587-1.189l.687-1.286c.063-.118-.188-.111-.236-.022l-.93,1.74a2.085,2.085,0,0,0-.392,1.332c.006.034.051.048.08.051a3.776,3.776,0,0,1,1.758.618l.043-.135a9.528,9.528,0,0,0-1.68,1.1c-.13.107.071.175.162.1" transform="translate(-202.454 -235.794)" fill="#aa7959" fill-rule="evenodd"/>
          <path id="Fill-16" d="M93.353,338.318c.137,1.538-1.439,2.8-1.424,4.343a1.6,1.6,0,0,0,.147.686,1.683,1.683,0,0,0,1.637.819,4.26,4.26,0,0,0,1.8-.671,2.925,2.925,0,0,0,1.082-.912,3.162,3.162,0,0,0,.281-1.832l-.122-2.549a.866.866,0,0,0-.095-.426.767.767,0,0,0-.551-.284,3.163,3.163,0,0,0-2.787.969" transform="translate(-91.677 -308.422)" fill="#3d2d2a" fill-rule="evenodd"/>
          <path id="Fill-19" d="M97.961-.888c-.243-.024-1.1,0-1.344-.023a.631.631,0,0,0-.053.035c-1.071-.012-5.472-.248-7.03-.035A107.761,107.761,0,0,1,89.3,16.762a22.3,22.3,0,0,0-.292,3.871c.153,3.029,1.733,5.953,1.358,8.953a.047.047,0,0,0,.077.042,5.025,5.025,0,0,1,1.766-1.1,1.864,1.864,0,0,1,1.907.444.07.07,0,0,0,.123-.03c.323-1.574-.227-3.2-.311-4.815a16.652,16.652,0,0,1,.238-3.16L95.919,8.452A7.715,7.715,0,0,1,96.141,7.3S98,.742,97.961-.888" transform="translate(-89 1)" fill="#aa7959" fill-rule="evenodd"/>
          <path id="Fill-21" d="M106.564,59.824c1.1.06,1.819-1.131,2.019-2.068.012-.056-.232-.019-.245.043-.152.712-.716,1.972-1.613,1.922-.054,0-.283.1-.161.1" transform="translate(-105.025 -52.691)" fill="#774e44" fill-rule="evenodd"/>
          <path id="Fill-23" d="M107.017,291.85a14.6,14.6,0,0,1,2.174,1.812l.138-.1a9.15,9.15,0,0,0-2.017.634c-.021.009-.086.06-.028.072a11.064,11.064,0,0,1,2.765,1c.066.035.272-.067.233-.088a11.071,11.071,0,0,0-1.963-.806,2.684,2.684,0,0,1-.528-.143q-.259.006-.077-.108.108-.045.217-.085a8.129,8.129,0,0,1,1.354-.377c.022,0,.186-.047.138-.1a14.573,14.573,0,0,0-2.174-1.811c-.061-.041-.277.058-.233.088" transform="translate(-105.466 -266.641)" fill="#774e44" fill-rule="evenodd"/>
          <path id="Fill-25" d="M111.988,368.776c.448-.2.957-.4,1.4-.077.087.064.305-.058.192-.142a1.657,1.657,0,0,0-1.7.075c-.156.069-.017.2.109.143" transform="translate(-109.853 -336.666)" fill="#aa7959" fill-rule="evenodd"/>
          <path id="Fill-27" d="M118.672,361.642a.957.957,0,0,1,1.073.061c.086.062.306-.059.193-.14a1.278,1.278,0,0,0-1.429-.029c-.143.088.064.169.163.108" transform="translate(-115.933 -330.25)" fill="#aa7959" fill-rule="evenodd"/>
          <path id="Fill-29" d="M122.907,352.582a.883.883,0,0,1,.883.045c.082.05.306-.065.195-.133a1.209,1.209,0,0,0-1.182-.038c-.152.077-.014.186.1.126" transform="translate(-119.841 -322.014)" fill="#aa7959" fill-rule="evenodd"/>
          <path id="Fill-31" d="M96.491,396.784a2.964,2.964,0,0,0,3.275-.666c.1-.106-.14-.109-.2-.046a2.576,2.576,0,0,1-2.877.588c-.077-.033-.3.079-.2.124" transform="translate(-95.823 -361.974)" fill="#aa7959" fill-rule="evenodd"/>
        </g>
      </g>
      <g id="Head" transform="translate(9.178 0)">
        <g id="Head_Bun" data-name="Head/Bun" transform="translate(0)">
          <g id="face" transform="translate(0 10.026)">
            <path id="SKIN" d="M51.437,152.628a.3.3,0,0,1-.135-.114.318.318,0,0,1-.023-.149q0-.817.009-1.635a12.873,12.873,0,0,0-2.743-.591,1.832,1.832,0,0,1-.521-.277q.031,1.172-.041,2.345a9.271,9.271,0,0,1-1.515.122l1.018,1.082a4.576,4.576,0,0,0,2.8,1.778,2.253,2.253,0,0,0,2.39-2.3,2.328,2.328,0,0,1-1.24-.261" transform="translate(-42.482 -137.044)" fill="#764c36" fill-rule="evenodd"/>
            <path id="SHADOW" d="M63.114,151.906a.346.346,0,0,0,.01.227,3.415,3.415,0,0,0,.738,1.423,1.839,1.839,0,0,0,1.437.62,1.008,1.008,0,0,0,.4-.107.976.976,0,0,0,.268-.22,2.721,2.721,0,0,0,.443-1.855.107.107,0,0,0-.02-.075.105.105,0,0,0-.057-.024,14.421,14.421,0,0,0-3.021-.281.447.447,0,0,0-.235.047.157.157,0,0,0-.064.208" transform="translate(-57.59 -138.645)" fill="rgba(0,0,0,0.12)" fill-rule="evenodd"/>
            <path id="SKIN-2" data-name="SKIN" d="M2.54,7.865A1.44,1.44,0,0,0,.566,7.806,1.927,1.927,0,0,0,.108,9.83c.406,1.2,2.445,1.909,2.925.395-.073.232.457,1.13.579,1.375a4.458,4.458,0,0,0,1,1.373,6.163,6.163,0,0,0,3.269,1.361,6.516,6.516,0,0,0,4.383-.846,6.326,6.326,0,0,0,2.613-3.973,10.536,10.536,0,0,0-.2-4.83,5.621,5.621,0,0,0-.9-2.087,4.81,4.81,0,0,0-1.541-1.241A7.32,7.32,0,0,0,5.387,1.21,6.145,6.145,0,0,0,2.324,7.83a.793.793,0,0,0,.22-.185" transform="translate(0 -0.429)" fill="#764c36" fill-rule="evenodd"/>
            <path id="SKIN-3" data-name="SKIN" d="M6.075,93.452c.514-.418,1.031-.014,1.424.34l.037-.09a1.823,1.823,0,0,0-.478.388c-.1.112-.314.359-.275.52.077.318.7.422.964.455.1.013.261-.127.095-.148-.281-.036-.884-.157-.716-.587a1.314,1.314,0,0,1,.567-.547c.024-.014.069-.061.037-.09-.555-.5-1.2-.821-1.855-.288-.112.091.135.1.2.047" transform="translate(-5.344 -85.178)" fill="#764c36" fill-rule="evenodd"/>
            <path id="SHADOW-2" data-name="SHADOW" d="M6.075,93.452c.514-.418,1.031-.014,1.424.34l.037-.09a1.823,1.823,0,0,0-.478.388c-.1.112-.314.359-.275.52.077.318.7.422.964.455.1.013.261-.127.095-.148-.281-.036-.884-.157-.716-.587a1.314,1.314,0,0,1,.567-.547c.024-.014.069-.061.037-.09-.555-.5-1.2-.821-1.855-.288-.112.091.135.1.2.047" transform="translate(-5.344 -85.178)" fill="rgba(0,0,0,0.12)" fill-rule="evenodd"/>
          </g>
          <g id="hair" transform="translate(0.241)">
            <path id="Fill-12-2" data-name="Fill-12" d="M11.926,196.755a1.159,1.159,0,0,1,.891.331c.034.027.124-.006.159-.018.015-.005.107-.039.076-.063a1.766,1.766,0,0,0-.5-.292,1.062,1.062,0,0,0-.581-.038.476.476,0,0,0-.095.029c-.009,0-.048.021-.052.035-.01.038.083.02.1.017" transform="translate(-10.883 -179.83)" fill="#1b1b1b" fill-rule="evenodd"/>
            <path id="Fill-14-2" data-name="Fill-14" d="M4.765,9.633l.005,0L4.8,9.6l-.034.034,0,0m10.308,3.505a5.3,5.3,0,0,0-3.881-3.5,7.565,7.565,0,0,0-.877-.135,1.165,1.165,0,0,0-.757-.979,1.655,1.655,0,0,0-.612-.1c.011-.017.021-.034.031-.051A4.516,4.516,0,0,0,9.812,5.96C9.767,5.1,9,4.222,8.155,4.405a2.838,2.838,0,0,0-.131-2.391A2.838,2.838,0,0,0,6.092.6a3.656,3.656,0,0,0-2.777.742,8.621,8.621,0,0,0-1.958,2.2,2.9,2.9,0,0,0-.527,1.1,2.071,2.071,0,0,0,.8,1.847,6.107,6.107,0,0,0,1.865.953,1.865,1.865,0,0,0-.174,1.673,1.164,1.164,0,0,0,.964.646,1.763,1.763,0,0,1-1.417-.183,1.194,1.194,0,0,1-.043-1.581c.01-.015-.012-.027-.021-.029-.484-.128-1.647-.413-1.539-1.1.01-.065-.236-.022-.246.042-.09.573.61.832,1.045.994.143.054.416.064.443.24.013.083-.161.36-.182.467a1.238,1.238,0,0,0,.085.781c.355.706,1.4.6,2.233.371-.555.53-2.319,2.186-2.366,2.251.088-.1-.359,1-.5,1.615a3.631,3.631,0,0,0-.113,1.712c.013.049.028.1.044.145a1.754,1.754,0,0,0,.128.974,1.326,1.326,0,0,0,.776.689l.171.293a3.724,3.724,0,0,0,.8,1.876,12.07,12.07,0,0,1,.808-2.883,10.126,10.126,0,0,0,.44-2.262,5.9,5.9,0,0,0,3.96-.238,4.665,4.665,0,0,0,2.473-2.382,6.653,6.653,0,0,0,1.5,2.54c.4.382,2.012,1.412,2.506.857l.016.016c0-.009,0-.019-.006-.028a.491.491,0,0,0,.075-.125,3.3,3.3,0,0,0-.277-1.668" transform="translate(-0.808 -0.551)" fill="#fdd59a" fill-rule="evenodd"/>
            <path id="Fill-16-2" data-name="Fill-16" d="M17.223,134.186l.048-.067-.059.066.011,0" transform="translate(-15.805 -122.661)" fill="#fdd59a" fill-rule="evenodd"/>
            <path id="Fill-18" d="M104.454,80.59a3.086,3.086,0,0,0-.97.069,2.644,2.644,0,0,0-.789.41,3.623,3.623,0,0,0-1.52,1.979l.154-.216a.96.96,0,0,0-.181.462,4.76,4.76,0,0,0,5.739-2.473,23.046,23.046,0,0,0-2.433-.231" transform="translate(-92.541 -73.718)" fill="#dd5252" fill-rule="evenodd"/>
            <path id="Fill-20" d="M95.46,34.9c.382-.381.819-.827,1.2-1.207a3.424,3.424,0,0,0,.9-1.214,2.725,2.725,0,0,0,.129-.8,6.827,6.827,0,0,0-1.136-4.027,15.637,15.637,0,0,0-1.42,3.46,5.3,5.3,0,0,0,.246,3.671" transform="translate(-86.853 -25.328)" fill="#f67e7d" fill-rule="evenodd"/>
            <path id="Fill-22" d="M2.567,119.593a3.965,3.965,0,0,1-.76-2.828,4.134,4.134,0,0,1,1.377-2.657,6.537,6.537,0,0,1,2.2-1.166,15.239,15.239,0,0,1,4.925-.746c-.412.142-.705.169-1.107.339a13.3,13.3,0,0,0-2.972,1.631,5.909,5.909,0,0,0-2.032,2.665,7.409,7.409,0,0,0-.359,3.4,1.38,1.38,0,0,0-1.047-.582" transform="translate(-1.699 -102.62)" fill="#f67e7d" fill-rule="evenodd"/>
            <path id="Fill-24" d="M21.538,27.012a1.866,1.866,0,0,0-.2,2.042,2.643,2.643,0,0,0,2.153,1.094l-.08-.069a1.855,1.855,0,0,0,.027,1.829,2.935,2.935,0,0,0,1.428.827c.094.032.292-.1.147-.153a2.76,2.76,0,0,1-1.346-.778,1.79,1.79,0,0,1-.006-1.75c.016-.045-.051-.065-.08-.069a2.453,2.453,0,0,1-2-1.018,1.742,1.742,0,0,1,.161-1.9c.1-.119-.141-.136-.2-.059" transform="translate(-19.381 -24.699)" fill="#c09c64" fill-rule="evenodd"/>
            <path id="Fill-26" d="M65.176,124.311c.857.34,2.088.453,2.632-.482.15-.258.065-.505.4-.541a2.473,2.473,0,0,0,.633-.081,1.536,1.536,0,0,0,.806-.95c.03-.069-.214-.043-.248.034a2.43,2.43,0,0,1-.263.507c-.277.365-.654.341-1.035.35-.154,0-.291,0-.374.145-.051.089-.03.236-.063.336a1.161,1.161,0,0,1-.392.546,1.914,1.914,0,0,1-1.9.022c-.069-.028-.3.076-.2.115" transform="translate(-59.633 -111.781)" fill="#c09c64" fill-rule="evenodd"/>
            <path id="Fill-28" d="M38.8,117.931a10.848,10.848,0,0,1,3.518-1.283c.043-.008.134-.029.141-.084s-.071-.059-.107-.052a11.41,11.41,0,0,0-3.706,1.347c-.04.023-.068.065-.022.1s.134,0,.176-.023" transform="translate(-35.354 -106.562)" fill="#dd5252" fill-rule="evenodd"/>
          </g>
        </g>
      </g>
      <g id="Upper_Body" data-name="Upper Body" transform="translate(0 23.76)">
        <g id="Upper_Body_Sleevless_Top" data-name="Upper Body/Sleevless Top" transform="translate(0 0)">
          <g id="left" transform="translate(18.608 1.805)">
            <path id="SKIN-4" data-name="SKIN" d="M76.754,191.249a2.066,2.066,0,0,0,.98-2.072.437.437,0,0,0-.052-.206.322.322,0,0,0-.477,0,.93.93,0,0,0-.207.5l-.345,1.733a.219.219,0,0,0,.03.208c.054.049.169-.029.117-.081" transform="translate(-70.067 -172.663)" fill="#764c36" fill-rule="evenodd"/>
            <path id="SKIN-5" data-name="SKIN" d="M74.277,188.49a1.206,1.206,0,0,0,.044-.572.413.413,0,0,0-.411-.334c-.255.032-.352.344-.392.6a2.711,2.711,0,0,0-.042.9c.033.183.174.4.353.345.115-.035.169-.165.2-.282a2.272,2.272,0,0,0,.059-.744" transform="translate(-67.152 -171.491)" fill="#764c36" fill-rule="evenodd"/>
            <path id="SKIN-6" data-name="SKIN" d="M58.067,181.3a.517.517,0,0,0-.6-.37,1.9,1.9,0,0,0-.7.335,1.058,1.058,0,0,1-.738.209,4.881,4.881,0,0,0-.233-2,1.665,1.665,0,0,0-1.539-1.1l.184.246a.555.555,0,0,0-.531-.031,7.626,7.626,0,0,0,1.136,3.763.488.488,0,0,0,.208.214.483.483,0,0,0,.249.01,6.644,6.644,0,0,0,2.077-.66c.25-.128.526-.337.491-.615" transform="translate(-49.282 -163.07)" fill="#764c36" fill-rule="evenodd"/>
            <path id="SKIN-7" data-name="SKIN" d="M5.459,3.113A23.4,23.4,0,0,0,.446,0L0,.258a1.1,1.1,0,0,1,.794.861A3.245,3.245,0,0,1,.737,2.28a30.255,30.255,0,0,0,.3,7.5,14.475,14.475,0,0,0,.481,3.032,4.574,4.574,0,0,0,1.853,2.536,1.872,1.872,0,0,0,1.633.283,1.853,1.853,0,0,0,.909-1.176q.811-2.116,1.5-4.266A8.469,8.469,0,0,0,7.9,7.9a6.459,6.459,0,0,0-2.444-4.79" transform="translate(0)" fill="#764c36" fill-rule="evenodd"/>
            <path id="SKIN-8" data-name="SKIN" d="M49.717,84.916a6.262,6.262,0,0,1,1.753-1.645c.109-.068-.14-.055-.194-.021a6.385,6.385,0,0,0-1.786,1.675c-.055.076.188.047.228-.009" transform="translate(-45.236 -76.084)" fill="#764c36" fill-rule="evenodd"/>
            <path id="SHADOW-3" data-name="SHADOW" d="M76.754,191.249a2.066,2.066,0,0,0,.98-2.072.437.437,0,0,0-.052-.206.322.322,0,0,0-.477,0,.93.93,0,0,0-.207.5l-.345,1.733a.219.219,0,0,0,.03.208c.054.049.169-.029.117-.081" transform="translate(-70.067 -172.663)" fill="rgba(0,0,0,0.12)" fill-rule="evenodd"/>
            <path id="SHADOW-4" data-name="SHADOW" d="M74.277,188.49a1.206,1.206,0,0,0,.044-.572.413.413,0,0,0-.411-.334c-.255.032-.352.344-.392.6a2.711,2.711,0,0,0-.042.9c.033.183.174.4.353.345.115-.035.169-.165.2-.282a2.272,2.272,0,0,0,.059-.744" transform="translate(-67.152 -171.491)" fill="rgba(0,0,0,0.12)" fill-rule="evenodd"/>
            <path id="SHADOW-5" data-name="SHADOW" d="M49.717,84.916a6.262,6.262,0,0,1,1.753-1.645c.109-.068-.14-.055-.194-.021a6.385,6.385,0,0,0-1.786,1.675c-.055.076.188.047.228-.009" transform="translate(-45.236 -76.084)" fill="rgba(0,0,0,0.12)" fill-rule="evenodd"/>
          </g>
          <g id="torso" transform="translate(8.073)">
            <path id="Fill-12-3" data-name="Fill-12" d="M14.706,8.436a11.406,11.406,0,0,0-.992-4.552,4.379,4.379,0,0,0-3.029-2.348c.119-.419.236-1.029-.121-.947A16.065,16.065,0,0,1,7.672.254L6.242,0a2.77,2.77,0,0,0-.295,1.044L1.583,2.694a2.55,2.55,0,0,0-1.1.647A2.34,2.34,0,0,0,.058,4.659,13.833,13.833,0,0,0,.519,9.675a32.509,32.509,0,0,1,1.39,4.759c.316,2.582-.723,5.127-.915,7.721A4.694,4.694,0,0,0,1.127,23.9a4.107,4.107,0,0,0,1.526,1.979c3.138,2.355,8.667,1.394,11.44-1.382a5.537,5.537,0,0,0,1.376-2.029,7.3,7.3,0,0,0,.291-2.3c.065-3.93-.774-7.816-1.054-11.737" transform="translate(0)" fill="#f67e7d" fill-rule="evenodd"/>
            <path id="Fill-15" d="M103.9,56.712a.876.876,0,1,1-1.081.6.876.876,0,0,1,1.081-.6" transform="translate(-93.971 -51.817)" fill="#edf1f4" fill-rule="evenodd"/>
            <path id="Fill-17" d="M113.383,113.629a.876.876,0,1,1-1.081.6.876.876,0,0,1,1.081-.6" transform="translate(-102.638 -103.852)" fill="#edf1f4" fill-rule="evenodd"/>
            <path id="Fill-19-2" data-name="Fill-19" d="M118.5,172.028a.876.876,0,1,1-1.081.6.876.876,0,0,1,1.081-.6" transform="translate(-107.318 -157.241)" fill="#edf1f4" fill-rule="evenodd"/>
            <path id="Fill-21-2" data-name="Fill-21" d="M52.691,30.459C55.8,35.6,55.675,41.8,56,47.6A47.652,47.652,0,0,0,56.572,53c.017.1.266.035.249-.067-1.043-6.04-.274-12.316-2.019-18.247a18.348,18.348,0,0,0-1.882-4.333c-.048-.079-.289,0-.23.1" transform="translate(-48.163 -27.725)" fill="#c44d61" fill-rule="evenodd"/>
            <path id="Fill-23-2" data-name="Fill-23" d="M141.384,41.83c1.877,5.957.569,12.321,1.914,18.367.022.1.271.034.249-.067-1.344-6.046-.037-12.41-1.914-18.367-.031-.1-.279-.029-.249.067" transform="translate(-129.254 -38.138)" fill="#c44d61" fill-rule="evenodd"/>
            <path id="Fill-25-2" data-name="Fill-25" d="M29.69,51.549A14.289,14.289,0,0,1,23.876,52.6a31.417,31.417,0,0,0-.905-6.763A31.533,31.533,0,0,0,21.4,41.13c-.043-.1-.289-.03-.249.067a31.488,31.488,0,0,1,2.254,8.433q.18,1.477.218,2.966-.692-.032-1.382-.129c-.122-.018-.253.156-.086.18a14.627,14.627,0,0,0,1.472.135c.005.269.008.538.006.807a4.556,4.556,0,0,1-1.7-.571c-.1-.055-.313.075-.191.145a4.841,4.841,0,0,0,1.886.62c0,.1,0,.209,0,.314-.035,1.511-.2,3.012-.342,4.515a24.876,24.876,0,0,0-.062,5.072c.012.1.261.045.249-.067-.352-3.111.3-6.2.4-9.307q.024-.761.009-1.522A14.713,14.713,0,0,0,29.8,51.7c.157-.064.018-.2-.11-.146" transform="translate(-19.334 -37.556)" fill="#c44d61" fill-rule="evenodd"/>
            <path id="Fill-27-2" data-name="Fill-27" d="M135.561,237.883a11.426,11.426,0,0,1-3.629,4.241c-.137.1.067.176.163.107a11.664,11.664,0,0,0,3.7-4.323c.061-.123-.19-.12-.237-.025" transform="translate(-120.573 -217.414)" fill="#c44d61" fill-rule="evenodd"/>
            <path id="Fill-29-2" data-name="Fill-29" d="M66.652,15.5c-.065-.022-.29.078-.2.109a.684.684,0,0,1,.443.841,1.914,1.914,0,0,1-.826-.323c-.048-.033-.253,0-.24.079a1.54,1.54,0,0,1,.006.692.421.421,0,0,1-.711.153,1.764,1.764,0,0,1-.528-.864c-.021-.074-.211,0-.238.037-.123.175-.23.361-.357.534-.083.114-.235.324-.375.367a.774.774,0,0,1-.609-.1c-.292-.319.057-.773-.148-1.079-.086-.128-.223-.118-.363-.085-.077.018-.159.063-.233.088a1.1,1.1,0,0,1-.524.081l-.224-.267c-.03-.188.388-.527.5-.618s-.142-.066-.195-.025c-.239.188-.89.809-.347,1a1.2,1.2,0,0,0,.634-.02c.127-.029.323-.141.44-.086.189.089.075.367.073.549-.006.452.255.794.728.744.518-.055.8-.451,1.06-.847.176.434.533.933,1.018.91.561-.026.683-.537.661-1a2.075,2.075,0,0,0,.808.215c.061,0,.174-.012.2-.078a.741.741,0,0,0-.456-1.009" transform="translate(-56.018 -13.791)" fill="#c44d61" fill-rule="evenodd"/>
            <path id="Fill-31-2" data-name="Fill-31" d="M108.113,39.27a5.237,5.237,0,0,1,.292,1.077c.014.087.264.028.249-.067a5.245,5.245,0,0,0-.292-1.077c-.035-.089-.28-.016-.249.067" transform="translate(-98.836 -35.803)" fill="#c44d61" fill-rule="evenodd"/>
            <path id="Fill-33" d="M115.15,84.23l.464,1.8c.024.094.273.029.249-.067l-.464-1.8c-.024-.094-.273-.029-.248.067" transform="translate(-105.271 -76.902)" fill="#c44d61" fill-rule="evenodd"/>
            <path id="Fill-35" d="M123.339,140.035a14.947,14.947,0,0,1,.232,2.1c0,.051.252.009.249-.067a14.961,14.961,0,0,0-.232-2.1c-.011-.059-.261,0-.249.067" transform="translate(-112.758 -127.94)" fill="#c44d61" fill-rule="evenodd"/>
            <path id="Fill-37" d="M129.32,197.361q.1,3.285.306,6.566c0,.078.255.027.249-.067q-.208-3.28-.306-6.566c0-.076-.251-.028-.249.067" transform="translate(-118.227 -180.336)" fill="#c44d61" fill-rule="evenodd"/>
            <path id="Fill-39" d="M136.493,287.232a5.909,5.909,0,0,1,.039,1.009c-.005.116.246.072.25-.025a6.14,6.14,0,0,0-.04-1.05c-.012-.1-.262-.04-.249.067" transform="translate(-124.785 -262.487)" fill="#c44d61" fill-rule="evenodd"/>
            <path id="Fill-41" d="M116.941,118.739l.032-.062.351.234c.067.045.288-.055.232-.092l-.487-.325.179-.344c.066-.127-.185-.135-.239-.033l-.13.25-.322-.215c-.067-.044-.288.055-.232.092l.459.306-.081.155c-.006.011-.053.111-.074.167a.143.143,0,0,0-.107.076.1.1,0,0,0,.009.108.13.13,0,0,0,.137.034c.157-.052.2-.213.273-.351" transform="translate(-106.339 -107.92)" fill="#c5cfd6" fill-rule="evenodd"/>
            <path id="Fill-43" d="M107.917,61.685c.067.045.288-.055.232-.092l-.487-.325.179-.344c.066-.127-.185-.135-.239-.033l-.13.25-.322-.215c-.067-.044-.288.055-.232.092l.459.306-.081.155c-.006.011-.053.111-.074.167a.143.143,0,0,0-.107.076.1.1,0,0,0,.009.108.13.13,0,0,0,.138.034c.157-.052.2-.213.273-.351l.032-.062.351.234" transform="translate(-97.738 -55.603)" fill="#c5cfd6" fill-rule="evenodd"/>
            <path id="Fill-45" d="M122.62,176.909l-.487-.325.179-.344c.066-.127-.185-.135-.239-.033l-.13.25-.322-.215c-.067-.045-.288.055-.232.092l.459.306-.081.155c-.006.011-.053.111-.074.167a.143.143,0,0,0-.107.076.1.1,0,0,0,.009.108.13.13,0,0,0,.138.034c.157-.052.2-.213.273-.351l.032-.062.351.234c.067.044.288-.055.232-.092" transform="translate(-110.968 -161.028)" fill="#c5cfd6" fill-rule="evenodd"/>
          </g>
          <g id="right" transform="translate(0 1.135)">
            <path id="SKIN-9" data-name="SKIN" d="M50,64.608a5.045,5.045,0,0,1-.289,3.289,6.5,6.5,0,0,0-.544,3.281A2.551,2.551,0,0,0,50.748,73.1a1.9,1.9,0,0,0,2.241-.8,3.422,3.422,0,0,0,.208-1.955l-.333-3.714a5.748,5.748,0,0,0-.385-1.882,1.915,1.915,0,0,0-1.413-1.174.847.847,0,0,0-.776.263c-.272.35-.1.878-.257,1.293" transform="translate(-44.895 -58.118)" fill="#764c36" fill-rule="evenodd"/>
            <path id="SKIN-10" data-name="SKIN" d="M82.225,23a1.971,1.971,0,0,0-2.093-1.157,2.822,2.822,0,0,0-1.719,1.914,12.729,12.729,0,0,0-.734,2.708l-.215,8.4c-.066.133.188.166.315.089a6.137,6.137,0,0,0,2.345-3.189c.472-1.259.738-2.588,1.224-3.842.312-.8.714-1.573.951-2.4A3.617,3.617,0,0,0,82.225,23" transform="translate(-70.81 -19.935)" fill="#764c36" fill-rule="evenodd"/>
            <path id="phone" d="M8.713,4.694,6.938,7.435a.569.569,0,0,1-.787.168L.26,3.787A.569.569,0,0,1,.091,3L1.867.26A.569.569,0,0,1,2.654.091L8.545,3.908a.569.569,0,0,1,.168.787" transform="translate(0 0)" fill="#4f4670" fill-rule="evenodd"/>
            <path id="SKIN-11" data-name="SKIN" d="M84,75.167a1.845,1.845,0,0,1,.52,1.285c.054.575.076,1.155.113,1.731q.058.91.116,1.819c.028.445.188,1.2-.3,1.462-.1.057.144.031.19.006a.939.939,0,0,0,.391-.933c-.013-.7-.087-1.4-.131-2.09s-.069-1.377-.134-2.062a1.87,1.87,0,0,0-.534-1.3c-.049-.043-.271.052-.234.084" transform="translate(-76.788 -68.632)" fill="#764c36" fill-rule="evenodd"/>
            <path id="Fill-55" d="M19.641,23.085a.33.33,0,1,1-.33-.329.329.329,0,0,1,.33.329" transform="translate(-17.354 -20.803)" fill="#c5cfd6" fill-rule="evenodd"/>
            <path id="SKIN-12" data-name="SKIN" d="M20.011,26.873A3.573,3.573,0,0,0,18.1,25.459a5.928,5.928,0,0,0,.355-2.635,1.026,1.026,0,0,0-.165-.537.852.852,0,0,0-.919-.213,2.024,2.024,0,0,0-.814.575,6.563,6.563,0,0,0-1.506,2.509q-.037-1.043-.074-2.086c-.01-.288-.111-.665-.415-.665a.553.553,0,0,0-.406.258,3.11,3.11,0,0,0,.028,3.216,2.2,2.2,0,0,0,.848,1.038c.458.252,1.067.239,1.5.506-.035,0,1.164.317,1.618.405a2.41,2.41,0,0,0,1.721-.195.568.568,0,0,0,.276-.321.587.587,0,0,0-.132-.44" transform="translate(-12.537 -20.136)" fill="#764c36" fill-rule="evenodd"/>
            <path id="SKIN-13" data-name="SKIN" d="M47.085,28.315a6.2,6.2,0,0,1,1.42-3.535c.07-.084-.179-.069-.232-.006a6.279,6.279,0,0,0-1.437,3.571c-.007.1.242.054.249-.031" transform="translate(-42.818 -22.602)" fill="#764c36" fill-rule="evenodd"/>
            <path id="SHADOW-6" data-name="SHADOW" d="M84,75.167a1.845,1.845,0,0,1,.52,1.285c.054.575.076,1.155.113,1.731q.058.91.116,1.819c.028.445.188,1.2-.3,1.462-.1.057.144.031.19.006a.939.939,0,0,0,.391-.933c-.013-.7-.087-1.4-.131-2.09s-.069-1.377-.134-2.062a1.87,1.87,0,0,0-.534-1.3c-.049-.043-.271.052-.234.084" transform="translate(-76.788 -68.632)" fill="rgba(0,0,0,0.12)" fill-rule="evenodd"/>
            <path id="SHADOW-7" data-name="SHADOW" d="M47.085,28.315a6.2,6.2,0,0,1,1.42-3.535c.07-.084-.179-.069-.232-.006a6.279,6.279,0,0,0-1.437,3.571c-.007.1.242.054.249-.031" transform="translate(-42.818 -22.602)" fill="rgba(0,0,0,0.12)" fill-rule="evenodd"/>
          </g>
        </g>
      </g>
      <g id="Expression" transform="translate(16.212 15.011)">
        <g id="Expression_Content" data-name="Expression/Content" transform="translate(0 0)">
          <path id="Fill-1-2" data-name="Fill-1" d="M34.274,43a.3.3,0,0,0-.058.325.287.287,0,0,0,.236.169.383.383,0,0,0,.444-.366c-.016-.305-.457-.3-.623-.128" transform="translate(-33.147 -41.258)" fill-rule="evenodd"/>
          <path id="Fill-3" d="M68.988,42.987a.25.25,0,0,0-.179-.187.109.109,0,0,0-.1-.035.328.328,0,0,0-.274.206.2.2,0,0,0-.009.082.187.187,0,0,0,.078.187.346.346,0,0,0,.319.012.247.247,0,0,0,.168-.264" transform="translate(-64.438 -41.154)" fill-rule="evenodd"/>
          <path id="Fill-5" d="M26.452,25.876a.8.8,0,0,1,.843-.34c.059.013.275-.082.2-.1a1.273,1.273,0,0,0-1.292.48c-.018.025.2.018.245-.043" transform="translate(-25.845 -25.288)" fill-rule="evenodd"/>
          <path id="Fill-7" d="M64.461,24.154a.741.741,0,0,1,.741.357c.045.071.287-.009.231-.1a.924.924,0,0,0-.938-.4c-.041.007-.138.031-.141.086s.067.062.108.056" transform="translate(-60.72 -24)" fill-rule="evenodd"/>
          <path id="Fill-9" d="M22.03,77.813a4,4,0,0,0,5.494-.46c.1-.116-.134-.15-.207-.069a3.68,3.68,0,0,1-5.1.388c-.083-.067-.3.052-.192.141" transform="translate(-22 -72.673)" fill-rule="evenodd"/>
        </g>
      </g>
    </g>
  </g>
  <g id="Master_Character_Standing-3" data-name="Master/Character/Standing" transform="translate(36.374 81.242) rotate(180)">
    <g id="Master_Character_Standing-4" data-name="Master/Character/Standing" transform="translate(0 0)">
      <g id="Lower_Body_Standing-2" data-name="Lower Body Standing" transform="translate(8.749)">
        <g id="Lower_Body_Standing_Rolled_Pants" data-name="Lower Body Standing/Rolled Pants" transform="translate(0 0)">
          <g id="feet" transform="translate(0.792)">
            <g id="left-2" data-name="left" transform="translate(8.803 2.972)">
              <path id="SKIN-14" data-name="SKIN" d="M3.528,8.917q-.1-1.282-.115-2.569a2.776,2.776,0,0,1,.068-.783A2.793,2.793,0,0,1,4.01,4.65,6.912,6.912,0,0,1,6.828,2.193a3.29,3.29,0,0,0,1.049-.479.825.825,0,0,0,.3-.537C8.233.6,7.58.264,7.026.144A5.463,5.463,0,0,0,2.319,1.163a8.649,8.649,0,0,0-.859.909,2.645,2.645,0,0,0-.732,1.28,4.054,4.054,0,0,0,.066.977C.94,5.717.308,7.053.02,8.419a.458.458,0,0,0-.007.237.445.445,0,0,0,.209.215,3.828,3.828,0,0,0,3.022.42.387.387,0,0,0,.282-.317.212.212,0,0,0,0-.057" transform="translate(0 0.208)" fill="#d8936c" fill-rule="evenodd"/>
              <path id="SHADOW-8" data-name="SHADOW" d="M3.528,8.917q-.1-1.282-.115-2.569a2.776,2.776,0,0,1,.068-.783A2.793,2.793,0,0,1,4.01,4.65,6.912,6.912,0,0,1,6.828,2.193a3.29,3.29,0,0,0,1.049-.479.825.825,0,0,0,.3-.537C8.233.6,7.58.264,7.026.144A5.463,5.463,0,0,0,2.319,1.163a8.649,8.649,0,0,0-.859.909,2.645,2.645,0,0,0-.732,1.28,4.054,4.054,0,0,0,.066.977C.94,5.717.308,7.053.02,8.419a.458.458,0,0,0-.007.237.445.445,0,0,0,.209.215,3.828,3.828,0,0,0,3.022.42.387.387,0,0,0,.282-.317.212.212,0,0,0,0-.057" transform="translate(0 0.208)" fill="rgba(0,0,0,0.12)" fill-rule="evenodd"/>
              <path id="Fill-14-3" data-name="Fill-14" d="M5.063,3.159c.238-.094.238-.6.066-.788a1,1,0,0,0-.7-.256A4.842,4.842,0,0,0,.211,4.732a2.915,2.915,0,0,1,1.072-3.49c.128-.082.308-.15.42-.048A5.1,5.1,0,0,1,6.857.345a1.873,1.873,0,0,1,.812.518.815.815,0,0,1,.118.906,1.246,1.246,0,0,1-.611.431l-1.957.85" transform="translate(0.498 0)" fill="#0c844d" fill-rule="evenodd"/>
            </g>
            <g id="right-2" data-name="right" transform="translate(0 0)">
              <path id="SKIN-15" data-name="SKIN" d="M.323,10.439c.731-1.664,1.477-3.5.986-5.248-.292-1.041-.257-.522-.7-1.507A16.779,16.779,0,0,1,0,1.433C0,.866.108.479.626.249A4.152,4.152,0,0,1,2.295,0a2.042,2.042,0,0,1,1.3.425,1.574,1.574,0,0,1,.8.964,6.7,6.7,0,0,1,.167,1.362,27.713,27.713,0,0,1-.809,7.943.84.84,0,0,1-.215.488.757.757,0,0,1-.451.147,3.636,3.636,0,0,1-2.766-.994" transform="translate(0.207 0.221)" fill="#d8936c" fill-rule="evenodd"/>
              <path id="Fill-19-3" data-name="Fill-19" d="M.816,3.906C.752,3.352,1.27,2.889,1.8,2.72a2.086,2.086,0,0,1,2.505,1,3.172,3.172,0,0,1,.211.933c.063.587.134,1.261.186,1.724a13.621,13.621,0,0,0,.139-3.032,3.609,3.609,0,0,0-.954-2.8,3.336,3.336,0,0,0-1.9-.531,2.173,2.173,0,0,0-1.51.3,1.7,1.7,0,0,0-.4,1.754A7.447,7.447,0,0,0,.761,3.844a.5.5,0,0,0,.055.062" transform="translate(0 0)" fill="#01af7c" fill-rule="evenodd"/>
            </g>
          </g>
          <g id="pants" transform="translate(0 9.674)">
            <g id="left-3" data-name="left" transform="translate(7.39 1.839)">
              <path id="Fill-3-2" data-name="Fill-3" d="M3.069,22.883,6,23c-.186-1.581-.163-5.621-.141-7.213Q5.975,8.075,6.086.367L1.622,0a9.349,9.349,0,0,1-.594,2.335c-.439,1.774.272,3.625.221,5.452C1.177,10.344-.385,12.8.09,15.319a26.509,26.509,0,0,1,.884,3.292A19.742,19.742,0,0,0,1.2,22.193a1.588,1.588,0,0,0,.982.477l1.245.273a.328.328,0,0,0,.238-.008c.07-.042.084-.168.007-.195" transform="translate(0 1.357)" fill="#45546b" fill-rule="evenodd"/>
              <path id="Fill-6-2" data-name="Fill-6" d="M.081,1.842A.106.106,0,0,1,0,1.719,4.063,4.063,0,0,1,.567.3.64.64,0,0,1,.85.027a.693.693,0,0,1,.344-.01l3.79.532A.376.376,0,0,1,5.171.61a.364.364,0,0,1,.1.146,6.706,6.706,0,0,1,.41,1.273.666.666,0,0,1,.017.174c-.019.359-.35.409-.622.416A25.524,25.524,0,0,1,.081,1.842" transform="translate(0.988 0)" fill="#768c8c" fill-rule="evenodd"/>
              <path id="Fill-8-2" data-name="Fill-8" d="M.205.032l1.722,1.48c.128.11-.071.188-.164.109L.042.141C-.086.032.113-.047.205.032" transform="translate(3.584 6.578)" fill="#5a819e" fill-rule="evenodd"/>
              <path id="Fill-10-2" data-name="Fill-10" d="M.229.034l1.434,1.2c.111.093-.135.1-.2.047L.028.081c-.111-.092.135-.1.2-.047" transform="translate(3.63 7.529)" fill="#5a819e" fill-rule="evenodd"/>
              <path id="Fill-12-4" data-name="Fill-12" d="M.193.023A7.009,7.009,0,0,1,1.385.84c.057.048-.177.027-.226-.014A6.548,6.548,0,0,0,.047.064C-.1-.015.13-.011.193.023" transform="translate(4.034 8.866)" fill="#5a819e" fill-rule="evenodd"/>
            </g>
            <g id="right-3" data-name="right" transform="translate(0 0)">
              <path id="Fill-22-2" data-name="Fill-22" d="M1.208,20.784c-.048.365-.465,3.787.471,3.9,2.1.252,6.033-.294,8.886,0-.665-1.2-.988-5.031-.919-6.4a1.214,1.214,0,0,0-.065-.605c-.239-.48-.975-.391-1.391-.73a1.563,1.563,0,0,1-.4-1.223c-.025-1.161.028-2.326-.087-3.481C7.317,8.356,5.058,4.778,5.05.871A10.9,10.9,0,0,1,.765,0a8.348,8.348,0,0,0-.6,5.159c.213,1.03.62,2.01.882,3.028.7,2.723.353,5.589.254,8.4A4.642,4.642,0,0,0,1.391,17.9a4.79,4.79,0,0,1,.148.581,2.416,2.416,0,0,1-.027.606c-.078.609-.3,1.695-.3,1.695" transform="translate(0.157 1.429)" fill="#5a819e" fill-rule="evenodd"/>
              <path id="Fill-24-2" data-name="Fill-24" d="M0,1.768A11.708,11.708,0,0,1,.827.15.325.325,0,0,1,.948.018.341.341,0,0,1,1.233.06,7.981,7.981,0,0,0,5.194.772a6.706,6.706,0,0,1,.4,2.249.2.2,0,0,1-.052.167.2.2,0,0,1-.145.022A15.692,15.692,0,0,1,.5,2.2a.932.932,0,0,1-.372-.248A.345.345,0,0,1,.1,1.538" transform="translate(0 0)" fill="#a0b4b5" fill-rule="evenodd"/>
              <path id="Fill-27-3" data-name="Fill-27" d="M0,.052C.371-.119.788.167,1.078.379A3.359,3.359,0,0,1,2.153,1.725c.018.04-.216.021-.245-.043A3.3,3.3,0,0,0,1.334.792C1.136.577.569-.017.237.137.171.168-.026.065,0,.052" transform="translate(2.323 19.9)" fill="#79b5bc" fill-rule="evenodd"/>
              <path id="Fill-29-3" data-name="Fill-29" d="M.223.041,2.4,2.206c.1.1-.142.092-.2.037L.024.077c-.1-.1.142-.092.2-.037" transform="translate(3.251 7.306)" fill="#79b5bc" fill-rule="evenodd"/>
              <path id="Fill-31-3" data-name="Fill-31" d="M.233.038l1.8,1.685c.11.1-.132.13-.205.062L.028.1c-.11-.1.132-.13.2-.062" transform="translate(3.691 8.394)" fill="#79b5bc" fill-rule="evenodd"/>
              <path id="Fill-33-2" data-name="Fill-33" d="M.22.031A14.636,14.636,0,0,1,1.7,1.218c.061.056-.178.037-.228-.009A14.323,14.323,0,0,0,.026.052C-.08-.022.168-.006.22.031" transform="translate(4.055 9.661)" fill="#79b5bc" fill-rule="evenodd"/>
            </g>
          </g>
        </g>
      </g>
      <g id="Head-2" data-name="Head" transform="translate(0.515 52.603)">
        <g id="Head_Gold_Locks" data-name="Head/Gold Locks" transform="translate(0 0)">
          <g id="Group-9" transform="translate(7.957 0.471)">
            <path id="SKIN-16" data-name="SKIN" d="M4.968,2.564a.3.3,0,0,0-.135.114.317.317,0,0,0-.023.149q0,.817.009,1.635a12.872,12.872,0,0,1-2.743.591,1.832,1.832,0,0,0-.521.277q.031-1.172-.04-2.345A9.289,9.289,0,0,0,0,2.864L1.018,1.782A4.576,4.576,0,0,1,3.818,0a2.254,2.254,0,0,1,2.39,2.3,2.329,2.329,0,0,0-1.24.261" transform="translate(3.986 0)" fill="#d8936c" fill-rule="evenodd"/>
            <path id="SHADOW-9" data-name="SHADOW" d="M.12,2.274a.345.345,0,0,1,.01-.227A3.414,3.414,0,0,1,.868.624,1.839,1.839,0,0,1,2.3,0a1.007,1.007,0,0,1,.4.107.974.974,0,0,1,.268.22,2.721,2.721,0,0,1,.443,1.855.107.107,0,0,1-.02.075.106.106,0,0,1-.057.024,14.414,14.414,0,0,1-3.021.281.446.446,0,0,1-.235-.047.157.157,0,0,1-.064-.208" transform="translate(5.403 2.612)" fill="rgba(0,0,0,0.12)" fill-rule="evenodd"/>
            <path id="SKIN-17" data-name="SKIN" d="M2.54,6.538A1.44,1.44,0,0,1,.566,6.6,1.927,1.927,0,0,1,.108,4.573c.406-1.2,2.445-1.909,2.925-.395-.073-.232.457-1.13.579-1.375a4.458,4.458,0,0,1,1-1.373A6.164,6.164,0,0,1,7.877.07,6.516,6.516,0,0,1,12.26.916a6.327,6.327,0,0,1,2.613,3.973,10.535,10.535,0,0,1-.2,4.83,5.621,5.621,0,0,1-.9,2.087,4.809,4.809,0,0,1-1.541,1.241,7.32,7.32,0,0,1-6.846.145A6.146,6.146,0,0,1,2.324,6.573a.793.793,0,0,1,.22.185" transform="translate(0 4.175)" fill="#d8936c" fill-rule="evenodd"/>
            <path id="SKIN-18" data-name="SKIN" d="M.229,1.614c.514.419,1.032.014,1.424-.34l.037.09A1.826,1.826,0,0,1,1.213.976C1.117.864.9.617.938.456,1.014.138,1.635.034,1.9,0,2-.012,2.163.128,2,.149c-.281.035-.884.157-.716.587a1.315,1.315,0,0,0,.567.547c.024.014.069.061.037.09-.555.5-1.2.821-1.855.288-.112-.091.135-.1.2-.047" transform="translate(0.501 8.26)" fill="#d8936c" fill-rule="evenodd"/>
            <path id="SHADOW-10" data-name="SHADOW" d="M.229,1.614c.514.419,1.032.014,1.424-.34l.037.09A1.826,1.826,0,0,1,1.213.976C1.117.864.9.617.938.456,1.014.138,1.635.034,1.9,0,2-.012,2.163.128,2,.149c-.281.035-.884.157-.716.587a1.315,1.315,0,0,0,.567.547c.024.014.069.061.037.09-.555.5-1.2.821-1.855.288-.112-.091.135-.1.2-.047" transform="translate(0.501 8.26)" fill="rgba(0,0,0,0.12)" fill-rule="evenodd"/>
          </g>
          <g id="hair-2" data-name="hair" transform="translate(0)">
            <path id="Fill-10-3" data-name="Fill-10" d="M.224,6.28A4.688,4.688,0,0,0,3.577,4.006,8.184,8.184,0,0,0,4.655,0,4.9,4.9,0,0,1,6.069,2.991a3.933,3.933,0,0,1-.089,1.886A3.237,3.237,0,0,1,4.247,6.646a7.654,7.654,0,0,1-2.463.581c-.336.035-1.477.234-1.7-.021S.11,6.6.224,6.28" transform="translate(18.228 11.73)" fill="#603830" fill-rule="evenodd"/>
            <path id="Fill-12-5" data-name="Fill-12" d="M0,0,.011.16C.006.106,0,.053,0,0" transform="translate(23.005 11.781)" fill="#f63" fill-rule="evenodd"/>
            <path id="Fill-14-4" data-name="Fill-14" d="M2.157,3.238a3.485,3.485,0,0,0-.5-.1c-.392.017-.569.538-.446.91a7.5,7.5,0,0,0,.6,1.007,3.036,3.036,0,0,1,.034,2.155,6.825,6.825,0,0,0-.379,2l-.009-.122.011.465A11.79,11.79,0,0,0,.391,4.862c.323-.1.285-.59.091-.869S-.006,3.458,0,3.119a.745.745,0,0,1,.543-.637,2.183,2.183,0,0,1,.885-.04A3.4,3.4,0,0,1,.838,1.317,1.156,1.156,0,0,1,1.161.151.711.711,0,0,1,2.234.375a.705.705,0,0,0-.795.449A.705.705,0,0,0,1.8,1.66a4.472,4.472,0,0,0,.452.127.862.862,0,0,1,.6.8.678.678,0,0,1-.7.651" transform="translate(21.543 2.574)" fill="#603830" fill-rule="evenodd"/>
            <path id="Fill-16-3" data-name="Fill-16" d="M.02.113,0,0A.274.274,0,0,1,.02.113" transform="translate(10.042 5.081)" fill="#f63" fill-rule="evenodd"/>
            <path id="Fill-18-2" data-name="Fill-18" d="M.049.106A.159.159,0,0,1,0,.126.319.319,0,0,0,.03,0L.049.106" transform="translate(10.032 5.194)" fill="#f63" fill-rule="evenodd"/>
            <path id="Fill-20-2" data-name="Fill-20" d="M17.706,14.745c-.048-.27-.279-.374-.5-.483q.282.438.522.9a1.879,1.879,0,0,0-.02-.421m-5.174-4.589a4.073,4.073,0,0,1-.1.687A6.787,6.787,0,0,1,15.74,12.5a8.262,8.262,0,0,1,.78.821c-.043-.188-.072-.381-.107-.56-.3-1.53-2.3-3.154-3.881-2.609M11.337,5.986c-.319.069-.746.087-.873-.214-.139-.329.237-.623.436-.919a.87.87,0,0,0-.2-1.192.647.647,0,0,0-.959.526c.013.152.155.313.29.284a.4.4,0,0,1-.387.236A.544.544,0,0,1,9.2,4.185.76.76,0,0,1,9.243,3.9a2.391,2.391,0,0,0-.505,1.1.41.41,0,0,0,.009.215c.043.108.159.165.245.244.667.608-.641,1.921.022,2.532.1.1.24.149.344.244.487.446-.064,1.347.307,1.894a2.7,2.7,0,0,0,.446.41c.018.016.034.034.051.051.227-.177.477-.329.355-.644-.08-.206,0,0-.1-.2a2.774,2.774,0,0,1,.526-2.807c.219-.286.484-.615.393-.963M6.705,15.623c0-.022,0-.044,0-.066,0,.043-.008.086-.013.128,0-.021.008-.041.01-.063m17.767,3.27a1.148,1.148,0,0,0-1.186.562,1.434,1.434,0,0,1-.686.647.822.822,0,0,1-1.071-.466.622.622,0,0,1,.049-.364c.061-.2.111-.266,0-.454a.745.745,0,0,0-.753-.286c-.41.068-.721.392-1.14.433-.5.048-.78-.334-1.016-.726q-1.218.152-2.443.234a7.3,7.3,0,0,1-2.541-.158,4.142,4.142,0,0,1-1.038-.475c-.028.043-.057.084-.086.126a2.448,2.448,0,0,1-.575,2.149,1.816,1.816,0,0,1-2.332.223c-.2-.1-.8-.521-1.005-.235-.1.139-.06.362-.175.515a.909.909,0,0,1-.851.3A2.283,2.283,0,0,1,5.966,19.1c-.028-.122.226-.093.252.019a2.376,2.376,0,0,0,.643,1.179c.376.371,1.22.756,1.477.041.071-.2.036-.457.267-.553.21-.087.473.066.654.151a6.928,6.928,0,0,0,1.115.505,1.382,1.382,0,0,0,1.428-.482,2.283,2.283,0,0,0,.553-1.726,3.741,3.741,0,0,1-2.645,1.3A3.734,3.734,0,0,1,6.4,17.7a1.118,1.118,0,0,1-.034-1.35c.023-.21.046-.419.066-.629.032-.337.006-.678-.429-.709a2.679,2.679,0,0,0-.411.019A4.378,4.378,0,0,1,3.8,14.862a2.467,2.467,0,0,1-1.782-2.241,6.024,6.024,0,0,1,.532-1.781c.1-.308.239-.651-.278-.733a2.348,2.348,0,0,0-.38.034,1.917,1.917,0,0,1-.685-.113A1.8,1.8,0,0,1,.138,7.636c.041-.1.287-.028.248.067A1.654,1.654,0,0,0,.863,9.666a1.7,1.7,0,0,0,1.19.291A1.11,1.11,0,0,1,2.6,10c.436.2.278.687.148,1.042a3.893,3.893,0,0,0-.458,1.934,2.258,2.258,0,0,0,1.312,1.64,4.609,4.609,0,0,0,2.174.228,1.172,1.172,0,0,1,.741.175,1.442,1.442,0,0,0-.441-.388c-.359-.206-.772-.295-1.149-.466A2.878,2.878,0,0,1,3.5,12.712a1.472,1.472,0,0,1-.037-1.28c.231-.417.749-.635.921-1.08a1.29,1.29,0,0,0-.669-1.426C3.233,8.618,2.66,8.472,2.2,8.137a3.714,3.714,0,0,1-.943-1.13A1.988,1.988,0,0,1,.929,5.148c.329-.636,1.261-.894,1.367-1.6.125-.836-1.023-1.38-1.074-2.223A1.23,1.23,0,0,1,1.968.212,2.992,2.992,0,0,1,3.359,0c-.17.158-.05.47.161.567a1.079,1.079,0,0,0,.683,0L6.054.15c.483-.109,1.069-.189,1.4.177a3.571,3.571,0,0,1,.318.542,1.871,1.871,0,0,0,1.37.73,12.59,12.59,0,0,1,1.59.19c.148.04.318.127.322.28a.382.382,0,0,1-.157.266c-.286.266-.6.522-.9.79a1.313,1.313,0,0,1,1.081-.032.54.54,0,0,1,.356.429,1.093,1.093,0,0,1-.075.318.935.935,0,0,0,.36,1c.222.153.511.208.693.406.351.382.086,1-.262,1.388s-.8.765-.81,1.283c-.017.8,1.008,1.268,1.17,2.034,1.441-.406,3.145.769,3.854,1.989a3.815,3.815,0,0,1,.369,1.232,1.915,1.915,0,0,0,.2.628c.173.283.418.291.673.436.391.222.386.677.361,1.078-.006.095-.017.189-.029.282a16.42,16.42,0,0,1,.936,2.577c.234.382.531.767,1.016.551a3.183,3.183,0,0,1,.84-.368,1.151,1.151,0,0,1,1.131.49c.155.313-.154.51-.082.82.131.562.679.334.908.15a1.555,1.555,0,0,0,.31-.359c.166-.249.276-.487.564-.614a1.908,1.908,0,0,1,.818-.095c.1,0,.262.151.1.146" transform="translate(0 0.849)" fill="#603830" fill-rule="evenodd"/>
            <path id="Fill-23-3" data-name="Fill-23" d="M9,17.883a2.087,2.087,0,0,1-2.253.614,1.116,1.116,0,0,1-.63-1.749,1.217,1.217,0,0,0,.334-.773,1.206,1.206,0,0,0-.484-.844,5.994,5.994,0,0,0-1.726-.651c-.586-.218-1.549-.855-1.14-1.614a3.291,3.291,0,0,1,.4-.471,1.424,1.424,0,0,0,.312-.752A1.513,1.513,0,0,0,2.813,10.1C2.1,9.76.971,9.471.851,8.523a1.606,1.606,0,0,1,.407-1.076,1.315,1.315,0,0,0,.3-.793c-.035-.44-.394-.442-.745-.512A.974.974,0,0,1,.1,4.779c.194-.392.635-.435.967-.657C1.847,3.6,1,2.8.65,2.327A1.62,1.62,0,0,1,1.011.016c.084-.059.306.059.193.138A1.5,1.5,0,0,0,.568,1.232a1.918,1.918,0,0,0,.644,1.455c.467.575.621,1.3-.145,1.674-.352.172-.742.3-.8.743a.907.907,0,0,0,.123.576c.185.3.487.28.788.343.672.141.754.767.451,1.312-.252.452-.685.846-.473,1.411A2.061,2.061,0,0,0,2.43,9.754c.7.289,1.453.623,1.617,1.448a1.6,1.6,0,0,1-.117.993c-.236.492-.884.775-.564,1.408.459.908,1.762.829,2.548,1.28a1.571,1.571,0,0,1,.742.863,1.128,1.128,0,0,1-.27,1.059.909.909,0,0,0-.229.906,1.223,1.223,0,0,0,.783.678,1.859,1.859,0,0,0,1.834-.613c.072-.079.308.019.228.107" transform="translate(2.609)" fill="#9b5e3d" fill-rule="evenodd"/>
            <path id="Fill-26-2" data-name="Fill-26" d="M1.022,3.637c.317.175.629.367.612.777-.023.572-.6.981-.9,1.416a1.408,1.408,0,0,0-.285.993c.084.534.47.593.908.746a.885.885,0,0,1,.595.814,8.946,8.946,0,0,1-.428,1.765c-.115.778.277,2.034,1.317,1.759a.177.177,0,0,1,.176.047.732.732,0,0,1,.071.759,2.925,2.925,0,0,1-.226.4,1.849,1.849,0,0,0-.177.324.462.462,0,0,0-.045.225q-.06.3.361.377c.1-.043.288.1.145.161a.559.559,0,0,1-.734-.357c-.165-.468.347-.883.482-1.309.054-.169.012-.449-.028-.443a1.306,1.306,0,0,1-1.095-.335,1.816,1.816,0,0,1-.494-1.678A9.022,9.022,0,0,1,1.619,8.9a1.449,1.449,0,0,0,.071-.656c-.067-.373-.291-.468-.633-.577a1.042,1.042,0,0,1-.863-.925c-.068-.663.414-1.136.8-1.607.335-.412.633-.955.026-1.308A2.218,2.218,0,0,1,.406,3.4C-.518,2.345.334.954,1,.034c.062-.087.3.007.228.107C.531,1.1-.44,2.833,1.022,3.637Z" transform="translate(6.67 0.542)" fill="#9b5e3d" fill-rule="evenodd"/>
            <path id="Fill-28-2" data-name="Fill-28" d="M6.665,5.71c-.758.095-.909-1.072-1-1.6a2.4,2.4,0,0,0-.13-.563c-.166-.375-.559-.31-.9-.306a2.283,2.283,0,0,1-.958-.2,2.443,2.443,0,0,1-.805-.583,2.255,2.255,0,0,1-.313-.443c-.1-.183-.115-.43-.214-.6-.082-.141-.323-.162-.478-.219A5.617,5.617,0,0,1,1.2.893,5.686,5.686,0,0,1,.025.069c-.1-.093.142-.079.2-.03A5.354,5.354,0,0,0,2.467,1.257c.03.008.1.033.109.072a2.115,2.115,0,0,0,.858,1.42,1.872,1.872,0,0,0,1.152.359,2.422,2.422,0,0,1,.667.015.831.831,0,0,1,.6.678c.069.277.233,1.838.662,1.785.071-.009.29.108.155.125" transform="translate(10.288 12.867)" fill="#9b5e3d" fill-rule="evenodd"/>
          </g>
        </g>
      </g>
      <g id="Upper_Body-2" data-name="Upper Body" transform="translate(0 34.046)">
        <g id="Upper_Body_Sweater_2" data-name="Upper Body/Sweater 2" transform="translate(0 0)">
          <g id="left-4" data-name="left" transform="translate(18.478 8.013)">
            <path id="SKIN-19" data-name="SKIN" d="M1.075,2.249a.862.862,0,0,1,.6.739A9.356,9.356,0,0,1,1.705,4a.932.932,0,0,0,.633.943A.461.461,0,0,0,2.9,4.59c.043-.256-.165-.441-.293-.648a1.059,1.059,0,0,1-.138-.748c1.24-.046,2.04,1.416,3.173,1.827a.324.324,0,0,0,.4-.455,2.354,2.354,0,0,0-.757-.735L4.272,3.153a11.92,11.92,0,0,1,2.371.971A.7.7,0,0,0,7,4.242a.515.515,0,0,0,.384-.271,1.289,1.289,0,0,0-.006-1.239A2.72,2.72,0,0,0,6.5,1.8,6.347,6.347,0,0,0,2.825.622,1.955,1.955,0,0,1,1.733.443C1.595.352,1.485.222,1.348.13a.905.905,0,0,0-1.286.4A1.164,1.164,0,0,0,.21,1.553a3.235,3.235,0,0,0,.746.758l.137-.117" transform="translate(10.356 2.799)" fill="#d8936c" fill-rule="evenodd"/>
            <path id="Fill-4-2" data-name="Fill-4" d="M11.427,5a.605.605,0,0,1-.7.451,1.563,1.563,0,0,0-1.163.378c-.483.414-.943,1-1.579.976a7.608,7.608,0,0,1-.836-.192c-1.05-.157-1.791.961-2.284,1.9C3.837,10.469,2.383,12.532.2,12.87c0,0-.086.134-.2-.078A12.305,12.305,0,0,0,2.846,4.643c-.032-1.223-.216-2.569.5-3.563A2.88,2.88,0,0,1,5.809,0a5.327,5.327,0,0,1,2.6.945,5.518,5.518,0,0,0,2.718,1.24.593.593,0,0,1,.6.619A12.068,12.068,0,0,1,11.427,5" transform="translate(0 0)" fill="#db6653" fill-rule="evenodd"/>
            <path id="SHADOW-11" data-name="SHADOW" d="M.251.069C.638.762,1.452.612,2.1.493a1.06,1.06,0,0,1,.912.2A18.457,18.457,0,0,1,5.281,1.8l-.208.027.036-.171c.025-.12.274-.055.248.067l-.036.171c-.018.087-.158.068-.208.027A4.56,4.56,0,0,0,3.7,1.23c-.434-.163-1-.619-1.446-.564C1.432.767.5.981.012.1-.057-.023.195-.032.251.069" transform="translate(12.352 4.093)" fill="rgba(0,0,0,0.12)" fill-rule="evenodd"/>
            <path id="SHADOW-12" data-name="SHADOW" d="M.01,1.056A1.14,1.14,0,0,0,.455.048C.448-.041.7.008.7.083A1.2,1.2,0,0,1,.242,1.149C.177,1.2-.049,1.1.01,1.056" transform="translate(14.711 5.025)" fill="rgba(0,0,0,0.12)" fill-rule="evenodd"/>
            <path id="Fill-10-4" data-name="Fill-10" d="M.2,2.433A3.021,3.021,0,0,0,.008.077C-.049-.034.2-.013.241.065A3.122,3.122,0,0,1,.445,2.5c-.03.094-.278.025-.248-.067" transform="translate(9.744 2.77)" fill="#ffbf77" fill-rule="evenodd"/>
          </g>
          <g id="torso-2" data-name="torso" transform="translate(7.253 0)">
            <path id="Fill-12-6" data-name="Fill-12" d="M15.086,7.66c-.432,2.476.052,5.022-.154,7.527s-.925,5.326-3.33,6.054c-.2.061-.6.08-.932.14l.231.717a.522.522,0,0,1-.481.682,21.905,21.905,0,0,0-3.364.289c-.75.179-1.048-.642-.993-1.069a22.265,22.265,0,0,1-3.049-.766A4.45,4.45,0,0,1,.022,16.568a9.029,9.029,0,0,1,.537-2.513c.752-1.722,1.722-3.448,1.683-5.327-.026-1.273-.521-2.5-.552-3.774a5.221,5.221,0,0,1,.257-1.746c.313-.958.887-2.043.61-2.926A.22.22,0,0,1,2.84.012,27.352,27.352,0,0,0,14.987,1.165a.22.22,0,0,1,.247.259,4.708,4.708,0,0,0,.334,1.88c.338,1.434-.228,2.9-.482,4.356" transform="translate(0)" fill="#ffbf77" fill-rule="evenodd"/>
            <path id="Fill-15-2" data-name="Fill-15" d="M.474,1.212a1.041,1.041,0,0,0-.223.4L.012,1.527.729.782a4.957,4.957,0,0,1,.683-.7.383.383,0,0,1,.54.071,4.657,4.657,0,0,1,.482.8l.512.864L4.055,3.689l-.231-.045Q5.257,1.9,6.544.048c.041-.059.178-.015.216.026a14.1,14.1,0,0,1,2.4,3.51l-.241-.028Q9.793,1.787,10.787.081c.044-.075.285.005.23.1q-.985,1.69-1.854,3.442c-.039.078-.208.04-.241-.028A13.94,13.94,0,0,0,6.558.122l.216.026Q5.487,2,4.053,3.744c-.05.061-.2.014-.231-.045L2.244,1.036A4.674,4.674,0,0,0,1.86.388C1.769.282,1.744.181,1.565.252c-.1.038-.206.213-.276.286L.242,1.626c-.051.053-.268.01-.239-.083a1.084,1.084,0,0,1,.241-.431c.06-.068.3.023.23.1" transform="translate(3.25 11.052)" fill="#dd5252" fill-rule="evenodd"/>
            <path id="Fill-17-2" data-name="Fill-17" d="M.25.215A14.515,14.515,0,0,0,1.26,3.248L1.029,3.2,3.781.027c.052-.06.193-.01.231.045A33.489,33.489,0,0,1,6.535,4.409L6.3,4.364Q7.6,2.392,8.772.347c.039-.068.2,0,.231.045a19.726,19.726,0,0,1,1.583,3.064c.034.082-.214.054-.249-.03A19.487,19.487,0,0,0,8.771.4L9,.445Q7.827,2.49,6.534,4.463c-.04.061-.2.01-.231-.045A33.483,33.483,0,0,0,3.78.08l.231.045L1.259,3.3c-.047.054-.2.016-.231-.045A14.7,14.7,0,0,1,0,.185C-.02.089.231.127.25.215" transform="translate(3.481 10.649)" fill="#dd5252" fill-rule="evenodd"/>
            <path id="Fill-19-4" data-name="Fill-19" d="M.016,2.277A5.746,5.746,0,0,1,2.951.032,1.5,1.5,0,0,1,4.843,1.3c0,.128-.25.09-.252-.02A1.112,1.112,0,0,0,3.8.239,2.034,2.034,0,0,0,2.156.578,8.333,8.333,0,0,0,.244,2.385c-.072.084-.308-.014-.228-.109" transform="translate(5.81 19.162)" fill="#db6653" fill-rule="evenodd"/>
            <path id="Fill-21-3" data-name="Fill-21" d="M.164.016A13,13,0,0,0,5.15.9C5.905.909,6.664.9,7.419.88A4.706,4.706,0,0,0,9.885.28c.068-.044.289.056.232.093a4.412,4.412,0,0,1-2.16.614c-.9.058-1.807.051-2.706.037A13.516,13.516,0,0,1,.07.1C-.089.033.058-.03.164.016" transform="translate(3.466 1.756)" fill="#db6653" fill-rule="evenodd"/>
          </g>
          <g id="right-4" data-name="right" transform="translate(0 4.119)">
            <path id="SKIN-20" data-name="SKIN" d="M.429,1.208,1.1.4A.914.914,0,0,1,1.65,0c.369-.039.615.349.883.606a2.273,2.273,0,0,0,1.418.537c.514.039,1.032-.011,1.546.027a.389.389,0,0,1,.2.053.277.277,0,0,1,.008.4.741.741,0,0,1-.4.19,6.182,6.182,0,0,1-1.746.154,18.671,18.671,0,0,0,2.274.062.41.41,0,0,1-.087.543A1.192,1.192,0,0,1,5.19,2.8a3.546,3.546,0,0,1-1.956.053l2.272-.014a.47.47,0,0,1-.157.523,1.379,1.379,0,0,1-.529.24,2.841,2.841,0,0,1-1.657.14,2.419,2.419,0,0,1-.73-.434A8.448,8.448,0,0,1,1.158,2.051a.527.527,0,0,1-.613.5A.715.715,0,0,1,0,1.9.883.883,0,0,1,.58,1.016" transform="translate(7.322 0.071)" fill="#d8936c" fill-rule="evenodd"/>
            <path id="SKIN-21" data-name="SKIN" d="M.434,1.229C.8.789,1.321-.214,2.029.041c.31.111.493.4.725.614a2.576,2.576,0,0,0,1.811.5c.248,0,1.729-.184,1.432.494-.122.28-.557.324-.809.369A6.821,6.821,0,0,1,3.7,2.111l-.031-.149a19.788,19.788,0,0,0,2.243.061.191.191,0,0,1,.164.07c.29.5-.3.755-.686.846a3.827,3.827,0,0,1-2.049.049c-.075-.024-.171-.143-.029-.144L5.58,2.83c.058,0,.154.022.172.089.1.382-.181.621-.511.749a3.721,3.721,0,0,1-1.57.285c-1.02-.085-1.881-1.076-2.493-1.808l.225.009a.661.661,0,0,1-1.134.339A.894.894,0,0,1,.6,1.024c.08-.034.3.08.2.126a.835.835,0,0,0-.545.731c-.018.313.069.4.365.513q.255.235.435-.019a.406.406,0,0,0,.1-.287c.007-.085.194-.028.225.009A6.018,6.018,0,0,0,3.09,3.643a2.084,2.084,0,0,0,1.552.018c.376-.1,1-.239.86-.769l.172.09L3.4,3l-.029-.144a3.066,3.066,0,0,0,1.561.007c.333-.065,1.224-.208.9-.755L6,2.174A20.363,20.363,0,0,1,3.7,2.111c-.127-.011-.2-.156-.031-.149a6.353,6.353,0,0,0,1.373-.087,1.349,1.349,0,0,0,.547-.163c.365-.254.109-.4-.229-.407A9.262,9.262,0,0,1,3.6,1.22,2.281,2.281,0,0,1,2.394.539,1.571,1.571,0,0,0,2.149.291c-.412-.266-.6-.027-.815.229s-.447.54-.67.81c-.059.071-.3-.019-.23-.1" transform="translate(7.201 0)" fill="#d8936c" fill-rule="evenodd"/>
            <path id="SHADOW-13" data-name="SHADOW" d="M.434,1.229C.8.789,1.321-.214,2.029.041c.31.111.493.4.725.614a2.576,2.576,0,0,0,1.811.5c.248,0,1.729-.184,1.432.494-.122.28-.557.324-.809.369A6.821,6.821,0,0,1,3.7,2.111l-.031-.149a19.788,19.788,0,0,0,2.243.061.191.191,0,0,1,.164.07c.29.5-.3.755-.686.846a3.827,3.827,0,0,1-2.049.049c-.075-.024-.171-.143-.029-.144L5.58,2.83c.058,0,.154.022.172.089.1.382-.181.621-.511.749a3.721,3.721,0,0,1-1.57.285c-1.02-.085-1.881-1.076-2.493-1.808l.225.009a.661.661,0,0,1-1.134.339A.894.894,0,0,1,.6,1.024c.08-.034.3.08.2.126a.835.835,0,0,0-.545.731c-.018.313.069.4.365.513q.255.235.435-.019a.406.406,0,0,0,.1-.287c.007-.085.194-.028.225.009A6.018,6.018,0,0,0,3.09,3.643a2.084,2.084,0,0,0,1.552.018c.376-.1,1-.239.86-.769l.172.09L3.4,3l-.029-.144a3.066,3.066,0,0,0,1.561.007c.333-.065,1.224-.208.9-.755L6,2.174A20.363,20.363,0,0,1,3.7,2.111c-.127-.011-.2-.156-.031-.149a6.353,6.353,0,0,0,1.373-.087,1.349,1.349,0,0,0,.547-.163c.365-.254.109-.4-.229-.407A9.262,9.262,0,0,1,3.6,1.22,2.281,2.281,0,0,1,2.394.539,1.571,1.571,0,0,0,2.149.291c-.412-.266-.6-.027-.815.229s-.447.54-.67.81c-.059.071-.3-.019-.23-.1" transform="translate(7.201 0)" fill="rgba(0,0,0,0.12)" fill-rule="evenodd"/>
            <path id="Fill-27-4" data-name="Fill-27" d="M10.46,15.811a.623.623,0,0,1-.919.108L6.461,14.251a20.126,20.126,0,0,1-4.12-2.688A6.774,6.774,0,0,1,.021,7.337,5.1,5.1,0,0,1,1.563,3.228,7.079,7.079,0,0,0,3.114,1.66a7.324,7.324,0,0,1,.41-.82A1.785,1.785,0,0,1,5.6.382a3.292,3.292,0,0,1,1.021.672L7.405.11c.045-.055.1-.115.173-.11S7.7.08,7.739.146l1.37,2.488a.247.247,0,0,1,.045.164.247.247,0,0,1-.1.127l-.606.506a4.572,4.572,0,0,1,.311.759A2.89,2.89,0,0,1,8.38,6.821c-.365.45-.924.786-1.063,1.348,1.078.438,1.557,1.67,1.922,2.776l1.177,3.568a1.591,1.591,0,0,1,.044,1.3" transform="translate(0 0.91)" fill="#db6653" fill-rule="evenodd"/>
            <path id="Fill-29-4" data-name="Fill-29" d="M2.367,1.386A2.367,2.367,0,0,1,.007.073C-.045-.036.2-.01.239.066A2.023,2.023,0,0,0,2.271,1.242c.1-.009.263.128.1.144" transform="translate(5.884 2.735)" fill="#ffbf77" fill-rule="evenodd"/>
          </g>
        </g>
      </g>
      <g id="Expression-2" data-name="Expression" transform="translate(15.526 60.207)">
        <g id="Expression_Content-2" data-name="Expression/Content" transform="translate(0 0)">
          <path id="Fill-1-3" data-name="Fill-1" d="M.082.5A.3.3,0,0,1,.024.175.287.287,0,0,1,.26.006.383.383,0,0,1,.7.372C.688.677.247.675.082.5" transform="translate(1.046 3.785)" fill-rule="evenodd"/>
          <path id="Fill-3-3" data-name="Fill-3" d="M.568.3A.25.25,0,0,1,.39.484a.109.109,0,0,1-.1.035A.328.328,0,0,1,.011.313.2.2,0,0,1,0,.232.187.187,0,0,1,.081.045.346.346,0,0,1,.4.033.247.247,0,0,1,.568.3" transform="translate(3.982 3.893)" fill-rule="evenodd"/>
          <path id="Fill-5-2" data-name="Fill-5" d="M.246.057A.8.8,0,0,0,1.089.4c.059-.013.275.082.2.1A1.273,1.273,0,0,1,0,.014C-.017-.012.2,0,.246.057" transform="translate(0.361 5.38)" fill-rule="evenodd"/>
          <path id="Fill-7-2" data-name="Fill-7" d="M.108.385A.741.741,0,0,0,.849.027c.045-.071.287.009.231.1a.924.924,0,0,1-.938.4C.1.52,0,.495,0,.44S.067.378.108.385" transform="translate(3.633 5.485)" fill-rule="evenodd"/>
          <path id="Fill-9-2" data-name="Fill-9" d="M.03.884a4,4,0,0,1,5.494.46c.1.116-.134.15-.207.069a3.68,3.68,0,0,0-5.1-.388C.14,1.091-.079.972.03.884" fill-rule="evenodd"/>
        </g>
      </g>
    </g>
  </g>
</svg>
