<svg id="Master_Character_Standing" data-name="Master/Character/Standing" xmlns="http://www.w3.org/2000/svg" width="42.148" height="86.347" viewBox="0 0 42.148 86.347">
  <g id="Lower_Body_Standing" data-name="Lower Body Standing" transform="translate(3.578 44.33)">
    <g id="Lower_Body_Standing_Short_Skirt" data-name="Lower Body Standing/Short Skirt" transform="translate(0 0)">
      <g id="right" transform="translate(4.398 6.302)">
        <path id="Fill-1" d="M1.566,285.045A1.4,1.4,0,0,0,1,284.7a.577.577,0,0,0-.476.095.07.07,0,0,1-.114-.046.071.071,0,0,0-.135-.02A5.232,5.232,0,0,0,.3,288.126a18.662,18.662,0,0,1,.616,2.57A1.266,1.266,0,0,0,2.1,291.819l4.47.265a3.193,3.193,0,0,0,1.792-.24.071.071,0,0,0,.034-.058c.047-.928-.16-1.785-.113-2.712a21.16,21.16,0,0,1-6.715-4.029" transform="translate(0 -256.391)" fill="#3d2b26" fill-rule="evenodd"/>
        <path id="SKIN" d="M14.022,15.945c-.294-3.432-.9-6.833-1.512-10.229a11.188,11.188,0,0,0-1-3.424A4.27,4.27,0,0,0,8.674.058a2.806,2.806,0,0,0-1.52.105A3.146,3.146,0,0,0,6.038.952C4.8,2.24,4.417,4.407,5.646,5.653q1.56,5.038,3.583,9.94A4.665,4.665,0,0,0,7.339,17.2,8.608,8.608,0,0,0,6.07,21.041c-.169,1.35-.192,2.717-.418,4.059-.088.518-.2,1.064-.241,1.6-.408.5-1.359.422-1.831.927a1.26,1.26,0,0,0-.241,1.137,3.685,3.685,0,0,0,.517,1.087A22.411,22.411,0,0,0,6.422,33.4c-.021.045-.032.071-.032.071l.444.44h4.188a.586.586,0,0,0,.475-.93A3.419,3.419,0,0,0,9.406,31.65l-.072-.013a13,13,0,0,1-.9-2.827c.995-3.647,5.043-9.878,5.232-10.19a4.367,4.367,0,0,0,.362-2.675" transform="translate(-2.971 0)" fill="#f2b592" fill-rule="evenodd"/>
        <path id="Fill-5" d="M8.008,274.594c-.149-.584,0,0-.854.572-.306.2-.65.34-.964.524a.644.644,0,0,1-.668-.008,2.768,2.768,0,0,1-1.177-1.528,13.718,13.718,0,0,1-.163-2.7.118.118,0,0,1-.007-.061c0-.047-.007-.115,0-.049a2.766,2.766,0,0,0-.068-.559.258.258,0,0,0-.341-.188,2.156,2.156,0,0,0-1.5,1.17,3.206,3.206,0,0,0,.372,2.313,12.6,12.6,0,0,1,.771,3.268,1.672,1.672,0,0,0,1.038,1.3,4.148,4.148,0,0,0,1.63.086,1.837,1.837,0,0,0,1.273-.776,5.36,5.36,0,0,1,2.282-2.078c.026-.267-1.523-.879-1.627-1.288" transform="translate(-1.942 -243.687)" fill="#3d2b26" fill-rule="evenodd"/>
        <path id="Fill-7" d="M22.476,278.362h0c.021.034.011-.041,0-.111,0,.018,0,.034,0,.049s0,.041.007.061" transform="translate(-20.236 -250.595)" fill="#3d2b26" fill-rule="evenodd"/>
      </g>
      <g id="Group" transform="translate(14.982 6.793)">
        <path id="Fill-9" d="M65.391,265.229a1.782,1.782,0,0,1,1.053,1.257,5.263,5.263,0,0,1,.08,1.7l-.1,1.554a1.514,1.514,0,0,1-.269-.428,8.568,8.568,0,0,1-.794-4.045l.027.135" transform="translate(-58.86 -238.866)" fill="#3d2b26" fill-rule="evenodd"/>
        <path id="Fill-11" d="M37.605,324.358a.466.466,0,0,0-.15-.345.49.49,0,0,0-.294-.057l-3.457.065c-.178,0-.76.414-.659.561a10.266,10.266,0,0,1,.212,1.081.266.266,0,0,0,.274.3,5.966,5.966,0,0,0,3.809-.16.473.473,0,0,0,.163-.118.486.486,0,0,0,.08-.232,4.177,4.177,0,0,0,.021-1.094" transform="translate(-29.751 -291.757)" fill="#3d2b26" fill-rule="evenodd"/>
        <path id="SKIN-2" data-name="SKIN" d="M7.852,32.078a42.552,42.552,0,0,0-1.123-5.884,76.335,76.335,0,0,0-.344-7.906c-.164-1.478-.408-2.952-.425-4.439-.052-4.548,2-9.263.352-13.5L6.1.518C4.388-.67,1.825.321.777,2.118A7.925,7.925,0,0,0,.431,8.184a33.775,33.775,0,0,1,1.056,3.8c.362,2.343-.275,4.751.063,7.1.264,1.825,1.105,3.522,1.422,5.338.119.679.585,2.121.832,2.9a20.22,20.22,0,0,0-.449,5.032c.021.574.505.831,1.034.9a7.072,7.072,0,0,0,2.994-.272c.114-.025.315-.338.394-.43a.62.62,0,0,0,.073-.476" transform="translate(0 0)" fill="#f2b592" fill-rule="evenodd"/>
        <path id="SHADOW" d="M7.852,32.078a42.552,42.552,0,0,0-1.123-5.884,76.335,76.335,0,0,0-.344-7.906c-.164-1.478-.408-2.952-.425-4.439-.052-4.548,2-9.263.352-13.5L6.1.518C4.388-.67,1.825.321.777,2.118A7.925,7.925,0,0,0,.431,8.184a33.775,33.775,0,0,1,1.056,3.8c.362,2.343-.275,4.751.063,7.1.264,1.825,1.105,3.522,1.422,5.338.119.679.585,2.121.832,2.9a20.22,20.22,0,0,0-.449,5.032c.021.574.505.831,1.034.9a7.072,7.072,0,0,0,2.994-.272c.114-.025.315-.338.394-.43a.62.62,0,0,0,.073-.476" transform="translate(0 0)" fill="rgba(0,0,0,0.12)" fill-rule="evenodd"/>
        <path id="Fill-15" d="M35.588,296.226a2.461,2.461,0,0,0-.3-.941,2.39,2.39,0,0,0-2.043-.81,2.441,2.441,0,0,0-2.209.931,2.3,2.3,0,0,0-.219.749A3,3,0,0,0,31,298.119c.037.066.38.458.435.406l-.367-.475a1.507,1.507,0,0,1,1.2-1.27,4.187,4.187,0,0,1,1.911.066,1.86,1.86,0,0,1,1.386,1.376c-.072-.418.093-1.577.021-2" transform="translate(-27.687 -265.206)" fill="#3d2b26" fill-rule="evenodd"/>
      </g>
      <g id="skirt">
        <path id="Fill-17" d="M24.214,11.13c-.249-1.375-2.12-8.376-1.9-9.543.073-.389.257-.862-.248-1.076a1,1,0,0,0-.221-.06C17.336-.314,12.69.041,8.113.441c-.173.015-.226.208-.079.287A4.507,4.507,0,0,1,7.612,3.6,14.533,14.533,0,0,1,6.464,5.775C4.629,8.645,1.746,11,.109,13.939a.885.885,0,0,0,.306,1.168l2.331,1.662a31.879,31.879,0,0,0,6.1,3.689,12.233,12.233,0,0,0,7.278.869c2.28-.514,4.151-1.858,6.2-2.848a6.435,6.435,0,0,1,2.157-.681.79.79,0,0,0,.776-.872l-1.05-5.8" transform="translate(0 0)" fill="#dd5252" fill-rule="evenodd"/>
        <path id="Fill-20" d="M23.932,49.245a2.075,2.075,0,0,1-.018-1.128c.231-.633.907-.493,1.426-.424a1.556,1.556,0,0,0,1.444-.336,2.292,2.292,0,0,0,.4-1.517,3.4,3.4,0,0,1,.63-2.113c.543-.668,1.39-.691,2.061-1.149A2.943,2.943,0,0,0,30.9,41.116a11.571,11.571,0,0,1,.779-1.942,5.514,5.514,0,0,1,1.986-1.907c.168-.1.015-.257-.129-.174a5.706,5.706,0,0,0-2.4,2.564c-.243.544-.375,1.13-.61,1.677a2.49,2.49,0,0,1-1.6,1.45,2.788,2.788,0,0,0-1.927,2.1c-.123.544-.059,1.1-.148,1.643a1.132,1.132,0,0,1-.521.9,2.3,2.3,0,0,1-1.26-.006,1.322,1.322,0,0,0-1.308.43,1.894,1.894,0,0,0-.11,1.466c.029.136.318.061.288-.077" transform="translate(-21.21 -33.385)" fill="#f67e7d" fill-rule="evenodd"/>
        <path id="Fill-22" d="M69.959,43.237c-.108-1.144,1.262-1.5,2.06-1.917a5.36,5.36,0,0,0,1.587-1.239,4.788,4.788,0,0,0,1.034-1.929,10.92,10.92,0,0,1,.5-2.584c.675-1.265,2.161-1.858,2.778-3.177a9.507,9.507,0,0,0,.585-2.615l.48-3.129c.017-.113-.273-.063-.288.036l-.48,3.129A7.767,7.767,0,0,1,77.48,32.7c-.723,1.194-2.193,1.8-2.733,3.119a24.823,24.823,0,0,0-.433,2.507,4.743,4.743,0,0,1-1.376,2.154,11.836,11.836,0,0,1-2.26,1.31,1.656,1.656,0,0,0-1.007,1.525c.009.1.3.033.288-.077" transform="translate(-62.741 -23.94)" fill="#f67e7d" fill-rule="evenodd"/>
        <path id="Fill-24" d="M167.139,47.791a2.473,2.473,0,0,0,1.09-1.51,2.524,2.524,0,0,0-.394-1.856,1.9,1.9,0,0,1,0-1.995c.334-.591.811-1.088,1.191-1.648a2.977,2.977,0,0,0,.6-1.652,21.094,21.094,0,0,0-.552-2.679,12.149,12.149,0,0,1,.22-2.922l.384-3.056c.012-.091-.276-.037-.286.044l-.36,2.865a21.292,21.292,0,0,0-.276,2.608,13.688,13.688,0,0,0,.513,2.55,2.835,2.835,0,0,1-.509,2.251c-.593.874-1.719,1.835-1.5,3.011.135.729.725,1.25.733,2.027a2.312,2.312,0,0,1-1.084,1.936c-.125.082.163.066.225.026" transform="translate(-150.295 -27.402)" fill="#f67e7d" fill-rule="evenodd"/>
        <path id="Fill-26" d="M213.721,56.087c.22-.909,1.29-1.6.661-2.576a4.6,4.6,0,0,1-.827-1.688,4.16,4.16,0,0,1,.247-2.045,2.377,2.377,0,0,0,.007-1.7,15.894,15.894,0,0,1-.716-1.885,19.567,19.567,0,0,1-.483-4.081c0-.079-.293-.025-.288.077a20.448,20.448,0,0,0,.44,3.908,10.687,10.687,0,0,0,.66,1.829,2.619,2.619,0,0,1,.04,2.061,3.547,3.547,0,0,0,.346,3.2c.38.56.671.941.32,1.607a5.9,5.9,0,0,0-.692,1.324c-.023.093.265.049.287-.041" transform="translate(-191.218 -37.896)" fill="#f67e7d" fill-rule="evenodd"/>
      </g>
    </g>
  </g>
  <g id="Head" transform="translate(0.596 0)">
    <g id="Head_Gold_Locks" data-name="Head/Gold Locks" transform="translate(0)">
      <g id="Group-9" transform="translate(9.22 3.659)">
        <path id="SKIN-3" data-name="SKIN" d="M52.987,153.578a.345.345,0,0,1-.157-.132.368.368,0,0,1-.027-.172q.006-.947.011-1.894a14.914,14.914,0,0,0-3.178-.685,2.123,2.123,0,0,1-.6-.322q.036,1.359-.047,2.717a10.764,10.764,0,0,1-1.756.141l1.179,1.254c.9.957,1.934,1.98,3.245,2.06a2.611,2.611,0,0,0,2.77-2.664,2.7,2.7,0,0,1-1.437-.3" transform="translate(-42.611 -135.52)" fill="#f2b592" fill-rule="evenodd"/>
        <path id="SHADOW-2" data-name="SHADOW" d="M63.895,152.465a.4.4,0,0,0,.011.263,3.956,3.956,0,0,0,.855,1.649,2.131,2.131,0,0,0,1.665.719,1.167,1.167,0,0,0,.465-.124,1.129,1.129,0,0,0,.311-.255,3.152,3.152,0,0,0,.513-2.149.124.124,0,0,0-.023-.087.122.122,0,0,0-.066-.028,16.7,16.7,0,0,0-3.5-.326.516.516,0,0,0-.272.054.182.182,0,0,0-.074.241" transform="translate(-57.494 -137.098)" fill="rgba(0,0,0,0.12)" fill-rule="evenodd"/>
        <path id="SKIN-4" data-name="SKIN" d="M3.7,9.557a1.668,1.668,0,0,0-2.287-.068,2.233,2.233,0,0,0-.531,2.345c.47,1.39,2.834,2.213,3.389.458-.085.268.53,1.31.671,1.593A5.166,5.166,0,0,0,6.1,15.474a7.142,7.142,0,0,0,3.788,1.577,7.551,7.551,0,0,0,5.079-.98,7.331,7.331,0,0,0,3.027-4.6,12.207,12.207,0,0,0-.23-5.6,6.513,6.513,0,0,0-1.044-2.419,5.572,5.572,0,0,0-1.785-1.438A8.482,8.482,0,0,0,7,1.845a7.121,7.121,0,0,0-3.549,7.67A.919.919,0,0,0,3.71,9.3" transform="translate(-0.761 -0.941)" fill="#f2b592" fill-rule="evenodd"/>
        <path id="SKIN-5" data-name="SKIN" d="M6.873,94.014c.6-.485,1.2-.016,1.65.394l.043-.1a2.116,2.116,0,0,0-.554.45c-.111.13-.364.416-.319.6.089.368.808.489,1.117.528.117.015.3-.147.11-.172-.326-.041-1.024-.182-.829-.68a1.524,1.524,0,0,1,.656-.634c.028-.016.081-.071.043-.1-.643-.58-1.392-.951-2.15-.333-.129.105.156.117.233.054" transform="translate(-6.026 -84.427)" fill="#f2b592" fill-rule="evenodd"/>
        <path id="SHADOW-3" data-name="SHADOW" d="M6.873,94.014c.6-.485,1.2-.016,1.65.394l.043-.1a2.116,2.116,0,0,0-.554.45c-.111.13-.364.416-.319.6.089.368.808.489,1.117.528.117.015.3-.147.11-.172-.326-.041-1.024-.182-.829-.68a1.524,1.524,0,0,1,.656-.634c.028-.016.081-.071.043-.1-.643-.58-1.392-.951-2.15-.333-.129.105.156.117.233.054" transform="translate(-6.026 -84.427)" fill="rgba(0,0,0,0.12)" fill-rule="evenodd"/>
      </g>
      <g id="hair">
        <path id="Fill-10" d="M212.756,32.983a5.432,5.432,0,0,1,3.886,2.635,9.483,9.483,0,0,1,1.248,4.642,5.682,5.682,0,0,0,1.639-3.466,4.557,4.557,0,0,0-.1-2.186,3.75,3.75,0,0,0-2.008-2.049,8.869,8.869,0,0,0-2.853-.673c-.389-.041-1.711-.271-1.968.024s.027.7.159,1.072" transform="translate(-191.376 -28.618)" fill="#3d2b26" fill-rule="evenodd"/>
        <path id="Fill-12" d="M268.195,114.984l.013-.185c-.007.062-.011.123-.013.185" transform="translate(-241.538 -103.401)" fill="#f63" fill-rule="evenodd"/>
        <path id="Fill-14" d="M253.644,119.978a4.038,4.038,0,0,1-.584.121c-.454-.019-.659-.624-.517-1.055a8.69,8.69,0,0,1,.7-1.167,3.518,3.518,0,0,0,.039-2.5,7.909,7.909,0,0,1-.439-2.319l-.01.142.012-.539A13.661,13.661,0,0,1,251.6,118.1c.375.121.33.684.106,1.007s-.566.62-.558,1.013a.863.863,0,0,0,.629.738,2.53,2.53,0,0,0,1.026.046,3.94,3.94,0,0,0-.684,1.3,1.339,1.339,0,0,0,.374,1.352.824.824,0,0,0,1.244-.26.789.789,0,0,1-.5-1.489,5.187,5.187,0,0,1,.524-.148,1,1,0,0,0,.695-.928.785.785,0,0,0-.81-.754" transform="translate(-226.183 -101.479)" fill="#3d2b26" fill-rule="evenodd"/>
        <path id="Fill-16" d="M117.1,193.447l-.023.131a.317.317,0,0,0,.023-.131" transform="translate(-105.438 -174.232)" fill="#f63" fill-rule="evenodd"/>
        <path id="Fill-18" d="M117.016,192a.185.185,0,0,0-.057-.023.37.37,0,0,1,.035.146l.022-.123" transform="translate(-105.334 -172.912)" fill="#f63" fill-rule="evenodd"/>
        <path id="Fill-20-2" data-name="Fill-20" d="M20.517,7.29c-.055.313-.323.434-.582.56q.326-.508.605-1.048a2.178,2.178,0,0,1-.023.488m-6,5.318a4.72,4.72,0,0,0-.117-.8,7.865,7.865,0,0,0,3.835-1.925,9.574,9.574,0,0,0,.9-.951c-.05.218-.083.442-.124.649-.346,1.773-2.665,3.655-4.5,3.023m-1.384,4.831c-.37-.08-.865-.1-1.012.248-.161.382.274.722.505,1.065a1.008,1.008,0,0,1-.23,1.381.75.75,0,0,1-1.111-.609c.015-.177.18-.363.336-.329a.469.469,0,0,0-.449-.274.63.63,0,0,0-.513.6.88.88,0,0,0,.048.327,2.77,2.77,0,0,1-.586-1.28.475.475,0,0,1,.011-.249c.05-.125.184-.192.283-.282.773-.7-.743-2.226.026-2.934.12-.111.279-.172.4-.283.565-.517-.074-1.56.355-2.194a3.133,3.133,0,0,1,.517-.475c.02-.019.04-.039.059-.059.263.205.552.381.411.746-.093.238,0,0-.113.229a3.214,3.214,0,0,0,.61,3.252c.253.332.561.712.455,1.116M7.77,6.272c0,.026,0,.051,0,.076,0-.05-.009-.1-.015-.149,0,.024.009.048.011.072M28.357,2.483a1.33,1.33,0,0,1-1.374-.651,1.661,1.661,0,0,0-.795-.749.953.953,0,0,0-1.242.54A.72.72,0,0,0,25,2.045c.071.229.129.308,0,.526a.863.863,0,0,1-.872.332c-.475-.078-.836-.454-1.321-.5-.577-.056-.9.386-1.178.842q-1.411-.177-2.831-.271a8.457,8.457,0,0,0-2.944.183,4.8,4.8,0,0,0-1.2.55c-.032-.049-.066-.1-.1-.146a2.836,2.836,0,0,0-.666-2.49,2.1,2.1,0,0,0-2.7-.259c-.233.115-.928.6-1.165.272-.115-.161-.069-.42-.2-.6A1.054,1.054,0,0,0,8.836.138,2.646,2.646,0,0,0,6.914,2.247c-.033.141.262.107.292-.021A2.754,2.754,0,0,1,7.951.86C8.386.431,9.364-.016,9.662.813c.082.228.042.53.31.641.243.1.548-.076.758-.175A8.028,8.028,0,0,1,12.022.693a1.6,1.6,0,0,1,1.655.559,2.645,2.645,0,0,1,.641,2,4.335,4.335,0,0,0-3.065-1.5A4.326,4.326,0,0,0,7.42,3.869a1.572,1.572,0,0,0-.259,1.057,1.58,1.58,0,0,0,.219.507c.027.243.054.486.077.729.037.391.007.786-.5.821a3.1,3.1,0,0,1-.476-.022A5.073,5.073,0,0,0,4.4,7.154,2.858,2.858,0,0,0,2.34,9.75a6.981,6.981,0,0,0,.616,2.064c.12.357.278.754-.323.849a2.72,2.72,0,0,1-.441-.04,2.222,2.222,0,0,0-.794.131A2.087,2.087,0,0,0,.16,15.527c.047.116.332.033.288-.077A1.917,1.917,0,0,1,1,13.175a1.969,1.969,0,0,1,1.379-.337,1.286,1.286,0,0,0,.637-.05c.506-.232.322-.8.171-1.208a4.511,4.511,0,0,1-.531-2.241,2.616,2.616,0,0,1,1.521-1.9A5.34,5.34,0,0,1,6.7,7.174a1.358,1.358,0,0,0,.859-.2,1.67,1.67,0,0,1-.511.449c-.416.238-.895.341-1.331.539A3.334,3.334,0,0,0,4.052,9.646a1.706,1.706,0,0,0-.043,1.483c.267.483.867.736,1.067,1.251A1.494,1.494,0,0,1,4.3,14.033c-.555.356-1.219.525-1.752.914a4.3,4.3,0,0,0-1.093,1.309,2.3,2.3,0,0,0-.38,2.154c.381.737,1.461,1.036,1.584,1.857.145.968-1.186,1.6-1.245,2.576a1.425,1.425,0,0,0,.865,1.286,3.466,3.466,0,0,0,1.611.241c-.2-.183-.058-.545.186-.657a1.25,1.25,0,0,1,.792,0l2.146.484c.56.126,1.239.219,1.625-.206a4.138,4.138,0,0,0,.369-.628,2.168,2.168,0,0,1,1.588-.846,14.589,14.589,0,0,0,1.843-.22c.171-.047.368-.148.373-.325a.443.443,0,0,0-.182-.308c-.332-.308-.7-.605-1.046-.915a1.521,1.521,0,0,0,1.253.037.626.626,0,0,0,.412-.5,1.266,1.266,0,0,0-.087-.369,1.083,1.083,0,0,1,.418-1.154c.257-.177.592-.241.8-.47.406-.442.1-1.163-.3-1.608s-.926-.886-.938-1.486c-.02-.925,1.168-1.47,1.356-2.357,1.67.47,3.644-.891,4.465-2.305a4.421,4.421,0,0,0,.427-1.428,2.219,2.219,0,0,1,.23-.728c.2-.327.485-.337.78-.505.453-.257.447-.785.418-1.249-.007-.11-.019-.219-.034-.327A19.026,19.026,0,0,0,21.867,3.32c.271-.443.615-.888,1.178-.639a3.689,3.689,0,0,0,.974.426,1.333,1.333,0,0,0,1.311-.568c.179-.363-.179-.591-.095-.951.152-.652.786-.388,1.052-.173a1.8,1.8,0,0,1,.359.416c.192.288.32.565.653.711a2.211,2.211,0,0,0,.948.11c.111,0,.3-.175.11-.17" transform="translate(0 -0.126)" fill="#3d2b26" fill-rule="evenodd"/>
        <path id="Fill-23" d="M40.844,37.777a2.419,2.419,0,0,0-2.61-.712,1.293,1.293,0,0,0-.73,2.027,1.176,1.176,0,0,1-.174,1.875,6.945,6.945,0,0,1-2,.754c-.679.253-1.795.99-1.321,1.87a3.813,3.813,0,0,0,.466.546,1.65,1.65,0,0,1,.362.871A1.754,1.754,0,0,1,33.67,46.8c-.823.39-2.134.725-2.273,1.823a1.861,1.861,0,0,0,.472,1.247,1.523,1.523,0,0,1,.347.919c-.04.51-.456.513-.863.594a1.128,1.128,0,0,0-.83,1.579c.225.454.736.5,1.121.761.907.605-.076,1.532-.48,2.081a1.877,1.877,0,0,0,.419,2.678c.1.069.354-.069.224-.16a1.74,1.74,0,0,1-.737-1.249,2.223,2.223,0,0,1,.746-1.686c.542-.666.72-1.507-.168-1.94-.408-.2-.86-.345-.927-.861a1.051,1.051,0,0,1,.142-.668c.214-.35.565-.324.913-.4.778-.163.874-.888.522-1.52-.292-.524-.793-.98-.548-1.635A2.388,2.388,0,0,1,33.227,47.2c.814-.335,1.683-.722,1.874-1.678a1.849,1.849,0,0,0-.136-1.15c-.273-.57-1.024-.9-.653-1.631.532-1.052,2.042-.961,2.952-1.483a1.821,1.821,0,0,0,.86-1,1.308,1.308,0,0,0-.313-1.227,1.054,1.054,0,0,1-.265-1.049,1.417,1.417,0,0,1,.907-.786,2.154,2.154,0,0,1,2.125.71c.083.091.357-.022.264-.124" transform="translate(-27.389 -33.265)" fill="#261510" fill-rule="evenodd"/>
        <path id="Fill-26-2" data-name="Fill-26" d="M78.942,93.894c.368-.2.729-.425.71-.9-.026-.663-.7-1.137-1.04-1.641a1.631,1.631,0,0,1-.331-1.151c.1-.618.545-.687,1.053-.864a1.026,1.026,0,0,0,.689-.944,10.367,10.367,0,0,0-.5-2.046c-.133-.9.321-2.357,1.526-2.038a.2.2,0,0,0,.2-.055.848.848,0,0,0,.082-.879,3.388,3.388,0,0,0-.262-.467,2.141,2.141,0,0,1-.206-.376.535.535,0,0,1-.052-.261q-.07-.348.418-.437c.114.05.334-.114.168-.187a.648.648,0,0,0-.851.414c-.191.542.4,1.023.559,1.517.062.2.014.521-.033.513a1.513,1.513,0,0,0-1.269.389,2.1,2.1,0,0,0-.572,1.944,10.455,10.455,0,0,0,.4,1.367,1.679,1.679,0,0,1,.082.76c-.078.432-.337.542-.733.669a1.208,1.208,0,0,0-1,1.071c-.079.768.479,1.316.923,1.863.388.477.733,1.106.03,1.516a2.57,2.57,0,0,0-.708.5c-1.071,1.225-.083,2.835.686,3.9.072.1.348-.008.264-.124C78.374,96.829,77.248,94.826,78.942,93.894Z" transform="translate(-70.03 -73.504)" fill="#261510" fill-rule="evenodd"/>
        <path id="Fill-28" d="M127.664,37.372c-.879-.11-1.054,1.243-1.161,1.855a2.784,2.784,0,0,1-.151.653c-.192.435-.648.359-1.039.355a2.645,2.645,0,0,0-1.11.237,2.831,2.831,0,0,0-.933.676,2.612,2.612,0,0,0-.363.513c-.115.212-.133.5-.248.694-.1.163-.374.188-.554.254a6.507,6.507,0,0,0-.778.345,6.588,6.588,0,0,0-1.356.955c-.119.107.165.092.228.035a6.2,6.2,0,0,1,2.6-1.412c.035-.009.12-.038.126-.084a2.45,2.45,0,0,1,.994-1.645,2.169,2.169,0,0,1,1.335-.416,2.806,2.806,0,0,0,.772-.017.963.963,0,0,0,.691-.785c.08-.321.27-2.13.767-2.068.082.01.336-.125.18-.144" transform="translate(-108.02 -33.665)" fill="#261510" fill-rule="evenodd"/>
      </g>
    </g>
  </g>
  <g id="Upper_Body" data-name="Upper Body" transform="translate(0 19.978)">
    <g id="Upper_Body_Sweater_2" data-name="Upper Body/Sweater 2" transform="translate(0 0)">
      <g id="left" transform="translate(21.412 2.512)">
        <path id="SKIN-6" data-name="SKIN" d="M121.979,62.368a1,1,0,0,0,.7-.856,10.839,10.839,0,0,0,.031-1.174,1.08,1.08,0,0,1,.734-1.092.534.534,0,0,1,.649.411c.05.3-.191.511-.339.75a1.227,1.227,0,0,0-.16.867c1.437.053,2.363-1.641,3.676-2.117a.376.376,0,0,1,.459.527,2.727,2.727,0,0,1-.877.851l-1.168.786A13.812,13.812,0,0,0,128.43,60.2a.815.815,0,0,1,.413-.137.6.6,0,0,1,.445.314,1.494,1.494,0,0,1-.007,1.435,3.152,3.152,0,0,1-1.019,1.082,7.355,7.355,0,0,1-4.257,1.365,2.266,2.266,0,0,0-1.265.207c-.16.105-.287.256-.446.363a1.049,1.049,0,0,1-1.491-.468,1.348,1.348,0,0,1,.173-1.181,3.748,3.748,0,0,1,.865-.879l.159.136" transform="translate(-108.732 -53.256)" fill="#f2b592" fill-rule="evenodd"/>
        <path id="Fill-4" d="M13.241,9.172a.7.7,0,0,0-.811-.523,1.811,1.811,0,0,1-1.348-.438c-.56-.479-1.093-1.157-1.83-1.131a8.816,8.816,0,0,0-.969.222c-1.216.182-2.075-1.114-2.647-2.2C4.446,2.83,2.762.44.229.048c0,0-.1-.155-.229.09A14.259,14.259,0,0,1,3.3,9.581c-.037,1.417-.251,2.977.577,4.128a3.337,3.337,0,0,0,2.856,1.248,6.173,6.173,0,0,0,3.018-1.1c.976-.632,2.066-1.455,3.15-1.437a.688.688,0,0,0,.7-.718,13.984,13.984,0,0,0-.359-2.535" transform="translate(0 0)" fill="#db6653" fill-rule="evenodd"/>
        <path id="SHADOW-4" data-name="SHADOW" d="M144.289,82.229c.448-.8,1.392-.629,2.145-.492a1.228,1.228,0,0,0,1.056-.231c.832-.529,1.862-.635,2.628-1.28l-.241-.031.042.2c.029.139.318.064.288-.077l-.042-.2c-.021-.1-.183-.079-.241-.031a5.284,5.284,0,0,1-1.634.8c-.5.189-1.16.717-1.675.654-.958-.117-2.034-.365-2.6.654-.08.144.212.154.277.038" transform="translate(-129.686 -72.09)" fill="rgba(0,0,0,0.12)" fill-rule="evenodd"/>
        <path id="SHADOW-5" data-name="SHADOW" d="M171.513,78.508a1.321,1.321,0,0,1,.516,1.167c-.009.1.279.047.287-.041a1.385,1.385,0,0,0-.534-1.235c-.074-.058-.337.055-.269.108" transform="translate(-154.455 -70.593)" fill="rgba(0,0,0,0.12)" fill-rule="evenodd"/>
        <path id="Fill-10-2" data-name="Fill-10" d="M113.818,88.693a3.5,3.5,0,0,1-.218,2.731c-.066.128.223.1.27.013a3.618,3.618,0,0,0,.236-2.821c-.035-.109-.322-.028-.288.077" transform="translate(-102.3 -79.761)" fill="#ffbf77" fill-rule="evenodd"/>
      </g>
      <g id="torso" transform="translate(8.404)">
        <path id="Fill-12-2" data-name="Fill-12" d="M17.481,17.883c-.5-2.869.061-5.819-.179-8.721S16.231,2.99,13.444,2.146c-.234-.071-.69-.093-1.079-.162l.267-.83a.6.6,0,0,0-.558-.79,25.383,25.383,0,0,1-3.9-.335C7.306-.179,6.961.773,7.025,1.268a25.8,25.8,0,0,0-3.533.888A5.157,5.157,0,0,0,.026,7.56a10.463,10.463,0,0,0,.622,2.912c.872,2,2,4,1.95,6.172-.03,1.475-.6,2.9-.64,4.373a6.05,6.05,0,0,0,.3,2.024c.363,1.11,1.028,2.368.707,3.391a.255.255,0,0,0,.327.313,31.694,31.694,0,0,1,14.076-1.336.255.255,0,0,0,.286-.3,5.455,5.455,0,0,1,.387-2.179c.392-1.662-.264-3.365-.558-5.047" transform="translate(0 0)" fill="#ffbf77" fill-rule="evenodd"/>
        <path id="Fill-15-2" data-name="Fill-15" d="M38.434,99.356a1.206,1.206,0,0,1-.258-.46l-.277.1.831.863a5.744,5.744,0,0,0,.792.813.444.444,0,0,0,.625-.082,5.4,5.4,0,0,0,.558-.93l.593-1,1.285-2.169-.268.052q1.661,2.019,3.152,4.167c.048.069.206.017.25-.03a16.341,16.341,0,0,0,2.777-4.067l-.279.033q1.017,2.05,2.17,4.027c.051.087.331-.006.267-.116q-1.141-1.958-2.149-3.989c-.045-.09-.241-.047-.279.033a16.153,16.153,0,0,1-2.74,4.024l.25-.03q-1.49-2.148-3.152-4.167c-.058-.07-.228-.016-.268.052L40.485,99.56a5.416,5.416,0,0,1-.445.751c-.1.122-.134.239-.341.157-.112-.044-.238-.247-.319-.332l-1.214-1.261c-.059-.061-.311-.012-.277.1a1.257,1.257,0,0,0,.279.5c.07.079.346-.026.267-.116" transform="translate(-34.119 -86.809)" fill="#dd5252" fill-rule="evenodd"/>
        <path id="Fill-17-2" data-name="Fill-17" d="M40.875,97.673a16.818,16.818,0,0,1,1.17-3.515l-.268.053,3.189,3.68c.061.07.224.011.268-.053a38.805,38.805,0,0,0,2.923-5.025l-.268.053q1.5,2.286,2.86,4.655c.045.078.232,0,.268-.053a22.856,22.856,0,0,0,1.834-3.55c.039-.095-.248-.063-.288.035a22.581,22.581,0,0,1-1.815,3.507l.268-.053q-1.362-2.369-2.86-4.655c-.046-.071-.237-.012-.268.053a38.8,38.8,0,0,1-2.923,5.025l.268-.053L42.044,94.1c-.054-.063-.235-.019-.268.053a17.029,17.029,0,0,0-1.189,3.559c-.024.111.266.067.288-.035" transform="translate(-36.551 -83.503)" fill="#dd5252" fill-rule="evenodd"/>
        <path id="Fill-19" d="M67.755,17.813c.9,1.053,1.968,2.325,3.4,2.6a1.735,1.735,0,0,0,2.192-1.469c0-.148-.29-.1-.292.023a1.288,1.288,0,0,1-.916,1.206,2.357,2.357,0,0,1-1.905-.393,9.656,9.656,0,0,1-2.216-2.094c-.083-.1-.357.016-.264.126" transform="translate(-61.004 -15.896)" fill="#db6653" fill-rule="evenodd"/>
        <path id="Fill-21" d="M40.6,237.869a15.057,15.057,0,0,1,5.776-1.021c.876-.014,1.754-.008,2.63.019a5.453,5.453,0,0,1,2.857.7c.079.051.335-.065.269-.108a5.112,5.112,0,0,0-2.5-.712c-1.04-.067-2.094-.059-3.136-.043a15.662,15.662,0,0,0-6,1.068c-.185.08-.014.154.109.1" transform="translate(-36.39 -213.164)" fill="#db6653" fill-rule="evenodd"/>
      </g>
      <g id="right-2" data-name="right" transform="translate(0 2.304)">
        <path id="SKIN-7" data-name="SKIN" d="M85.854,155.916l.776.938a1.059,1.059,0,0,0,.639.458c.427.045.713-.4,1.023-.7a2.634,2.634,0,0,1,1.643-.622c.6-.045,1.2.013,1.792-.031a.45.45,0,0,0,.23-.061.321.321,0,0,0,.009-.459.859.859,0,0,0-.461-.22,7.164,7.164,0,0,0-2.023-.179,21.632,21.632,0,0,1,2.635-.072.475.475,0,0,0-.1-.629,1.381,1.381,0,0,0-.646-.262,4.109,4.109,0,0,0-2.266-.061l2.632.017a.545.545,0,0,0-.182-.606,1.6,1.6,0,0,0-.613-.278,3.292,3.292,0,0,0-1.921-.163,2.8,2.8,0,0,0-.846.5A9.789,9.789,0,0,0,86.7,154.94a.61.61,0,0,0-.711-.575.828.828,0,0,0-.627.751,1.023,1.023,0,0,0,.669,1.024" transform="translate(-76.873 -137.717)" fill="#f2b592" fill-rule="evenodd"/>
        <path id="SKIN-8" data-name="SKIN" d="M84.453,155.183c.422.51,1.027,1.672,1.848,1.377.359-.129.571-.464.841-.712a2.985,2.985,0,0,1,2.1-.581c.288,0,2,.213,1.659-.572-.142-.324-.645-.375-.937-.428a7.9,7.9,0,0,0-1.729-.107l-.036.172a22.93,22.93,0,0,1,2.6-.07.221.221,0,0,0,.19-.081c.336-.574-.343-.875-.795-.98a4.435,4.435,0,0,0-2.374-.057c-.087.028-.2.165-.033.166l2.632.017c.067,0,.179-.026.2-.1.114-.442-.21-.72-.592-.868a4.312,4.312,0,0,0-1.819-.33c-1.181.1-2.18,1.247-2.889,2.094l.261-.01a.766.766,0,0,0-1.314-.393,1.035,1.035,0,0,0,.387,1.7c.092.039.353-.093.227-.146a.967.967,0,0,1-.631-.847c-.021-.363.08-.462.423-.595q.3-.272.5.022a.47.47,0,0,1,.115.333c.008.1.225.033.261-.01a6.973,6.973,0,0,1,1.983-1.791,2.414,2.414,0,0,1,1.8-.021c.436.119,1.154.277,1,.891l.2-.1-2.632-.017-.033.166a3.552,3.552,0,0,1,1.809-.008c.386.076,1.418.242,1.047.875l.189-.081a23.592,23.592,0,0,0-2.672.073c-.147.012-.235.181-.036.172a7.361,7.361,0,0,1,1.591.1,1.564,1.564,0,0,1,.633.189c.422.295.127.462-.265.472a10.733,10.733,0,0,0-2.03.1,2.644,2.644,0,0,0-1.4.79,1.819,1.819,0,0,1-.283.288c-.477.308-.69.031-.944-.265s-.518-.626-.776-.938c-.068-.082-.344.022-.266.116" transform="translate(-75.606 -136.925)" fill="#f2b592" fill-rule="evenodd"/>
        <path id="SHADOW-6" data-name="SHADOW" d="M84.453,155.183c.422.51,1.027,1.672,1.848,1.377.359-.129.571-.464.841-.712a2.985,2.985,0,0,1,2.1-.581c.288,0,2,.213,1.659-.572-.142-.324-.645-.375-.937-.428a7.9,7.9,0,0,0-1.729-.107l-.036.172a22.93,22.93,0,0,1,2.6-.07.221.221,0,0,0,.19-.081c.336-.574-.343-.875-.795-.98a4.435,4.435,0,0,0-2.374-.057c-.087.028-.2.165-.033.166l2.632.017c.067,0,.179-.026.2-.1.114-.442-.21-.72-.592-.868a4.312,4.312,0,0,0-1.819-.33c-1.181.1-2.18,1.247-2.889,2.094l.261-.01a.766.766,0,0,0-1.314-.393,1.035,1.035,0,0,0,.387,1.7c.092.039.353-.093.227-.146a.967.967,0,0,1-.631-.847c-.021-.363.08-.462.423-.595q.3-.272.5.022a.47.47,0,0,1,.115.333c.008.1.225.033.261-.01a6.973,6.973,0,0,1,1.983-1.791,2.414,2.414,0,0,1,1.8-.021c.436.119,1.154.277,1,.891l.2-.1-2.632-.017-.033.166a3.552,3.552,0,0,1,1.809-.008c.386.076,1.418.242,1.047.875l.189-.081a23.592,23.592,0,0,0-2.672.073c-.147.012-.235.181-.036.172a7.361,7.361,0,0,1,1.591.1,1.564,1.564,0,0,1,.633.189c.422.295.127.462-.265.472a10.733,10.733,0,0,0-2.03.1,2.644,2.644,0,0,0-1.4.79,1.819,1.819,0,0,1-.283.288c-.477.308-.69.031-.944-.265s-.518-.626-.776-.938c-.068-.082-.344.022-.266.116" transform="translate(-75.606 -136.925)" fill="rgba(0,0,0,0.12)" fill-rule="evenodd"/>
        <path id="Fill-27" d="M12.12.488A.722.722,0,0,0,11.055.363L7.486,2.3A23.321,23.321,0,0,0,2.713,5.411a7.849,7.849,0,0,0-2.689,4.9,5.913,5.913,0,0,0,1.787,4.761,8.2,8.2,0,0,1,1.8,1.818,8.487,8.487,0,0,0,.475.95,2.068,2.068,0,0,0,2.408.53,3.814,3.814,0,0,0,1.183-.779l.907,1.094c.053.064.118.133.2.128s.144-.092.186-.169l1.587-2.883a.215.215,0,0,0-.06-.336l-.7-.587a5.3,5.3,0,0,0,.361-.879,3.349,3.349,0,0,0-.443-3.049c-.423-.522-1.071-.911-1.231-1.562,1.249-.507,1.8-1.936,2.227-3.216l1.364-4.135a1.844,1.844,0,0,0,.051-1.5" transform="translate(0 -0.182)" fill="#db6653" fill-rule="evenodd"/>
        <path id="Fill-29" d="M71.344,150.042a2.743,2.743,0,0,0-2.734,1.521c-.06.126.227.1.269.008a2.344,2.344,0,0,1,2.354-1.363c.113.011.3-.149.111-.167" transform="translate(-61.783 -135.136)" fill="#ffbf77" fill-rule="evenodd"/>
      </g>
    </g>
  </g>
  <g id="Expression" transform="translate(14.412 8.747)">
    <g id="Expression_Intellectual" data-name="Expression/Intellectual" transform="translate(0 0)">
      <path id="Fill-1-2" data-name="Fill-1" d="M-9.368,17.6a3.117,3.117,0,0,0-2.172.967,3.823,3.823,0,0,0-1.008,2.177,2.56,2.56,0,0,0,.175,1.422,2.579,2.579,0,0,0,.412.593,3.925,3.925,0,0,0,3.6,1.3c2.877-.58,3.049-3.983,1.044-5.685a1.444,1.444,0,0,0-1.329-.435" transform="translate(12.718 -17.538)" fill="#ededf9" fill-rule="evenodd"/>
      <path id="Fill-3" d="M-10.587,17a3.535,3.535,0,0,0-3.253,2.591,2.759,2.759,0,0,0,.269,2.442,4.072,4.072,0,0,0,1.853,1.362,3.728,3.728,0,0,0,3.563-.5,3.006,3.006,0,0,0,.977-2.916C-7.4,18.785-8.521,17-9.94,17.348c-.168.041-.146.133.025.092.83-.2,1.672.833,2.028,1.463a3.714,3.714,0,0,1,.471,1.514,2.792,2.792,0,0,1-1.6,2.853,3.674,3.674,0,0,1-4.562-1.83,3.385,3.385,0,0,1,2.863-4.32c.079,0,.313-.125.124-.118" transform="translate(14 -17)" fill-rule="evenodd"/>
      <path id="Fill-6" d="M66.211,17.6a3.117,3.117,0,0,0-2.172.967,3.823,3.823,0,0,0-1.008,2.177,2.249,2.249,0,0,0,.587,2.014,3.925,3.925,0,0,0,3.6,1.3c2.877-.58,3.049-3.983,1.044-5.685a1.444,1.444,0,0,0-1.329-.435" transform="translate(-55.348 -17.538)" fill="#ededf9" fill-rule="evenodd"/>
      <path id="Fill-8" d="M64.991,17a3.535,3.535,0,0,0-3.253,2.591,2.759,2.759,0,0,0,.269,2.442,4.072,4.072,0,0,0,1.853,1.362,3.728,3.728,0,0,0,3.563-.5,3.006,3.006,0,0,0,.977-2.916c-.223-1.192-1.342-2.977-2.762-2.63-.168.041-.146.133.025.092.83-.2,1.672.833,2.028,1.463a3.715,3.715,0,0,1,.471,1.514,2.792,2.792,0,0,1-1.6,2.853A3.674,3.674,0,0,1,62,21.438a3.384,3.384,0,0,1,2.863-4.32c.079,0,.313-.125.124-.118" transform="translate(-54.067 -17)" fill-rule="evenodd"/>
      <path id="Fill-11-2" data-name="Fill-11" d="M53.66,53.327a.417.417,0,0,1,.594-.1c.079.052.337-.064.269-.109a.865.865,0,0,0-1.128.21c-.071.1.215.068.266,0" transform="translate(-46.685 -49.416)" fill-rule="evenodd"/>
      <path id="Fill-13" d="M39.462,95.209a1.91,1.91,0,0,0,1.369.478,6.262,6.262,0,0,0,1.923-.152c.175-.04.136-.182-.038-.142a5.672,5.672,0,0,1-1.587.145,1.928,1.928,0,0,1-1.4-.442c-.063-.075-.34.027-.267.112" transform="translate(-34.138 -87.311)" fill-rule="evenodd"/>
      <path id="Fill-15-3" data-name="Fill-15" d="M-3.269,33.447q1.427-1.659,2.844-3.327c.064-.076-.214-.044-.263.014Q-2.105,31.8-3.532,33.462c-.064.075.213.043.263-.014" transform="translate(4.581 -28.776)" fill="#fff" fill-rule="evenodd"/>
      <path id="Fill-17-3" data-name="Fill-17" d="M23.2,45.975q.77-.947,1.63-1.814c.128-.128-.149-.184-.242-.089q-.86.867-1.63,1.814c-.116.142.157.195.242.089" transform="translate(-19.256 -41.337)" fill="#fff" fill-rule="evenodd"/>
      <path id="Fill-19-2" data-name="Fill-19" d="M71.651,28.9l2.228-2.817c.081-.1-.209-.085-.269-.009l-2.228,2.817c-.081.1.209.085.269.009" transform="translate(-62.883 -25.113)" fill="#fff" fill-rule="evenodd"/>
      <path id="Fill-21-2" data-name="Fill-21" d="M93.035,34.09q.917-1.333,1.958-2.572c.115-.137-.16-.168-.238-.075q-1.06,1.262-1.993,2.621c-.085.124.207.122.273.026" transform="translate(-82.136 -29.96)" fill="#fff" fill-rule="evenodd"/>
    </g>
  </g>
</svg>
