<svg id="Master_Character_Standing" data-name="Master/Character/Standing" xmlns="http://www.w3.org/2000/svg" width="37.027" height="89.765" viewBox="0 0 37.027 89.765">
  <g id="Lower_Body_Standing" data-name="Lower Body Standing" transform="translate(9.211 46.731)">
    <g id="Lower_Body_Standing_Joggers_and_Sneakers" data-name="Lower Body Standing/Joggers and Sneakers" transform="translate(0 0)">
      <path id="Fill-1" d="M153.082,1.382a.343.343,0,0,1,.411-.375c1.338.264,2.766-.114,4.146-.006a6.059,6.059,0,0,1,5.395,5.636,10.048,10.048,0,0,0,.125,2.654l-.879.645c-1.158,3.274-2.333,6.65-2.169,10.118.095,2.016.642,4,.631,6.015-.015,2.817-1.108,5.5-2.185,8.107A4.7,4.7,0,0,0,156.8,32.1a1.624,1.624,0,0,0-2.291.737,66.971,66.971,0,0,0-.767-11.606,36.046,36.046,0,0,1-.543-4.288,58.815,58.815,0,0,1,.417-5.941,51.208,51.208,0,0,0-.538-9.624" transform="translate(-148.041 -0.786)" fill="#4f4670" fill-rule="evenodd"/>
      <path id="Fill-3" d="M222.483,39.636c-.393.916-.836,1.826-1.165,2.767a3.777,3.777,0,0,0,.179,2.81,3.141,3.141,0,0,1,.285,2.2c-.255.707-1.161,1.667-.393,2.37.071.065-.2.043-.261-.009-.611-.559-.192-1.358.132-1.947a2.878,2.878,0,0,0-.046-2.657,3.792,3.792,0,0,1-.266-2.584,28.058,28.058,0,0,1,1.25-3.026c.035-.082.314.008.285.076" transform="translate(-214.031 -35.539)" fill="#c5cfd6" fill-rule="evenodd"/>
      <path id="Fill-5" d="M199.715,269.773A9.625,9.625,0,0,0,198.2,267.3c-.3-.356-.693-.644-.986-1-.14-.172-.2-.351-.019-.526.371-.369,1.145-.164,1.559,0a5.874,5.874,0,0,1,1.96,1.484c.114.116-.164.1-.227.04a6.654,6.654,0,0,0-1.535-1.273c-.334-.18-1.175-.52-1.492-.139-.257.309.335.7.546.915a9.745,9.745,0,0,1,2,3.015c.035.083-.246.052-.285-.038" transform="translate(-189.951 -239.34)" fill="#261510" fill-rule="evenodd"/>
      <path id="Fill-7" d="M198.724,297.519c-.026.066.106.09.134.025s-.015-.137-.057-.193a10.164,10.164,0,0,0-4.8-3.522,1.375,1.375,0,0,0-1.427.092,1.46,1.46,0,0,0-.245,1.139l.1,1.541a.542.542,0,0,1-.064.369.6.6,0,0,1-.218.151,2.686,2.686,0,0,0-1.433,2.394l-1.65,1c-.725.44-1.532,1.008-1.59,1.854-.076,1.106,1.169,1.822,2.26,2.017a7.927,7.927,0,0,0,6.1-1.468c.6-.456,1.139-1,1.783-1.4a6.659,6.659,0,0,0,1.147-.735,1.165,1.165,0,0,0,.377-1.226c-.154-.375-.567-.588-.744-.953a.906.906,0,0,1,.345-1.135c-.26-.053-.028.043-.028.043" transform="translate(-187.478 -264.687)" fill="#c5cfd6" fill-rule="evenodd"/>
      <path id="Fill-10" d="M210,356.4a12.371,12.371,0,0,1-3.844,2.746c-1.113.5-2.654,1.089-3.725.187-.148-.124.08-.221.189-.129,1.094.921,2.855.038,3.926-.519a12.173,12.173,0,0,0,3.193-2.411c.089-.093.359.023.261.125" transform="translate(-199.752 -321.097)" fill="#8b9ba5" fill-rule="evenodd"/>
      <path id="Fill-12" d="M223.169,335.975a2.894,2.894,0,0,1,1.691.3,8.027,8.027,0,0,1,.838.595,1.17,1.17,0,0,0,1.591-.216,2.907,2.907,0,0,0,.71-.878c.217-.507-.121-.891-.473-1.234a4.134,4.134,0,0,0-2.361-1.131c-.141-.019-.233-.193-.036-.167,1.166.154,4.139,1.436,2.925,2.973-.44.557-1.063,1.2-1.844,1.063a2.224,2.224,0,0,1-.942-.51,2.607,2.607,0,0,0-1.99-.622c-.116.014-.3-.148-.109-.17" transform="translate(-220.11 -300.354)" fill="#8b9ba5" fill-rule="evenodd"/>
      <path id="Fill-14" d="M204.54,342.9c0,.424.22.768.492.768s.492-.344.492-.768-.22-.768-.492-.768-.492.344-.492.768" transform="translate(-195.469 -308.376)" fill="#db3923" fill-rule="evenodd"/>
      <path id="Fill-16" d="M73.621-.756A55.349,55.349,0,0,0,83.877-1a.454.454,0,0,1,.508.435c.007.22.022.362.022.362a56.787,56.787,0,0,0,1.055,16.838,16.554,16.554,0,0,1,.645,5.954,5.933,5.933,0,0,0-.175,2.358c.128.5.434.932.6,1.419.773,2.284-1.689,4.367-2.084,6.746A2.7,2.7,0,0,0,82,32.05a7.944,7.944,0,0,0-2.663.812c.949-6.312-1.155-12.623-2.364-18.89-.386-2-.81-4.24-2.465-5.435a3.07,3.07,0,0,1-.651-.527,2.332,2.332,0,0,1-.228-1.744,23.985,23.985,0,0,0-.008-7.02" transform="translate(-63.74 1)" fill="#261510" fill-rule="evenodd"/>
      <path id="Fill-19" d="M141.763,44.2a4.534,4.534,0,0,0,.99,3.247c.636.625,1.5.963,2.116,1.613a3.11,3.11,0,0,1,.585,2.486,2.663,2.663,0,0,0,.384,1.621c.208.327.411.734.048,1.035-.057.047-.305-.065-.269-.095.494-.41-.1-.965-.28-1.37a3.169,3.169,0,0,1-.162-1.422,3.8,3.8,0,0,0-.142-1.639,2.625,2.625,0,0,0-.885-1.047,9.621,9.621,0,0,1-1.919-1.5,5.02,5.02,0,0,1-.753-3.005c0-.036.282,0,.285.076" transform="translate(-129.827 -39.669)" fill="#edf1f4" fill-rule="evenodd"/>
      <path id="Fill-21" d="M93.923,260.246a1.98,1.98,0,0,0-.024-1.3c-.24-.437-.835-.245-1.163-.02-.238.163-.467.343-.693.522a19.926,19.926,0,0,0-2.573,2.444c-.08.091-.283.027-.273-.1a7.774,7.774,0,0,1,1.588-3.523,21.59,21.59,0,0,1,2.618-3.184c.091-.091.36.025.261.126a21.652,21.652,0,0,0-2.522,3.042,7.888,7.888,0,0,0-1.66,3.616l-.273-.1a20.522,20.522,0,0,1,1.743-1.754,7.556,7.556,0,0,1,2.018-1.507c1.242-.478,1.428.966,1.238,1.819-.029.131-.315.057-.285-.076" transform="translate(-72.87 -229.859)" fill="#4f4670" fill-rule="evenodd"/>
      <path id="Fill-23" d="M70.827,328.1a27.517,27.517,0,0,1,6.36-1.3c.281,0,.616.028.756.272a.777.777,0,0,1,.01.571,8.917,8.917,0,0,1-1.546,3.21,1.588,1.588,0,0,1,1.086,1.393,4.659,4.659,0,0,1-.274,1.846,1.383,1.383,0,0,1,1.412,1.46,2.133,2.133,0,0,1-1.348,1.737,4.939,4.939,0,0,1-2.278.276,6.394,6.394,0,0,1-1.992-.383,5.132,5.132,0,0,1-2.926-4.013,10.032,10.032,0,0,1,.74-5.064" transform="translate(-55.341 -294.55)" fill="#edf1f4" fill-rule="evenodd"/>
      <path id="Fill-25" d="M89.981,364.876a3.394,3.394,0,0,0-2.229-.456c-.6.087-1.1.483-1.688.552-.871.1-1.309-.748-1.335-1.5a2.082,2.082,0,0,1,.253-1.377,2.281,2.281,0,0,1,1.269-.575,6.161,6.161,0,0,1,3.306.2c.166.056.131.2-.039.146a5.738,5.738,0,0,0-3.259-.144c-.532.135-1.087.329-1.2.933a2.857,2.857,0,0,0,.111,1.627.8.8,0,0,0,1.026.451c.258-.077.492-.226.747-.313A3.7,3.7,0,0,1,88,364.224a3.926,3.926,0,0,1,2.159.565c.165.1-.083.144-.178.088" transform="translate(-68.371 -325.73)" fill="#c5cfd6" fill-rule="evenodd"/>
      <path id="Fill-27" d="M79.646,411.951c-1.233-.967-2.974-.018-4.369-.041a2.463,2.463,0,0,1-2.175-1c-.015-.024.238-.016.28.053.817,1.344,2.626.724,3.866.536a3.35,3.35,0,0,1,2.654.477c.053.042-.2.015-.257-.027" transform="translate(-56.924 -370.376)" fill="#c5cfd6" fill-rule="evenodd"/>
      <path id="Fill-29" d="M145.266,369.65c0,.424.22.768.492.768s.492-.344.492-.768-.22-.768-.492-.768-.492.344-.492.768" transform="translate(-130.364 -332.492)" fill="#db3923" fill-rule="evenodd"/>
    </g>
  </g>
  <g id="Head" transform="translate(9.621 0)">
    <g id="Head_Side_Wavy" data-name="Head/Side Wavy" transform="translate(0 0)">
      <g id="face" transform="translate(4.582 6.34)">
        <path id="SKIN" d="M48.219,153.034a.342.342,0,0,0,.155-.131.364.364,0,0,0,.027-.17q-.005-.938-.011-1.875a14.762,14.762,0,0,1,3.146-.678,2.1,2.1,0,0,0,.6-.318q-.035,1.345.046,2.689a10.624,10.624,0,0,0,1.738.14l-1.167,1.241c-.891.948-1.914,1.96-3.212,2.039a2.585,2.585,0,0,1-2.741-2.637,2.67,2.67,0,0,0,1.423-.3" transform="translate(-41.206 -135.16)" fill="#f2b592" fill-rule="evenodd"/>
        <path id="SHADOW" d="M67.1,151.95a.4.4,0,0,1-.011.26,3.446,3.446,0,0,1-1.283,2.006,1.933,1.933,0,0,1-1.1.342,1.241,1.241,0,0,1-.57-.128,1.122,1.122,0,0,1-.307-.252,3.12,3.12,0,0,1-.508-2.127.122.122,0,0,1,.023-.086.12.12,0,0,1,.066-.028,16.537,16.537,0,0,1,3.465-.323.513.513,0,0,1,.269.054.18.18,0,0,1,.073.238" transform="translate(-56.155 -136.74)" fill="rgba(0,0,0,0.12)" fill-rule="evenodd"/>
        <path id="SKIN-2" data-name="SKIN" d="M14.7,8.958a1.651,1.651,0,0,1,2.264-.068,2.21,2.21,0,0,1,.526,2.321c-.465,1.376-2.8,2.19-3.355.453.084.266-.524,1.3-.664,1.577a5.115,5.115,0,0,1-1.142,1.574,7.068,7.068,0,0,1-3.749,1.561,7.474,7.474,0,0,1-5.027-.97,7.256,7.256,0,0,1-3-4.557,12.083,12.083,0,0,1,.227-5.54A6.447,6.447,0,0,1,1.814,2.915,5.517,5.517,0,0,1,3.581,1.491a8.4,8.4,0,0,1,7.852-.166,7.048,7.048,0,0,1,3.512,7.592.908.908,0,0,1-.253-.212" transform="translate(-0.328 -0.429)" fill="#f2b592" fill-rule="evenodd"/>
        <path id="SKIN-3" data-name="SKIN" d="M8.282,93.5c-.589-.48-1.183-.016-1.634.39l-.043-.1a2.091,2.091,0,0,1,.549.446c.109.128.36.411.315.6-.088.364-.8.484-1.105.522-.116.015-.3-.146-.109-.17.323-.041,1.014-.18.821-.673a1.507,1.507,0,0,0-.65-.628c-.028-.016-.08-.07-.043-.1.637-.575,1.377-.942,2.128-.33.128.1-.154.116-.23.054" transform="translate(8.163 -84.01)" fill="#f2b592" fill-rule="evenodd"/>
        <path id="SHADOW-2" data-name="SHADOW" d="M8.282,93.5c-.589-.48-1.183-.016-1.634.39l-.043-.1a2.091,2.091,0,0,1,.549.446c.109.128.36.411.315.6-.088.364-.8.484-1.105.522-.116.015-.3-.146-.109-.17.323-.041,1.014-.18.821-.673a1.507,1.507,0,0,0-.65-.628c-.028-.016-.08-.07-.043-.1.637-.575,1.377-.942,2.128-.33.128.1-.154.116-.23.054" transform="translate(8.163 -84.01)" fill="rgba(0,0,0,0.12)" fill-rule="evenodd"/>
      </g>
      <g id="hair">
        <path id="Fill-11" d="M.055,43.016a3.34,3.34,0,0,1,2.156-1.64,4.441,4.441,0,0,0,.51-2.637c0-.043.283-.007.285.076A4.815,4.815,0,0,1,2.586,41.3a3.125,3.125,0,0,1,1.39.119,3.733,3.733,0,0,1,2.251,2.237,4.928,4.928,0,0,1,.021,3.219A3.591,3.591,0,0,1,4,49.349l.176-.69A15,15,0,0,1,3.5,50.63c-.148.351-.419.759-.8.694l.11-2.868a6.864,6.864,0,0,0-.072-1.667A6.211,6.211,0,0,0,.167,43.425.362.362,0,0,1,0,43.209a.34.34,0,0,1,.053-.193" transform="translate(15.489 -35.007)" fill="#3d2b26" fill-rule="evenodd"/>
        <path id="Fill-13" d="M48.89,11.14a5.4,5.4,0,0,1,1.993-1.423,1.412,1.412,0,0,0,.811-.641c.178-.451-.171-.923-.276-1.4a1.847,1.847,0,0,1,.863-1.838,4.148,4.148,0,0,1,2.055-.572,11.645,11.645,0,0,1,2.577.117A5.582,5.582,0,0,0,53.1,4.963c-.1.026-.337-.131-.17-.171a6.021,6.021,0,0,1,4.521.692q.215.044.429.1a6.53,6.53,0,0,1-1.5-2.092,1.127,1.127,0,0,1-.036-1.136c.3-.377.887-.272,1.336-.1a11.114,11.114,0,0,1,4.581,3.265,13.676,13.676,0,0,1-.62-3.014,1.608,1.608,0,0,1,.225-1.193,1.1,1.1,0,0,1,1.188-.256,2.406,2.406,0,0,1,1.009.782c2.634,3.15,1.374,7.493-1.945,9.471-1.135.677-2.372,1.162-3.562,1.738a17.155,17.155,0,0,0-4.546,2.818c-.854.852-.516,2.494-2.187,2.582a1.017,1.017,0,0,1-.951-.417c-.317-.548.207-1.287-.061-1.86a1.428,1.428,0,0,0-.487-.5,4.618,4.618,0,0,1-2.018-2.216,2.652,2.652,0,0,1,.583-2.306" transform="translate(-48.234 -0.983)" fill="#3d2b26" fill-rule="evenodd"/>
        <path id="Fill-16-2" data-name="Fill-16" d="M102.206,73.556c.133,1.017-1.082,1.332-1.858,1.138-.723-.181-1.36-.582-2.1-.727-.7-.136-1.872-.289-2.043.639s.338,2.051-.778,2.524a7.3,7.3,0,0,1-1.724.233,1.716,1.716,0,0,0-1.426,1.514c-.016.123-.3.054-.285-.076.153-1.182,1.128-1.631,2.2-1.682.713-.034,1.535-.139,1.695-.971.1-.5-.045-1,.013-1.5.134-1.153,1.48-1.035,2.336-.874a9.61,9.61,0,0,1,1.708.59,1.7,1.7,0,0,0,1.442.067.867.867,0,0,0,.527-.9c-.018-.138.272-.1.288.025" transform="translate(-89.271 -66.316)" fill="#261510" fill-rule="evenodd"/>
        <path id="Fill-18" d="M204.685,115.379a5.491,5.491,0,0,0-1.176,3.781c.01.15-.281.112-.289-.021a5.651,5.651,0,0,1,1.2-3.888c.082-.1.353.01.261.127" transform="translate(-202.7 -103.973)" fill="#261510" fill-rule="evenodd"/>
      </g>
    </g>
  </g>
  <g id="Upper_Body" data-name="Upper Body" transform="translate(0 21.644)">
    <g id="Upper_Body_T_Shirt" data-name="Upper Body/T Shirt" transform="translate(0 0)">
      <g id="arm" transform="translate(27.981 12.875)">
        <path id="SKIN-4" data-name="SKIN" d="M.485,4.875a6.8,6.8,0,0,0,1.178-2.5,1.665,1.665,0,0,1,.12-.794,1.164,1.164,0,0,1,.623-.408A21.949,21.949,0,0,1,5.691.1c1.07-.219,1.228-.123,1.7.815a13.221,13.221,0,0,1,1.3,5.774.555.555,0,0,1-.075.343.56.56,0,0,1-.272.162,13.763,13.763,0,0,1-4.582.928c-.31,0-3.708-.548-3.714-.593A4.468,4.468,0,0,1,.485,4.875" transform="translate(0 0)" fill="#f2b592" fill-rule="evenodd"/>
        <path id="SKIN-5" data-name="SKIN" d="M37.289,47.918l-2.311-1.55c-.122-.082.162-.061.222-.022l2.311,1.55c.122.082-.163.061-.222.022" transform="translate(-32.292 -41.755)" fill="#f2b592" fill-rule="evenodd"/>
        <path id="SHADOW-3" data-name="SHADOW" d="M37.289,47.918l-2.311-1.55c-.122-.082.162-.061.222-.022l2.311,1.55c.122.082-.163.061-.222.022" transform="translate(-32.292 -41.755)" fill="rgba(0,0,0,0.12)" fill-rule="evenodd"/>
      </g>
      <g id="torso" transform="translate(6.48 1.51)">
        <path id="Fill-5-2" data-name="Fill-5" d="M.111,7.5A1.284,1.284,0,0,1,1.674,6.316a23.8,23.8,0,0,0,2.854.473l.233-.741c.445-.08.878.2,1.33.207.694,0,1.215-.642,1.481-1.283a6.566,6.566,0,0,1,.859-1.884c.975-1.128,2.988-.918,3.846-2.137a5.1,5.1,0,0,0,3.942,1.2A5.1,5.1,0,0,0,19.735,0a14.96,14.96,0,0,1,3.87,1.266l.021.014a8.968,8.968,0,0,1,4.111,5.3c.825,2.372,1.157,4.907,2.154,7.212-1.3.026-2.361.967-3.51,1.568A7.178,7.178,0,0,1,23,16.167a9.483,9.483,0,0,0-.161.967c-.321,2.921.928,5.78,1.139,8.711a.687.687,0,0,1-.736.867C18.2,27.521,13,25.319,7.99,26.317a47.222,47.222,0,0,1,.267-12.686,4.9,4.9,0,0,1-3.745,2.148A11.824,11.824,0,0,1,.1,15.185,69.456,69.456,0,0,1,.111,7.5" transform="translate(0.656)" fill="#2f7eaf" fill-rule="evenodd"/>
        <path id="Fill-8" d="M209.934,42.829q-.28,4.1-.847,8.174c-.011.079-.3.016-.285-.076q.567-4.071.847-8.173c.005-.075.292-.02.285.076" transform="translate(-199.928 -38.515)" fill="#1a5c89" fill-rule="evenodd"/>
        <path id="Fill-10-2" data-name="Fill-10" d="M229.308,71.631a15.841,15.841,0,0,1,.664,3.356c.01.115-.277.061-.285-.036a15.842,15.842,0,0,0-.664-3.356c-.031-.1.255-.061.285.035" transform="translate(-221.956 -64.499)" fill="#1a5c89" fill-rule="evenodd"/>
        <path id="Fill-12-2" data-name="Fill-12" d="M245.326,74.822l-.46,3.927c-.01.085-.3.024-.285-.076q.23-1.964.46-3.927c.01-.085.3-.024.285.076" transform="translate(-238.841 -67.356)" fill="#1a5c89" fill-rule="evenodd"/>
        <path id="Fill-14-2" data-name="Fill-14" d="M112.439,20.175c-2.337,1.463-5.5,2.027-7.748.083-.122-.105.16-.1.227-.042,2.138,1.845,5.1,1.2,7.293-.176.075-.047.339.065.228.135" transform="translate(-92.215 -18.059)" fill="#1a5c89" fill-rule="evenodd"/>
        <path id="Fill-16-3" data-name="Fill-16" d="M96.025,202.224a53.761,53.761,0,0,0-12.08-5.47c-.174-.054-.12-.264.056-.209a54.085,54.085,0,0,1,12.153,5.5c.164.1.014.269-.13.181" transform="translate(-73.926 -177.201)" fill="#1a5c89" fill-rule="evenodd"/>
        <path id="Fill-18-2" data-name="Fill-18" d="M149.4,212.55l4.326,1.679c.183.071.02.211-.123.156l-4.326-1.679c-.183-.071-.02-.211.123-.156" transform="translate(-137.936 -191.628)" fill="#1a5c89" fill-rule="evenodd"/>
        <path id="Fill-20" d="M87.613,35.708a17.812,17.812,0,0,0-1.176-6.791,4.624,4.624,0,0,1-.413-2.829,6.011,6.011,0,0,1,1.467-2.509c.054-.06.324.04.267.1a5.751,5.751,0,0,0-1.484,2.637,5.9,5.9,0,0,0,.634,3.154,17.7,17.7,0,0,1,.988,6.312c0,.065-.287.016-.285-.076" transform="translate(-65.81 -21.243)" fill="#1a5c89" fill-rule="evenodd"/>
        <path id="Fill-22" d="M68.681,17.735A4.266,4.266,0,0,0,66.624,20.4c-.016.061-.3-.014-.285-.076a4.3,4.3,0,0,1,2.074-2.686c.07-.04.3.078.269.1" transform="translate(-44.663 -15.896)" fill="#1a5c89" fill-rule="evenodd"/>
        <path id="Fill-24" d="M273.05,63.325a1.256,1.256,0,0,1,.668-.1,3.031,3.031,0,0,1,.856.185l-.125-.078a1.234,1.234,0,0,1,1.036.468,2.736,2.736,0,0,1,.5,1.061,7.409,7.409,0,0,1-2.073,7.26.291.291,0,0,1-.223.106c-.112-.017-.162-.148-.19-.258a33.5,33.5,0,0,1-1-7.109c-.019-.574.043-1.266.552-1.533" transform="translate(-272.495 -56.997)" fill="#1a5c89" fill-rule="evenodd"/>
        <path id="Fill-35" d="M115.721,65.2a.58.58,0,0,1,.317-.1l1.3-.132a.932.932,0,0,0,.458-.129.976.976,0,0,0,.3-.514,10.842,10.842,0,0,1,1.235-2.531.573.573,0,0,1,.256-.247c.274-.1.5.22.622.486l1.321,2.975.069.016a6.644,6.644,0,0,1,3.145,1.213c-.33.69-1.17.931-1.9,1.152a.833.833,0,0,0-.46.26.854.854,0,0,0-.106.513q.006,1.3.012,2.6a.35.35,0,0,1-.088.288c-.1.08-.251.023-.365-.04a7.281,7.281,0,0,1-1.6-1.183,1.855,1.855,0,0,0-.534-.42,1.3,1.3,0,0,0-1.19.219,10.83,10.83,0,0,1-1.028.728c-.237.119-.567.168-.733-.039a.621.621,0,0,1-.1-.386c-.016-1.113.591-2.375-.1-3.249-.274-.347-.721-.561-.9-.967a.446.446,0,0,1,.066-.514" transform="translate(-105.567 -55.475)" fill="#fff" fill-rule="evenodd"/>
      </g>
      <g id="hand">
        <path id="SKIN-6" data-name="SKIN" d="M.408,15.2c.323-.735.844-1.6,1.644-1.536.284.021.625.147.817-.063a.643.643,0,0,0,.125-.3l.359-1.611c.091-.406.251-.888.683-.946a.678.678,0,0,1,.549.2c.581.552.329,1.459.048,2.181l-.988,2.543a1.15,1.15,0,0,0-.113.517,1.064,1.064,0,0,0,.544.7,6.05,6.05,0,0,0,1.382.7,2.1,2.1,0,0,1,.773.487l.128.126a2.114,2.114,0,0,1,.547,2.176c-.014.042-.03.083-.046.123a.79.79,0,0,1-.287.393.8.8,0,0,1-.394.095,4.367,4.367,0,0,1-2.667-1.007C2.731,19.4,2.03,18.711,1.2,18.218a2.926,2.926,0,0,1-.953-.706c-.475-.658-.162-1.571.165-2.314" transform="translate(2.5 -9.679)" fill="#f2b592" fill-rule="evenodd"/>
        <path id="SKIN-7" data-name="SKIN" d="M38.15,5.054a3.275,3.275,0,0,1,1.726-.832,2.928,2.928,0,0,0-1.228-.145c-.416-.026-.9-.261-.91-.677a.72.72,0,0,1,.1-.354,1.849,1.849,0,0,1,1.835-.75,3.672,3.672,0,0,1,1.692.6,1,1,0,0,0-.388-.949c-.268-.241-.6-.413-.839-.679a.859.859,0,0,1-.2-.986c.269-.432.942-.317,1.363-.031,1.264.858,1.617,2.535,1.866,4.043l.368.1a8.444,8.444,0,0,1-1.556,3.031,1.08,1.08,0,0,1-.838.515.964.964,0,0,1-.666-.49,2.982,2.982,0,0,1-.492-1.464l-1,.223c-.43.1-1.008.121-1.176-.286-.127-.309.1-.648.34-.875" transform="translate(-37.738 0)" fill="#f2b592" fill-rule="evenodd"/>
        <path id="SKIN-8" data-name="SKIN" d="M47.327,41.066c-.815.126-2.077,1.608-1.23,2.342.122.106-.159.1-.228.043-.95-.823.342-2.391,1.282-2.536.087-.013.334.126.175.151" transform="translate(-42.346 -36.889)" fill="#f2b592" fill-rule="evenodd"/>
        <path id="SKIN-9" data-name="SKIN" d="M66.827,40.046a3.136,3.136,0,0,0-1-.109c-.13.007-.3-.183-.1-.194a3.617,3.617,0,0,1,1.153.123c.174.048.127.227-.048.18" transform="translate(-63.928 -35.829)" fill="#f2b592" fill-rule="evenodd"/>
        <path id="SHADOW-4" data-name="SHADOW" d="M47.327,41.066c-.815.126-2.077,1.608-1.23,2.342.122.106-.159.1-.228.043-.95-.823.342-2.391,1.282-2.536.087-.013.334.126.175.151" transform="translate(-42.346 -36.889)" fill="rgba(0,0,0,0.12)" fill-rule="evenodd"/>
        <path id="SHADOW-5" data-name="SHADOW" d="M66.827,40.046a3.136,3.136,0,0,0-1-.109c-.13.007-.3-.183-.1-.194a3.617,3.617,0,0,1,1.153.123c.174.048.127.227-.048.18" transform="translate(-63.928 -35.829)" fill="rgba(0,0,0,0.12)" fill-rule="evenodd"/>
      </g>
    </g>
  </g>
  <g id="Expression" transform="translate(17.498 12.396)">
    <g id="Expression_Tongue_Out" data-name="Expression/Tongue Out" transform="translate(0 0)">
      <path id="Fill-1-2" data-name="Fill-1" d="M33.107,79.415a1.677,1.677,0,0,1-.065,1.738,1.774,1.774,0,0,1-.89.669,1.9,1.9,0,0,1-2.429-2.365" transform="translate(-28.118 -74.357)" fill="#f67e7d" fill-rule="evenodd"/>
      <path id="Fill-3-2" data-name="Fill-3" d="M46.63,80.471a2.74,2.74,0,0,1,.072,1.014c-.014.129-.3.059-.285-.076a2.608,2.608,0,0,0-.076-.96c-.036-.134.256-.1.289.022" transform="translate(-43.163 -75.21)" fill-rule="evenodd"/>
      <path id="Fill-5-3" data-name="Fill-5" d="M29.84,43.573c.013.03-.014.038-.053.036,0,.039-.2.017-.25-.015a1.285,1.285,0,0,0-1.381-.017c-.047.027-.3,0-.276-.089.192-.8,1.7-.542,1.961.084" transform="translate(-24.469 -41.513)" fill-rule="evenodd"/>
      <path id="Fill-7-2" data-name="Fill-7" d="M64.788,44.346a.969.969,0,0,1,1.724-.114.061.061,0,0,1,0,.067c.073.1-.167.134-.251.059a.782.782,0,0,1-.241-.051c-.1-.036-.1-.093-.054-.131a.853.853,0,0,0-.9.269c-.064.076-.322.018-.273-.1" transform="translate(-64.782 -42.209)" fill-rule="evenodd"/>
      <path id="Fill-9" d="M38.244,28.623c.047.075.169.313.211.314s.241-.211.277-.245a4.164,4.164,0,0,0,.571-.65c.077-.106.348.006.261.126a4.366,4.366,0,0,1-.462.546,1.987,1.987,0,0,1-.489.413c-.336.155-.5-.244-.642-.471-.084-.134.206-.141.273-.034" transform="translate(-35.199 -28)" fill-rule="evenodd"/>
      <path id="Fill-11-2" data-name="Fill-11" d="M59.944,32.306a5.811,5.811,0,0,0,1.359.7q.009-.183.018-.366c0-.1.291-.042.285.076q-.011.231-.022.462c0,.063-.132.051-.164.041a6.3,6.3,0,0,1-1.657-.815c-.159-.11.083-.166.181-.1" transform="translate(-59.365 -31.855)" fill-rule="evenodd"/>
      <path id="Fill-13-2" data-name="Fill-13" d="M22.382,71.553a6.527,6.527,0,0,1-3.4.818,4.849,4.849,0,0,1-2.935-.779c-.155-.114.087-.154.178-.087a4.652,4.652,0,0,0,2.979.7,6.035,6.035,0,0,0,2.948-.787c.081-.049.344.069.226.14" transform="translate(-15.869 -67.132)" fill-rule="evenodd"/>
    </g>
  </g>
</svg>
