<svg id="Master_Character_Standing" data-name="Master/Character/Standing" xmlns="http://www.w3.org/2000/svg" width="42.982" height="78.369" viewBox="0 0 42.982 78.369">
  <g id="Lower_Body_Standing" data-name="Lower Body Standing" transform="translate(0 45.767)">
    <g id="Lower_Body_Standing_Running_Shoes" data-name="Lower Body Standing/Running Shoes" transform="translate(0 0)">
      <g id="left" transform="translate(18.125 0.054)">
        <g id="shoe" transform="translate(11.736 20.523)">
          <path id="SKIN" d="M7.212,4.994a10.194,10.194,0,0,1-3.6-3.385C3.163.916,2.673.079,1.852,0A1.552,1.552,0,0,0,.712.429,2.156,2.156,0,0,0,0,2.14a2.156,2.156,0,0,0,.9,1.616c-.083-.04,3.285,4.357,3.285,4.357l.026.036A2.617,2.617,0,0,0,7.212,4.994" transform="translate(0 0)" fill="#f2b592" fill-rule="evenodd"/>
          <path id="SHADOW" d="M7.212,4.994a10.194,10.194,0,0,1-3.6-3.385C3.163.916,2.673.079,1.852,0A1.552,1.552,0,0,0,.712.429,2.156,2.156,0,0,0,0,2.14a2.156,2.156,0,0,0,.9,1.616c-.083-.04,3.285,4.357,3.285,4.357l.026.036A2.617,2.617,0,0,0,7.212,4.994" transform="translate(0 0)" fill="rgba(0,0,0,0.12)" fill-rule="evenodd"/>
          <path id="Fill-5" d="M27.13,15.549c-.516-1.778-.772-3.929.567-5.247a.732.732,0,0,1,.351-.2c.571-.125.83.6.743,1.129-.09.551-.344,1.152.043,1.617a.989.989,0,0,0,.877.326,2.594,2.594,0,0,0,1.542-1.01L33.072,10.2a.837.837,0,0,1,.181-.152c.563-.337.989.3,1.087.836.229,1.257.714,1.763-.235,2.618.579.046-.094,1.676-.325,2.209A2.647,2.647,0,0,1,32.5,16.846a1.334,1.334,0,0,1-.758,1.376,3.9,3.9,0,0,1-1.641.333c-.112.781-.969,1.188-1.71,1.458a4.131,4.131,0,0,1-2,.371,1.419,1.419,0,0,1-1.279-1.359,8.171,8.171,0,0,0,.15-.807c-.01-.533-.5-.905-.907-1.252-.467-.4-.9-1.092-.351-1.582a1.127,1.127,0,0,1,.877-.255,1.945,1.945,0,0,0,.893-.121,1.025,1.025,0,0,1,1.19.333Z" transform="translate(-21.547 -9.034)" fill="#c5cfd6" fill-rule="evenodd"/>
          <path id="Fill-9" d="M45.87,37.147a2.558,2.558,0,0,1,.18-.317l.6-.115c.083.038.144.213.214.285a1.028,1.028,0,0,0,.453.265,1.448,1.448,0,0,0,.876-.04,1.14,1.14,0,0,0,.655-.55c.155-.312.173-.6.445-.854a2.793,2.793,0,0,1,.9-.491,3.1,3.1,0,0,0,1.128-.653,1.166,1.166,0,0,0,.286-.449c.083-.263-.035-.525.027-.784.144-.605,1.207-.685,1.593-1.075a.818.818,0,0,0,.2-.543c.042-.374.079-.749.119-1.123.01-.095-.259-.043-.267.038-.037.346-.072.691-.11,1.037a1.379,1.379,0,0,1-.063.416,1.428,1.428,0,0,1-.6.438c-.326.17-.928.352-1.1.726-.112.253.015.529-.035.79a1.266,1.266,0,0,1-.65.8c-.433.262-.941.371-1.371.642a1.621,1.621,0,0,0-.691.933.927.927,0,0,1-1.574.338c-.242-.265-.375-.492-.775-.388a1.18,1.18,0,0,0-.708.714c-.033.065.227.041.267-.038" transform="translate(-41.375 -27.811)" fill="#edf1f4" fill-rule="evenodd"/>
          <path id="Fill-11" d="M82.1,20.783a2.284,2.284,0,0,0,.545,1.72c.263.3.8.772,1.238.552s.3-.815.147-1.164a4.58,4.58,0,0,0-1.287-1.675l-.076.18a2.039,2.039,0,0,0,1.3-1.253c.157-.455.181-1.226-.368-1.444-1.225-.486-1.465,2.455-1.5,3.085-.008.147.266.114.273-.017a5.217,5.217,0,0,1,.633-2.634c.256-.361.63-.215.749.17a1.3,1.3,0,0,1-.025.742A1.757,1.757,0,0,1,82.617,20.2c-.074.025-.159.111-.076.18a4.513,4.513,0,0,1,.957,1.087c.161.261.608.956.369,1.291-.117.164-.37.1-.5.017a1.865,1.865,0,0,1-.211-.146,2.089,2.089,0,0,1-.452-.5,2.115,2.115,0,0,1-.324-1.357c.013-.146-.261-.114-.273.017" transform="translate(-74.487 -16.01)" fill="#aa3131" fill-rule="evenodd"/>
        </g>
        <g id="leg" transform="translate(0 0)">
          <path id="Fill-3" d="M7.967.1c-.654,3.765.725,7.553,2.081,11.125l1.762,4.643a14.115,14.115,0,0,0,2.284,4.383,7.049,7.049,0,0,0,1.252,1.131.226.226,0,0,1-.051.394,4.842,4.842,0,0,0-2.656,2.618.244.244,0,0,1-.383.091L9.063,21.8a5.327,5.327,0,0,1-1.136-1.173,13.988,13.988,0,0,1-.867-2.522c-.976-2.512-4.079-3.677-5.1-6.17a8.79,8.79,0,0,1-.474-3C1.362,5.9.122,3.03,0,0A45.47,45.47,0,0,0,7.724.068" transform="translate(0 0)" fill="#e0714b" fill-rule="evenodd"/>
          <path id="Fill-7" d="M36.169,87.521a9.931,9.931,0,0,0,1.22,4.064,4.162,4.162,0,0,0,1.348,1.329c.514.3,1.261.4,1.561.97.405.768-.167,1.98.529,2.6a3.168,3.168,0,0,0,.707.329c.353.189.389.553.41.916a4.452,4.452,0,0,0,.434,1.759,10.237,10.237,0,0,0,2.817,3.134c.065.054.312-.049.251-.1a11.213,11.213,0,0,1-2.638-2.807,4.221,4.221,0,0,1-.575-1.725c-.048-.513.02-1.089-.534-1.331-.3-.131-.6-.169-.782-.477a1.46,1.46,0,0,1-.153-.609,8.555,8.555,0,0,0-.089-1.475,1.442,1.442,0,0,0-.954-.953,4.358,4.358,0,0,1-1.6-1.044c-1.163-1.264-1.437-3.02-1.681-4.655-.011-.076-.282-.016-.268.072" transform="translate(-32.818 -79.316)" fill="#ffbf77" fill-rule="evenodd"/>
        </g>
      </g>
      <g id="right" transform="translate(0 0)">
        <g id="shoe-2" data-name="shoe" transform="translate(0 20.03)">
          <path id="SKIN-2" data-name="SKIN" d="M41.137,19.813a4.826,4.826,0,0,1-2.4.355,2.305,2.305,0,0,0-.826-.11c-.625.108-.86.869-.948,1.5-.115.817-.126,1.806.548,2.283a.76.76,0,0,0,.513.156,1.235,1.235,0,0,0,.39-.143,5.585,5.585,0,0,1,2.881-.542.645.645,0,0,0,.4-.049.612.612,0,0,0,.214-.4,3.652,3.652,0,0,0,.1-1.978A1.259,1.259,0,0,0,40.451,20" transform="translate(-33.482 -17.978)" fill="#f2b592" fill-rule="evenodd"/>
          <path id="Fill-18" d="M3.79,3.928c.129.578.567.4,1.16.386a2.537,2.537,0,0,1,1.608.364A1.022,1.022,0,0,1,6.79,6.14c-.138.136-.324.214-.473.338-.582.487-.385,1.418-.088,2.117a16.166,16.166,0,0,0,1.046,2.045,1.685,1.685,0,0,1,.3.737c.042.674-.737,1.1-1.408,1.173A4.2,4.2,0,0,1,2.36,10.841a4.337,4.337,0,0,0-.524-.691,7.874,7.874,0,0,0-.921-.6,2.3,2.3,0,0,1-.57-3.043c.117-.176.268-.367.225-.574a1.2,1.2,0,0,0-.229-.377c-.547-.84.718-1.871.507-2.851C.792,2.443.63,2.208.6,1.941.517,1.315,1.133.845,1.675.52,2.337.123,3.23-.263,3.819.238c.156.133.277.323.472.385A1.271,1.271,0,0,0,4.82.6a1.341,1.341,0,0,1,1.3.678,1.341,1.341,0,0,1-.146,1.458s-2.3.668-2.184,1.191" transform="translate(0 0)" fill="#edf1f4" fill-rule="evenodd"/>
          <path id="Fill-26" d="M15.484,11.9c-.074.754-.661,1.214-1.069,1.8a1.505,1.505,0,0,0-.241,1.64,2.3,2.3,0,0,0,.618.475.8.8,0,0,1,.178,1.16c-.293.519-1.043,1.028-.858,1.706.138.508.707.539,1.138.593a1.154,1.154,0,0,1,.929.441,2.546,2.546,0,0,1,.237.838,1.469,1.469,0,0,0,2.137,1.015c.159-.075-.092-.06-.153-.031a1.263,1.263,0,0,1-1.688-.931c-.12-.465-.116-1.021-.6-1.275-.42-.222-.932-.1-1.359-.3-.728-.331-.282-1.14.074-1.572.312-.378.805-.946.493-1.465-.29-.483-.972-.505-1.036-1.167-.119-1.22,1.351-1.837,1.465-3,0-.03-.261-.006-.268.072" transform="translate(-12.714 -10.724)" fill="#c5cfd6" fill-rule="evenodd"/>
          <path id="Fill-28" d="M18.957,63.094c-.856-.6-2.368-1.631-3.406-.84a.941.941,0,0,0-.332,1.218,1.082,1.082,0,0,0,1.141.321c.774-.134,1.446-.58,2.233-.686a2.2,2.2,0,0,1,2.273.963.973.973,0,0,1,.011,1.056c-.337.361-1.1-.526-1.279-.72a4.056,4.056,0,0,1-.689-.843c-.043-.093-.056-.028-.037-.18a.9.9,0,0,1,.093-.257c.035-.071-.227-.046-.268.036-.049.1-.175.354-.129.465.012.029.057.029.065.046a.427.427,0,0,1,.2.208q.1.131.2.258a6.682,6.682,0,0,0,.9.93,1.125,1.125,0,0,0,.595.335.743.743,0,0,0,.762-.7,1.54,1.54,0,0,0-.763-1.363c-1.243-.838-2.564-.157-3.815.236a1.128,1.128,0,0,1-1.158-.1.769.769,0,0,1,.064-1.043c.771-.864,2.4.281,3.093.767.074.052.317-.056.25-.1" transform="translate(-13.702 -56.227)" fill="#dd5252" fill-rule="evenodd"/>
        </g>
        <g id="leg-2" data-name="leg" transform="translate(6.685)">
          <path id="Fill-15" d="M13.6,9.407A16.838,16.838,0,0,0,13.9,7.1a19.011,19.011,0,0,1,.939-5.265c.073-.2.116-.345.046-.392-.134-.091-.174-.27-.306-.364A6.679,6.679,0,0,0,10.319.015,18.7,18.7,0,0,0,6.005.331a35.181,35.181,0,0,0-.08,6.082,18.834,18.834,0,0,1,.317,2.971,18.284,18.284,0,0,1-.734,3.508,14.986,14.986,0,0,0-.365,4.467c.067.974.107,2.2-.758,2.649a2.725,2.725,0,0,1-.937.215A4.057,4.057,0,0,0,.44,21.828c-.811,1.291-.363,2.94.241,4.376a.343.343,0,0,0,.514.15,5.435,5.435,0,0,1,3.461-1.26,13.148,13.148,0,0,0,2.357.326c1.427-.152,2.312-1.592,2.907-2.9,1.66-3.645,3.113-10.3,3.684-13.114" transform="translate(0 0)" fill="#ffbf77" fill-rule="evenodd"/>
          <path id="Fill-20" d="M54,217.337a7.367,7.367,0,0,0,.515,2.171c.155.377.343,1.07.853,1,.053-.007.155-.038.153-.107a5.093,5.093,0,0,0-.765-2.551l-.25.1a2.777,2.777,0,0,0,2,1.276c.04,0,.215-.035.187-.109A4.079,4.079,0,0,0,55,217.076c-.071-.044-.32.062-.215.127a3.973,3.973,0,0,1,1.641,1.989l.187-.109a2.656,2.656,0,0,1-1.859-1.233c-.054-.065-.306.012-.25.1a5.035,5.035,0,0,1,.746,2.52l.154-.107c-.379.053-.753-1.253-.839-1.531a7.465,7.465,0,0,1-.3-1.569c-.007-.083-.277-.027-.268.072" transform="translate(-48.993 -196.955)" fill="#e0714b" fill-rule="evenodd"/>
          <path id="Fill-22" d="M70.116,10.245a13.789,13.789,0,0,0-.631,2.507,5.754,5.754,0,0,0,.31,2.593,8.061,8.061,0,0,1,.6,2.272,3.817,3.817,0,0,1-.878,2.279,7,7,0,0,0-1.087,2.136,9.9,9.9,0,0,0-.29,2.168c-.074,1.717.1,3.541-.7,5.124-.016.031.231.017.264-.049.756-1.493.645-3.2.695-4.83a10.624,10.624,0,0,1,.3-2.462,7,7,0,0,1,1.088-2.136,4.15,4.15,0,0,0,.876-2,5.718,5.718,0,0,0-.485-2.274,6.316,6.316,0,0,1-.448-2.558A12.066,12.066,0,0,1,70.38,10.2c.014-.044-.243-.016-.264.049" transform="translate(-61.185 -9.232)" fill="#e0714b" fill-rule="evenodd"/>
          <path id="Fill-24" d="M7.1,231.7a1.8,1.8,0,0,0-1.832.638,1.247,1.247,0,0,1-1,.559,4.037,4.037,0,0,0-.558.042,3.2,3.2,0,0,0-1.17.457c-.154.1.077.146.169.089a3.146,3.146,0,0,1,1.6-.428,1.437,1.437,0,0,0,.656-.154,2.148,2.148,0,0,0,.557-.555,1.171,1.171,0,0,1,.813-.519,3.056,3.056,0,0,1,.666.031c.11.012.282-.142.1-.161" transform="translate(-2.253 -210.209)" fill="#e0714b" fill-rule="evenodd"/>
        </g>
      </g>
    </g>
  </g>
  <g id="Head" transform="translate(9.728 0)">
    <g id="Head_Dreads" data-name="Head/Dreads" transform="translate(0 0)">
      <g id="Group-10" transform="translate(1.415 7.568)">
        <path id="SKIN-3" data-name="SKIN" d="M52.113,152.849a.323.323,0,0,1-.146-.123.343.343,0,0,1-.025-.16q.005-.883.01-1.766a13.9,13.9,0,0,0-2.962-.638,1.979,1.979,0,0,1-.562-.3q.033,1.266-.044,2.532a10.012,10.012,0,0,1-1.636.131l1.1,1.169a4.943,4.943,0,0,0,3.025,1.92,2.434,2.434,0,0,0,2.582-2.483,2.515,2.515,0,0,1-1.34-.282" transform="translate(-42.441 -136.018)" fill="#f2b592" fill-rule="evenodd"/>
        <path id="SHADOW-2" data-name="SHADOW" d="M63.4,151.93a.373.373,0,0,0,.01.245,3.687,3.687,0,0,0,.8,1.537,1.986,1.986,0,0,0,1.552.67,1.089,1.089,0,0,0,.434-.116,1.056,1.056,0,0,0,.289-.238,2.938,2.938,0,0,0,.478-2,.086.086,0,0,0-.083-.107,15.574,15.574,0,0,0-3.263-.3.482.482,0,0,0-.254.051.17.17,0,0,0-.069.224" transform="translate(-57.436 -137.607)" fill="rgba(0,0,0,0.12)" fill-rule="evenodd"/>
        <path id="SKIN-4" data-name="SKIN" d="M3.022,8.461A1.555,1.555,0,0,0,.89,8.4a2.081,2.081,0,0,0-.5,2.186c.438,1.3,2.641,2.062,3.159.426-.079.25.494,1.221.625,1.485a4.816,4.816,0,0,0,1.076,1.482,6.656,6.656,0,0,0,3.531,1.47,7.039,7.039,0,0,0,4.734-.913,6.834,6.834,0,0,0,2.822-4.291,11.378,11.378,0,0,0-.214-5.217,6.071,6.071,0,0,0-.973-2.255A5.194,5.194,0,0,0,13.49,1.43,7.907,7.907,0,0,0,6.1,1.273,6.638,6.638,0,0,0,2.788,8.422a.857.857,0,0,0,.238-.2" transform="translate(-0.278 -0.43)" fill="#f2b592" fill-rule="evenodd"/>
        <path id="SKIN-5" data-name="SKIN" d="M6.372,93.478c.555-.452,1.114-.015,1.538.368l.04-.1a1.971,1.971,0,0,0-.517.42c-.1.121-.339.387-.3.561.083.343.753.455,1.041.492.109.014.282-.137.1-.16-.3-.038-.955-.17-.773-.634a1.42,1.42,0,0,1,.612-.591c.026-.015.075-.066.04-.1-.6-.541-1.3-.887-2-.311-.12.1.145.109.217.05" transform="translate(-5.582 -84.541)" fill="#f2b592" fill-rule="evenodd"/>
        <path id="SHADOW-3" data-name="SHADOW" d="M6.372,93.478c.555-.452,1.114-.015,1.538.368l.04-.1a1.971,1.971,0,0,0-.517.42c-.1.121-.339.387-.3.561.083.343.753.455,1.041.492.109.014.282-.137.1-.16-.3-.038-.955-.17-.773-.634a1.42,1.42,0,0,1,.612-.591c.026-.015.075-.066.04-.1-.6-.541-1.3-.887-2-.311-.12.1.145.109.217.05" transform="translate(-5.582 -84.541)" fill="rgba(0,0,0,0.12)" fill-rule="evenodd"/>
      </g>
      <g id="hair">
        <path id="Fill-11-2" data-name="Fill-11" d="M40.97,114.19a.926.926,0,0,0-.872-.114q-.7.154-1.378.377l-.038-.152a10.742,10.742,0,0,0,.147,4.362.64.64,0,0,0,.064.181.713.713,0,0,0,.208.193,4.381,4.381,0,0,1,.625.549.832.832,0,0,1,.253-.433l.974,1.269a17.349,17.349,0,0,1,.017-6.232" transform="translate(-34.956 -103.529)" fill="#603830" fill-rule="evenodd" opacity="0.35"/>
        <path id="Fill-13" d="M21.174,7.251a3.463,3.463,0,0,0-1.388-.656,14.4,14.4,0,0,0-3.457-.53,3.622,3.622,0,0,0,2.125-1.4,1.717,1.717,0,0,0,.192-1.995,2,2,0,0,0-2.077-.36,9.678,9.678,0,0,0-2.961,1.3,4.093,4.093,0,0,1-2.566,1.075,3.574,3.574,0,0,0,1.788-1.756A1.713,1.713,0,0,0,12.86,1.3a1.467,1.467,0,0,0-1.6-.5,3.526,3.526,0,0,0-1.48.964A6.582,6.582,0,0,0,7.719,5.252a14.422,14.422,0,0,0,.025-1.663A1.414,1.414,0,0,0,7.3,2.434a1.061,1.061,0,0,0-.629-.155A2.878,2.878,0,0,0,4.352,4.114a5.485,5.485,0,0,0,.155,4.834c-.154-.077-.3-.173-.414-.239a5.021,5.021,0,0,1-.725-.467C2.85,7.8,3.332,7.333,3.5,6.847c.008-.025-.028-.026-.044-.026a.745.745,0,0,1-.787-.626c-.051-.349.191-.578.283-.888a5.068,5.068,0,0,1,.179-.795,1.694,1.694,0,0,1,.59-.675c.049-.034-.19-.01-.242.026a1.744,1.744,0,0,0-.638.76c-.155.37-.169.753-.343,1.121a.808.808,0,0,0,.055.879.79.79,0,0,0,.37.256c.106.036.245,0,.272.138.021.106-.189.367-.235.466a.979.979,0,0,0-.111.353c-.017.353.315.535.571.7a3.371,3.371,0,0,0,1.2.6c.072.122.149.241.231.356a6.752,6.752,0,0,0-2.6-.515,2.779,2.779,0,0,0-1.661.437A1.3,1.3,0,0,0,.1,10.952a1.85,1.85,0,0,0,1.627.783,9.893,9.893,0,0,0,2.259-.1l.145.206a.8.8,0,0,1,.69-.4c.278-.023.56.025.836-.015a2.679,2.679,0,0,0,.967-.417L8.429,9.924a2.236,2.236,0,0,1,.746-.331,2.255,2.255,0,0,1,1.475.463l1.731,1.038a1.483,1.483,0,0,0,1.027.307,1.016,1.016,0,0,0,.6-1.3,2.948,2.948,0,0,0-.976-1.253,4.887,4.887,0,0,1,3.355,2.483,2.851,2.851,0,0,0,.924,1.029.868.868,0,0,0,1.2-.3.931.931,0,0,0,.012-.558,3.762,3.762,0,0,0-1.971-2.06,5.629,5.629,0,0,0,1.07.329c.418.392.975.794,1.363.593a.873.873,0,0,0,.818.73,1.357,1.357,0,0,0,1.143-.562c.066-.084-.2-.058-.247,0-.566.728-1.555.352-1.451-.462.013-.1-.237-.021-.267.039-.075.15-.6-.028-.7-.11-.067-.051-.133-.1-.2-.158A5.722,5.722,0,0,0,20.3,9.686a1.812,1.812,0,0,0,1.356-1.052,1.4,1.4,0,0,0-.487-1.384" transform="translate(0 -0.747)" fill="#3d2b26" fill-rule="evenodd"/>
        <path id="Fill-16" d="M141.223,71.934a5.122,5.122,0,0,1,2.922,1.3c.057.051.3-.051.252-.095a5.251,5.251,0,0,0-3-1.321c-.064-.007-.309.1-.172.118" transform="translate(-128.102 -65.231)" fill="#261510" fill-rule="evenodd"/>
        <path id="Fill-18-2" data-name="Fill-18" d="M107.74,45.35a2.759,2.759,0,0,0-.984,1.809c-.016.133.258.095.272-.022a2.541,2.541,0,0,1,.889-1.67c.139-.117-.077-.2-.176-.116" transform="translate(-96.865 -41.186)" fill="#261510" fill-rule="evenodd"/>
        <path id="Fill-20-2" data-name="Fill-20" d="M56.249,96.727a1.032,1.032,0,0,0,1.237-.14c.118-.11-.144-.134-.22-.063a.654.654,0,0,1-.807.059c-.088-.054-.33.069-.21.143" transform="translate(-51.008 -87.614)" fill="#261510" fill-rule="evenodd"/>
      </g>
    </g>
  </g>
  <g id="Upper_Body" data-name="Upper Body" transform="translate(1.019 22.791)">
    <g id="Upper_Body_Sweater_1" data-name="Upper Body/Sweater 1" transform="translate(0 0)">
      <g id="left-2" data-name="left" transform="translate(20.531 2.478)">
        <path id="SKIN-6" data-name="SKIN" d="M89.464,219.643a3.729,3.729,0,0,0-.965-.476,2.925,2.925,0,0,1,1.167.355.259.259,0,0,0,.307-.393,1.271,1.271,0,0,0-.456-.386,2.793,2.793,0,0,0-1.212-.221,15.715,15.715,0,0,0-2.457.147,33.418,33.418,0,0,0,3.55,1.951c.145.114.294.224.449.326a.406.406,0,0,0,.229.071c.182,0,.231-.137.241-.26.037-.492-.434-.853-.852-1.115" transform="translate(-77.895 -198.275)" fill="#f2b592" fill-rule="evenodd"/>
        <path id="SKIN-7" data-name="SKIN" d="M67.949,200.011a4.228,4.228,0,0,0-2.544-2.255,3.421,3.421,0,0,1-1.037-.494,2.779,2.779,0,0,1-.656-2.193l-.232.03c-.467-.073-1.064-.085-1.277.337a1.134,1.134,0,0,0-.07.572l.114,2.25a1.561,1.561,0,0,0,.42,1.2c.521.4,1.374.039,1.886.453a2.537,2.537,0,0,1,.486.765c.153.263.441.51.733.422.382-.115.4-.681.174-1.013s-.583-.561-.762-.918c-.044-.087-.065-.214.018-.264a.209.209,0,0,1,.152-.008,2.191,2.191,0,0,1,1.444,1.08,3.012,3.012,0,0,0,.389.673.538.538,0,0,0,.7.118c.209-.174.164-.506.066-.759" transform="translate(-56.371 -176.989)" fill="#f2b592" fill-rule="evenodd"/>
        <path id="Fill-6" d="M1.547,0c2.8,2.054,4.306,5.419,5.4,8.716a8.745,8.745,0,0,0,1.811,3.6A8.63,8.63,0,0,1,9.8,13.332a2.143,2.143,0,0,1,.017,2.4,18.311,18.311,0,0,1-1.381,1.35,1.556,1.556,0,0,0-.378,1.387.308.308,0,0,1-.264.4l-3.232.309c-.308-2.37-2.793-3.793-3.88-5.921-1.114-2.18-.635-4.8-.131-7.194l.926-4.394C1.527,1.423,1.547,0,1.547,0" transform="translate(0 0)" fill="#4f4670" fill-rule="evenodd"/>
        <path id="Fill-8" d="M64.025,188.225a4.634,4.634,0,0,0,.327,1.376c.042.1.307.024.268-.072a4.632,4.632,0,0,1-.327-1.376c-.008-.1-.278-.041-.268.072" transform="translate(-58.093 -170.675)" fill="#261510" fill-rule="evenodd"/>
        <path id="Fill-10" d="M73.292,190.464l.3,1.2c.015.06.284-.009.268-.072l-.3-1.2c-.015-.061-.284.009-.268.072" transform="translate(-66.501 -172.731)" fill="#261510" fill-rule="evenodd"/>
        <path id="SHADOW-4" data-name="SHADOW" d="M89.464,219.643a3.729,3.729,0,0,0-.965-.476,2.925,2.925,0,0,1,1.167.355.259.259,0,0,0,.307-.393,1.271,1.271,0,0,0-.456-.386,2.793,2.793,0,0,0-1.212-.221,15.715,15.715,0,0,0-2.457.147,33.418,33.418,0,0,0,3.55,1.951c.145.114.294.224.449.326a.406.406,0,0,0,.229.071c.182,0,.231-.137.241-.26.037-.492-.434-.853-.852-1.115" transform="translate(-77.895 -198.275)" fill="rgba(0,0,0,0.12)" fill-rule="evenodd"/>
      </g>
      <g id="torso" transform="translate(8.741 0)">
        <path id="Fill-12" d="M16.294,16.669c-.467-2.674.057-5.424-.167-8.129s-1-5.752-3.6-6.539c-.218-.066-.643-.087-1.006-.151l.249-.774a.563.563,0,0,0-.52-.736A23.662,23.662,0,0,1,7.621.027C6.81-.166,6.488.721,6.548,1.182a24.047,24.047,0,0,0-3.293.827A4.807,4.807,0,0,0,.024,7.047,9.756,9.756,0,0,0,.6,9.761c.813,1.86,1.86,3.724,1.818,5.753-.028,1.375-.563,2.7-.6,4.076A5.642,5.642,0,0,0,2.1,21.478c.339,1.034.959,2.207.659,3.16a.238.238,0,0,0,.3.292,29.542,29.542,0,0,1,13.12-1.245.237.237,0,0,0,.266-.28,5.085,5.085,0,0,1,.361-2.031c.365-1.549-.246-3.137-.52-4.7" transform="translate(0 0)" fill="#261510" fill-rule="evenodd"/>
        <path id="Fill-14" d="M84.818,3.79l.349-1.765c.019-.1-.251-.051-.268.036L84.55,3.826c-.019.1.251.051.268-.036" transform="translate(-76.716 -1.789)" fill="#4f4670" fill-rule="evenodd"/>
        <path id="Fill-16-2" data-name="Fill-16" d="M105.94,7.879a7.742,7.742,0,0,0,.341-1.767c.006-.086-.261-.031-.266.042a7.747,7.747,0,0,1-.341,1.767c-.022.07.242.036.266-.042" transform="translate(-95.882 -5.506)" fill="#4f4670" fill-rule="evenodd"/>
        <path id="Fill-18-3" data-name="Fill-18" d="M49.377,104.949a3.455,3.455,0,0,0,2.778,1.017,3.256,3.256,0,0,0,2.593-1,1.839,1.839,0,0,0,.076-2.378c-.638-.712-1.007.355-1.078.919a2.212,2.212,0,0,0,3.3,2.3,2.644,2.644,0,0,0,1.125-2.329,1.134,1.134,0,0,0-.295-.978.6.6,0,0,0-.791.143c-1.38,1.468,1.56,4.5,2.786,2.772.1-.138-.154-.174-.224-.076-.567.8-1.608.139-2.074-.423a1.969,1.969,0,0,1-.483-1.8,1.235,1.235,0,0,1,.086-.212c.106-.2.116-.191.354-.178.286.016.322.148.36.42a3.318,3.318,0,0,1-.057,1,1.968,1.968,0,0,1-1.3,1.677A2.022,2.022,0,0,1,54,103.677a2.1,2.1,0,0,1,.227-.9c.112-.2.176-.259.349-.069a1.432,1.432,0,0,1,.273.455,1.767,1.767,0,0,1-.462,1.877,3.173,3.173,0,0,1-2.554.717,2.918,2.918,0,0,1-2.212-.92c-.069-.1-.326.007-.246.117" transform="translate(-44.788 -92.867)" fill="#4f4670" fill-rule="evenodd"/>
        <path id="Fill-20-3" data-name="Fill-20" d="M60.307,241.255a13.22,13.22,0,0,1,.112,1.758c0,.047.268.008.268-.072a13.19,13.19,0,0,0-.112-1.758c-.007-.056-.278,0-.268.072" transform="translate(-54.72 -218.817)" fill="#4f4670" fill-rule="evenodd"/>
        <path id="Fill-22-2" data-name="Fill-22" d="M94.409,236.015a4.277,4.277,0,0,0,.172,1.505c.029.1.3.022.268-.072a4.168,4.168,0,0,1-.172-1.466c.007-.111-.263-.06-.269.033" transform="translate(-85.655 -214.062)" fill="#4f4670" fill-rule="evenodd"/>
        <path id="Fill-24-2" data-name="Fill-24" d="M128.324,237.841a4.468,4.468,0,0,0,.046,1.236c.022.123.291.055.268-.072a4.282,4.282,0,0,1-.043-1.185c.014-.137-.26-.1-.272.021" transform="translate(-116.414 -215.708)" fill="#4f4670" fill-rule="evenodd"/>
        <path id="Fill-26-2" data-name="Fill-26" d="M155.374,240.022a1.857,1.857,0,0,0,.281,1.242c.049.078.31-.01.249-.106a1.752,1.752,0,0,1-.261-1.168c.013-.109-.257-.062-.269.032" transform="translate(-140.966 -217.698)" fill="#4f4670" fill-rule="evenodd"/>
      </g>
      <g id="right-2" data-name="right" transform="translate(0 2.517)">
        <path id="SKIN-8" data-name="SKIN" d="M.854,219.643a3.727,3.727,0,0,1,.966-.476,2.926,2.926,0,0,0-1.167.355.259.259,0,0,1-.307-.393,1.271,1.271,0,0,1,.456-.386,2.794,2.794,0,0,1,1.212-.221,15.708,15.708,0,0,1,2.457.147,33.415,33.415,0,0,1-3.55,1.951c-.145.114-.294.224-.449.326a.406.406,0,0,1-.229.071c-.182,0-.232-.136-.241-.26-.037-.492.434-.853.852-1.115" transform="translate(0 -198.275)" fill="#f2b592" fill-rule="evenodd"/>
        <path id="SHADOW-5" data-name="SHADOW" d="M.854,219.643a3.727,3.727,0,0,1,.966-.476,2.926,2.926,0,0,0-1.167.355.259.259,0,0,1-.307-.393,1.271,1.271,0,0,1,.456-.386,2.794,2.794,0,0,1,1.212-.221,15.708,15.708,0,0,1,2.457.147,33.415,33.415,0,0,1-3.55,1.951c-.145.114-.294.224-.449.326a.406.406,0,0,1-.229.071c-.182,0-.232-.136-.241-.26-.037-.492.434-.853.852-1.115" transform="translate(0 -198.275)" fill="rgba(0,0,0,0.12)" fill-rule="evenodd"/>
        <path id="SKIN-9" data-name="SKIN" d="M8.313,200.011a4.228,4.228,0,0,1,2.544-2.255,3.42,3.42,0,0,0,1.037-.494,2.778,2.778,0,0,0,.656-2.193l.232.03c.467-.073,1.064-.085,1.277.337a1.134,1.134,0,0,1,.07.572l-.114,2.25a1.562,1.562,0,0,1-.42,1.2c-.521.4-1.374.039-1.886.454a2.535,2.535,0,0,0-.486.765c-.153.263-.441.51-.733.422-.382-.114-.4-.681-.174-1.013s.583-.561.762-.918c.044-.087.066-.214-.018-.264a.209.209,0,0,0-.152-.008,2.191,2.191,0,0,0-1.444,1.08,3,3,0,0,1-.389.673.538.538,0,0,1-.7.118c-.209-.174-.164-.506-.066-.759" transform="translate(-7.468 -176.989)" fill="#f2b592" fill-rule="evenodd"/>
        <path id="Fill-34" d="M32.9,0c-2.8,2.054-4.306,5.419-5.405,8.716a8.746,8.746,0,0,1-1.811,3.6,8.622,8.622,0,0,0-1.036,1.02,2.143,2.143,0,0,0-.016,2.4,18.292,18.292,0,0,0,1.381,1.35,1.556,1.556,0,0,1,.378,1.387.308.308,0,0,0,.265.4l3.232.309c.308-2.37,2.793-3.793,3.88-5.921,1.114-2.18.635-4.8.131-7.194l-.926-4.394C32.917,1.423,32.9,0,32.9,0" transform="translate(-22.02 0)" fill="#4f4670" fill-rule="evenodd"/>
        <path id="Fill-36" d="M59.419,180.864l-.172,2.225c-.009.111.262.06.269-.033l.172-2.225c.009-.111-.262-.06-.269.033" transform="translate(-53.758 -164.021)" fill="#261510" fill-rule="evenodd"/>
        <path id="Fill-38" d="M73.346,186.859l-.181,1.946c-.01.112.26.063.269-.032l.181-1.946c.01-.112-.26-.063-.269.032" transform="translate(-66.386 -169.459)" fill="#261510" fill-rule="evenodd"/>
      </g>
      <g id="left-3" data-name="left" transform="translate(20.531 2.478)">
        <path id="SKIN-10" data-name="SKIN" d="M89.464,219.643a3.729,3.729,0,0,0-.965-.476,2.925,2.925,0,0,1,1.167.355.259.259,0,0,0,.307-.393,1.271,1.271,0,0,0-.456-.386,2.793,2.793,0,0,0-1.212-.221,15.715,15.715,0,0,0-2.457.147,33.418,33.418,0,0,0,3.55,1.951c.145.114.294.224.449.326a.406.406,0,0,0,.229.071c.182,0,.231-.137.241-.26.037-.492-.434-.853-.852-1.115" transform="translate(-77.895 -198.275)" fill="#f2b592" fill-rule="evenodd"/>
        <path id="SKIN-11" data-name="SKIN" d="M67.949,200.011a4.228,4.228,0,0,0-2.544-2.255,3.421,3.421,0,0,1-1.037-.494,2.779,2.779,0,0,1-.656-2.193l-.232.03c-.467-.073-1.064-.085-1.277.337a1.134,1.134,0,0,0-.07.572l.114,2.25a1.561,1.561,0,0,0,.42,1.2c.521.4,1.374.039,1.886.453a2.537,2.537,0,0,1,.486.765c.153.263.441.51.733.422.382-.115.4-.681.174-1.013s-.583-.561-.762-.918c-.044-.087-.065-.214.018-.264a.209.209,0,0,1,.152-.008,2.191,2.191,0,0,1,1.444,1.08,3.012,3.012,0,0,0,.389.673.538.538,0,0,0,.7.118c.209-.174.164-.506.066-.759" transform="translate(-56.371 -176.989)" fill="#f2b592" fill-rule="evenodd"/>
        <path id="Fill-6-2" data-name="Fill-6" d="M1.547,0c2.8,2.054,4.306,5.419,5.4,8.716a8.745,8.745,0,0,0,1.811,3.6A8.63,8.63,0,0,1,9.8,13.332a2.143,2.143,0,0,1,.017,2.4,18.311,18.311,0,0,1-1.381,1.35,1.556,1.556,0,0,0-.378,1.387.308.308,0,0,1-.264.4l-3.232.309c-.308-2.37-2.793-3.793-3.88-5.921-1.114-2.18-.635-4.8-.131-7.194l.926-4.394C1.527,1.423,1.547,0,1.547,0" transform="translate(0 0)" fill="#4f4670" fill-rule="evenodd"/>
        <path id="Fill-8-2" data-name="Fill-8" d="M64.025,188.225a4.634,4.634,0,0,0,.327,1.376c.042.1.307.024.268-.072a4.632,4.632,0,0,1-.327-1.376c-.008-.1-.278-.041-.268.072" transform="translate(-58.093 -170.675)" fill="#261510" fill-rule="evenodd"/>
        <path id="Fill-10-2" data-name="Fill-10" d="M73.292,190.464l.3,1.2c.015.06.284-.009.268-.072l-.3-1.2c-.015-.061-.284.009-.268.072" transform="translate(-66.501 -172.731)" fill="#261510" fill-rule="evenodd"/>
        <path id="SHADOW-6" data-name="SHADOW" d="M89.464,219.643a3.729,3.729,0,0,0-.965-.476,2.925,2.925,0,0,1,1.167.355.259.259,0,0,0,.307-.393,1.271,1.271,0,0,0-.456-.386,2.793,2.793,0,0,0-1.212-.221,15.715,15.715,0,0,0-2.457.147,33.418,33.418,0,0,0,3.55,1.951c.145.114.294.224.449.326a.406.406,0,0,0,.229.071c.182,0,.231-.137.241-.26.037-.492-.434-.853-.852-1.115" transform="translate(-77.895 -198.275)" fill="rgba(0,0,0,0.12)" fill-rule="evenodd"/>
      </g>
      <g id="torso-2" data-name="torso" transform="translate(8.741)">
        <path id="Fill-12-2" data-name="Fill-12" d="M16.294,16.669c-.467-2.674.057-5.424-.167-8.129s-1-5.752-3.6-6.539c-.218-.066-.643-.087-1.006-.151l.249-.774a.563.563,0,0,0-.52-.736A23.662,23.662,0,0,1,7.621.027C6.81-.166,6.488.721,6.548,1.182a24.047,24.047,0,0,0-3.293.827A4.807,4.807,0,0,0,.024,7.047,9.756,9.756,0,0,0,.6,9.761c.813,1.86,1.86,3.724,1.818,5.753-.028,1.375-.563,2.7-.6,4.076A5.642,5.642,0,0,0,2.1,21.478c.339,1.034.959,2.207.659,3.16a.238.238,0,0,0,.3.292,29.542,29.542,0,0,1,13.12-1.245.237.237,0,0,0,.266-.28,5.085,5.085,0,0,1,.361-2.031c.365-1.549-.246-3.137-.52-4.7" transform="translate(0 0)" fill="#261510" fill-rule="evenodd"/>
        <path id="Fill-14-2" data-name="Fill-14" d="M84.818,3.79l.349-1.765c.019-.1-.251-.051-.268.036L84.55,3.826c-.019.1.251.051.268-.036" transform="translate(-76.716 -1.789)" fill="#4f4670" fill-rule="evenodd"/>
        <path id="Fill-16-3" data-name="Fill-16" d="M105.94,7.879a7.742,7.742,0,0,0,.341-1.767c.006-.086-.261-.031-.266.042a7.747,7.747,0,0,1-.341,1.767c-.022.07.242.036.266-.042" transform="translate(-95.882 -5.506)" fill="#4f4670" fill-rule="evenodd"/>
        <path id="Fill-18-4" data-name="Fill-18" d="M49.377,104.949a3.455,3.455,0,0,0,2.778,1.017,3.256,3.256,0,0,0,2.593-1,1.839,1.839,0,0,0,.076-2.378c-.638-.712-1.007.355-1.078.919a2.212,2.212,0,0,0,3.3,2.3,2.644,2.644,0,0,0,1.125-2.329,1.134,1.134,0,0,0-.295-.978.6.6,0,0,0-.791.143c-1.38,1.468,1.56,4.5,2.786,2.772.1-.138-.154-.174-.224-.076-.567.8-1.608.139-2.074-.423a1.969,1.969,0,0,1-.483-1.8,1.235,1.235,0,0,1,.086-.212c.106-.2.116-.191.354-.178.286.016.322.148.36.42a3.318,3.318,0,0,1-.057,1,1.968,1.968,0,0,1-1.3,1.677A2.022,2.022,0,0,1,54,103.677a2.1,2.1,0,0,1,.227-.9c.112-.2.176-.259.349-.069a1.432,1.432,0,0,1,.273.455,1.767,1.767,0,0,1-.462,1.877,3.173,3.173,0,0,1-2.554.717,2.918,2.918,0,0,1-2.212-.92c-.069-.1-.326.007-.246.117" transform="translate(-44.788 -92.867)" fill="#4f4670" fill-rule="evenodd"/>
        <path id="Fill-20-4" data-name="Fill-20" d="M60.307,241.255a13.22,13.22,0,0,1,.112,1.758c0,.047.268.008.268-.072a13.19,13.19,0,0,0-.112-1.758c-.007-.056-.278,0-.268.072" transform="translate(-54.72 -218.817)" fill="#4f4670" fill-rule="evenodd"/>
        <path id="Fill-22-3" data-name="Fill-22" d="M94.409,236.015a4.277,4.277,0,0,0,.172,1.505c.029.1.3.022.268-.072a4.168,4.168,0,0,1-.172-1.466c.007-.111-.263-.06-.269.033" transform="translate(-85.655 -214.062)" fill="#4f4670" fill-rule="evenodd"/>
        <path id="Fill-24-3" data-name="Fill-24" d="M128.324,237.841a4.468,4.468,0,0,0,.046,1.236c.022.123.291.055.268-.072a4.282,4.282,0,0,1-.043-1.185c.014-.137-.26-.1-.272.021" transform="translate(-116.414 -215.708)" fill="#4f4670" fill-rule="evenodd"/>
        <path id="Fill-26-3" data-name="Fill-26" d="M155.374,240.022a1.857,1.857,0,0,0,.281,1.242c.049.078.31-.01.249-.106a1.752,1.752,0,0,1-.261-1.168c.013-.109-.257-.062-.269.032" transform="translate(-140.966 -217.698)" fill="#4f4670" fill-rule="evenodd"/>
      </g>
      <g id="right-3" data-name="right" transform="translate(0 2.517)">
        <path id="SKIN-12" data-name="SKIN" d="M.854,219.643a3.727,3.727,0,0,1,.966-.476,2.926,2.926,0,0,0-1.167.355.259.259,0,0,1-.307-.393,1.271,1.271,0,0,1,.456-.386,2.794,2.794,0,0,1,1.212-.221,15.708,15.708,0,0,1,2.457.147,33.415,33.415,0,0,1-3.55,1.951c-.145.114-.294.224-.449.326a.406.406,0,0,1-.229.071c-.182,0-.232-.136-.241-.26-.037-.492.434-.853.852-1.115" transform="translate(0 -198.275)" fill="#f2b592" fill-rule="evenodd"/>
        <path id="SHADOW-7" data-name="SHADOW" d="M.854,219.643a3.727,3.727,0,0,1,.966-.476,2.926,2.926,0,0,0-1.167.355.259.259,0,0,1-.307-.393,1.271,1.271,0,0,1,.456-.386,2.794,2.794,0,0,1,1.212-.221,15.708,15.708,0,0,1,2.457.147,33.415,33.415,0,0,1-3.55,1.951c-.145.114-.294.224-.449.326a.406.406,0,0,1-.229.071c-.182,0-.232-.136-.241-.26-.037-.492.434-.853.852-1.115" transform="translate(0 -198.275)" fill="rgba(0,0,0,0.12)" fill-rule="evenodd"/>
        <path id="SKIN-13" data-name="SKIN" d="M8.313,200.011a4.228,4.228,0,0,1,2.544-2.255,3.42,3.42,0,0,0,1.037-.494,2.778,2.778,0,0,0,.656-2.193l.232.03c.467-.073,1.064-.085,1.277.337a1.134,1.134,0,0,1,.07.572l-.114,2.25a1.562,1.562,0,0,1-.42,1.2c-.521.4-1.374.039-1.886.454a2.535,2.535,0,0,0-.486.765c-.153.263-.441.51-.733.422-.382-.114-.4-.681-.174-1.013s.583-.561.762-.918c.044-.087.066-.214-.018-.264a.209.209,0,0,0-.152-.008,2.191,2.191,0,0,0-1.444,1.08,3,3,0,0,1-.389.673.538.538,0,0,1-.7.118c-.209-.174-.164-.506-.066-.759" transform="translate(-7.468 -176.989)" fill="#f2b592" fill-rule="evenodd"/>
        <path id="Fill-34-2" data-name="Fill-34" d="M32.9,0c-2.8,2.054-4.306,5.419-5.405,8.716a8.746,8.746,0,0,1-1.811,3.6,8.622,8.622,0,0,0-1.036,1.02,2.143,2.143,0,0,0-.016,2.4,18.292,18.292,0,0,0,1.381,1.35,1.556,1.556,0,0,1,.378,1.387.308.308,0,0,0,.265.4l3.232.309c.308-2.37,2.793-3.793,3.88-5.921,1.114-2.18.635-4.8.131-7.194l-.926-4.394C32.917,1.423,32.9,0,32.9,0" transform="translate(-22.02 0)" fill="#4f4670" fill-rule="evenodd"/>
        <path id="Fill-36-2" data-name="Fill-36" d="M59.419,180.864l-.172,2.225c-.009.111.262.06.269-.033l.172-2.225c.009-.111-.262-.06-.269.033" transform="translate(-53.758 -164.021)" fill="#261510" fill-rule="evenodd"/>
        <path id="Fill-38-2" data-name="Fill-38" d="M73.346,186.859l-.181,1.946c-.01.112.26.063.269-.032l.181-1.946c.01-.112-.26-.063-.269.032" transform="translate(-66.386 -169.459)" fill="#261510" fill-rule="evenodd"/>
      </g>
    </g>
  </g>
  <g id="Expression" transform="translate(15.379 12.322)">
    <g id="Expression_Intellectual" data-name="Expression/Intellectual" transform="translate(0 0)">
      <path id="Fill-1" d="M-9.586,17.6a2.906,2.906,0,0,0-2.025.9,3.564,3.564,0,0,0-.94,2.03,2.387,2.387,0,0,0,.163,1.325,2.4,2.4,0,0,0,.384.553,3.659,3.659,0,0,0,3.356,1.207c2.682-.54,2.842-3.713.973-5.3a1.346,1.346,0,0,0-1.239-.405" transform="translate(12.709 -17.542)" fill="#ededf9" fill-rule="evenodd"/>
      <path id="Fill-3-2" data-name="Fill-3" d="M-10.819,17a3.3,3.3,0,0,0-3.032,2.415,2.572,2.572,0,0,0,.25,2.276,3.8,3.8,0,0,0,1.727,1.269,3.475,3.475,0,0,0,3.321-.468,2.8,2.8,0,0,0,.91-2.718c-.208-1.111-1.251-2.775-2.574-2.451-.157.038-.136.124.023.086.774-.189,1.559.776,1.89,1.363a3.462,3.462,0,0,1,.439,1.411,2.6,2.6,0,0,1-1.487,2.659A3.424,3.424,0,0,1-13.6,21.137a3.155,3.155,0,0,1,2.669-4.027c.074,0,.292-.117.116-.11" transform="translate(14 -17)" fill-rule="evenodd"/>
      <path id="Fill-6-3" data-name="Fill-6" d="M65.993,17.6a2.906,2.906,0,0,0-2.025.9,3.564,3.564,0,0,0-.94,2.03,2.1,2.1,0,0,0,.547,1.878,3.659,3.659,0,0,0,3.356,1.207c2.682-.54,2.842-3.713.973-5.3a1.346,1.346,0,0,0-1.239-.405" transform="translate(-55.868 -17.542)" fill="#ededf9" fill-rule="evenodd"/>
      <path id="Fill-8-3" data-name="Fill-8" d="M64.76,17a3.3,3.3,0,0,0-3.032,2.415,2.572,2.572,0,0,0,.25,2.276A3.8,3.8,0,0,0,63.7,22.96a3.474,3.474,0,0,0,3.321-.468,2.8,2.8,0,0,0,.911-2.718c-.208-1.111-1.251-2.775-2.574-2.451-.157.038-.136.124.023.086.774-.189,1.559.776,1.89,1.363a3.462,3.462,0,0,1,.439,1.411,2.6,2.6,0,0,1-1.487,2.659,3.424,3.424,0,0,1-4.252-1.706,3.155,3.155,0,0,1,2.669-4.027c.074,0,.292-.117.116-.11" transform="translate(-54.577 -17)" fill-rule="evenodd"/>
      <path id="Fill-11-3" data-name="Fill-11" d="M53.641,53.3a.389.389,0,0,1,.553-.093c.074.049.314-.06.25-.1a.807.807,0,0,0-1.052.2c-.066.09.2.063.248,0" transform="translate(-47.14 -49.659)" fill-rule="evenodd"/>
      <path id="Fill-13-2" data-name="Fill-13" d="M39.461,95.2a1.781,1.781,0,0,0,1.276.446A5.838,5.838,0,0,0,42.53,95.5c.163-.037.127-.17-.036-.133a5.286,5.286,0,0,1-1.479.135,1.8,1.8,0,0,1-1.3-.412c-.059-.07-.317.025-.249.1" transform="translate(-34.498 -87.837)" fill-rule="evenodd"/>
      <path id="Fill-15-2" data-name="Fill-15" d="M-3.288,33.218q1.33-1.547,2.651-3.1c.06-.07-.2-.041-.245.013q-1.321,1.554-2.651,3.1c-.06.07.2.04.245-.013" transform="translate(4.511 -28.865)" fill="#fff" fill-rule="evenodd"/>
      <path id="Fill-17" d="M23.178,45.842q.718-.883,1.52-1.691c.119-.12-.139-.171-.226-.083q-.8.808-1.52,1.691c-.108.132.146.181.226.083" transform="translate(-19.505 -41.52)" fill="#fff" fill-rule="evenodd"/>
      <path id="Fill-19" d="M71.632,28.7l2.077-2.625c.075-.095-.195-.079-.251-.008l-2.077,2.626c-.075.095.195.079.251.008" transform="translate(-63.459 -25.174)" fill="#fff" fill-rule="evenodd"/>
      <path id="Fill-21" d="M93.015,33.907q.855-1.243,1.825-2.4c.107-.128-.149-.157-.222-.07q-.988,1.177-1.858,2.443c-.079.116.193.113.255.024" transform="translate(-82.856 -30.057)" fill="#fff" fill-rule="evenodd"/>
    </g>
  </g>
</svg>
