<svg xmlns="http://www.w3.org/2000/svg" xmlns:xlink="http://www.w3.org/1999/xlink" width="963" height="731" viewBox="0 0 963 731">
  <defs>
    <clipPath id="clip-Plan_de_travail_4">
      <rect width="963" height="731"/>
    </clipPath>
  </defs>
  <g id="Plan_de_travail_4" data-name="Plan de travail – 4" clip-path="url(#clip-Plan_de_travail_4)">
    <g id="Composant_9_12" data-name="Composant 9 – 12" transform="translate(298.901 96.224)">
      <path id="Tracé_211" data-name="Tracé 211" d="M669.81,852.4l-3.152-.21H661.4l-6.3-14.29,3.257,2.942,4.518,4.833,8.2,3.888,7.67,1.576-.841,3.152-4.623.315Z" transform="translate(-484.781 -383.471)" fill="#c8d8c4" stroke="#fff" stroke-linecap="round" stroke-linejoin="round" stroke-width="0.2"/>
      <path id="Tracé_212" data-name="Tracé 212" d="M640.349,644.837l11.873,10.927,4.833,1.051,7.67,5.044,6.2,2.627,1.156,2.942-4.413,10.3,6.094,1.786,6.62,1.051,4.413-1.051,4.518-5.254.315-5.884,2.732-1.366L695.721,671l.42,5.359-4.413,3.677-3.467,2.732-5.569,6.619-6.3,9.141-.525,5.464-.42,6.935,1.261,6.725-.946,1.471.42,4.308.315,3.572,8.2,5.779.21,4.623,4.1,2.942.315,3.257-3.467,8.616L678.49,755.9l-10.717,1.366-6.3-.736,2.206,4.1.105,4.938,1.891,3.362-2.627,2.417-5.359.946-5.884-2.522-1.576,1.786,2.627,6.619,4.2,2,2.417-2.1,2.627,3.467-4.413,2.1-3.047,4.2,1.261,6.619-.105,3.572h-5.043l-3.152,3.362.105,5.043,6.83,4.833L660,812.529l.21,5.989-4.833,3.677-.63,7.67-3.677,2.522-.946,3.047,4.413,6.83,4.833,3.677-2.207-.315-5.148-1.051-12.714-.841-3.677-3.782-2-4.833-3.257.42-2.732-2.417-3.257-6.83,2.837-2.942.105-4.1-1.891-3.362.735-5.674-1.156-8.721-1.891-3.888,1.891-1.261-1.471-2.522-2.942-1.261.84-2.837-3.257-2.522-3.888-7.67,1.786-1.366-3.467-8.2-.841-6.83-.21-5.989,2.627-2.417-3.467-6.619-1.681-6.094,3.152-4.413-1.471-5.674,1.681-6.514-1.471-6.2-1.681-1.261L604.1,706.3l2.206-6.935-1.786-6.514.946-6.2,2.732-6.3,3.467-4.2-2.1-2.627.841-2.206-1.681-11.242,5.884-3.257,1.261-7.04-.945-1.681,4.2-6.094,7.88,1.681,3.888,4.833,1.681-5.464,6.725.315Z" transform="translate(-487.367 -393.404)" fill="#c8d8c4" stroke="#fff" stroke-linecap="round" stroke-linejoin="round" stroke-width="0.2"/>
      <path id="BO" d="M665.958,634.792l-.315-2.1-5.674-3.467-5.464-.105-10.087,2L642.212,637l.21,3.677-1.576,8.09L639.8,647.3l-6.725-.315-1.681,5.464-3.888-4.833-7.88-1.681-4.2,6.094-4.1.946-3.257-9.351-3.888-7.565,1.156-6.514L601.97,626.7l-1.261-4.833-3.362-4.623,3.047-7.25-3.047-5.674,1.156-2.312-1.261-2.522,2-3.362-.315-5.674v-4.833l1.156-2.206L594.3,572.485l4.413.63,3.047-.21,1.156-2,5.043-2.732,3.047-2.522,7.67-1.156-.42,5.043.946,2.627-.315,4.518,6.83,5.989,6.724,1.156,2.417,2.522,4.1,1.366,2.627,1.891h3.677l3.572,2,.525,3.888,1.261,2,.315,2.837-1.786.105,2.942,7.88,11.243.315-.525,3.888.841,2.627,3.362,1.891,1.786,4.2-.63,5.359-1.366,2.942.841,3.783-1.681,1.471Z" transform="translate(-487.864 -397.333)" fill="#c8d8c4" stroke="#fff" stroke-linecap="round" stroke-linejoin="round" stroke-width="0.2"/>
      <path id="BR" d="M670.759,490.685l3.257.63.63-1.471-1.051-1.261.63-2,2.417.63,2.837-.736,3.362,1.471,2.627,1.366,1.786-1.786,1.366.21.841,1.891,2.837-.42,2.312-2.627,1.891-4.938,3.572-6.2,2.1-.315,1.366,3.783,3.152,11.768,3.257,1.156.105,4.623-4.518,5.569,1.786,2,10.612,1.051.21,6.83,4.518-4.413,7.46,2.417,9.982,4.1,2.942,3.888-.946,3.782,6.935-2.1,11.558,3.572,8.931-.21,8.826,5.569,7.775,7.565,4.623,1.891,5.043.315,2.206,2.1L800.1,549l1.156,4.1-2.206,11.137-2.837,4.413L788.122,578l-3.572,7.67-4.2,5.779-1.471.21L777.51,596.6l.946,12.608-1.156,10.4-.315,4.413-1.681,2.732-.525,9.036-5.464,8.721-.525,7.04-4.518,2.837-1.156,4.1h-6.3L747.88,661l-3.888,3.047-6.3,2-6.409,5.358-4.308,6.725-.315,5.043,1.366,3.677-.315,6.83-.841,3.257-3.572,3.782-4.728,11.873-4.2,5.253L711,721.1l-1.576,6.409-3.047,3.783-2.206-3.783,1.891-3.257-3.993-4.518-5.043-3.783-6.619-4.308-2,.21-6.619-5.253-3.572.735,6.3-9.141,5.569-6.619,3.467-2.732,4.413-3.677-.42-5.359-3.362-3.993-2.732,1.366.736-3.888.315-3.993-.315-3.782-2.206-1.156-2.1,1.051-2.206-.315-.841-2.522-1.156-6.2-1.261-2-4.1-1.891-2.312,1.366-6.2-1.366-.42-9.141-2.1-3.677,1.681-1.471-.841-3.783,1.366-2.942.63-5.359-1.786-4.2-3.362-1.891-.841-2.627.525-3.888-11.242-.315-2.942-7.88,1.786-.105-.315-2.837-1.261-2-.525-3.888-3.572-2h-3.677l-2.627-1.891-4.1-1.366-2.417-2.522-6.724-1.156-6.83-5.989.315-4.518-.946-2.627.42-5.043-7.67,1.156-3.047,2.522-5.043,2.732-1.156,2-3.047.21-4.413-.63-3.362,1.156-2.732-.736-.105-10.192-4.623,3.888-5.253-.1-2.417-3.677-3.993-.315,1.051-2.942-3.467-4.1L568,554.253l1.576-1.156-.21-2.942,3.572-1.891-.735-3.677,1.471-2.312.315-3.152,6.619-4.623,4.833-1.261.841-1.051,5.359.315,2.312-18.492.1-2.942-.946-3.783-2.732-2.522.1-4.938,3.362-1.051,1.156.736.21-2.627-3.467-.735v-4.2l11.558.21,2-2.417,1.681,2.207,1.051,3.993,1.156-.841,3.257,3.572,4.623-.42,1.156-2.1,4.413-1.576,2.522-1.156.735-2.837,4.308-1.891-.315-1.471-5.043-.525-.736-4.308.315-4.518-2.627-1.681,1.156-.63,4.308.841,4.728,1.681,1.786-1.576,4.308-1.051,6.724-2.522,2.206-2.627-.735-1.891,3.152-.21,1.261,1.471-.841,3.047,2.1.946,1.261,3.152-1.681,2.417-1.051,5.674,1.471,3.467.315,3.152,3.677,3.152,2.942.315.63-1.366,1.891-.315,2.732-1.156,1.891-1.786,3.362.63,1.366-.315Z" transform="translate(-489.197 -402.216)" fill="#c8d8c4" stroke="#fff" stroke-linecap="round" stroke-linejoin="round" stroke-width="0.2"/>
      <path id="CO" d="M586.722,426.413l-3.888,1.156-1.681,3.362-2.417,1.891-1.891,2.522-.946,4.833-1.891,3.993,3.047.42.63,3.047,1.261,1.576.315,2.627-.736,2.522.105,1.471,1.471.525,1.261,2.312,7.67-.63,3.467.841,3.993,5.884,2.417-.736,4.308.315,3.362-.735,2.1,1.156-1.261,3.572-1.366,2.312-.63,4.833L606.58,480l1.576,2,.21,1.471-3.047,3.362,2.1,1.471L609,490.716l1.681,6.725-1.156.841-1.051-3.993-1.681-2.207-2,2.417-11.558-.21v4.2l3.467.735-.21,2.627-1.156-.735-3.362,1.051-.1,4.938,2.732,2.522.946,3.783-.1,2.942-2.312,18.492-3.047-3.572-1.786-.105,3.677-6.935-4.623-3.152-3.572.63-2.206-1.156-3.257,1.786L573.9,521.4l-3.677-7.04-2.732-1.681-1.891-3.257-3.993-3.152-1.576.63-2.522-1.576-2.942-2.206-1.681,1.051-5.043-.946-1.471-2.942-1.156.105-5.884-3.782-.736-2.1,2.206-.525-.21-3.362,1.471-2.522,2.942-.42,2.627-4.2,2.312-3.572-2.1-1.576,1.261-3.888-1.156-6.2,1.366-1.786-.735-5.674-2.312-3.677.946-3.257,1.891.525,1.156-2-1.156-3.993.735-.946,3.047.21,4.728-4.728,2.522-.735.105-2.206,1.471-5.779,3.572-3.047,3.677-.21.63-1.366,4.623.525,4.833-3.362,2.417-1.471L584.516,422l2.1.42,1.366,1.786-1.261,2.207Z" transform="translate(-490.688 -404.558)" fill="#c8d8c4" stroke="#fff" stroke-linecap="round" stroke-linejoin="round" stroke-width="0.2"/>
      <path id="CR" d="M515.254,431.691l1.261,3.677,2.1,2.732,2.627,2.837-2.312.63-.105,2.732,1.156.946-.946.841.21,1.156-.63,1.366-.315,1.366-3.152-1.471-1.156-1.471.736-1.156-.105-1.471-1.576-1.576-2.311-1.366-1.891-.841-.315-2-1.471-1.156.21,1.891-1.261,1.681-1.261-1.891-1.786-.736-.735-1.261.105-2.1.946-2.1-1.576-.946,1.471-1.366.946-.841,3.783,1.786,1.366-.841,1.891.525.841,1.366,1.786.525,1.471-1.471Z" transform="translate(-492.559 -404.163)" fill="#c8d8c4" stroke="#fff" stroke-linecap="round" stroke-linejoin="round" stroke-width="0.2"/>
      <path id="EC" d="M560.6,503.3l.841,5.148-1.786,4.308-6.409,7.145-7.04,2.627-3.573,5.884-.946,4.518-3.257,2.837-2.627-3.467-2.417-.736-2.417.525-.315-2.417,1.681-1.576-.736-2.837,3.047-5.043-1.366-2.942-2.206,3.152-3.677-3.047,1.156-1.891-1.051-6.094,2.1-1.051,1.051-4.2,2.206-4.308-.315-2.732,3.257-1.471L539.9,493l5.884,3.783,1.156-.105,1.471,2.942,5.043.946,1.681-1.051,2.942,2.207L560.6,503.3Z" transform="translate(-491.256 -400.959)" fill="#c8d8c4" stroke="#fff" stroke-linecap="round" stroke-linejoin="round" stroke-width="0.2"/>
      <path id="GY" d="M664.122,464.281l-1.051,6.094-3.678,1.681.315,1.576-1.156,3.572,2.522,4.833h1.891l.735,3.783,3.467,5.884-1.366.315-3.362-.631-1.891,1.786-2.732,1.156-1.891.315-.63,1.366-2.942-.315-3.678-3.152-.315-3.152-1.471-3.467,1.051-5.674,1.681-2.417-1.261-3.152-2.1-.946.841-3.047-1.261-1.471-3.152.21-3.888-5.043,1.681-1.891v-3.152l3.677-1.051,1.471-1.261-1.891-2.522.525-2.417L649.2,448.1l3.783,2.522,3.467,4.308.105,3.572,2.206.105,3.152,3.257,2.206,2.417Z" transform="translate(-485.608 -403.235)" fill="#c8d8c4" stroke="#fff" stroke-linecap="round" stroke-linejoin="round" stroke-width="0.2"/>
      <path id="NI" d="M520.949,405.505l-.525.736-.525,1.471.42,2.417-1.576,2.312-.84,2.732-.525,2.942.21,1.786-.1,3.047-.946.63-.735,2.942.21,1.786-1.261,1.681.105,1.786.841,1.156-1.471,1.471-1.786-.525-.841-1.366-1.891-.525-1.366.84-3.783-1.786-.946.841-1.891-2.1-2.627-2.732-1.156-2.207-2.311-2.206L493,419.584l.735-1.051.841,1.051.525-.42,1.891-.315.841-1.576h.841l.21-3.362,1.366-.105h1.261l1.471-1.786,1.576,1.366.63-.841,1.261-.841,2.206-1.786.21-1.471.525.105.946-1.576.63-.21.946,1.051,1.156.21,1.366-.841h1.471l2.1-.841.946-.946,2,.105Z" transform="translate(-493 -405.4)" fill="#c8d8c4" stroke="#fff" stroke-linecap="round" stroke-linejoin="round" stroke-width="0.2"/>
      <path id="PA" d="M550.912,446.509l-.736.946,1.156,3.993-1.156,2-1.891-.525-.946,3.257-1.891-1.891-1.051-3.677,1.471-1.786-1.471-.42-.946-2.206L540.51,444.3l-2.522.42-1.366,2.312-2.522,1.681-1.261.21-.63,1.471,2.627,3.677-1.681.841-.841.946-2.837.42-.841-4.1-.841,1.156-1.891-.42-1.051-2.627-2.417-.525-1.576-.736h-2.522l-.21,1.471-.63-1.051.315-1.366.63-1.366-.21-1.156.946-.841-1.156-.946.105-2.732,2.312-.63,2,2.417-.21,1.471,2.311.315.63-.63,1.576,1.681,2.942-.525,2.627-1.681,3.678-1.366,2.1-2,3.257.42-.21.63,3.257.21,2.522,1.261,1.891,2,2.1,1.891Z" transform="translate(-491.758 -403.641)" fill="#c8d8c4" stroke="#fff" stroke-linecap="round" stroke-linejoin="round" stroke-width="0.2"/>
      <path id="PE" d="M593.806,530.779l-5.359-.315-.841,1.051-4.833,1.261-6.619,4.623-.315,3.152-1.471,2.312.736,3.678-3.572,1.891.21,2.942-1.576,1.156,2.732,6.094,3.467,4.1-1.051,2.942,3.993.315,2.417,3.677,5.253.105,4.623-3.888.105,10.192,2.732.735,3.362-1.156,5.779,10.927-1.156,2.206v4.833l.315,5.674-2,3.362L602,605.169l-1.156,2.311,3.047,5.674-3.047,7.25-1.156,3.467-2.942,1.681-6.2-3.888-.841-2.732-12.293-6.725-11.242-7.46-4.938-4.1-2.942-5.569.841-2-5.674-8.826-6.724-12.4-6.3-13.449-2.522-3.152-2.1-4.938-4.833-4.413-4.308-2.732,1.786-2.942-3.152-6.514,1.786-4.728,4.623-4.2.735,2.837-1.681,1.576.315,2.417,2.417-.525,2.417.735,2.627,3.467,3.257-2.837.945-4.518,3.573-5.884,7.04-2.627,6.409-7.145,1.786-4.308-.841-5.148,1.576-.63,3.993,3.152,1.891,3.257,2.732,1.681,3.677,7.04,4.413.946,3.257-1.786,2.206,1.156,3.572-.63,4.623,3.152-3.677,6.935,1.786.105,3.047,3.572Z" transform="translate(-491.362 -400.492)" fill="#c8d8c4" stroke="#fff" stroke-linecap="round" stroke-linejoin="round" stroke-width="0.2"/>
      <path id="PY" d="M663.712,631.674l2.1,3.677.42,9.141,6.2,1.366,2.312-1.366,4.1,1.891,1.261,2,1.156,6.2.841,2.522,2.206.315,2.1-1.051,2.206,1.156.315,3.782-.315,3.993-.736,3.888-.315,5.884-4.518,5.254-4.413,1.051-6.619-1.051-6.094-1.786,4.413-10.3-1.156-2.942-6.2-2.627-7.67-5.043-4.833-1.051L638.6,645.648l1.576-8.09-.21-3.677L642.173,628l10.087-2,5.464.105,5.674,3.467.315,2.1Z" transform="translate(-485.618 -394.215)" fill="#c8d8c4" stroke="#fff" stroke-linecap="round" stroke-linejoin="round" stroke-width="0.2"/>
      <path id="SR" d="M682.186,464.991l-3.257,5.779.315,4.623,2.312,3.993-1.156,2.837-.525,3.152-1.576,2.837-3.362-1.471-2.837.735-2.417-.63-.63,2L670.1,490.1l-.63,1.471-3.257-.63-3.467-5.884-.736-3.783h-1.891l-2.522-4.833,1.156-3.572-.315-1.576,3.677-1.681,1.051-6.094,7.145,1.366.63-1.261,4.833-.525,6.409,1.891Z" transform="translate(-484.655 -402.474)" fill="#c8d8c4" stroke="#fff" stroke-linecap="round" stroke-linejoin="round" stroke-width="0.2"/>
      <path id="UY" d="M701.1,719.791l-1.681,4.308-5.674,3.678-4.413-1.366-2.942.735-5.779-2.837-3.782.21-4.1-3.782-.42-4.308.946-1.471L672,708.234l.42-6.935.525-5.464,3.572-.735,6.619,5.253,2-.21,6.619,4.308,5.043,3.782,3.993,4.518-1.891,3.257,2.206,3.783Z" transform="translate(-483.925 -390.712)" fill="#c8d8c4" stroke="#fff" stroke-linecap="round" stroke-linejoin="round" stroke-width="0.2"/>
      <path id="VE" d="M652.574,449.337l-4.938,3.993-.525,2.417L649,458.268l-1.471,1.261-3.678,1.051v3.152l-1.681,1.891,3.888,5.043.736,1.891-2.206,2.627-6.725,2.522-4.308,1.051-1.786,1.576-4.728-1.681-4.308-.841-1.156.63,2.627,1.681-.315,4.518.735,4.308,5.043.525.315,1.471-4.308,1.891-.736,2.837-2.522,1.156-4.413,1.576-1.156,2.1-4.623.42-3.257-3.572-1.681-6.724-1.576-2.417-2.1-1.471,3.047-3.362-.21-1.471-1.576-2-1.156-4.518.63-4.833,1.366-2.312,1.261-3.572-2.1-1.156-3.362.736-4.308-.315-2.417.736-3.992-5.884-3.467-.841-7.67.63-1.261-2.312-1.471-.525-.105-1.471.735-2.522-.315-2.627-1.261-1.576-.63-3.047-3.047-.42,1.891-3.993.946-4.833,1.891-2.522,2.417-1.891,1.681-3.362,3.888-1.156-.21,1.576-3.572.841,1.786,3.047-.315,3.572-2.837,3.888,2,5.359,2.627-.42,1.576-4.938-1.786-2.312V431.79l7.565-2.732-.63-3.152,2.206-2.207,1.786,4.833,4.2.105,3.572,3.677.21,2.312h5.253l6.409-.63,3.257,2.942,4.413.841,3.468-2.1.1-1.681,7.46-.42,7.04-.105-5.149,2,1.891,3.257,4.728.42,4.413,3.362.736,5.359,3.047-.105,2.312,1.576Z" transform="translate(-488.979 -404.472)" fill="#c8d8c4" stroke="#fff" stroke-linecap="round" stroke-linejoin="round" stroke-width="0.2"/>
      <path id="Tracé_297" data-name="Tracé 297" d="M656.545,837.941l6.3,14.289H668.1l3.152.21-.525,2.522-3.362,2-2.522-.21-3.257-.525-4.413-1.891-5.674-.946-7.88-3.572-6.724-3.362-10.3-7.25,4.833,1.366,9.036,4.308,7.67,2.311,1.261-2.942-.315-4.413,3.572-2.732Z" transform="translate(-486.226 -383.512)" fill="#c8d8c4" stroke="#fff" stroke-linecap="round" stroke-linejoin="round" stroke-width="0.2"/>
      <path id="Tracé_298" data-name="Tracé 298" d="M615.47,649.478l.946,1.681-1.261,7.04-5.884,3.257,1.681,11.243-.84,2.206,2.1,2.627-3.467,4.2-2.732,6.3-.946,6.2,1.786,6.514-2.206,6.935L609.8,719.35l1.681,1.261,1.471,6.2-1.681,6.514L612.738,739l-3.152,4.413,1.681,6.094,3.467,6.619-2.627,2.417.21,5.989.84,6.83,3.467,8.2-1.786,1.366,3.888,7.67,3.257,2.522-.841,2.837,2.942,1.261,1.471,2.522-1.891,1.261,1.891,3.888,1.156,8.721-.735,5.674,1.891,3.362-.105,4.1-2.837,2.942,3.257,6.83,2.732,2.417,3.257-.42,2,4.833,3.677,3.782,12.714.841,5.148,1.051H653.19l-1.786,1.576-3.572,2.311,1.786,5.989-2,.105L641,855l-7.88-4.518-7.985-3.677-3.362-4.1-.315-3.783-4.413-4.413-5.253-11.138-.21-6.3,3.572-5.043-8.721-2,2.837-5.779-2.1-11.032,6.83,2.312-1.891-13.764-4.2-1.786,1.051,8.3-3.677-.946-1.576-9.456-2.1-12.4,1.156-4.623-3.467-6.514-2.522-7.565,2.311-.315.63-10.822,1.261-10.822.105-9.982-3.467-10.192.63-5.569-2.206-8.3,1.891-8.2-.946-13.029V655.467l.105-15.025-1.576-11.032-2.206-9.561,2.942-1.681L597.4,614.7l3.362,4.623,1.261,4.833,3.362,2.837-1.156,6.514,3.888,7.565,3.257,9.351Z" transform="translate(-487.915 -394.788)" fill="#c8d8c4" stroke="#fff" stroke-linecap="round" stroke-linejoin="round" stroke-width="0.2"/>
      <path id="GF" d="M677.3,488.12l1.576-2.942.525-3.047,1.051-2.837-2.206-3.993-.315-4.623,3.257-5.779,2,.736,4.308,1.576,6.2,5.674.841,2.732-3.573,6.2-1.891,4.938-2.312,2.627-2.837.42-.841-1.891-1.366-.21-1.786,1.786-2.627-1.366Z" transform="translate(-483.656 -402.383)" fill="#c8d8c4" stroke="#fff" stroke-linecap="round" stroke-linejoin="round" stroke-width="0.2"/>
      <path id="Tracé_360" data-name="Tracé 360" d="M697.42,836.22l.42-.105v.42L697,836.22l.315-.315.21-.105Z" transform="translate(-482.657 -383.578)" fill="#c8d8c4" stroke="#fff" stroke-linecap="round" stroke-linejoin="round" stroke-width="0.2"/>
      <path id="Tracé_361" data-name="Tracé 361" d="M696.7,834.8l.21.21.42.1.105.42-.315.105-.105-.42-.21-.21Z" transform="translate(-482.672 -383.629)" fill="#c8d8c4" stroke="#fff" stroke-linecap="round" stroke-linejoin="round" stroke-width="0.2"/>
      <path id="Tracé_362" data-name="Tracé 362" d="M702.92,834l.21.105-.105.42-.315-.105-.21-.315.315-.21Z" transform="translate(-482.378 -383.674)" fill="#c8d8c4" stroke="#fff" stroke-linecap="round" stroke-linejoin="round" stroke-width="0.2"/>
      <path id="Tracé_363" data-name="Tracé 363" d="M690.861,833.125v.21l.105.315-.42.105-.315-.105-.21-.21-.315-.105-.105-.42h.21l.105-.21.315-.105.21.105-.315.315.315.1.315-.315Z" transform="translate(-483.032 -383.74)" fill="#c8d8c4" stroke="#fff" stroke-linecap="round" stroke-linejoin="round" stroke-width="0.2"/>
      <path id="Tracé_364" data-name="Tracé 364" d="M693.862,831.9l-.42-.21-.525-.315-.841-.315.105-.42-.735-.105-.315-.105-.315-.42.21-.1.841.315.841.42.525.105.42.105.315-.315.105-.315.21.1.42-.21.105.21h.525v.315h.315l.946-.21.105.21h.315l.42-.105-.315-.21-.105-.315h.42l.63.21.105.42-.42.525.1.315-.21.21h-.42l-.315.841-.315.315-.315.63-.105.315-.525.315-.105-.21h-.42v.315l-.841-.1-.105.1.315.42-.105.105-.21.42h-.42l-.315.42-.315.105h-.21l-.21-.315-.42-.315v-.21h-.525l.63.42h-.42l-.525-.315-.21-.105-.42-.21-.315-.21v-.21l.735.21.63-.21-.525-.21-.1-.105h.946l.42.105.315.21V834l.42-.105.1-.315-.42-.21-.21-.525.105-.21h.63l.21.105.42-.105-.105-.315h-.841v.1l-.42.21h-.63l-.525-.315V832l.736.21.63-.21h.315l.525-.105.42.21V832Z" transform="translate(-482.987 -383.877)" fill="#c8d8c4" stroke="#fff" stroke-linecap="round" stroke-linejoin="round" stroke-width="0.2"/>
      <path id="Tracé_365" data-name="Tracé 365" d="M695.3,829.9h.315l.315.315-.315.1H695.3Z" transform="translate(-482.743 -383.877)" fill="#c8d8c4" stroke="#fff" stroke-linecap="round" stroke-linejoin="round" stroke-width="0.2"/>
      <path id="Tracé_366" data-name="Tracé 366" d="M694.32,829.915h-.315l-.105-.315.42.105Z" transform="translate(-482.814 -383.892)" fill="#c8d8c4" stroke="#fff" stroke-linecap="round" stroke-linejoin="round" stroke-width="0.2"/>
      <path id="Tracé_367" data-name="Tracé 367" d="M692.915,829.705l.63-.105.21.315-.315.42-.21-.105-.315.105-.315-.21.315-.21.315.21.1-.21-.525-.105Z" transform="translate(-482.88 -383.892)" fill="#c8d8c4" stroke="#fff" stroke-linecap="round" stroke-linejoin="round" stroke-width="0.2"/>
      <path id="Tracé_368" data-name="Tracé 368" d="M700.247,829.81h.63l.105-.105.525-.105.42.21.42.315.105.315v.1l-.525.105-.21-.315-.21-.105-.105.315.21.105.105.315.315-.21.21.1.1.42.315.105.1-.105.525.315.105-.42-.841-.21.105-.525.315-.21,1.576-.105.736.63.21.1v.42l-.63-.105-.525-.21-.63.21.315.21.42.105.946.105.315.105.105.21-.21.525h-.525l-.105.105-.735.1-.525.21.315.21-.946.42-.42-.1-.525.1H701.4l-.63-.21-.63-.42v.315l.315.21.63.21.315.315.21-.105.42.105.42.315-.21.105.21.525h-.21l-.315-.315-.42-.105-.525.42-.21-.315-.315-.21h-.315l-.525-.21-.21.105.21.42h.315l.21.21-.21.105.736.63-.21.105-.42-.21h-.315l-.315-.315-.315-.105-.315-.1-.105.63.525.105v.315l-.1.21-.42-.105-.105-.21-.525-.21-.105-.21h-.21l-.42-.525.315-.42v-.21l-.42-.525v-.21l.525-.21-.105-.21.525-.1-.105-.315.63-.42.63-.21.42.42v.42l.315-.105-.525-.63.1-.315-.63-.21-.42-.315.105-.21.42.21.1-.525-.735-.21.105-.315.21.105.315-.21h.315l.21-.315-.315-.315h.42Z" transform="translate(-482.647 -383.892)" fill="#c8d8c4" stroke="#fff" stroke-linecap="round" stroke-linejoin="round" stroke-width="0.2"/>
      <path id="Tracé_369" data-name="Tracé 369" d="M695.115,829.4h.735l.21.21.21-.21.21.105.21.315-.21.105-.42-.105-.42-.21-.841-.1.105-.21Z" transform="translate(-482.768 -383.908)" fill="#c8d8c4" stroke="#fff" stroke-linecap="round" stroke-linejoin="round" stroke-width="0.2"/>
      <path id="Tracé_370" data-name="Tracé 370" d="M688.325,828.315l-.525-.1.105-.21Z" transform="translate(-483.123 -383.974)" fill="#c8d8c4" stroke="#fff" stroke-linecap="round" stroke-linejoin="round" stroke-width="0.2"/>
      <path id="Tracé_465" data-name="Tracé 465" d="M643.1,432.2l-.21.525-.315.42-.21.105-.105.42.21.63-.21.105v.735l.21.315.21.21-.21.21-.105.315v.736l-.21.105-.42.21-.525.105h-.315l-.525.105-.525-.105-.42.105-.315-.105-.525.21-.42-.21h-.63l-.315.21-.315-.105.525-.21.315-.315.42-.105.42-.315.21-.315.63.105.315-.42-.21-.841.21-.42v-.736l-.315-.42-.315-.105-.42-.105-.105-.105.42-.315,1.156-.105.21-.21h1.156l.105-.105,1.261-.21Z" transform="translate(-485.704 -404.041)" fill="#c8d8c4" stroke="#fff" stroke-linecap="round" stroke-linejoin="round" stroke-width="0.2"/>
      <path id="Tracé_466" data-name="Tracé 466" d="M645.3,429l-.105.525-.315.105-.42.315h-.21l-.736.42-.21-.21.315-.315.736-.525Z" transform="translate(-485.38 -404.203)" fill="#c8d8c4" stroke="#fff" stroke-linecap="round" stroke-linejoin="round" stroke-width="0.2"/>
      <circle id="_1" data-name="1" transform="translate(189.652 334.859)" fill="#c8d8c4" stroke="#fff" stroke-linecap="round" stroke-linejoin="round" stroke-width="0.2"/>
    </g>
  </g>
</svg>
