<svg xmlns="http://www.w3.org/2000/svg" xmlns:xlink="http://www.w3.org/1999/xlink" width="1388" height="340" viewBox="0 0 1388 340">
  <defs>
    <clipPath id="clip-Antarctique_">
      <rect width="1388" height="340"/>
    </clipPath>
  </defs>
  <g id="Antarctique_" data-name="Antarctique " clip-path="url(#clip-Antarctique_)">
    <g id="Antarctique" transform="translate(-287 -310)">
      <path id="path14410" d="M-1956.713,514.226c-.31-.172-3.018-.938-6.017-1.7s-6.722-1.795-8.274-2.287-4.513-1.4-6.581-2.016-4.861-1.48-6.205-1.918-3.074-.959-3.843-1.157a24.262,24.262,0,0,1-3.009-1.066c-.885-.388-2.879-1.084-4.43-1.548s-3.772-1.247-4.936-1.74a12.134,12.134,0,0,0-2.758-.9,26.029,26.029,0,0,1-4.243-1.5,27.249,27.249,0,0,0-4.192-1.5,11.645,11.645,0,0,1-2.479-.719c-1.038-.4-3.072-1.141-4.52-1.657-4.292-1.531-15.69-5.872-17.112-6.517-.724-.329-3.6-1.509-6.393-2.623s-5.754-2.346-6.581-2.739c-5.918-2.808-10.7-4.919-11.658-5.144-1.712-.4-6.205-2.741-6.205-3.229,0-.316,2.232-.372,8.415-.213l8.415.217.415-.911c.348-.763.684-.911,2.069-.911a3.277,3.277,0,0,0,2.089-.523c.518-.624,2.024-.981,5.2-1.234,2.533-.2,2.959-.632,1.316-1.332-1.266-.539-2.351-1.416-2.351-1.9,0-.388,16.792-.123,21.01.331,2.328.251,2.387.236,2.137-.55-.206-.649-.1-.808.521-.808.428,0,.778-.148.778-.329,0-.38-1.115-.634-4.427-1.008-2.394-.27-3.112-.676-2.421-1.367.259-.259,1.911-.232,5.127.084,4.278.421,4.812.406,5.425-.149.551-.5,1.547-.615,5.257-.615,4.452,0,5.929-.415,3.261-.915-1.928-.362-1.605-.965.517-.965a11.88,11.88,0,0,0,3.479-.617c1.354-.508,7.553-1.14,12.27-1.252,1.134-.027,1.076-.914-.094-1.448-1.094-.5-1.251-1.76-.282-2.266.413-.216,2.259-.147,4.955.184a16.04,16.04,0,0,0,4.513.2c.428-.641,3.681-1.293,7.826-1.569a18.909,18.909,0,0,0,4.708-.682,15.51,15.51,0,0,1,4.612-.4,20.49,20.49,0,0,0,5.822-.57,30.9,30.9,0,0,1,4.109-.961c3-.479,7.174-1.947,7.174-2.522,0-.236-.339-.518-.752-.626s-.752-.382-.752-.608c0-.628,5.461-.524,6.721.128a16.441,16.441,0,0,0,4.4.761c1.847.122,4.035.312,4.862.423l5.453.735c4.983.674,17.827,1.441,19.038,1.137a18.493,18.493,0,0,1,4.137.172c2.427.3,3.357.291,3.758-.042.7-.584,6.04-.122,7.183.622.605.394,2.043.543,5.265.544,5.312,0,8.4.455,10.522,1.543,1.453.744,2.754.775,2.743.065,0-.162-.722-.6-1.6-.985-4.78-2.072-5.887-2.947-5.383-4.26.288-.752,2.773-.356,5.105.814a15.486,15.486,0,0,0,2.9,1.11,9.03,9.03,0,0,1,2.566,1.182c1.3.881,1.579.916,6.559.824,5.824-.108,6.344.078,7.167,2.572.422,1.28.872,1.589,1.3.895.369-.6,7.954-.474,8.945.144s5.06,1.071,5.355.594c.114-.184-.639-.764-1.674-1.288a6.706,6.706,0,0,1-2.255-1.652,5.037,5.037,0,0,0-2.552-1.313,6.926,6.926,0,0,1-3.588-2.118,6.332,6.332,0,0,1-1.41-1.932c0-.292-.494-.35-1.542-.182a8.787,8.787,0,0,1-4.663-.772c-1.408-.521-2.623-1.616-2.549-2.3.116-1.069-.574-1.521-2.535-1.661-1.192-.085-1.685-.285-1.685-.683,0-.421.355-.532,1.409-.441,1.2.1,1.459-.012,1.759-.8.472-1.241,1.87-1.464,8.843-1.4,3.115.026,7.677-.036,10.138-.138,3.92-.162,4.651-.095,5.908.547a6.639,6.639,0,0,0,2.175.732,3.071,3.071,0,0,1,1.7,1.222l.959,1.222,3.579-.109a13.13,13.13,0,0,1,4.388.324,2.53,2.53,0,0,0,2.247-.042c1.168-.385,1.548-.383,2.027.014a1.1,1.1,0,0,0,1.422.076c1.241-.615,3.861-.862,11.307-1.068,6.11-.168,6.781-.124,7.471.5a4.675,4.675,0,0,1,1.065,1.485c.277.724.685.826,4.188,1.039,2.134.13,4.824.333,5.977.451a4.826,4.826,0,0,0,3.49-.569c1.1-.62,2.039-.781,4.485-.774a27.288,27.288,0,0,1,4.5.336,7.448,7.448,0,0,0,2.9-.007,4.518,4.518,0,0,1,2.539.069,30.674,30.674,0,0,0,5.754.509,23.383,23.383,0,0,0,4.231-.06.786.786,0,0,1-.47-.7c0-.371.457-.533,1.5-.533.827,0,1.5-.169,1.5-.376a.377.377,0,0,0-.376-.376c-.821,0-.313-.706.658-.914,1.219-.262,6.269.641,7.005,1.252a13.155,13.155,0,0,0,3.972.608,17.9,17.9,0,0,1,4.162.559,4.58,4.58,0,0,0,1.8.375,2.664,2.664,0,0,1,1.775.752c.668.738,2.239,1.026,2.566.47a8.166,8.166,0,0,0,.421-1.472c.212-.987.126-1.231-.5-1.43a1.6,1.6,0,0,1-.958-.879c-.328-1.033-2.068-1.526-5.415-1.533a10.34,10.34,0,0,1-3.641-.427,8.458,8.458,0,0,0-2.744-.737,9.736,9.736,0,0,1-3.786-1.341c-1.644-1.088-2.029-2.053-.819-2.053a1.254,1.254,0,0,0,.962-.376,3.313,3.313,0,0,1,1.9-.376c1.168,0,1.67-.156,1.67-.518,0-1.115-.986-1.392-4.043-1.137-2.129.177-3.076.122-3.27-.192-.426-.689.522-1.537,1.718-1.537,1.58,0,1.357-.937-.39-1.636a5.109,5.109,0,0,1-1.715-.981,6.143,6.143,0,0,0-2.787-.392c-2.185,0-2.662-.125-3.375-.884-1.045-1.112-.592-1.57,1.922-1.944a3.417,3.417,0,0,1,2.769.377,3.05,3.05,0,0,0,2.35.419,6.608,6.608,0,0,1,3.336,0c1.066.207,1.262.115,1.589-.746.41-1.079,1.429-1.28,2.644-.521.558.349.843.355,1.173.026s.09-.579-.986-1.029c-1.368-.571-1.4-.62-.77-1.313.96-1.061,5.75-1.466,7.5-.635a3.459,3.459,0,0,1,1.495,1.172.947.947,0,0,0,.818.566,4.569,4.569,0,0,1,1.834.94,5.619,5.619,0,0,0,1.546.94,4.082,4.082,0,0,1,1.3,1.182c.869,1.041,1.085,1.129,1.814.739,1.05-.562,1.059-1.326.022-1.789a1.783,1.783,0,0,1-.937-1.562c-.125-1.144-.069-1.2,1.156-1.2.957,0,1.349-.193,1.526-.752.131-.414.4-.752.589-.752s.351-.254.351-.564-.16-.564-.356-.564c-.65,0-3.005-3.958-2.922-4.908.1-1.1-.614-1.559-.8-.518-.2,1.1-.659,1.409-1.722,1.142-.749-.188-.968-.479-.968-1.289,0-1.009-.58-1.948-1.2-1.948-.165,0-.3.309-.3.687,0,.963-1.563,2.324-2.657,2.314a3.6,3.6,0,0,1-1.806-.693c-.705-.542-.828-.873-.592-1.59a6.579,6.579,0,0,0,.2-2.126c-.075-.968.086-1.3.78-1.6a9.848,9.848,0,0,0,1.515-.834c.8-.569,1.153-.239,1.2,1.107.037,1,.113,1.042,2.106,1.064a10.014,10.014,0,0,1,2.727.322c.831.377.862-.249.074-1.452-.716-1.093-.242-1.5,1.346-1.148.88.193,1.119.116,1.119-.36a.95.95,0,0,0-.564-.822c-.854-.328-.676-1.24.315-1.617a9.771,9.771,0,0,0,2.3-1.676c1.147-1.082,1.369-1.508,1.144-2.2a9.676,9.676,0,0,1-.328-2.142c-.04-1.06-.227-1.336-1.054-1.558-1.76-.472-1.887-.7-1.046-1.88,1.087-1.527,2.281-1.748,3.715-.687,1.392,1.029,2.3.577,1.478-.738-.771-1.235.039-1.779,1.515-1.016.884.457,1.172.862,1.172,1.649,0,1.816.65,2,2.484.71,1.139-.8,1.653-1.435,1.653-2.033,0-.622.217-.868.764-.868a7.24,7.24,0,0,0,2.107-.561,2.507,2.507,0,0,1,1.932-.232c.43.241.943-.014,1.9-.943a3.664,3.664,0,0,1,2.4-1.273,7.057,7.057,0,0,0,2.56-.752c1.951-1,3.341-.933,4.638.209.946.832,1.037,1.1.814,2.427-.188,1.115-.1,1.641.348,2.09.33.33.5.755.386.946s.135.346.561.346c.451,0,.774.245.774.587,0,.9-5.214.368-6.078-.623a2.217,2.217,0,0,0-1.427-.716c-.7,0-.774.152-.571,1.234a1.714,1.714,0,0,1-.547,1.939,1.669,1.669,0,0,0-.261,2.554c.538.708.359,2.271-.673,5.881-.714,2.5-.386,3.243,1.7,3.868,1.446.433,3.344,2.272,3.344,3.24a10.044,10.044,0,0,0,2.162,2.344c2.1,1.882,2.214,1.933,3.916,1.714l1.754-.226,1.2,2.09c1.336,2.335,1.14,3.192-.729,3.192a3.424,3.424,0,0,0-1.728.524c-.7.51-.69.575.3,2.4a8.332,8.332,0,0,1,1.022,2.788c0,.65,1.16,2.1,4.043,5.066,2.224,2.286,4.635,4.877,5.359,5.76s2.12,2.425,3.1,3.427c1.706,1.741,2.223,3.036,1.41,3.538-.917.567-.2,3.618,1.063,4.553.821.605.266,1.653-.875,1.653-1.011,0-1.663.932-1.069,1.526a5.969,5.969,0,0,0,2.212.571c1.026.123,3.727.709,6,1.3s5.829,1.441,7.9,1.883,4.522,1.036,5.453,1.32a91.776,91.776,0,0,0,12.223,3.167c4.032.609,5.775.942,9.759,1.863a30.52,30.52,0,0,0,5.277.778,17.962,17.962,0,0,1,3.968.57c1.131.313,4.341.917,7.133,1.341a50.811,50.811,0,0,1,5.829,1.109,24.226,24.226,0,0,0,3.949.757,37.312,37.312,0,0,1,5.015.994,6.434,6.434,0,0,0,3.009.311c.655-.145,2.455-.4,4-.563,2.24-.239,2.916-.46,3.337-1.094.4-.607.915-.794,2.179-.794a6.891,6.891,0,0,1,2.3.329c2.241,1.129,6.148,1.558,14.171,1.555,8.209,0,8.258-.008,9.214-.912,1.439-1.361,8.831-3.731,10.708-3.433.941.149,1.57.078,1.74-.2.324-.524,5.4-2.605,6.356-2.605a1.666,1.666,0,0,0,1.124-.534,6.714,6.714,0,0,1,3.149-.788c2.032-.191,2.986-.477,3.833-1.153.986-.787,1.069-.993.662-1.646-.626-1,.232-1.453,3.364-1.763a8.1,8.1,0,0,0,2.932-.7,4.965,4.965,0,0,1,1.445-.738c.749-.229.849-.446.668-1.455-.192-1.066-.08-1.252,1.1-1.841a11.775,11.775,0,0,1,2.819-.9,3.727,3.727,0,0,0,1.7-.567,3.621,3.621,0,0,1,1.9-.327c2.714,0,6.156-2.414,6.156-4.317,0-.321.55-.917,1.222-1.325a3.376,3.376,0,0,0,1.426-1.593c.2-.819.391-.858,5.265-1.039,4.382-.163,5.242-.3,6.409-1.026,1.488-.925,5.206-1.806,9.782-2.318,3.117-.349,4.1-.81,4.1-1.923,0-.758,1.518-1.878,2.544-1.878a1.712,1.712,0,0,0,1.047-.354,9.39,9.39,0,0,1,2.8-.746c1.911-.306,2.594-.6,3.129-1.331.639-.876,3.359-1.988,4.2-1.719a41.148,41.148,0,0,0,4.137.791c.207,0,1.476-.174,2.821-.4a93.565,93.565,0,0,1,14.068-1.324c4.955-.193,5.275-.252,6.093-1.135a2.805,2.805,0,0,1,2.1-.944c2.393-.024,4.2-2.9,2.793-4.447-.852-.941-.444-1.181,2.008-1.181,2.275,0,3.021.425,3.021,1.721a1.887,1.887,0,0,0,.564,1.287,1.68,1.68,0,0,1,.564,1.116c0,1.25,1.231,1.916,3.078,1.663s6.974.458,7.733,1.071a5.942,5.942,0,0,0,2.821.145c1.293-.128,2.563-.226,2.821-.218s.893,0,1.41-.01,1.575-.025,2.35-.025l2.861,0a3.921,3.921,0,0,1,1.97.428c.4.329.9.271,2.121-.244,2.053-.865,9.088-1.073,9.739-.289a1.064,1.064,0,0,0,1.785-.007c.61-.735,5.615-1.049,9.755-.612,3.429.362,3.531.349,4.736-.57a4.518,4.518,0,0,1,1.894-.94,3.917,3.917,0,0,0,1.78-.94c1-.841,1.454-.94,4.293-.94,3.023,0,3.2.045,3.6.94.423.929.483.94,5.082.94,3.735,0,4.845.125,5.623.635s1.73.619,4.594.557c3.872-.083,9.495.511,10.829,1.145a4.667,4.667,0,0,0,2.256.144,6.581,6.581,0,0,1,4.077.157c2.427.721,4.276.857,5.386.4a14.9,14.9,0,0,1,3.585-.569c1.733-.094,2.777-.347,3.266-.789.594-.538,1.222-.618,3.623-.464,2.306.148,3.218.044,4.428-.506a8.557,8.557,0,0,1,2.876-.7,2.707,2.707,0,0,0,2.061-.792,6.888,6.888,0,0,1,4.661-1.849,2.69,2.69,0,0,0,2.093-.765,1.241,1.241,0,0,1,1.281-.518,12.8,12.8,0,0,0,1.7.5,1.518,1.518,0,0,1,1.332,1.176c.2.86.406.936,2.8,1.04,2.95.129,3.306-.138,2.975-2.226-.286-1.8.769-2.588,3.455-2.588,1.561,0,2.084.176,2.8.94a3.015,3.015,0,0,0,1.834.94,3.821,3.821,0,0,1,2.1,1.089c1.352,1.284,5.874,2.466,7.947,2.077,1.516-.284,3.165.6,3.165,1.692,0,1.176,1,1.177,2.479,0,.77-.612,1.948-1.451,2.618-1.866a3.555,3.555,0,0,0,1.475-1.778c.351-1.4.89-1.97,1.86-1.97a2.132,2.132,0,0,0,1.176-.315c.665-.586,4.858-1.9,6.923-2.168a10.392,10.392,0,0,0,3.214-.952,11.831,11.831,0,0,1,4.529-.926,13.834,13.834,0,0,0,4.246-.79c1.235-.773,4.514-1.7,4.983-1.41a3.09,3.09,0,0,0,3.339-1.115c.623-1.64,5.128-1.384,5.785.328.327.852,3.2.747,4.38-.159.834-.641.865-.748.282-.972-1.152-.442-.707-1.3,1.068-2.065,2.042-.875,2.554-.912,3.126-.222a3.991,3.991,0,0,0,1.943.759,7.583,7.583,0,0,1,2.232.691c1.066.666,1.243.179.5-1.377-.485-1.016-.556-1.552-.27-2.021a6.156,6.156,0,0,1,4.13-1.953,6.422,6.422,0,0,0,2.381-.607c1.33-.664,6.875-1.231,12.277-1.257,3.869-.019,6.369.654,7.7,2.071a2.785,2.785,0,0,0,2.258.921c1.677,0,2.579.827,1.854,1.7a1.146,1.146,0,0,1-1.121.368,1.141,1.141,0,0,0-1.118.363c-.639.769-.323.848,4.642,1.155,3.578.221,4.112.342,4.275.966s.566.716,3.057.735a31.818,31.818,0,0,1,4.751.395c4.737.938,7.222,1.085,9.047.536a3.832,3.832,0,0,1,2.423-.2,31.767,31.767,0,0,0,5.3.743c2.567.222,6.782.617,9.367.877a37.559,37.559,0,0,0,7.3.165c3-.355,3.635-.051,2.875,1.37-.437.817-.38,1.057.541,2.264.7.921,1.332,1.351,1.979,1.351a21.483,21.483,0,0,1,7.91,2.709,7.046,7.046,0,0,1,2.042,2.027c.531,1.166,1.587,1.155,3.146-.034a4.648,4.648,0,0,1,1.776-.94,7.37,7.37,0,0,0,1.893-.564c1.941-.811,2.637-.742,2.381.236-.2.755-.11.786,1.539.56a5.526,5.526,0,0,0,2.121-.612,2.752,2.752,0,0,1,1.52-.389,16.167,16.167,0,0,0,3.024-.511,4.351,4.351,0,0,0,3.038-2.146,3.992,3.992,0,0,1,2.071-1.78,3.311,3.311,0,0,0,1.486-.641c.7-.622,4.593-1.675,6.2-1.675a2.786,2.786,0,0,0,1.519-.35,11.1,11.1,0,0,1,3.355-.555c2.811-.193,3.07-.285,4.164-1.479a6.01,6.01,0,0,1,3.132-1.777c1.64-.42,2.064-.712,2.563-1.763.581-1.225.571-1.288-.394-2.3a3.633,3.633,0,0,1-.992-1.521,4.252,4.252,0,0,1,2.478-2.833c.814-.2,1.291.043,2.792,1.447,2.14,2,2.96,2.258,6.427,2.01a6.6,6.6,0,0,1,2.82.151c.28.454,2.821-.026,3.565-.673a3.214,3.214,0,0,1,1.791-.516,20.711,20.711,0,0,0,3.912-.752c3.031-.84,6.667-.989,7.355-.3a2.527,2.527,0,0,1,.451,1.518,4.274,4.274,0,0,0,.6,1.984c.561.857.754.9,2.915.687a10.341,10.341,0,0,0,2.69-.507c.8-.588,4.432-.863,11.913-.9,7.431-.038,7.815-.076,8.65-.855a4.282,4.282,0,0,1,2.162-.938c1.029-.1,1.535-.463,2.514-1.814a9.01,9.01,0,0,0,1.251-2.092c.044-.7,2.044-2.315,3.5-2.828a3.281,3.281,0,0,1,2.659-.044,7.543,7.543,0,0,0,1.89.452,1.263,1.263,0,0,1,.968.846,5.892,5.892,0,0,0,1.283,1.736c.882.821,2.491,1.155,5.893,1.223a16.028,16.028,0,0,0,5.613-1.711c1.01-.914,3.328-.743,4.763.351a4.312,4.312,0,0,0,2.778.94c1.313,0,1.818-.255,3.355-1.692a11.054,11.054,0,0,1,2.087-1.692,3.925,3.925,0,0,1,1.209.732c.757.6,1.1.656,1.827.324.7-.318,1.19-.269,2.231.225,1.283.609,1.335.711,1.335,2.638a3.736,3.736,0,0,0,.528,2.443,23.933,23.933,0,0,0,5.16,1.105c4.347.626,4.645.723,4.857,1.582.186.757.43.9,1.409.821a8.627,8.627,0,0,0,2.606-.811,14.111,14.111,0,0,1,3.985-.973c1.7-.169,2.633-.438,2.771-.8.308-.8,4.167-2.521,6.325-2.819l5.373-.736,3.493-.477,1.49,1.455a4.994,4.994,0,0,1,1.49,2.18c0,.643.182.7,1.6.471,4.78-.761,4.576-.782,5.673.584.558.695,1.177,1.464,1.377,1.709.563.692,3.687,1.038,4.663.516a10.324,10.324,0,0,1,3.636-.372c5.571.153,9.079-.219,10.977-1.165,1.8-.9,2.1-1.255,1.41-1.681-.778-.481-.327-1.606,1.106-2.758,2.155-1.732,3.659-1.564,2.663.3-.275.513-.18.927.376,1.633a3.4,3.4,0,0,1,.744,1.522c0,.737.274.893,1.849,1.054,1.1.112,1.375-.03,1.907-.99.831-1.5,4.406-2.687,6.4-2.126a31.458,31.458,0,0,0,4.236.631,9.365,9.365,0,0,1,3.128.6,4.661,4.661,0,0,0,1.5.876c1.14.476,1.291.7,1.291,1.929V413.5l3.479-.258c4.7-.349,5.99-.749,7.781-2.419,1.188-1.108,1.527-1.7,1.527-2.664,0-1.4-.421-1.365,5.265-.386,2.686.462,4.329.5,11.176.248,5.153-.189,5.685-.4,8.13-3.155,1.777-2.006,3.458-2.275,3.874-.62.214.854.035,1.192-1.17,2.2-.9.76-1.269,1.291-1,1.458a.8.8,0,0,0,.751.062c.179-.111.628.133,1,.542.5.557,1.158.743,2.608.743a4.923,4.923,0,0,1,2.342.407,13.383,13.383,0,0,0,3.93.717,26.275,26.275,0,0,1,4.487.685,22.409,22.409,0,0,0,6.716.869,1.794,1.794,0,0,1,1.943.75l.656.87,2.623-.68c2.361-.612,2.712-.624,3.51-.111a4.782,4.782,0,0,0,1.827.647c1.178.1,3.336-.386,3.6-.8.107-.173.675-.219,1.263-.1s1.18.033,1.324-.2c.323-.523,2.659-.539,3.621-.025,1.84.985.119,2.4-3.649,3a18.508,18.508,0,0,0-2.7.547c-.076.076.251.664.727,1.307l.865,1.17,3.681-.254c3.162-.218,3.681-.172,3.681.321a1.981,1.981,0,0,1-.94,1.191,1.982,1.982,0,0,0-.94,1.214c0,.476.25.546,1.222.345a10.451,10.451,0,0,1,2.162-.2c.517.027,2.007.038,3.311.026a11.648,11.648,0,0,1,3.729.545,5.273,5.273,0,0,0,3.458.2c1.155-.2,3.5-.453,5.221-.56l3.12-.195.743,1.733.743,1.733,1.946-.23c1.5-.177,2.1-.091,2.613.373.612.554.775.552,2-.029,1.382-.656,2.175-.537,1.862.279-.2.517,2.486,1.385,4.285,1.385,1.83,0,3.492,3.192,2.289,4.4-.634.634.024.824,3.205.926,2.538.081,2.976.2,3.281.865.331.726.613.764,4.8.639,2.807-.083,4.738.023,5.233.287a3.385,3.385,0,0,0,2.4.046c1.467-.339,1.664-.3,2.173.465.945,1.416,2.682,2.906,3.386,2.906a1.994,1.994,0,0,1,1.285.94,2.564,2.564,0,0,0,3.728.282c.726-.642.738-.63.484.47a3.847,3.847,0,0,1-4.026,2.819c-1.865,0-3.9.815-4.237,1.694-.225.587-2.3,1.614-5.317,2.63a25.317,25.317,0,0,0-2.533.976,5.976,5.976,0,0,1-2.14.343c-1.554,0-2.38.594-1.367.983.939.36.683,1.143-.54,1.649a2.413,2.413,0,0,1-2.214.018c-1.909-.791-7.414-.815-9.788-.043-1.156.376-2.863.9-3.794,1.172a7.876,7.876,0,0,0-2.445,1.153,2.541,2.541,0,0,1-2.332.451c-2.3-.309-4.95.571-5.62,1.867-.51.986-.645,1.032-2.358.8-1.174-.156-1.908-.093-2.075.177a1.584,1.584,0,0,1-1.188.418,7.181,7.181,0,0,0-2.328.635,6.481,6.481,0,0,1-2.663.826c-.35.03-.46.4-.347,1.172.282,1.921-.495,2.257-4.4,1.9-3.208-.292-3.428-.264-4.541.585a7.124,7.124,0,0,1-2.454,1.144,26.143,26.143,0,0,0-6.926,3.924,3.984,3.984,0,0,1-1.867.783c-.924.1-1.17.35-1.434,1.44-.711,2.934-.839,2.809,3,2.928,3.154.1,3.494.04,3.868-.658a1.566,1.566,0,0,1,1.467-.766,2.673,2.673,0,0,0,1.737-.752c.8-.884,3.111-1.037,3.422-.226.165.43,1.244.494,5.911.347,3.14-.1,6.132-.187,6.65-.2,2.73-.05,11.338.613,11.507.886a3.752,3.752,0,0,0,1.917.317c3.192,0,6.637.791,7.449,1.709a5.443,5.443,0,0,0,2.256,1.262c.9.245,9.543.576,21.436.821,10.963.226,20.154.479,20.426.563s.4.3.287.486c-.214.346-13.354,6.065-13.935,6.065a21.85,21.85,0,0,0-2.989,1.3c-3.084,1.5-11.8,5.1-18.832,7.781-2.689,1.024-5.4,2.091-6.017,2.372s-1.89.775-2.821,1.1-3.385,1.2-5.453,1.945-4.353,1.489-5.077,1.648a32.248,32.248,0,0,0-4.118,1.492,33.263,33.263,0,0,1-4.513,1.585A19.45,19.45,0,0,0-789.933,501a41.881,41.881,0,0,1-4.325,1.53c-1.551.461-3.545,1.156-4.43,1.544a24.257,24.257,0,0,1-3.009,1.066c-1.431.369-4.534,1.348-8.544,2.7-1.241.417-3.187.977-4.325,1.245s-3.084.839-4.325,1.271-3.949,1.224-6.017,1.762-4.692,1.26-5.829,1.6c-1.926.584-40.685.633-563.74.721C-1703.4,514.5-1956.4,514.4-1956.713,514.226Zm88.378-59.086c0-.207-.264-.376-.586-.376s-.482.169-.354.376a.807.807,0,0,0,.586.376A.366.366,0,0,0-1868.335,455.14Zm112.447-7.669c0-.081-.254-.245-.564-.364s-.564-.053-.564.148.254.364.564.364S-1755.888,447.552-1755.888,447.471Zm31.925-46.631c1.472-1.519.942-2.264-.732-1.027a4.389,4.389,0,0,1-1.446.8.634.634,0,0,0-.368,1.164C-1725.65,402.317-1725.254,402.171-1723.963,400.84Zm21.65-6.6c.278-.45-.429-.9-.93-.586-.421.26-.145.936.382.936A.752.752,0,0,0-1702.313,394.242Zm972.583,22.213c-.111-.179.13-.625.534-.991.659-.6.759-.6.965-.068a1.294,1.294,0,0,1-.014.991A.968.968,0,0,1-729.73,416.455Zm-2.476-6.444c0-.418.251-.752.564-.752s.564.334.564.752-.251.752-.564.752S-732.205,410.429-732.205,410.011Zm-1003-3.221c0-.935.727-2.044,1.341-2.044.881,0,1.075,1.081.338,1.894C-1734.326,407.527-1735.2,407.6-1735.2,406.79Zm37.232-13.514a1.992,1.992,0,0,0-1.362-.564c-.492,0-.894-.2-.894-.441a2.265,2.265,0,0,0-.6-1.1c-.331-.365-.49-.844-.354-1.064.365-.591,2.374-.485,2.725.143.2.355,1.081.583,2.554.658,1.793.092,2.275.25,2.376.777.091.48-.19.725-1.022.891C-1695.182,392.7-1697.388,393.979-1697.972,393.276Zm-23.411-4.977c-.983-.078-1.786-.295-1.786-.483,0-.585,1.316-1.094,1.9-.734a2.119,2.119,0,0,0,1.395.12C-1718.97,386.973-1720.4,388.376-1721.383,388.3Zm6.653-3.144c-.617-1,1.555-1.712,4.629-1.521,1.362.085.974.958-.652,1.465C-1712.6,385.676-1714.392,385.7-1714.73,385.154Zm13.646-5.834c-.73-.73-.2-1.275,1.232-1.275,1.086,0,1.5.157,1.5.564a.532.532,0,0,1-.47.569,6.349,6.349,0,0,0-1.232.21A1.294,1.294,0,0,1-1701.084,379.32Zm43.635-3.054c-.776-.081-1.41-.307-1.41-.5,0-.549,1.654-.416,2.467.2.4.3.645.529.542.5S-1656.674,376.347-1657.45,376.266ZM-2380.083-31.753c-.623-.251-.607-1.631.019-1.631a1.618,1.618,0,0,1,1.392,1.391C-2378.672-31.5-2379.221-31.405-2380.083-31.753Z" transform="translate(2380.541 33.384)" fill="rgba(157,107,199,0.38)"/>
    </g>
  </g>
</svg>
