<svg xmlns="http://www.w3.org/2000/svg" xmlns:xlink="http://www.w3.org/1999/xlink" width="963" height="731" viewBox="0 0 963 731">
  <defs>
    <clipPath id="clip-Plan_de_travail_6">
      <rect width="963" height="731"/>
    </clipPath>
  </defs>
  <g id="Plan_de_travail_6" data-name="Plan de travail – 6" clip-path="url(#clip-Plan_de_travail_6)">
    <g id="Composant_5_11" data-name="Composant 5 – 11" transform="translate(141.725 92)">
      <path id="Tracé_213" data-name="Tracé 213" d="M1743.411,763.63l3.888,2.311,3.467-.945,5.149-1.261,2.942.42-4.728,7.985-3.467,2.206-4.2,5.464-.631-1.891-6.935,4.623-.841-.315-3.152-.21.525-5.674,2.1-4.413.63-5.884,2.1-3.047Z" transform="translate(-1385.857 -361.737)" fill="#f0e1c3" stroke="#fff" stroke-linecap="round" stroke-linejoin="round" stroke-width="0.2"/>
      <path id="Tracé_214" data-name="Tracé 214" d="M1803.149,591.209l1.261,5.253,4.2-2.522,1.471,2.837,2.417,2.627-1.156,3.047.21,5.779.21,3.362,1.366.841.42,5.779-1.261,3.467.84,4.518,5.674,3.572,3.362,3.152,3.362,2.942-1.156,1.681,2.417,4.2.525,7.355,2.732-1.471,1.576,2.837,1.681-.945-.735,7.145,3.047,4.1,2,2.522,2.942,5.464v5.464L1839.5,678.1l-1.891,4.1.736,5.779-2.627,5.989-2.207,3.152-3.993,5.989L1827.945,707l-3.257,4.833-5.253,6.094-5.779,3.362-4.623,5.148-3.467,3.362-4.623,5.779-3.888,3.362-4.1,5.043L1789.7,748.6l-.841,2.206-4.518,2.311-6.409.21-6.619,2.837-3.993,2.522-5.043,2.942-2.837-3.047-2.732-1.156,2.732-3.467-3.677,1.261-7.565,4.833-3.783-1.786-2.522-1.051-2.942-.525-4.308-1.891-1.366-4.2,1.576-5.043.42-3.467-1.471-2.732-4.938-.735,3.362-3.362.946-4.938-4.938,4.623-5.568,1.261,4.728-3.677,2.627-3.888,3.677-3.362,1.681-4.938-7.145,5.674-4.518,2.312-4.518,5.359-3.152-2.732,1.786-3.572-1.471-4.938-1.891-2.522,1.681-1.576-5.569-4.1-3.993-.1-4.2-3.362-10.4.63-8.3,2.417-7.25,2.312-5.253-.42-7.355,3.467-5.569,1.471-2.417,3.572-3.152,2.732-4.938.21-3.782.525-4.413-1.156-4.413.736-3.992.315-4.728,3.572-1.576-.315-3.573,1.891-3.572,2.1-3.993-.21h-3.677l-4.308-4.308-2.522-1.261,1.576-3.888,3.047-.946,1.576-1.471.63-2.417,2.417-4.728.735-3.993-.735-6.83.21-3.888,1.471-3.783-.946-4.413.315-2-1.786-2.732.736-5.253-2-5.359-.1-2.837,1.891,2.942-.526-6.3,2.417,2,1.156,2.627.631-3.467-1.681-5.359-.105-2.1-.84-2,1.366-3.888,1.576-1.681,1.366-3.362.1-3.993,3.257-4.833-.42,5.148,3.257-4.623,5.148-2.312,3.362-2.837,4.938-2.522,2.732-.525,1.471.841,5.044-2.522,3.677-.736,1.156-1.471,1.576-.63,3.257.21,6.515-2,3.677-3.047,2.1-3.572,4.1-3.362.736-2.732.736-3.677,5.148-5.779,1.471,5.884,2.732-1.366-1.576-3.152,2.417-3.257,2.312,1.471,1.576-5.148,3.678-3.362,1.891-2.627,3.047-1.156.42-1.891,2.417.736.42-1.681,2.732-.946,2.942-.946,3.888,3.152,2.732,3.993h3.678l3.677.63-.735-3.677,3.677-5.359,2.837-1.786-.63-1.681,3.047-3.888,3.888-2.417,2.837.84,5.149-1.261L1740,576.6l-4.1-2.206,3.257-.946,3.782,1.681,2.837,2.732,4.728,1.681,1.786-.63,3.467,2.1,3.677-2,2.1.63,1.576-1.366,2.312,3.362-2.1,3.677-2.627,2.732-2,.21.315,2.627-2.312,3.362-2.627,3.362.21,1.891,3.993,3.782,4.2,2.1,2.627,2.312,3.467,3.993h1.681l2.732,1.786.526,2.1,5.148,2.206,4.308-2.311,1.891-3.572,1.786-3.047,1.366-3.677,2.732-5.359-.21-3.257.735-2-.1-3.782,1.471-5.148,1.366-1.366-.63-2.206,1.891-3.572,1.576-3.677.42-2,2.417-2.522,1.366,3.362-.1,4.2,1.366.841-.105,2.837,1.681,3.362-.105,3.888Z" transform="translate(-1392.535 -371.507)" fill="#f0e1c3" stroke="#fff" stroke-linecap="round" stroke-linejoin="round" stroke-width="0.2"/>
      <path id="Tracé_260" data-name="Tracé 260" d="M1748.872,541.948l-3.362,4.623-.21-5.043,1.156-2.417,1.366-2.311,1.261,2Z" transform="translate(-1385.33 -373.206)" fill="#f0e1c3" stroke="#fff" stroke-linecap="round" stroke-linejoin="round" stroke-width="0.2"/>
      <path id="Tracé_263" data-name="Tracé 263" d="M1788.5,519.225l-1.051,21.96-1.681,22.065-4.833-5.569-5.884-1.366-1.576,1.891-7.565.21,2.942-5.464,3.887-1.891-1.051-7.355-2.417-5.569-11.243-5.779-4.833-.525-8.721-6.3-1.891,3.362-2.312.525L1739.114,527l.1-2.942-4.413-3.362,6.514-2.417,4.2.105-.42-1.786h-8.721l-2.312-3.993-5.254-1.261-2.417-3.362,7.985-1.576,3.047-2.206,9.562,2.732.946,2.522,1.366,10.927,5.989,3.993,5.253-7.145,6.935-3.993h5.254l5.043,2.312,4.308,2.417Z" transform="translate(-1386.288 -374.859)" fill="#f0e1c3" stroke="#fff" stroke-linecap="round" stroke-linejoin="round" stroke-width="0.2"/>
      <path id="Tracé_289" data-name="Tracé 289" d="M1868.45,546.178l-1.681.736-2.417-2.627-2.312-4.308-.841-5.148.841-.63.525,2,1.681,1.576,2.522,4.2,2.627,2.312Z" transform="translate(-1379.454 -373.338)" fill="#f0e1c3" stroke="#fff" stroke-linecap="round" stroke-linejoin="round" stroke-width="0.2"/>
      <path id="Tracé_290" data-name="Tracé 290" d="M1847.759,537.431l-3.152.525-1.051,1.891-3.362,1.681-3.152,1.576h-3.257l-4.728-2-3.257-1.891.63-2.1,5.254,1.051,3.362-.525,1.051-3.257.946-.21.315,3.572,3.362-.42,1.891-2.312,3.467-2.417-.42-3.993,3.573-.105,1.156,1.051-.42,3.782Z" transform="translate(-1381.248 -373.626)" fill="#f0e1c3" stroke="#fff" stroke-linecap="round" stroke-linejoin="round" stroke-width="0.2"/>
      <path id="Tracé_291" data-name="Tracé 291" d="M1782.9,562.524l1.681-22.065,1.051-21.96,10.087,4.623,10.822,3.888,3.888,3.467,3.152,3.362.63,3.993,9.667,4.2,1.156,3.572-5.464.735.946,4.518,4.938,4.413,3.152,7.145,3.468-.21-.63,2.942,4.518,1.156-1.891,1.261,5.989,2.837-.946,2-3.993.42-1.261-1.681-4.938-.841-5.884-.946-4.2-4.308-2.942-3.783-2.627-5.884-7.46-2.942-5.148,1.891-3.888,2.312.315,4.938-4.833,2.312-3.257-1.156Z" transform="translate(-1383.424 -374.134)" fill="#f0e1c3" stroke="#fff" stroke-linecap="round" stroke-linejoin="round" stroke-width="0.2"/>
      <path id="Tracé_292" data-name="Tracé 292" d="M1854.279,531.349l-1.891,1.786-.946-3.993-1.156-2.522-2.627-2.207-3.257-2.942-4.2-2,1.681-1.576,3.152,1.891,2,1.471,2.417,1.576,2.207,2.837,2.206,2.207Z" transform="translate(-1380.518 -374.164)" fill="#f0e1c3" stroke="#fff" stroke-linecap="round" stroke-linejoin="round" stroke-width="0.2"/>
      <path id="Tracé_295" data-name="Tracé 295" d="M1889.2,764.537l-.841,2.732,5.884-2.732-.525,2.837-2.207,2.837-4.413,3.047-7.46,4.938-4.938,2.732-.63,3.152-4.2.1-6.619,2.522-4.938,4.308-8.616,6.725-6.619,2.942-4.2,1.891-4.833-.105-1.576-2.206-5.359-.42,1.051-2.522,6.829-4.833,11.978-6.619,4.518-1.261,5.884-2.522,7.355-3.467,5.989-3.467,6.3-4.938,3.257-1.681,3.678-3.783,6.094-3.047Z" transform="translate(-1381.182 -361.803)" fill="#f0e1c3" stroke="#fff" stroke-linecap="round" stroke-linejoin="round" stroke-width="0.2"/>
      <path id="Tracé_296" data-name="Tracé 296" d="M1916.331,734.453l-.42,7.145,3.047-4.623,1.366,1.891-2.522,5.043,3.047,2.206,3.362.525,4.938-2.522,2.311.735L1926,750.844l-4.413,3.888-4.1-.105-2.942,2-1.576,2.942-1.681,1.156-4.833,3.677-6.2,4.518-6.3,2.732.525-1.786-1.576-.946,7.25-5.464.945-3.782-3.993-2.627,1.891-2.417,5.569-2.311,4.413-5.254,2.627-4.308.631-4.518.84-1.156-.946-2.837-.735-5.884.42-4.833,2.311-.525.946,3.783,3.362,1.681Z" transform="translate(-1377.846 -363.765)" fill="#f0e1c3" stroke="#fff" stroke-linecap="round" stroke-linejoin="round" stroke-width="0.2"/>
      <path id="Tracé_378" data-name="Tracé 378" d="M1909.435,467.72l-.21.315-.525-.105v-.21l.525-.42Z" transform="translate(-1377.045 -376.729)" fill="#f0e1c3" stroke="#fff" stroke-linecap="round" stroke-linejoin="round" stroke-width="0.2"/>
      <path id="Tracé_379" data-name="Tracé 379" d="M1881.22,457.1h.42l.315.21.105.42-.21.1.1.21-.1.21h-.63l-.21-.21v-.21l-.21-.315v-.315Z" transform="translate(-1378.46 -377.247)" fill="#f0e1c3" stroke="#fff" stroke-linecap="round" stroke-linejoin="round" stroke-width="0.2"/>
      <path id="Tracé_380" data-name="Tracé 380" d="M1766.53,440.51l.105.315h-.315l-.315.525-.1-.105.315-.841.42-.105Z" transform="translate(-1384.285 -378.098)" fill="#f0e1c3" stroke="#fff" stroke-linecap="round" stroke-linejoin="round" stroke-width="0.2"/>
      <path id="GU" d="M1800.84,415.566l-.1.42v.63l-.105.315h-.315l-.21-.315-.1-.525v-.525l.63-.525.105-.21.1-.525.21-.105.105.21.42.105-.21.525Z" transform="translate(-1382.557 -379.422)" fill="#f0e1c3" stroke="#fff" stroke-linecap="round" stroke-linejoin="round" stroke-width="0.2"/>
      <path id="MV" d="M1402.91,474.805v.21l-.21-.105.21-.21Z" transform="translate(-1402.7 -376.354)" fill="#f0e1c3" stroke="#fff" stroke-linecap="round" stroke-linejoin="round" stroke-width="0.2"/>
      <path id="MH" d="M1953.8,456l1.051.42h-.21Z" transform="translate(-1374.759 -377.302)" fill="#f0e1c3" stroke="#fff" stroke-linecap="round" stroke-linejoin="round" stroke-width="0.2"/>
      <path id="Tracé_385" data-name="Tracé 385" d="M1802.52,411.12l-.1.105-.21-.105-.1-.21.525-.21.21.21Z" transform="translate(-1382.45 -379.599)" fill="#f0e1c3" stroke="#fff" stroke-linecap="round" stroke-linejoin="round" stroke-width="0.2"/>
      <path id="Tracé_386" data-name="Tracé 386" d="M1804.025,406.046h-.21l-.315-.63.1-.315h.315v.315l.21.21Z" transform="translate(-1382.379 -379.883)" fill="#f0e1c3" stroke="#fff" stroke-linecap="round" stroke-linejoin="round" stroke-width="0.2"/>
      <path id="Tracé_387" data-name="Tracé 387" d="M1804.525,404.43l-.21.21.1.315H1804v-.735l.105-.21.42-.21-.105.525Z" transform="translate(-1382.354 -379.949)" fill="#f0e1c3" stroke="#fff" stroke-linecap="round" stroke-linejoin="round" stroke-width="0.2"/>
      <path id="Tracé_388" data-name="Tracé 388" d="M1802.62,396.91h-.315l-.105-.21h.42Z" transform="translate(-1382.445 -380.309)" fill="#f0e1c3" stroke="#fff" stroke-linecap="round" stroke-linejoin="round" stroke-width="0.2"/>
      <path id="Tracé_389" data-name="Tracé 389" d="M1800.7,385.941l-.1-.21v-.525l.315-.105.21.315Z" transform="translate(-1382.526 -380.897)" fill="#f0e1c3" stroke="#fff" stroke-linecap="round" stroke-linejoin="round" stroke-width="0.2"/>
      <path id="Tracé_390" data-name="Tracé 390" d="M1799.52,381.625l-.42-.105v-.315l.21-.105.21.21Z" transform="translate(-1382.602 -381.1)" fill="#f0e1c3" stroke="#fff" stroke-linecap="round" stroke-linejoin="round" stroke-width="0.2"/>
      <path id="Tracé_393" data-name="Tracé 393" d="M1915.24,646.92l-.21.105-.21.42-.42-.21.21-.525.105-.21.315.105Z" transform="translate(-1376.756 -367.644)" fill="#f0e1c3" stroke="#fff" stroke-linecap="round" stroke-linejoin="round" stroke-width="0.2"/>
      <path id="Tracé_394" data-name="Tracé 394" d="M1919.646,639.1l-.1.105.21.42h.315l.42-.21-.1.63-.21.21-.1.42-.526.315-.42-.21v-.105l-.315-.315.1-.21-.21-.21.105-.42-.105-.42h.105l.42.105Z" transform="translate(-1376.538 -368.019)" fill="#f0e1c3" stroke="#fff" stroke-linecap="round" stroke-linejoin="round" stroke-width="0.2"/>
      <path id="Tracé_395" data-name="Tracé 395" d="M1916.991,634.815l-.21.525v.42l-.21.315.315.21.21.105.1.21-.1.21.315.42h-.21l-.21.525-.21.21-.315-.1-.21-.315-.1-.21-.63-.105-.315-.525v-.21l-.105-.315h.315l.315-.21.42-.315.1-.315-.42-.21-.42.105.21-.42.315-.105.21.105.42-.315Z" transform="translate(-1376.721 -368.252)" fill="#f0e1c3" stroke="#fff" stroke-linecap="round" stroke-linejoin="round" stroke-width="0.2"/>
      <path id="Tracé_396" data-name="Tracé 396" d="M1913.545,633.2l-.315.63-.105.315h.315l-.525.525-.21.21-.1-.21.315-.42.21-.525Z" transform="translate(-1376.847 -368.318)" fill="#f0e1c3" stroke="#fff" stroke-linecap="round" stroke-linejoin="round" stroke-width="0.2"/>
      <path id="Tracé_397" data-name="Tracé 397" d="M1913.51,633.22l-.21-.42h.42l.105.42Z" transform="translate(-1376.812 -368.338)" fill="#f0e1c3" stroke="#fff" stroke-linecap="round" stroke-linejoin="round" stroke-width="0.2"/>
      <path id="Tracé_398" data-name="Tracé 398" d="M1899.62,630.8l.21.105.525.946.315.315.315-.105.21-.315.946.525.315.525.735.63.315.42.1.315.42.42.105.21h.21l.315.315.946.21.1.315v.42l.315.42.42.1-.315.525.1.21.42.525h.1l.42.525-.1.42.735.21.42.525h.315l.315.21.525.42-.1.315h.315l.42.525.63.42v.21l.315.105.315.315v.21l.315.63.42.42.105-.105.42.63.526.105.315.315v.42l.105.42.105.105-.21.63-.735.42-.105-.315-.315.1-.315.315-.63-.841h-.42l-.1-.21h-.21l-.21.315-.946-.946h-.21l-.42-.525.1-.841h-.736l-.315-.21-.1-.21-.21-.1h-.315v-.315l-.21-.525-.42.1-.841-.525-.1-.21v-.315l-.315.21-.63-.315-.1-.42-.42-.315-.21-.525-.525-.105.21-.21L1903.3,639l-.315-.1-.315-.736v-.42l-.21-.315h-.315l-.21-.63.1-.21-.736-.42-.315-.21-.42-.63.315-.21-.21-.21-.21-.315v-.525l-.525-.315v-.63l-.21-.315h.315l.1-.315-.1-.21h-.63l-.21-.315.525-.735-.315-.315Z" transform="translate(-1377.527 -368.44)" fill="#f0e1c3" stroke="#fff" stroke-linecap="round" stroke-linejoin="round" stroke-width="0.2"/>
      <path id="Tracé_399" data-name="Tracé 399" d="M1900.715,631.125l-.315-.105.1-.42Z" transform="translate(-1377.466 -368.45)" fill="#f0e1c3" stroke="#fff" stroke-linecap="round" stroke-linejoin="round" stroke-width="0.2"/>
      <path id="Tracé_400" data-name="Tracé 400" d="M1898.416,628.72l-.21.21-.105-.42.21-.21Z" transform="translate(-1377.583 -368.567)" fill="#f0e1c3" stroke="#fff" stroke-linecap="round" stroke-linejoin="round" stroke-width="0.2"/>
      <path id="NR" d="M1933.015,505.315h-.21l-.1-.315h.315v.315Z" transform="translate(-1375.829 -374.818)" fill="#f0e1c3" stroke="#fff" stroke-linecap="round" stroke-linejoin="round" stroke-width="0.2"/>
      <path id="PW" d="M1747.745,453.115l-.21.42.105.105-.21.63.1.21-.525.21-.21-.735.315-.21-.21-.21.315-.63.315-.105.21.315Z" transform="translate(-1385.254 -377.465)" fill="#f0e1c3" stroke="#fff" stroke-linecap="round" stroke-linejoin="round" stroke-width="0.2"/>
      <path id="Tracé_419" data-name="Tracé 419" d="M1926.83,576.2l.315.21-.1.42h.315v.21h-.841l-.315-.526.21-.315Z" transform="translate(-1376.158 -371.208)" fill="#f0e1c3" stroke="#fff" stroke-linecap="round" stroke-linejoin="round" stroke-width="0.2"/>
      <path id="Tracé_420" data-name="Tracé 420" d="M1888.53,575.61h.21l1.051.841.526.315.946.736-.105.315h-.21l-.21.21-.21-.315h-.105l-.21-.21-.105-.42-.42-.105v-.315l-.315-.1-.1.1h-.21l-.946-.42-.21-.42.315-.42Z" transform="translate(-1378.1 -371.249)" fill="#f0e1c3" stroke="#fff" stroke-linecap="round" stroke-linejoin="round" stroke-width="0.2"/>
      <path id="Tracé_421" data-name="Tracé 421" d="M1925.425,574.115l-.21.315-.315-.21v-.21l.315-.21Z" transform="translate(-1376.224 -371.33)" fill="#f0e1c3" stroke="#fff" stroke-linecap="round" stroke-linejoin="round" stroke-width="0.2"/>
      <path id="Tracé_422" data-name="Tracé 422" d="M1923.2,570.2l.1.1h.315l-.1.42-.525.21h-.315l-.42.105-.42.63-.105-.315-.315.105-.21-.21v-.315l.525-.105v-.21l.315-.42.736.1Z" transform="translate(-1376.412 -371.512)" fill="#f0e1c3" stroke="#fff" stroke-linecap="round" stroke-linejoin="round" stroke-width="0.2"/>
      <path id="Tracé_423" data-name="Tracé 423" d="M1896.82,567.4l.315-.1.63.315.525.525.315.315h.21l.21.21h.21l.315.315.315-.105.42.105.21.21h.42l.315-.1.21.315.21.841.315.315v.525l-.21.21.1.315-.42-.21-.315.21-.315-.105-.525-.315h-.21l-.63-.21-.42-.1-.21-.315-.315-.21-.315-.105-.21-.315-.42-.21.21-.42-.105-.42v-.42l-.21-.105-.63-.21-.315.105-.1-.21.1-.315.105-.315Z" transform="translate(-1377.669 -371.659)" fill="#f0e1c3" stroke="#fff" stroke-linecap="round" stroke-linejoin="round" stroke-width="0.2"/>
      <path id="Tracé_424" data-name="Tracé 424" d="M1900.815,564l-.105.21v.735l-.21-.21v-.525Z" transform="translate(-1377.461 -371.827)" fill="#f0e1c3" stroke="#fff" stroke-linecap="round" stroke-linejoin="round" stroke-width="0.2"/>
      <path id="Tracé_425" data-name="Tracé 425" d="M1897.92,562.2l.315.945.21.42v.42l.105.525-.21.315-.42-.736-.1.315-.315-.525.1-1.051.1-.21v-.315Z" transform="translate(-1377.613 -371.918)" fill="#f0e1c3" stroke="#fff" stroke-linecap="round" stroke-linejoin="round" stroke-width="0.2"/>
      <path id="Tracé_426" data-name="Tracé 426" d="M1889.6,562.461h.315l.315-.105.42.105.105-.105h1.366l.21.315.315.105.21.315h.21l.21.105.42.42v.63h.21l.42.21.105.315v.63l-.105.105-.735.21-.21.105-.42-.105-.42-.21h-.42l-.1-.21-.526-.315h-.631l-.525.105h-.525l-.525-.105-.315-.21-.315.105-.315-.42-.315-.21-.315-.841-.21-.42.21-.21-.105-.21v-.735l.105-.315.63-.315.42.21.42.525.105.315Z" transform="translate(-1378.12 -371.969)" fill="#f0e1c3" stroke="#fff" stroke-linecap="round" stroke-linejoin="round" stroke-width="0.2"/>
      <path id="Tracé_427" data-name="Tracé 427" d="M1891.805,560l.525.525-.315.315-.315-.21v-.1Z" transform="translate(-1377.907 -372.029)" fill="#f0e1c3" stroke="#fff" stroke-linecap="round" stroke-linejoin="round" stroke-width="0.2"/>
      <path id="Tracé_428" data-name="Tracé 428" d="M1891.866,560.02l-.21.42h-.1l-.421-.315-.315.105-.21-.105-.1-.21.315-.105.21-.21.526.105Z" transform="translate(-1377.968 -372.05)" fill="#f0e1c3" stroke="#fff" stroke-linecap="round" stroke-linejoin="round" stroke-width="0.2"/>
      <path id="Tracé_429" data-name="Tracé 429" d="M1885.23,559.5l.105.21.21.105-.21.42-.42.21-.315-.42Z" transform="translate(-1378.267 -372.055)" fill="#f0e1c3" stroke="#fff" stroke-linecap="round" stroke-linejoin="round" stroke-width="0.2"/>
      <path id="Tracé_430" data-name="Tracé 430" d="M1876.735,557.705l.21.315-.105.315-.841-.42.525-.315Z" transform="translate(-1378.703 -372.151)" fill="#f0e1c3" stroke="#fff" stroke-linecap="round" stroke-linejoin="round" stroke-width="0.2"/>
      <path id="Tracé_431" data-name="Tracé 431" d="M1880.115,558.54l-.315-.21.1-.315.315-.315v.525l.105.21Z" transform="translate(-1378.511 -372.146)" fill="#f0e1c3" stroke="#fff" stroke-linecap="round" stroke-linejoin="round" stroke-width="0.2"/>
      <path id="Tracé_432" data-name="Tracé 432" d="M1879.245,556.715l.21-.105h.42v.21l-.42.315.21.21v.315l-.42.42-.21.105-.315-.105-.42-.42.105-.63.315-.105.21-.42.315-.1Z" transform="translate(-1378.586 -372.212)" fill="#f0e1c3" stroke="#fff" stroke-linecap="round" stroke-linejoin="round" stroke-width="0.2"/>
      <path id="Tracé_433" data-name="Tracé 433" d="M1875.651,556.851l-.21.105-.21.525.42.525-.526-.21v-.21l-.1-.315-.42-.42v-.21l.42-.21.1-.315.421-.315.315.21v.42Z" transform="translate(-1378.774 -372.242)" fill="#f0e1c3" stroke="#fff" stroke-linecap="round" stroke-linejoin="round" stroke-width="0.2"/>
      <path id="Tracé_434" data-name="Tracé 434" d="M1888.536,556.335l.21.21-.1.21-.21-.105-.63-.525.21-.42.315-.105.21.21-.105.315Z" transform="translate(-1378.105 -372.252)" fill="#f0e1c3" stroke="#fff" stroke-linecap="round" stroke-linejoin="round" stroke-width="0.2"/>
      <path id="Tracé_435" data-name="Tracé 435" d="M1895.061,555.515l.42.841.63.841v.315l-.42.21v.841l.105.21h.21l.21.315.525.42.105.525.1.315.21.21-.21.21.315.315-.105.105.105.525-.21.21.315.315.105.525.21.525v.63l-.105.105-.315-.315-.315-.525v-.315l-.315-.42-.42-.315-.315-.315-.525-.63-.42-.315-.315-.946-.21-1.051-.21-.735v-.525l-.105-.42.42-.42-.1-.315-.526-.735-.1-.315.1-.105.42.105.21.105.316-.315Z" transform="translate(-1377.801 -372.273)" fill="#f0e1c3" stroke="#fff" stroke-linecap="round" stroke-linejoin="round" stroke-width="0.2"/>
      <path id="Tracé_436" data-name="Tracé 436" d="M1874.326,555.235l-.211-.42-.315-.315h.42Z" transform="translate(-1378.815 -372.308)" fill="#f0e1c3" stroke="#fff" stroke-linecap="round" stroke-linejoin="round" stroke-width="0.2"/>
      <path id="Tracé_437" data-name="Tracé 437" d="M1874.2,554.2l.42.1.1.105.105.525h-.21l-.21-.42Z" transform="translate(-1378.794 -372.323)" fill="#f0e1c3" stroke="#fff" stroke-linecap="round" stroke-linejoin="round" stroke-width="0.2"/>
      <path id="Tracé_438" data-name="Tracé 438" d="M1877.422,554.476l-.105.315h.735l.42.735v.21l.21.315.1.525-.21.21v.315l-.63-.21-.21-.21h-.315l-.42-.315-.105-.21-.105-.315.42.105-.315-.84-.105-.21-.525.105-.21.105h-.42l-.315.42-.42-.21v-.631l.21-.21h.42v-.42l.42-.63.42-.315.315-.21.42.315.21.42-.105.735Z" transform="translate(-1378.759 -372.389)" fill="#f0e1c3" stroke="#fff" stroke-linecap="round" stroke-linejoin="round" stroke-width="0.2"/>
      <path id="Tracé_439" data-name="Tracé 439" d="M1871.415,554.476h-.105l-.21-.841.1-.315v-.42l.21.105.1.42v.735Z" transform="translate(-1378.952 -372.389)" fill="#f0e1c3" stroke="#fff" stroke-linecap="round" stroke-linejoin="round" stroke-width="0.2"/>
      <path id="Tracé_440" data-name="Tracé 440" d="M1874.866,553.986l-.315.21-.105-.105h-.42l-.315-.315-.1-.315-.1-.315.1-.315.315-.42.525-.21.21.21.315.525v.63Z" transform="translate(-1378.83 -372.425)" fill="#f0e1c3" stroke="#fff" stroke-linecap="round" stroke-linejoin="round" stroke-width="0.2"/>
      <path id="Tracé_441" data-name="Tracé 441" d="M1871.836,550.4l.42.525v.1l.736.42-.1.315-.631.736v.315l-.315.1v-.42h-.21v-.42l-.21-.42-.315-.21-.1-.315.1-.315.21-.21.21-.21Z" transform="translate(-1378.952 -372.516)" fill="#f0e1c3" stroke="#fff" stroke-linecap="round" stroke-linejoin="round" stroke-width="0.2"/>
      <path id="Tracé_442" data-name="Tracé 442" d="M1882.125,550.5l.315.21-.21.105-.525.105-.1-.315.21-.21Z" transform="translate(-1378.419 -372.516)" fill="#f0e1c3" stroke="#fff" stroke-linecap="round" stroke-linejoin="round" stroke-width="0.2"/>
      <path id="Tracé_443" data-name="Tracé 443" d="M1883.035,550.515l.21-.105.526.315.315.1.21.21.315.525.315.105.315.315v.315l.526.105v.315l.315.105.315-.105.1.105.42.21.105.21.315-.1.315.1.1.315.42.315.315.315.42.315,1.051,1.051-.315.42.315.525.105.63-.315-.1-.315-.42-.735-.841-.42-.105-.526-.42-.63-.1-.1-.315-.63-.21-.526-.525h-.21l-.841-.631-.525-.315v-.21l-.42-.21-.21-.21-.21-.42-.42-.315-.1-.21v-.42l-.42-.525-.21-.1V550.2Z" transform="translate(-1378.384 -372.526)" fill="#f0e1c3" stroke="#fff" stroke-linecap="round" stroke-linejoin="round" stroke-width="0.2"/>
      <path id="Tracé_444" data-name="Tracé 444" d="M1881.5,549.9l.21.21.21-.1.315.21-.105.21-.315-.105Z" transform="translate(-1378.424 -372.542)" fill="#f0e1c3" stroke="#fff" stroke-linecap="round" stroke-linejoin="round" stroke-width="0.2"/>
      <path id="Tracé_445" data-name="Tracé 445" d="M1877,549.3h.526l-.21.21-.315-.105Z" transform="translate(-1378.652 -372.572)" fill="#f0e1c3" stroke="#fff" stroke-linecap="round" stroke-linejoin="round" stroke-width="0.2"/>
      <path id="Tracé_446" data-name="Tracé 446" d="M1881.315,549.3l-.21.525-.1-.21Z" transform="translate(-1378.45 -372.572)" fill="#f0e1c3" stroke="#fff" stroke-linecap="round" stroke-linejoin="round" stroke-width="0.2"/>
      <path id="Tracé_447" data-name="Tracé 447" d="M1878.635,549.725l-.526.105-.21-.21.315-.42.315.105Z" transform="translate(-1378.607 -372.577)" fill="#f0e1c3" stroke="#fff" stroke-linecap="round" stroke-linejoin="round" stroke-width="0.2"/>
      <path id="Tracé_448" data-name="Tracé 448" d="M1866.12,548.8l.21.315-.21.21-.315-.105-.105-.105Z" transform="translate(-1379.225 -372.597)" fill="#f0e1c3" stroke="#fff" stroke-linecap="round" stroke-linejoin="round" stroke-width="0.2"/>
      <path id="Tracé_449" data-name="Tracé 449" d="M1867.64,546.915l.315.21-.1.315-.735.21-.315-.315.315-.63.21-.105Z" transform="translate(-1379.17 -372.709)" fill="#f0e1c3" stroke="#fff" stroke-linecap="round" stroke-linejoin="round" stroke-width="0.2"/>
      <path id="Tracé_450" data-name="Tracé 450" d="M1869.31,546v.525l-.21-.21v-.21Z" transform="translate(-1379.053 -372.739)" fill="#f0e1c3" stroke="#fff" stroke-linecap="round" stroke-linejoin="round" stroke-width="0.2"/>
      <path id="Tracé_451" data-name="Tracé 451" d="M1872.24,544.515l.315.105.421.525.315.21.315.105.315.315.84.42.42.525v.42l.105.63.21.21.315.315h.21l.105.42.735.315.42-.1.105.1v.315l-.315.105-.21.315-.525-.21-.84-.42h-.525l-.315-.42-.735-.42-.63-1.051-.63-1.051-.526-.315-.735-.736v-.735l.315-.21.315.105Z" transform="translate(-1378.937 -372.831)" fill="#f0e1c3" stroke="#fff" stroke-linecap="round" stroke-linejoin="round" stroke-width="0.2"/>
      <path id="TV" d="M1998.9,556.61v-.21h.105v.105l-.105.1Z" transform="translate(-1372.472 -372.212)" fill="#f0e1c3" stroke="#fff" stroke-linecap="round" stroke-linejoin="round" stroke-width="0.2"/>
      <path id="Tracé_470" data-name="Tracé 470" d="M1931.825,631.835l-.525-.21.21-.42.525-.105.21.42-.1.21Z" transform="translate(-1375.9 -368.425)" fill="#f0e1c3" stroke="#fff" stroke-linecap="round" stroke-linejoin="round" stroke-width="0.2"/>
      <path id="Tracé_471" data-name="Tracé 471" d="M1930.651,628.106h-.21l-.315-.1-.42-.525-.1-.42v-.42l.21-.21.105-.42.315-.105h.42l-.21.315v.525l.735.525-.315.315Z" transform="translate(-1375.985 -368.688)" fill="#f0e1c3" stroke="#fff" stroke-linecap="round" stroke-linejoin="round" stroke-width="0.2"/>
      <path id="Tracé_472" data-name="Tracé 472" d="M1930.666,622.135h.315l.105.21-.525.105.1.315.42.21.1.315-.1.42-.42.105-.42-.315h-.42l-.21-.21-.315-.21.1-.42v-.315l.21-.525.315-.42h.525l.21.1-.1.42Z" transform="translate(-1376.001 -368.917)" fill="#f0e1c3" stroke="#fff" stroke-linecap="round" stroke-linejoin="round" stroke-width="0.2"/>
      <path id="Tracé_473" data-name="Tracé 473" d="M1927.661,614.505l.63-.105.105.105.21.63.21.315.105.105-.42.63-.841.21-.315-.315-.105-.525-.315-.105-.42.315-.1-.105.21-.42.42-.315.421-.525Z" transform="translate(-1376.148 -369.271)" fill="#f0e1c3" stroke="#fff" stroke-linecap="round" stroke-linejoin="round" stroke-width="0.2"/>
      <path id="Tracé_474" data-name="Tracé 474" d="M1929.905,610.615l-.105-.315h.315Z" transform="translate(-1375.975 -369.479)" fill="#f0e1c3" stroke="#fff" stroke-linecap="round" stroke-linejoin="round" stroke-width="0.2"/>
      <path id="Tracé_475" data-name="Tracé 475" d="M1928.33,608.2l.105.525v.21l.42.105.21.525h.525v.42l-.1.1-.315-.315-.315-.105-.63.21-.315-.105-.1-.21-.105-.42.21-.525.21-.315Z" transform="translate(-1376.082 -369.586)" fill="#f0e1c3" stroke="#fff" stroke-linecap="round" stroke-linejoin="round" stroke-width="0.2"/>
      <path id="Tracé_476" data-name="Tracé 476" d="M1929.21,608.015h-.105l-.1-.315h.21Z" transform="translate(-1376.016 -369.611)" fill="#f0e1c3" stroke="#fff" stroke-linecap="round" stroke-linejoin="round" stroke-width="0.2"/>
      <path id="Tracé_477" data-name="Tracé 477" d="M1929.511,606.676l-.21.21h-.63l-.315.105-.21-.21-.42-.105-.525-.42.105-.21.525-.21.42-.105.42-.315.105-.315h.21l.1.315v.63l.526.42Z" transform="translate(-1376.107 -369.743)" fill="#f0e1c3" stroke="#fff" stroke-linecap="round" stroke-linejoin="round" stroke-width="0.2"/>
      <path id="Tracé_478" data-name="Tracé 478" d="M1924.776,605.381l.21.315.63.42.735.736.105.105v.42l.21.315-.315.21-.42.42v-.21l-.315-.105h-.42l-.21.105v.21l-.42.21-.315-.105v-.735l-.1-.63.1-.63.105-.525-.21-.525-.63.315-.21-.21-.105-.315v-.315l.315-.315v-.42l.1-.315.315-.105.63.315-.1.21.21.525-.105.21Z" transform="translate(-1376.31 -369.814)" fill="#f0e1c3" stroke="#fff" stroke-linecap="round" stroke-linejoin="round" stroke-width="0.2"/>
      <path id="Tracé_479" data-name="Tracé 479" d="M1924.141,602.941h-.315l-.525-.315v-.105l.21-.315.21-.105.525.105-.1.42Z" transform="translate(-1376.305 -369.895)" fill="#f0e1c3" stroke="#fff" stroke-linecap="round" stroke-linejoin="round" stroke-width="0.2"/>
      <path id="Tracé_480" data-name="Tracé 480" d="M1923.6,601.915l.421-.315.1.105.105.315h-.525Z" transform="translate(-1376.29 -369.92)" fill="#f0e1c3" stroke="#fff" stroke-linecap="round" stroke-linejoin="round" stroke-width="0.2"/>
      <path id="Tracé_481" data-name="Tracé 481" d="M1929.31,604.672l-.21-.105.1-1.261-.1-.315.1-.525.315-.841.1-.525.21.63-.105.315v1.681l-.1.63Z" transform="translate(-1376.011 -369.946)" fill="#f0e1c3" stroke="#fff" stroke-linecap="round" stroke-linejoin="round" stroke-width="0.2"/>
      <path id="Tracé_482" data-name="Tracé 482" d="M1928.051,601.266h-.735l-.315-.105v-.21l.945-.735.525-.21.525-.105v.21l-.315.42-.21.315Z" transform="translate(-1376.117 -370.007)" fill="#f0e1c3" stroke="#fff" stroke-linecap="round" stroke-linejoin="round" stroke-width="0.2"/>
      <path id="Tracé_483" data-name="Tracé 483" d="M1929.915,600.637v.21h-.315l.1-.315.21-1.366v-.105l.1-1.261.21.105-.105,1.366.105.315-.105.525Z" transform="translate(-1375.985 -370.113)" fill="#f0e1c3" stroke="#fff" stroke-linecap="round" stroke-linejoin="round" stroke-width="0.2"/>
      <path id="Tracé_484" data-name="Tracé 484" d="M1923.727,602.209l-.946-.105-.63.315-.105.21h-.21l-.105-.63-.21-.105-.421-1.051.421-.841v-.42l-.105-.21V597.9l-.1-.315v-.525l.21-.315v-.315l.21-.315v-.21l.315-.105.105.525.21.42.21.315.1,1.366-.1.841v.105l.63-.105.315-.315.21-.841v-.21l.315-.21.315.105-.1.42v.946l.315.1v.525l-.21.105.315.42-.21.21v.525l.21.525-.1.21h-.315Z" transform="translate(-1376.417 -370.214)" fill="#f0e1c3" stroke="#fff" stroke-linecap="round" stroke-linejoin="round" stroke-width="0.2"/>
      <path id="Tracé_485" data-name="Tracé 485" d="M1927.841,592.6l.42.315-.105.42-.315.315-.21.21H1927v-.42l.1-.42.21-.315Z" transform="translate(-1376.117 -370.377)" fill="#f0e1c3" stroke="#fff" stroke-linecap="round" stroke-linejoin="round" stroke-width="0.2"/>
      <path id="Tracé_486" data-name="Tracé 486" d="M1928.451,590.746l-.315.21-.21.105v.21l-.21.105v-.315l-.21-.21-.1-.315.1-.42.21-.105.42-.21.105.21.105.42v.105Z" transform="translate(-1376.097 -370.519)" fill="#f0e1c3" stroke="#fff" stroke-linecap="round" stroke-linejoin="round" stroke-width="0.2"/>
      <path id="Tracé_487" data-name="Tracé 487" d="M1923.405,586.53l-.1-.105.1-.525.21.21Z" transform="translate(-1376.305 -370.716)" fill="#f0e1c3" stroke="#fff" stroke-linecap="round" stroke-linejoin="round" stroke-width="0.2"/>
      <path id="Tracé_500" data-name="Tracé 500" d="M1989.115,624.915l-.315.105.1-.42Z" transform="translate(-1372.984 -368.754)" fill="#f0e1c3" stroke="#fff" stroke-linecap="round" stroke-linejoin="round" stroke-width="0.2"/>
      <path id="Tracé_501" data-name="Tracé 501" d="M1981.742,623.3l.21.21.315.105v.315l-.525.21-.525-.315-.525.315h-.315l-.21.315.105.315-.42-.105-.105.21-.42-.105-.1.105-.42-.21.315-.1.21-.105.21-.21.42.1.315-.315.21-.315.525-.105.526-.315Z" transform="translate(-1373.491 -368.82)" fill="#f0e1c3" stroke="#fff" stroke-linecap="round" stroke-linejoin="round" stroke-width="0.2"/>
      <path id="Tracé_502" data-name="Tracé 502" d="M1982.52,623.21l-.21.105-.21-.105.21-.21Z" transform="translate(-1373.324 -368.835)" fill="#f0e1c3" stroke="#fff" stroke-linecap="round" stroke-linejoin="round" stroke-width="0.2"/>
      <path id="Tracé_503" data-name="Tracé 503" d="M1988.426,617.105l.1.525-.21.63-.105-.21-.1-.42h-.21l.1-.525.21-.105Z" transform="translate(-1373.03 -369.139)" fill="#f0e1c3" stroke="#fff" stroke-linecap="round" stroke-linejoin="round" stroke-width="0.2"/>
      <path id="Tracé_504" data-name="Tracé 504" d="M1985.81,615.735h-.105l-.1-.42.21-.21.42-.105v.42l-.211.21Z" transform="translate(-1373.147 -369.241)" fill="#f0e1c3" stroke="#fff" stroke-linecap="round" stroke-linejoin="round" stroke-width="0.2"/>
      <path id="Tracé_505" data-name="Tracé 505" d="M1983.939,613.215l-.1.42.315.21.105.315.315.42.315.1.1.315h.21l.105.42-.315.525.1.21.105.525-.315.21v.525h.21l.105.525-.315.315-.63.21-.105-.21-.315.105-.105.21-.315-.315-.841.315-.841.736-.315-.105-.42.21-.315-.105-.63.105-.315-.21-.946-.315-.315-.105-.63-.105-.21-.105-.525-.21-.21-1.051.315-.735h.315l.316-.105.105-.525.315-.105.105-.42-.21-.21.63-.42.42-.525.105.105.63-.525h.21l.946-.42.63.21.315-.105.525-.21.631-.105.315-.315Z" transform="translate(-1373.587 -369.347)" fill="#f0e1c3" stroke="#fff" stroke-linecap="round" stroke-linejoin="round" stroke-width="0.2"/>
      <path id="Tracé_506" data-name="Tracé 506" d="M1989.91,613.441l-.21.1.21-.946h.42l-.105.42Z" transform="translate(-1372.939 -369.363)" fill="#f0e1c3" stroke="#fff" stroke-linecap="round" stroke-linejoin="round" stroke-width="0.2"/>
      <path id="Tracé_507" data-name="Tracé 507" d="M1978.535,611.405l-.21.315-.526.315v-.315l.42-.42Z" transform="translate(-1373.542 -369.429)" fill="#f0e1c3" stroke="#fff" stroke-linecap="round" stroke-linejoin="round" stroke-width="0.2"/>
      <path id="Tracé_508" data-name="Tracé 508" d="M1993.41,611.071l-.21-.21.105-.21.525-.525.315-.525-.315,1.156Z" transform="translate(-1372.761 -369.515)" fill="#f0e1c3" stroke="#fff" stroke-linecap="round" stroke-linejoin="round" stroke-width="0.2"/>
      <path id="Tracé_509" data-name="Tracé 509" d="M1994.841,606.025l-.42.42-.841,1.156-.315.105-.736.42-.21.63-.42.21-.21.315-.1.21.315.105.63-.315.1-.105.316-.315.21-.315.631-.315.315-.315.63-.315v.315l-.525.735-.21.1.105.63-.315.315-.316-.315h-.42l-.525.105-.42.315-.736.105h-1.051l.525-.525-.42-.21-.63.21-.42.21v.21l-.315.105-.21.105-.105.42-.21.315-.315-.105v-.21l-.42-.105-.42.21-.21.525-.315.21h-.315v-.736l-.21-.42.1-.21-.1-.105-.63.21v-.42l.42-.315h.1l-.1-.525.315-.1.526.315.63-.42h.21l.315-.315h.21l.315-.315v-.21l.841-.105.945-.315.315-.1.42.1.525-.21.21-.42h.21l.21-.42.42.1.1-.21.21.105,1.051-.525.105.315.21-.105.21.105.315-.315.526-.21.1.105-.525.42Z" transform="translate(-1373.141 -369.723)" fill="#f0e1c3" stroke="#fff" stroke-linecap="round" stroke-linejoin="round" stroke-width="0.2"/>
      <circle id="_2" data-name="2" transform="translate(415.552 355.347)" fill="#f0e1c3" stroke="#fff" stroke-linecap="round" stroke-linejoin="round" stroke-width="0.2"/>
    </g>
  </g>
</svg>
