<svg xmlns="http://www.w3.org/2000/svg" xmlns:xlink="http://www.w3.org/1999/xlink" width="855" height="703" viewBox="0 0 855 703">
  <defs>
    <clipPath id="clip-Plan_de_travail_13">
      <rect width="855" height="703"/>
    </clipPath>
  </defs>
  <g id="Plan_de_travail_13" data-name="Plan de travail – 13" clip-path="url(#clip-Plan_de_travail_13)">
    <g id="Composant_6_20" data-name="Composant 6 – 20" transform="translate(212.577 205.032)">
      <path id="AL" d="M1088.1,228l.42,1.261,1.471-.63,1.261,1.786,1.366.736.63,2.417-.526,2.312,1.051,2.837,2.417,1.576.1,1.786-1.786.946-.105,2.206-2.312,3.257-.946-.42-.21-1.471-3.257-2.312-.735-3.152.1-4.623.525-2-.946-1.051-.526-2.206,2-3.257Z" transform="translate(-871.862 -0.523)" fill="#3284c7" stroke="#fff" stroke-linecap="round" stroke-linejoin="round" stroke-width="0.2"/>
      <path id="AT" d="M1072.461,190.942l-.315.841.735,2.206-.21,2.732h-2.942l1.156,1.471-1.366,4.2-.946,1.156-4.623.105-2.522,1.576-4.413-.525-7.67-1.786-1.366-2.206-5.149,1.156-.525,1.261-3.257-.946-2.732-.21-2.417-1.261.736-1.576-.21-1.156,1.471-.315,2.837,1.786.63-1.786,4.623.315,3.677-1.156,2.522.21,1.786,1.366.42-1.156-1.051-4.308,1.786-.841,1.681-3.047,3.993,2.206,2.732-2.732,1.786-.525,4.2,2,2.417-.315,2.522,1.261Z" transform="translate(-874.509 -2.551)" fill="#3284c7" stroke="#fff" stroke-linecap="round" stroke-linejoin="round" stroke-width="0.2"/>
      <path id="BE" d="M1017.408,177.313l-.421,4.413-1.366.21-.42,3.677-4.623-3.047-2.627.525-3.678-3.047-2.522-2.627-2.312-.105L998.6,175l4.1-1.261,3.782.525,4.728-1.366,3.257,2.837,2.942,1.576Z" transform="translate(-876.298 -3.317)" fill="#3284c7" stroke="#fff" stroke-linecap="round" stroke-linejoin="round" stroke-width="0.2"/>
      <path id="BG" d="M1134.207,221.772l-2.417,2.732-1.366,4.728,2.207,3.783-4.833-.841-5.253,2.1.315,3.362-4.833.63-4.1-2.417-4.2,1.891-3.993-.21-.841-4.413-2.942-2.207.735-.841-.63-.841.63-2.1,1.891-2.1-2.942-2.837-.735-2.522,1.156-1.471,1.891,2.732,2-.42,4.2.946,7.985.42,2.417-1.681,6.2-1.576,4.2,2.417,3.257.736Z" transform="translate(-871.112 -1.02)" fill="#3284c7" stroke="#fff" stroke-linecap="round" stroke-linejoin="round" stroke-width="0.2"/>
      <path id="BA" d="M1083.837,214.422l2-.105-1.156,2.942,2.837,2.627-.525,3.047-1.156.315-.946.63-1.681,1.576-.42,3.677-5.043-2.522-2.206-2.837-2.207-1.471-2.627-2.522-1.366-2-2.837-3.152.841-2.732,2.1,1.576,1.051-1.471,2.417-.105,4.728,1.156,3.677-.105,2.522,1.471Z" transform="translate(-872.856 -1.339)" fill="#3284c7" stroke="#fff" stroke-linecap="round" stroke-linejoin="round" stroke-width="0.2"/>
      <path id="BY" d="M1143.79,163.633l-4.1-.21-.841.63,1.576,2.1,2.1,4.2-4.308.315-1.366,1.471.315,3.257-2.207-.63-4.518.315-1.576-1.576-1.786,1.156-2-.946-4.1-.105L1115,172.039l-5.148-.525-3.993.21-2.522,1.681-2.417.315-.526-2.942-2-2.942,2.942-1.366-.42-2.522-1.786-2.417-.63-2.837h4.938l5.043-2.417.525-3.572,3.782-2.1-1.051-2.837,2.837-1.051,4.833-2.417,5.569,1.576.946,1.576,2.522-.736,5.043,1.471,1.156,3.047-.736,1.681,3.993,4.2,2.206,1.156v1.156l3.573,1.156,1.786,1.681-1.681,1.366Z" transform="translate(-871.239 -4.767)" fill="#3284c7" stroke="#fff" stroke-linecap="round" stroke-linejoin="round" stroke-width="0.2"/>
      <path id="CH" d="M1035.3,197.6l.21,1.156-.735,1.576,2.417,1.261,2.732.21-.315,2.627-2.207,1.156-3.993-.841-1.051,2.627-2.522.21-.946-1.051-2.837,2.312-2.627.315-2.311-1.471-1.891-2.837L1016.7,205.9V202.85l3.782-3.677-.21-1.681,2.416.63,1.366-1.156h4.413l1.051-1.366,5.779,2Z" transform="translate(-875.381 -2.166)" fill="#3284c7" stroke="#fff" stroke-linecap="round" stroke-linejoin="round" stroke-width="0.2"/>
      <path id="CZ" d="M1060.369,175.205l2.627,2.1,3.888.525-.21,1.786,2.942,1.366.63-1.681,3.572.736.736,2.1,3.887.315,2.732,3.257H1079.6l-.736,1.156-1.156.315-.21,1.471-.946.315-.1.63-1.681.63-2.312-.105-.63,1.471-2.522-1.261-2.417.315-4.2-2-1.786.525-2.732,2.732-3.993-2.206-3.152-2.732-2.732-1.576-.736-2.837-1.051-1.891,3.573-1.366,1.786-1.681,3.677-1.261,1.156-1.261,1.366.736,2.312-.63Z" transform="translate(-873.87 -3.205)" fill="#3284c7" stroke="#fff" stroke-linecap="round" stroke-linejoin="round" stroke-width="0.2"/>
      <path id="DE" d="M1055.852,159.275l1.471,3.257-1.261,1.786,2,2.206,1.576,3.467-.21,2.312,2.522,4.1-2.312.63-1.366-.735-1.156,1.261-3.677,1.261-1.786,1.681-3.573,1.366,1.051,1.891.735,2.837,2.732,1.576,3.152,2.732-1.681,3.047-1.786.841,1.051,4.308-.42,1.156-1.786-1.366-2.522-.21-3.678,1.156-4.623-.315-.631,1.786-2.837-1.786-1.471.315-5.779-2-1.051,1.366h-4.413l.42-4.728,2.522-4.413L1019.5,188.8l-2.522-1.681.21-2.837-1.051-1.471.42-4.413-1.156-6.83h3.047l1.261-2.417.946-5.884-.946-2.206.841-1.366,4.2-.315,1.051,1.366,3.257-3.152-1.366-2.417-.42-3.572,3.888.841,3.047-.946.315,2.417,5.148,1.471.105,2.312,4.938-1.261,2.732-1.681,5.884,2.522,2.522,2Z" transform="translate(-875.447 -4.402)" fill="#3284c7" stroke="#fff" stroke-linecap="round" stroke-linejoin="round" stroke-width="0.2"/>
      <path id="Tracé_249" data-name="Tracé 249" d="M1046.531,147.857l-2.522,5.148-5.464-3.677-.946-2.627,7.145-2.1Z" transform="translate(-874.321 -4.752)" fill="#3284c7" stroke="#fff" stroke-linecap="round" stroke-linejoin="round" stroke-width="0.2"/>
      <path id="Tracé_250" data-name="Tracé 250" d="M1033.761,152.342l-3.047.946-3.888-.841-2.206-3.572-.42-6.409.63-1.786,1.366-1.891,4.2-.315,1.681-1.786,3.783-1.786v3.257l-1.261,2.1.735,1.681,2.732.946-1.051,2.417-1.471-.63-3.257,4.518Z" transform="translate(-875 -5.243)" fill="#3284c7" stroke="#fff" stroke-linecap="round" stroke-linejoin="round" stroke-width="0.2"/>
      <path id="EE" d="M1114.76,124.641l.946,1.051-2.732,3.572,2.522,5.884-1.681,2-3.993-.105-4.623-2.312-2.206-.735L1099,135.042l-.1-3.677-1.576.841L1093.851,130l-1.051-3.572,5.779-1.786,5.884-.841,5.359.946,4.938-.105Z" transform="translate(-871.522 -5.806)" fill="#3284c7" stroke="#fff" stroke-linecap="round" stroke-linejoin="round" stroke-width="0.2"/>
      <path id="FI" d="M1105.758,70.4l.42,3.993,7.67,3.888-3.047,4.413,6.829,6.619-1.786,5.043,5.149,4.413-.946,3.993,7.775,4.1-.946,3.047-3.573,3.572-8.406,7.775-8.406.525-7.985,2.206-7.46,1.366-3.362-3.362-4.938-2,.105-6.094-3.152-5.464,1.681-3.572,3.467-3.677,9.246-6.514,2.732-1.261-.946-2.522-6.829-2.732-1.891-2.312-1.891-8.931-7.565-3.888-6.3-2.837,2.312-1.471,5.359,2.942,5.569-.21,4.938,1.366,3.572-2.522,1.156-4.2,6.2-1.891,6.094,2.206-.84,3.993Z" transform="translate(-872.607 -8.828)" fill="#3284c7" stroke="#fff" stroke-linecap="round" stroke-linejoin="round" stroke-width="0.2"/>
      <path id="Tracé_251" data-name="Tracé 251" d="M957.029,158.6l-3.677-1.261-3.152.105,1.261-3.467-.946-3.362,4.2-.315,5.148,3.993Z" transform="translate(-878.752 -4.463)" fill="#3284c7" stroke="#fff" stroke-linecap="round" stroke-linejoin="round" stroke-width="0.2"/>
      <path id="Tracé_252" data-name="Tracé 252" d="M973.355,129.5,968,136.33l4.938-.841h5.359l-1.366,5.148-4.518,5.674,5.148.315.315.735,4.413,7.46,3.362,1.051,3.047,7.355,1.471,2.522,6.2,1.156-.63,4.2L993.214,173l2,3.362-4.623,3.362-6.83-.105-8.826,1.891-2.312-1.366-3.467,3.047-4.728-.736-3.783,2.522-2.627-1.261,7.67-6.83,4.623-1.471-7.985-1.051-1.366-2.627,5.359-2-2.627-3.467,1.051-4.2,7.46.63.841-3.783-3.257-3.888-.105-.105-5.989-1.156-1.156-1.681,1.891-2.837-1.576-1.786-2.732,3.047-.105-6.2-2.311-3.152,2-6.514,3.993-5.043,3.782.42Z" transform="translate(-878.372 -5.517)" fill="#3284c7" stroke="#fff" stroke-linecap="round" stroke-linejoin="round" stroke-width="0.2"/>
      <path id="Tracé_253" data-name="Tracé 253" d="M1112.74,272.6l3.257,2.312,4.308-.42,4.2.42v1.261l2.942-.841-.525,2-7.985.525-.105-1.051-6.935-1.366Z" transform="translate(-870.554 1.738)" fill="#3284c7" stroke="#fff" stroke-linecap="round" stroke-linejoin="round" stroke-width="0.2"/>
      <path id="Tracé_254" data-name="Tracé 254" d="M1123.426,240.224l-3.362-.21-2.837-.63-6.514,1.681,4.2,3.783L1112.289,246h-3.047l-3.257-3.467-.946,1.471L1106.72,248l3.047,3.152-2,1.471,3.362,3.047,2.942,2,.42,3.782-5.253-1.786,1.891,3.467-3.467.63,2.627,5.989-3.678.105-4.833-2.942-2.522-5.359-1.366-4.518-2.416-3.047-3.152-3.888-.525-1.891,2.312-3.257.105-2.206L1096,241.8l-.105-1.786,3.572-.525,1.891-1.471,2.942.105.841-1.156,1.051-.21,3.993.21,4.2-1.891,4.1,2.417,4.833-.63-.315-3.362,2.837,1.786-1.156,4.2Z" transform="translate(-871.573 -0.244)" fill="#3284c7" stroke="#fff" stroke-linecap="round" stroke-linejoin="round" stroke-width="0.2"/>
      <path id="HR" d="M1082.808,207.788l1.576,2.627,1.786,1.891-1.786,2.522-2.522-1.471-3.678.105-4.728-1.156-2.417.105-1.051,1.471-2.1-1.576-.841,2.732,2.837,3.152,1.366,2,2.627,2.522,2.207,1.471,2.207,2.837,5.043,2.522-.525,1.051-5.254-2.417-3.362-2.417-5.043-2-4.938-4.833,1.051-.525-2.627-2.837-.315-2.206-3.468-1.051-1.471,2.837-1.681-2.206v-2.312l.1-.105,3.783.21.841-1.051,1.891,1.051,2.1.105-.1-1.786,1.786-.735.315-2.627,4.1-1.786,1.681.841,4.2,2.837,4.518,1.261,1.891-1.051Z" transform="translate(-873.403 -1.745)" fill="#3284c7" stroke="#fff" stroke-linecap="round" stroke-linejoin="round" stroke-width="0.2"/>
      <path id="HU" d="M1097.64,191.966l3.152,1.786.525,1.786-3.047,1.366-2,4.413-2.732,4.518-4.1,1.261-3.362-.315-3.887,1.681-1.891,1.051-4.518-1.261-4.2-2.837-1.681-.841-1.26-2.206-.841-.105,1.366-4.2-1.156-1.471h2.942l.21-2.732,2.837,1.786,2,.63,4.308-.735.315-1.366,2-.21,2.417-.946.63.42,2.417-.841,1.051-1.576,1.681-.42,5.779,2,1.051-.63Z" transform="translate(-872.79 -2.419)" fill="#3284c7" stroke="#fff" stroke-linecap="round" stroke-linejoin="round" stroke-width="0.2"/>
      <path id="IE" d="M957.653,158.585l.736,4.623-4.1,5.779-9.246,3.783-7.145-.946,4.518-6.725-2.206-6.514,7.04-5.043,3.888-2.942.946,3.362-1.261,3.467,3.152-.105,3.677,1.261Z" transform="translate(-879.376 -4.448)" fill="#3284c7" stroke="#fff" stroke-linecap="round" stroke-linejoin="round" stroke-width="0.2"/>
      <path id="IS" d="M926.96,84.52,925.489,88.3l4.623,3.993L923.7,96.813l-13.764,4.1-4.1,1.156-5.884-.946-12.5-1.891L892.5,96.6l-9.456-2.837,8.3-1.156.105-1.786L882.2,89.459l3.782-3.888,6.935-.841,6.3,3.993,7.355-3.152,5.358,1.576L919.6,84.1l7.355.42Z" transform="translate(-882.2 -7.819)" fill="#3284c7" stroke="#fff" stroke-linecap="round" stroke-linejoin="round" stroke-width="0.2"/>
      <path id="IL" d="M1179.455,288.2l.421,2.732-.63,1.051h.105l-.735,2.1-2.207-.841-.735,4.413,1.576.736-1.366.946-.1,1.786,2.627-.841.42,2.627-1.891,10.717-.735-1.681-4.1-9.877,1.471-2.207-.42-.42,1.156-3.152.63-5.043.63-1.786h2l.42-1.156,1.471-.105Z" transform="translate(-867.502 2.529)" fill="#3284c7" stroke="#fff" stroke-linecap="round" stroke-linejoin="round" stroke-width="0.2"/>
      <path id="Tracé_268" data-name="Tracé 268" d="M1069.016,256.4l-1.786,5.359.946,2-.946,3.467-4.413-2.522-2.837-.736-7.88-3.362.525-3.467,6.515.63,5.674-.736Z" transform="translate(-873.586 0.917)" fill="#3284c7" stroke="#fff" stroke-linecap="round" stroke-linejoin="round" stroke-width="0.2"/>
      <path id="Tracé_269" data-name="Tracé 269" d="M1034.474,237.4l3.467,4.728-.42,8.931-2.522-.42-2.206,2.206-2.1-1.786-.525-8.09-1.366-3.783,3.047.315Z" transform="translate(-874.767 -0.047)" fill="#3284c7" stroke="#fff" stroke-linecap="round" stroke-linejoin="round" stroke-width="0.2"/>
      <path id="Tracé_270" data-name="Tracé 270" d="M1057.69,204.093l-.42,3.257,1.471,2.837-4.308-1.051-4.1,2.417.42,3.257-.525,1.891,2,3.362,5.253,3.362,3.047,5.569,6.409,5.359,4.2-.105,1.471,1.471-1.471,1.366,5.043,2.417,4.2,2,4.938,3.572.63,1.156-.841,2.417-3.257-3.152-4.833-1.051-2,4.308,4.1,2.522-.421,3.467-2.206.42-2.627,5.779-2.312.525-.1-2.1.946-3.572,1.156-1.471-2.417-3.888-1.891-3.362-2.312-.841-1.891-2.837-3.573-1.261-2.522-2.732-3.993-.42-4.518-2.942-5.149-4.413-3.888-3.783-2-6.619-2.732-.736-4.413-2.206-2.417.841-3.047,3.152-2.207.42.526-2.837-2.942-.841-1.576-5.148,1.786-2-1.576-2.522.105-1.891,2.312,1.471,2.627-.315,2.837-2.312.946,1.051,2.522-.21,1.051-2.627,3.993.841,2.206-1.156.315-2.627,3.257.946.525-1.261,5.148-1.156,1.366,2.206Z" transform="translate(-875.183 -1.938)" fill="#3284c7" stroke="#fff" stroke-linecap="round" stroke-linejoin="round" stroke-width="0.2"/>
      <path id="JO" d="M1199.185,295.7l-.946,1.051-10.927,3.362,6.3,6.829-1.681,1.051-.736,2.312-4.308.946-1.156,2.417-2.207,2.1-6.514-1.156-.315-.946,1.891-10.717-.42-2.627.631-2-.42-4.2.736-2.1,6.619,2.732,10.192-7.25Z" transform="translate(-867.268 2.494)" fill="#3284c7" stroke="#fff" stroke-linecap="round" stroke-linejoin="round" stroke-width="0.2"/>
      <path id="LB" d="M1179.282,288.646l-1.471.105-.42,1.156H1175.5l1.366-5.569,2.311-4.728v-.21l2.627.315,1.261,2.627-2.837,2.627-.946,3.677Z" transform="translate(-867.329 2.083)" fill="#3284c7" stroke="#fff" stroke-linecap="round" stroke-linejoin="round" stroke-width="0.2"/>
      <path id="LT" d="M1112.413,147.828l1.05,2.837-3.782,2.1-.525,3.572-5.043,2.417h-4.938l-1.471-2-2.627-.735-.63-1.576.21-1.786-2.312-.946-5.359-1.156L1085.2,145.2l5.359-1.891,8.3.42,4.728-.63.946,1.261,2.627.42,5.254,3.047Z" transform="translate(-871.908 -4.828)" fill="#3284c7" stroke="#fff" stroke-linecap="round" stroke-linejoin="round" stroke-width="0.2"/>
      <path id="LU" d="M1017.027,185.608l-1.471.105-1.156-.525.42-3.677,1.366-.21,1.051,1.471Z" transform="translate(-875.497 -2.891)" fill="#3284c7" stroke="#fff" stroke-linecap="round" stroke-linejoin="round" stroke-width="0.2"/>
      <path id="LV" d="M1114.225,136.652l2.627,1.366,1.051,3.047,2.206,3.783-4.833,2.417-2.837,1.051-5.253-3.047-2.627-.42-.946-1.261-4.728.63-8.3-.42-5.359,1.891-.525-4.728,1.786-3.993,4.308-2.1,4.623,4.728,3.888-.21.1-4.833,3.993-1.051,2.206.735,4.623,2.312,3.993.105Z" transform="translate(-871.933 -5.314)" fill="#3284c7" stroke="#fff" stroke-linecap="round" stroke-linejoin="round" stroke-width="0.2"/>
      <path id="MD" d="M1129.932,211.248l-1.366-3.047.21-2.837-.63-2.837-3.572-3.993-2.1-2.732-1.891-1.891-1.681-.736,1.156-.946,3.362-.63,4.2,2,2.1.315,2.732,1.786-.1,2.206,2.1,1.051,1.156,2.732,2.1,1.681-.21,1.051,1.051.63-1.366.525-3.152-.21-.63-.946-1.051.525.63,1.156-1.156,2.206-.63,2.207-1.261.735Z" transform="translate(-870.199 -2.369)" fill="#3284c7" stroke="#fff" stroke-linecap="round" stroke-linejoin="round" stroke-width="0.2"/>
      <path id="MK" d="M1106.164,236.919l-1.051.21-.841,1.156-2.942-.105-1.891,1.471-3.572.525-2.417-1.576-1.051-2.837.525-2.312.735.105.105-1.366,3.047-1.051,1.261-.315,1.786-.315,2.522-.21,2.942,2.206.841,4.413Z" transform="translate(-871.543 -0.406)" fill="#3284c7" stroke="#fff" stroke-linecap="round" stroke-linejoin="round" stroke-width="0.2"/>
      <path id="ME" d="M1091.061,227.428l-.841,1.471-1.471.63-.42-1.261-2,3.257.526,2.207-1.156-.525L1083.916,231l-2.417-1.366.525-1.051.42-3.677,1.681-1.576.946-.63,1.471,1.156.946.946,1.786.735,2.206,1.366-.42.525Z" transform="translate(-872.095 -0.792)" fill="#3284c7" stroke="#fff" stroke-linecap="round" stroke-linejoin="round" stroke-width="0.2"/>
      <path id="Tracé_276" data-name="Tracé 276" d="M1119.034,67.941l-6.725,2.206-3.362.525.841-3.993-6.094-2.206-6.2,1.891-1.156,4.2-3.573,2.522-4.938-1.366-5.569.21-5.359-2.942-2.312,1.471-2.732.21.1,3.783-8.405-.946-.631,3.257h-4.2l-2.417,4.1-3.573,6.409-5.989,8.3,1.891,2.1-1.366,2.312-4.518-.105-2.522,5.674,1.051,8.09,3.257,3.047-.841,7.25-3.573,4.2-1.891,3.572-3.467-3.783-9.036,7.145-6.409,1.471-6.83-3.152-1.891-6.619-2.1-14.184,4.2-3.888,11.873-5.148,8.511-6.2,7.565-8.2L1050,77.923l6.724-4.308,10.822-7.145,8.931-2.522,7.04.315,5.464-4.623,7.775.21,7.355-1.051,14.394,4.1-5.148,1.471Z" transform="translate(-875.797 -9.102)" fill="#3284c7" stroke="#fff" stroke-linecap="round" stroke-linejoin="round" stroke-width="0.2"/>
      <path id="Tracé_277" data-name="Tracé 277" d="M1077.35,25.342l-7.985,2-7.145-1.156,2.312-1.261-2.732-1.576,7.67-.946,2,1.786Z" transform="translate(-873.094 -10.947)" fill="#3284c7" stroke="#fff" stroke-linecap="round" stroke-linejoin="round" stroke-width="0.2"/>
      <path id="Tracé_278" data-name="Tracé 278" d="M1052.4,16.776l13.239,3.572L1056.6,22.24l-1.261,3.572-3.152.946-.946,4.2-4.623.21-8.931-3.047,3.152-1.786-5.989-1.471-8.091-4.1-3.362-3.677,9.771-1.681,2.417,1.576h5.253l1.051-1.576,5.464-.21Z" transform="translate(-875.041 -11.312)" fill="#3284c7" stroke="#fff" stroke-linecap="round" stroke-linejoin="round" stroke-width="0.2"/>
      <path id="Tracé_279" data-name="Tracé 279" d="M1076.83,13.756l7.775,1.576-4.623,2.522-10.612.525-11.243-.841-1.051-1.261h-5.359l-4.518-2.1,11.033-1.261,5.673,1.051,3.257-1.366Z" transform="translate(-873.834 -11.444)" fill="#3284c7" stroke="#fff" stroke-linecap="round" stroke-linejoin="round" stroke-width="0.2"/>
      <path id="PL" d="M1081.218,154.927l6.2.735,9.246-.105,2.627.735,1.471,2,.63,2.837,1.786,2.417.42,2.522-2.942,1.366,2,2.942.526,2.942,3.362,5.674-.315,1.786-2.417.735-3.993,5.464,1.681,2.942-1.156-.42-5.254-2.522-3.677.946-2.522-.63-2.942,1.366-2.837-2.312-2,.946-.315-.42-2.732-3.257-3.888-.315-.735-2.1-3.572-.735-.631,1.681-2.942-1.366.21-1.786-3.888-.525-2.627-2.1-2.522-4.1.21-2.312-1.576-3.467-2-2.206,1.261-1.786-1.471-3.257,3.257-1.891,7.46-2.942,6.094-2.1,5.043,1.051.63,1.576h4.833Z" transform="translate(-873.495 -4.361)" fill="#3284c7" stroke="#fff" stroke-linecap="round" stroke-linejoin="round" stroke-width="0.2"/>
      <path id="PS" d="M1178.442,293.841l.42,4.2-.63,2-2.627.841.105-1.786,1.366-.946-1.576-.736.736-4.413,2.206.841Z" transform="translate(-867.329 2.772)" fill="#3284c7" stroke="#fff" stroke-linecap="round" stroke-linejoin="round" stroke-width="0.2"/>
      <path id="RO" d="M1120.447,193.1l1.681.736,1.891,1.891,2.1,2.732,3.573,3.993.63,2.837-.21,2.837,1.366,3.047,2.522,1.261,2.416-1.156,2.522,1.156.42,1.786-2.417,1.366-1.681-.63-.421,8.09-3.257-.735-4.2-2.417-6.2,1.576-2.417,1.681-7.985-.42-4.2-.946-2,.42-1.891-2.732-1.051-1.156,1.051-1.156-1.366-.735-1.576,1.471-3.257-2-.735-2.732-3.362-1.471-.841-2.206-3.152-2.522,4.1-1.261,2.732-4.518,2-4.413,3.047-1.366,2.1-1.471,3.362.736h3.362l2.627,1.681,1.681-1.051,3.783-.63,1.051-1.576Z" transform="translate(-871.745 -2.293)" fill="#3284c7" stroke="#fff" stroke-linecap="round" stroke-linejoin="round" stroke-width="0.2"/>
      <path id="RS" d="M1103.039,218.819l-1.156,1.471.735,2.522,2.942,2.837-1.891,2.1-.63,2.1.63.841-.735.841-2.521.21-1.786.315-.315-.525.63-.735.42-1.681-.735.105-1.156-1.261-.945-.315-.841-1.051-1.05-.42-.841-.946-.946.42-.525,2.206-1.26.42.42-.525-2.206-1.366-1.786-.736-.946-.946-1.471-1.156,1.156-.315.525-3.047-2.837-2.627,1.156-2.942-2,.105,1.786-2.522-1.786-1.891-1.576-2.627,3.888-1.681,3.362.315,3.152,2.522.841,2.206,3.362,1.471.735,2.732,3.257,2,1.576-1.471,1.366.735-1.051,1.156,1.051,1.156Z" transform="translate(-872.095 -1.639)" fill="#3284c7" stroke="#fff" stroke-linecap="round" stroke-linejoin="round" stroke-width="0.2"/>
      <path id="SK" d="M1099.51,187.852l-1.261,1.786-.736,2.627-1.051.63-5.779-2-1.681.42-1.051,1.576-2.417.841-.63-.42-2.417.946-2,.21-.316,1.366-4.308.736-2-.63-2.837-1.786-.735-2.206.315-.841.63-1.471,2.311.105,1.681-.63.1-.63.945-.315.21-1.471,1.156-.315.736-1.156h1.576l.315.42,2-.946,2.837,2.312,2.942-1.366,2.522.63,3.677-.946Z" transform="translate(-872.663 -2.719)" fill="#3284c7" stroke="#fff" stroke-linecap="round" stroke-linejoin="round" stroke-width="0.2"/>
      <path id="SI" d="M1070.525,204.012l-4.1,1.786-.315,2.627-1.786.735.105,1.786-2.1-.105-1.891-1.051-.841,1.051-3.783-.21,1.156-.525-1.471-2.837.42-3.257,4.413.525,2.522-1.576,4.623-.105.946-1.156.841.105,1.261,2.206Z" transform="translate(-873.414 -1.857)" fill="#3284c7" stroke="#fff" stroke-linecap="round" stroke-linejoin="round" stroke-width="0.2"/>
      <path id="SE" d="M1090.806,87.867l-7.355,1.681-3.677,4.1,1.366,3.677-6.514,4.728-8.2,5.254-2.206,8.511,3.887,4.308,5.043,3.467-3.468,6.935L1064.854,132l-.63,10.507-2.207,5.989-5.989-.63-2.311,5.043-5.779.315-2-5.989-4.728-7.25-4.413-8.826,1.891-3.572,3.572-4.2.841-7.25-3.257-3.047-1.051-8.09,2.522-5.674,4.518.105,1.366-2.312-1.891-2.1,5.989-8.3,3.572-6.409,2.417-4.1h4.2l.63-3.257,8.406.946-.105-3.783,2.732-.21,6.3,2.837,7.565,3.888,1.891,8.931,1.891,2.312Z" transform="translate(-874.361 -8.539)" fill="#3284c7" stroke="#fff" stroke-linecap="round" stroke-linejoin="round" stroke-width="0.2"/>
      <path id="Tracé_294" data-name="Tracé 294" d="M1121.92,240.326l1.261-.736,1.156-4.2L1121.5,233.6l5.254-2.1,4.833.841.946,2.627,5.043,2.1-.735,1.681-6.515.315-2.1,2.1-4.1,3.572-2.1-3.047Z" transform="translate(-870.067 -0.346)" fill="#3284c7" stroke="#fff" stroke-linecap="round" stroke-linejoin="round" stroke-width="0.2"/>
      <path id="UA" d="M1160.293,174.955l2.417,2.837.1,1.261,7.04,2.312,3.782-1.051,3.782,3.047,3.047-.105,8.09,2.1.42,2-1.366,3.362,1.891,3.677-.315,2.206-5.043.42-2.312,1.891.42,2.837-4.1.525L1175,204.48l-4.833.315-4.2,2.522,1.051,4.1,2.942,1.576,5.359-.42-.63,2.417-5.674,1.156-6.62,3.783-3.257-1.366.735-3.047-6.2-2,.735-1.261,4.833-2.206-1.786-1.471-8.511-1.681-.841-2.522-4.728.841-1.366,3.677-3.467,4.833-2.522-1.156-2.417,1.156-2.522-1.261,1.26-.736.63-2.206,1.156-2.206-.63-1.156,1.05-.525.63.946,3.152.21,1.366-.525-1.051-.63.21-1.051-2.1-1.681-1.156-2.732-2.1-1.051.1-2.206-2.732-1.786-2.1-.315-4.2-2-3.362.63-1.156.946h-2.206l-1.051,1.576-3.782.63-1.681,1.051-2.627-1.681h-3.362l-3.362-.736-2.1,1.471-.525-1.786-3.152-1.786.735-2.627,1.261-1.786,1.156.42-1.681-2.942,3.993-5.464,2.417-.735.315-1.786-3.362-5.674,2.417-.315,2.522-1.681,3.993-.21,5.149.525,5.989,1.576,4.1.105,2,.946,1.786-1.156,1.576,1.576,4.518-.315,2.206.63-.315-3.257,1.366-1.471,4.308-.315,1.891.21,1.051-1.471,1.576.315,5.148-.63,3.993,3.677-.946,1.366.84,2,4.1.315Z" transform="translate(-871.35 -3.585)" fill="#3284c7" stroke="#fff" stroke-linecap="round" stroke-linejoin="round" stroke-width="0.2"/>
      <path id="XK" d="M1098.206,231.13l-1.261.315L1093.9,232.5l-.105,1.366-.735-.105-.63-2.417-1.366-.736-1.261-1.786.841-1.471,1.261-.42.525-2.206.946-.42.841.946,1.051.42.84,1.051.946.315,1.156,1.261.735-.105-.42,1.681-.63.735.315.525Z" transform="translate(-871.674 -0.711)" fill="#3284c7" stroke="#fff" stroke-linecap="round" stroke-linejoin="round" stroke-width="0.2"/>
      <path id="NL" d="M1017.21,177.947l-2.942-1.576-3.257-2.837-4.728,1.366-3.782-.525,2.627-1.786,4.2-9.456,6.83-2.732,4.2.21.946,2.206-.946,5.884-1.261,2.417h-3.047l1.156,6.83Z" transform="translate(-876.101 -3.951)" fill="#3284c7" stroke="#fff" stroke-linecap="round" stroke-linejoin="round" stroke-width="0.2"/>
      <path id="PT" d="M947.438,265.378l-2.312,1.681-2.942-.946-2.837.736.946-5.254-.315-4.1-2.522-.63-1.156-2.522.525-4.413,2.312-2.417.525-2.732,1.261-3.993v-2.837l-.946-2.417-.21-2.312,2-1.681,2.312-.946,1.261,3.257h3.152l.946-.841,3.257.21,1.366,3.362-2.522,1.786-.315,5.254-.841.946-.315,3.257-2.417.525,2.1,3.993-1.681,4.413,1.891,2-.841,1.786-2.1,2.522.42,2.312Z" transform="translate(-879.457 -0.391)" fill="#3284c7" stroke="#fff" stroke-linecap="round" stroke-linejoin="round" stroke-width="0.2"/>
      <path id="Tracé_300" data-name="Tracé 300" d="M1095.345,155.664l-9.246.105-6.2-.736.735-2.732,6.62-2.1,5.359,1.156,2.312.946-.21,1.786Z" transform="translate(-872.177 -4.468)" fill="#3284c7" stroke="#fff" stroke-linecap="round" stroke-linejoin="round" stroke-width="0.2"/>
      <path id="Tracé_304" data-name="Tracé 304" d="M1220.214,62.907l-2.311.42-14.185-.735-2.416-2.417L1193,58.7l-2.1-3.047,3.677-1.156L1192.9,51.56l5.674-4.623-4.2-.63,7.04-4.728-2.627-2.417,7.145-2.732,10.822-3.362,12.293-.946,5.254-1.891,7.04-.63,4.413,2-1.366,1.576L1232.4,35.8,1222,38.216l-9.141,5.043-2.942,5.254-3.467,5.254,3.257,4.518Z" transform="translate(-866.549 -10.582)" fill="#3284c7" stroke="#fff" stroke-linecap="round" stroke-linejoin="round" stroke-width="0.2"/>
      <path id="Tracé_307" data-name="Tracé 307" d="M1165.916,13.181l-4.518.525-3.047.42v.735l-3.782.735-4.728-1.051L1151,13.076l-8.2-.105,6.619-.841h5.464l1.576,1.156,1.366-1.051,2.942-.735,6.094.946Z" transform="translate(-868.987 -11.5)" fill="#3284c7" stroke="#fff" stroke-linecap="round" stroke-linejoin="round" stroke-width="0.2"/>
      <path id="ES" d="M978.552,223.506l2.1,2.522,9.982,3.047,2-1.471,6.094,3.047,6.2-.841.42,3.888-5.149,4.413-6.935,1.471-.525,2.206-3.362,3.677-2.1,5.464,2.1,3.888-3.152,2.942-1.261,4.413-4.2,1.366-3.888,5.148-7.145.105-5.253-.105L960.9,271l-2.206,2.522-2.732-.525-2-2.312-1.471-3.783-5.148-1.051-.42-2.312,2.1-2.522.841-1.786-1.891-2,1.681-4.413-2.1-3.993,2.417-.525.315-3.257.84-.946.315-5.254,2.522-1.786L952.6,233.7l-3.257-.21-.946.841h-3.152l-1.261-3.257-2.312.946-2,1.681.525-4.728-2.1-2.837,7.775-4.833,6.514,1.156h7.25l5.674,1.156,4.518-.42,8.721.315Z" transform="translate(-879.366 -0.863)" fill="#3284c7" stroke="#fff" stroke-linecap="round" stroke-linejoin="round" stroke-width="0.2"/>
      <path id="Tracé_309" data-name="Tracé 309" d="M1035.964,231.674l-1.576,5.148-2.522-1.366-1.366-4.413.946-2.522,3.362-2.522Z" transform="translate(-874.681 -0.625)" fill="#3284c7" stroke="#fff" stroke-linecap="round" stroke-linejoin="round" stroke-width="0.2"/>
      <path id="Tracé_310" data-name="Tracé 310" d="M1016.981,185.512l1.156.525,1.471-.105,2.522,1.681,7.565,1.261-2.522,4.413-.42,4.728-1.366,1.156-2.417-.63.21,1.681L1019.4,203.9v3.047l2.522-1.051,1.891,2.837-.105,1.891,1.576,2.522-1.786,2,1.576,5.148,2.942.841-.525,2.837-4.728,3.783-10.717-1.786-7.775,2.206-.63,3.993-6.2.841-6.094-3.047-2,1.471-9.982-3.047-2.1-2.522,2.837-3.993,1.051-13.239-5.358-6.935-3.888-3.362-7.985-2.522-.42-4.833,6.829-1.366,8.721,1.681-1.576-7.46,4.938,2.837,11.978-5.043,1.576-5.359,4.413-1.366.841,2.312,2.312.105,2.522,2.627,3.677,3.047,2.627-.525Z" transform="translate(-878.078 -3.215)" fill="#3284c7" stroke="#fff" stroke-linecap="round" stroke-linejoin="round" stroke-width="0.2"/>
      <path id="Tracé_358" data-name="Tracé 358" d="M1168.251,276.7l.105.21.315.42-.42-.105h-.315l-.42.21-.315-.315v-.315l.315-.105.21.105Z" transform="translate(-867.75 1.946)" fill="#3284c7" stroke="#fff" stroke-linecap="round" stroke-linejoin="round" stroke-width="0.2"/>
      <path id="Tracé_359" data-name="Tracé 359" d="M1166.891,277.266v.105l-.21.21-.105.63-.1.21h-.315l-.21.21-.525.21-.21.105-.63.315-.42-.105-.525.105-.316.42-.21-.315-.315.105h-.21l-.315-.315-.42.315h-.526l-.525-.21-.525-.105-.42-.315-.315-.63-.315-.315-.21-.736-.21-.315.105-.315.525.315.42-.105.21-.315.105-.315.315-.105.21.105.21-.21h.21l.1.42.525.21.105.21h.631l.63-.525.42.105.315-.21.315.105.42.21.21-.315h.315l.315.42v.63l.315-.21.315.21.105-.105Z" transform="translate(-868.176 1.906)" fill="#3284c7" stroke="#fff" stroke-linecap="round" stroke-linejoin="round" stroke-width="0.2"/>
      <path id="Tracé_371" data-name="Tracé 371" d="M955.615,112l.42.21h.315l.105.21v.42l.21.315-.1.21-.63-.42-.21-.42-.21-.21L955.3,112Z" transform="translate(-878.494 -6.405)" fill="#3284c7" stroke="#fff" stroke-linecap="round" stroke-linejoin="round" stroke-width="0.2"/>
      <path id="Tracé_372" data-name="Tracé 372" d="M955.915,110.405l.841.21.21.21-.105.42-.1.105-.42-.525-.525-.105-.21-.42Z" transform="translate(-878.479 -6.491)" fill="#3284c7" stroke="#fff" stroke-linecap="round" stroke-linejoin="round" stroke-width="0.2"/>
      <path id="Tracé_373" data-name="Tracé 373" d="M954.682,109.093l.084.168h.315v.315h-.42l-.21.21-.63-.21-.21-.105-.21-.315.525-.105.105-.105.585.1-.27-.2.21-.841.525.105.315.525v.105l.63.21.315.525.315.21-.105.63-.525-.42-.21-.21-.21-.105-.1-.21-.21-.21h-.525Z" transform="translate(-878.59 -6.607)" fill="#3284c7" stroke="#fff" stroke-linecap="round" stroke-linejoin="round" stroke-width="0.2"/>
      <path id="Tracé_374" data-name="Tracé 374" d="M958.31,108.42l-.21-.21.315-.21Z" transform="translate(-878.352 -6.607)" fill="#3284c7" stroke="#fff" stroke-linecap="round" stroke-linejoin="round" stroke-width="0.2"/>
      <path id="Tracé_375" data-name="Tracé 375" d="M955.941,108.951l-.42-.21-.315-.315-.105-.315.105-.105.42-.105h.315l.63.42-.105.21.105.21.63.21v.21l-.42.315Z" transform="translate(-878.504 -6.612)" fill="#3284c7" stroke="#fff" stroke-linecap="round" stroke-linejoin="round" stroke-width="0.2"/>
      <path id="Tracé_376" data-name="Tracé 376" d="M958.146,108.33l-.315.42-.315-.21H957.2l.21-.315-.105-.42.105-.105.21.42Z" transform="translate(-878.397 -6.623)" fill="#3284c7" stroke="#fff" stroke-linecap="round" stroke-linejoin="round" stroke-width="0.2"/>
      <path id="Tracé_377" data-name="Tracé 377" d="M957.22,108.335h-.21l-.21-.42.105-.315.21.42Z" transform="translate(-878.418 -6.628)" fill="#3284c7" stroke="#fff" stroke-linecap="round" stroke-linejoin="round" stroke-width="0.2"/>
      <path id="Tracé_383" data-name="Tracé 383" d="M1063.966,271.74l-.21.315-.525-.21-.525-.315v-.525l-.1-.105h.63l.42.315.21.21Z" transform="translate(-873.054 1.652)" fill="#3284c7" stroke="#fff" stroke-linecap="round" stroke-linejoin="round" stroke-width="0.2"/>
      <path id="Tracé_384" data-name="Tracé 384" d="M1062.325,270.62l-.525-.105v-.21l.42-.105.42.315Z" transform="translate(-873.094 1.616)" fill="#3284c7" stroke="#fff" stroke-linecap="round" stroke-linejoin="round" stroke-width="0.2"/>
      <path id="Tracé_496" data-name="Tracé 496" d="M913.017,314.73v.42l-.21.525-.735.525-.526.105-.42.525-.525-.21v-.105l.21-.42v-.42l.21-.315.315-.21h.315l.315-.315h.525l.105-.105.21-.525.21-.105.21.21Z" transform="translate(-880.76 3.842)" fill="#3284c7" stroke="#fff" stroke-linecap="round" stroke-linejoin="round" stroke-width="0.2"/>
      <circle id="_0" data-name="0" transform="translate(121.566 186.604)" fill="#3284c7" stroke="#fff" stroke-linecap="round" stroke-linejoin="round" stroke-width="0.2"/>
    </g>
  </g>
</svg>
