<svg xmlns="http://www.w3.org/2000/svg" xmlns:xlink="http://www.w3.org/1999/xlink" width="855" height="703" viewBox="0 0 855 703">
  <defs>
    <clipPath id="clip-Plan_de_travail_11">
      <rect width="855" height="703"/>
    </clipPath>
  </defs>
  <g id="Plan_de_travail_11" data-name="Plan de travail – 11" clip-path="url(#clip-Plan_de_travail_11)">
    <g id="Composant_8_14" data-name="Composant 8 – 14" transform="translate(48.205 130)">
      <g id="Groupe_62" data-name="Groupe 62" transform="translate(-32.205 -582)">
        <path id="Tracé_240" data-name="Tracé 240" d="M642.326,26.876l-1.891.105-6.935-.315.736-1.366,7.565.105,1.681.841Z" transform="translate(-148.233 582.232)" fill="#69772f" stroke="#fff" stroke-linecap="round" stroke-linejoin="round" stroke-width="0.2"/>
        <path id="Tracé_241" data-name="Tracé 241" d="M583.714,26.006l-9.246,1.471L571,25.9l5.358-1.576,6.3-.525,4.308.735Z" transform="translate(-151.402 582.156)" fill="#69772f" stroke="#fff" stroke-linecap="round" stroke-linejoin="round" stroke-width="0.2"/>
        <path id="Tracé_242" data-name="Tracé 242" d="M591.493,21.756,585.5,22.7h-6.3l1.051-.735L586.24,20.6l1.786.21Z" transform="translate(-150.986 581.994)" fill="#69772f" stroke="#fff" stroke-linecap="round" stroke-linejoin="round" stroke-width="0.2"/>
        <path id="Tracé_243" data-name="Tracé 243" d="M638.116,24.388l-6.935,1.051L629.5,24.283l.63-1.786,2.312-2,4.623.21,1.786.315,2.417,1.681Z" transform="translate(-148.436 581.989)" fill="#69772f" stroke="#fff" stroke-linecap="round" stroke-linejoin="round" stroke-width="0.2"/>
        <path id="Tracé_244" data-name="Tracé 244" d="M624.823,23.228l-1.156,2L618.1,24.7l-4.2-1.576-8.2-.21,5.569-1.366-2.942-1.156,2.312-1.891,6.409.63,7.88,1.786Z" transform="translate(-149.642 581.887)" fill="#69772f" stroke="#fff" stroke-linecap="round" stroke-linejoin="round" stroke-width="0.2"/>
        <path id="Tracé_245" data-name="Tracé 245" d="M679.612,17.245l2.837,1.576-6.83,1.366-11.137,3.677-7.145.315-7.145-.63-1.681-2,2.206-1.681,4.518-1.261H648.3l-2.1-1.576.42-2,5.148-2,4.308-1.366,4.2-.315-.315-1.051,8.721-.21,1.681,2.312,4.938.946,5.043.946Z" transform="translate(-147.589 581.461)" fill="#69772f" stroke="#fff" stroke-linecap="round" stroke-linejoin="round" stroke-width="0.2"/>
        <path id="Tracé_318" data-name="Tracé 318" d="M236.324,122.142l-4.1.946-1.786-1.156-.841-1.681,5.989-1.051,3.152.63Z" transform="translate(-168.711 586.993)" fill="#69772f" stroke="#fff" stroke-linecap="round" stroke-linejoin="round" stroke-width="0.2"/>
        <path id="Tracé_319" data-name="Tracé 319" d="M237.357,99.6l1.261,1.051,3.677-.525,1.681,1.576,3.467.736-1.261.735-5.148,1.261-1.786-1.366-.315-1.051-4.518.315-.315-.525Z" transform="translate(-168.483 585.999)" fill="#69772f" stroke="#fff" stroke-linecap="round" stroke-linejoin="round" stroke-width="0.2"/>
        <path id="BZ" d="M487.886,400.652H486.1l1.366-7.565.735-5.359.105-1.051.736-.315.946.841,2.627-4.1L493.77,383l-.105,1.051h1.051l-.315,1.891-1.366,2.837.42,1.051-.946,2.417.315.63-1.051,3.467-1.366,1.786-1.156.21Z" transform="translate(-155.706 600.368)" fill="#69772f" stroke="#fff" stroke-linecap="round" stroke-linejoin="round" stroke-width="0.2"/>
        <path id="Tracé_217" data-name="Tracé 217" d="M666.067,203.752l3.572.946,4.938-.21-3.467,2.732-2.1.42L663.23,204.8l-.63-2.206,2.627-2Z" transform="translate(-146.757 591.12)" fill="#69772f" stroke="#fff" stroke-linecap="round" stroke-linejoin="round" stroke-width="0.2"/>
        <path id="Tracé_218" data-name="Tracé 218" d="M680.893,187.869l-2.522.105-6.094-2-3.677-3.152,2-.525,6.2,1.681,4.413,2.732Z" transform="translate(-146.453 590.192)" fill="#69772f" stroke="#fff" stroke-linecap="round" stroke-linejoin="round" stroke-width="0.2"/>
        <path id="Tracé_219" data-name="Tracé 219" d="M373.226,192.01l-3.257.946-6.619-2.942V187.7L360.3,185.39l.315-1.891-4.518-1.156.63-3.572,1.576-1.471,4.308,1.366,2.522,1.051,4.308.63.21,2.312.42,3.047,3.362,2.732Z" transform="translate(-162.297 589.939)" fill="#69772f" stroke="#fff" stroke-linecap="round" stroke-linejoin="round" stroke-width="0.2"/>
        <path id="Tracé_220" data-name="Tracé 220" d="M712.6,178.094l-5.254,5.674,4.1-2.206,3.047,1.471-2.522,2.207,3.993,1.786,2.942-1.576,4.518,2-2.942,4.833,3.993-1.156-.315,3.467.525,4.1-3.783,5.884-2.522.21-3.047-1.261,2.627-5.359-1.261-.841L709.028,203l-3.152-.21,4.623-3.152-4.623-1.576-5.779.42-10.087-.21-.21-1.891,3.993-2.417-1.786-1.681,5.674-3.993,8.616-10.4,4.413-3.677L715.962,172l2.206.21L716.593,174Z" transform="translate(-145.378 589.67)" fill="#69772f" stroke="#fff" stroke-linecap="round" stroke-linejoin="round" stroke-width="0.2"/>
        <path id="Tracé_221" data-name="Tracé 221" d="M351.667,156.4l1.576.841,5.254-.525-7.565,7.25.315,5.254h-2l-.736-2.942.525-3.047-.841-2,1.366-2.837Z" transform="translate(-162.698 588.879)" fill="#69772f" stroke="#fff" stroke-linecap="round" stroke-linejoin="round" stroke-width="0.2"/>
        <path id="Tracé_222" data-name="Tracé 222" d="M635.174,108.966l-3.783,3.152-1.786-.525-.105-1.786.42-.42,2.942-1.786,1.786.105Z" transform="translate(-148.436 586.405)" fill="#69772f" stroke="#fff" stroke-linecap="round" stroke-linejoin="round" stroke-width="0.2"/>
        <path id="Tracé_223" data-name="Tracé 223" d="M625.717,105.761l-7.565,3.362-3.152-.21v-1.576l5.253-2.837,6.3.105Z" transform="translate(-149.171 586.248)" fill="#69772f" stroke="#fff" stroke-linecap="round" stroke-linejoin="round" stroke-width="0.2"/>
        <path id="Tracé_224" data-name="Tracé 224" d="M622.972,88.92l-.946,2.627,2.837-.946,1.576,1.576,3.677,2.1,3.993,1.786L632.638,98.9l3.678-.42,2,2-5.254,1.891-6.2-1.471-.841-2.732-6.619,3.257-8.616,3.047.735-3.467-6.619.525,5.989-2.942,3.782-4.728L620.03,88.5Z" transform="translate(-149.683 585.436)" fill="#69772f" stroke="#fff" stroke-linecap="round" stroke-linejoin="round" stroke-width="0.2"/>
        <path id="Tracé_225" data-name="Tracé 225" d="M667.248,80.914l-5.148.315.736-2.837,3.993-3.257,4.518-.735,2.417,1.576-1.576,2.417-.946.841Z" transform="translate(-146.782 584.721)" fill="#69772f" stroke="#fff" stroke-linecap="round" stroke-linejoin="round" stroke-width="0.2"/>
        <path id="Tracé_226" data-name="Tracé 226" d="M593.291,70.184l-4.308,2L584.57,70.5l-4.1.525L576.9,68.5l5.254-1.786L587.3,64.3l3.152,1.576,1.681,1.051.42,1.051Z" transform="translate(-151.102 584.209)" fill="#69772f" stroke="#fff" stroke-linecap="round" stroke-linejoin="round" stroke-width="0.2"/>
        <path id="Tracé_227" data-name="Tracé 227" d="M660.492,220.49l-2.312-3.783,3.047-8.931-1.681-1.891-3.888,1.051-1.156-1.681-5.779,4.938-3.362,5.148-2.942,3.047-2.627,1.051-1.786.315-1.156,1.576H627.08l-8.2.105-2.837,1.156-7.145,4.623v-.105l-.946-.42-2.1.946-2,1.366-1.891-1.156-4.938.841-4.1.946-2,.841-2.417,2.206,1.891.735,1.786-.42h.315l-.315,2-5.043.736-2.942.841-1.786,1.051-2.732-.63-1.681.315-3.047,1.891-4.833,2.1-2.837-.42,2.1-2.312,3.888-3.677,4.308-2.206,1.156-1.891.946-3.152,3.993-3.677.946-4.2,1.156,4.1,3.993.946,2.522-2.206-1.471-5.043-.946-2.1-4.2-1.261-3.993-.735h-4.1l-3.572-.841-.42-1.471-1.471.946-1.261-.21,2-2.206-1.891-.841,2-2.522-1.261-1.891,1.786-1.891-5.464-.946-.1-3.783-.841-.841-3.467-.21-4.308-1.261-1.576.841-1.891,1.576-3.467,1.051-3.257,2.627-5.674-1.786-4.623.841-4.1-2-4.833-1.051-3.467-.42-1.051-1.051.946-3.572h-1.786l-1.366,2.522H378.379l-5.674-6.409-1.681-2.837-7.355-2.732,1.366-5.779,3.783-3.888-4.308-2.837,3.257-5.148-2.206-4.623,2.627-3.362,5.359-3.047,3.362-3.993-4.833-3.993,1.471-7.25,1.156-4.413-1.681-2.837-.841-2.522.63-3.257-6.83,2L358,131.6l-.315-3.993-.525-2.732-2.942-1.681-4.413-.21,37.4-34.358,25.847-21.434,6.3,1.366,3.467,2.732,3.888.525,6.619-2.312,7.355-1.786,5.569.63,9.351-2.417,8.616-1.366.21,2.312,4.728-1.366,4.1-2.627,2.206.63,1.471,5.043,9.982-3.888-4.1,4.308,6.3-.946,3.362-1.576,4.833.315,4.1,2.312,7.88,2.1,4.938.946,4.623-.315,3.047,2.942L512.974,77.6l6.724,1.156,12.5-.63,4.623-1.051,1.471,3.467,7.46-2.837-2.206-2.522,4.728-1.891,5.464-.315,4.1-.525,2.207,1.366,1.576,3.047,5.253-.42,5.569,2.627,7.565-.946,6.3.105,2.522-3.572,4.728-.946,5.148,1.891-4.518,5.464,6.514-4.623,3.362.21,6.725-5.779L609.113,67.4l-3.047-2.312,5.779-6.2,8.616-3.993,4.728.946,2.1,2.417.42,6.3L621.616,67.3l7.04,1.156-4.623,5.779,9.351-4.413L635.7,73.5l-4.518,4.2,1.366,3.888,7.67-4.1,6.83-5.043,4.938-6.2,5.779.42,5.674.841,3.783,2.837-1.786,2.837-5.359,3.047.946,3.047L658.5,82.113l-11.453,4.1-6.83.946-3.362-1.786-3.468,2.942-7.775,4.938-3.152,2.627-8.09,3.993-6.83.42-5.359,2.522-3.047,3.993-5.989.735L584,112.478l-9.877,6.83-5.254,4.833-5.148,7.25,6.3,1.051-1.576,5.779-.841,4.833,7.67-1.261,7.355,2.732,3.467,2.417,1.786,2.942,5.148,1.786,3.783,2.627,7.985.42,5.043.63-3.783,5.464-1.786,6.409.105,7.25,4.623,6.2,4.938-2.1,5.884-6.724,2.417-10.087-1.786-3.362,9.456-3.047,7.88-4.413,5.043-4.413,1.786-4.2-.42-5.359-3.362-4.728,9.351-6.514,1.051-5.569,4.1-9.456,3.993-1.471,7.04,1.681,4.413.63,4.728-1.681,3.257,2.1,3.782,3.572.21,2.312,8.09.525-2.732,5.148-2.417,7.775,3.993,1.051,1.681,3.677L700,132.547l7.88-6.935,4.413-2.837,1.156,5.569,2.732,7.88,2.1,7.565-3.572,3.993,5.043,3.572,3.047,3.572,7.25,1.681,2.522,2v5.464l3.572.841,1.156,2.417-2.1,7.25-4.518,2.417-4.413,2.312-9.246,2.312-8.3,5.253-9.036,1.156-10.612-1.471H681.4l-5.569.42-5.989,4.728-7.775,2.942-10.612,8.616-8.3,6.094,4.938-1.051,11.453-8.721,12.924-5.464,7.985-.63,3.467,3.257-6.409,4.413-.63,7.04.105,5.043,5.884,3.257,9.036-.946,7.565-7.46-1.051,4.833,2.627,2.417-7.775,4.308-13.029,3.993-6.094,2.627-7.565,4.833-3.888-.525,1.576-5.569L675.2,219.44l-8.511.21Z" transform="translate(-162.616 583.733)" fill="#69772f" stroke="#fff" stroke-linecap="round" stroke-linejoin="round" stroke-width="0.2"/>
        <path id="Tracé_228" data-name="Tracé 228" d="M540.572,48.751l-4.938,2.522L546.666,49.7l2.732,2.732,7.67-2.837,1.891,1.786-2.312,5.359,4.518-2.206,2.942-5.569,4.518-.841,3.152.841,2.312,2.206-2.837,5.359-2.522,3.888,4.413,2.732,5.253,2.732-2.732,2.417-7.46.525.841,2.1-3.362,2.1-7.04-.841-5.989-1.576-5.359.315-9.982,2-11.873.841-8.3.525.315-2.732-4.308-1.471-4.518.63L508,66.192l3.467-.63,7.67-.946,5.779.315,6.514-1.051L524.6,62.62l-9.561.42-5.989-.105v-2l12.293-2.312-6.619.105-5.674-1.471,8.2-4.1,5.464-2.206L537.63,47.7Z" transform="translate(-154.596 583.368)" fill="#69772f" stroke="#fff" stroke-linecap="round" stroke-linejoin="round" stroke-width="0.2"/>
        <path id="Tracé_229" data-name="Tracé 229" d="M578.972,47.261l-7.355,3.572L569.2,47.051l2.206-.841,5.779-.21Z" transform="translate(-151.493 583.282)" fill="#69772f" stroke="#fff" stroke-linecap="round" stroke-linejoin="round" stroke-width="0.2"/>
        <path id="Tracé_230" data-name="Tracé 230" d="M687.952,48.972l-.736,1.471-4.308-.105-4.308-.105-5.148.735-.946-.42L670.3,47.712l1.786-1.891,2.311-.42,8.826.63Z" transform="translate(-146.367 583.251)" fill="#69772f" stroke="#fff" stroke-linecap="round" stroke-linejoin="round" stroke-width="0.2"/>
        <path id="Tracé_231" data-name="Tracé 231" d="M648.436,48.667l.315,3.362,7.565-4.308,12.293-2.206,2.417,5.569-3.362,3.572,9.456-1.576,5.569-2.206,7.145,2.732,3.888,2.627-1.156,2.417,8.616-1.261,2,3.572L712,63.167l2.312,2.206.946,5.359L705.7,73.359l8.091,3.783,6.2,1.261,3.467,5.254,6.83.42-3.467,4.1L715.365,95l-4.2-2.522-3.993-5.674-6.2.735-2.417,3.467,2.837,3.362,4.728,2.732,1.051,1.576-.105,5.989-3.783,4.308-4.938-1.681-9.036-4.728,3.782,5.148,2.942,3.677-.315,2.1-11.453-2.417-7.985-3.572-3.992-2.837,2.522-1.786-5.043-3.047L664.827,97l-.946,1.681-13.764.946-2.522-2,5.674-4.413,8.511-.105,9.771-.735-.21-2.1,3.257-2.942,9.246-5.674.42-2.627-.525-1.891L678.8,74.3l-7.46-1.891,3.677-1.471-2.1-3.572-3.572-.315-2-1.891-3.467,1.681-8.3.735-14.71-1.261L633.1,64.638l-6.2-.841-2-2,6.619-2.522H625.53L629,53.711l7.46-4.833,6.3-2.206L654.53,45.2Z" transform="translate(-148.669 583.241)" fill="#69772f" stroke="#fff" stroke-linecap="round" stroke-linejoin="round" stroke-width="0.2"/>
        <path id="Tracé_232" data-name="Tracé 232" d="M597.681,45l3.783,1.156,7.985-.735L608.923,47l-6.409,2.627,3.993,2.312-5.464,4.938-8.826,2.1-3.572-.42-.946-2.1-6.2-4.2,1.786-1.786,7.775.63-.945-3.467Z" transform="translate(-150.869 583.231)" fill="#69772f" stroke="#fff" stroke-linecap="round" stroke-linejoin="round" stroke-width="0.2"/>
        <path id="Tracé_233" data-name="Tracé 233" d="M620.119,50.855l-8.2,4.1-4.623-.21,1.891-4.833,2.732-2.627,4.413-2.312L621.8,43.5l8.3.21,6.514,1.261L626,49.8Z" transform="translate(-149.561 583.155)" fill="#69772f" stroke="#fff" stroke-linecap="round" stroke-linejoin="round" stroke-width="0.2"/>
        <path id="Tracé_234" data-name="Tracé 234" d="M504.658,58.5l-14.185,2.732.63-2.417-6.3-2.942,4.623-2.312,7.88-3.993L505.289,46l.42-3.257,14.71-.841,4.413,1.156,9.982.315,2,1.471,1.681,2.312-6.83,1.366-14.6,3.783L507.39,56.19Z" transform="translate(-155.772 583.074)" fill="#69772f" stroke="#fff" stroke-linecap="round" stroke-linejoin="round" stroke-width="0.2"/>
        <path id="Tracé_235" data-name="Tracé 235" d="M629.534,39.472l-4.308,2-5.464-.42L616.4,39.683l4.728-2.312,7.25-1.471,1.471,1.891Z" transform="translate(-149.1 582.769)" fill="#69772f" stroke="#fff" stroke-linecap="round" stroke-linejoin="round" stroke-width="0.2"/>
        <path id="Tracé_236" data-name="Tracé 236" d="M621.2,30.6l.21,2.417-2.942,2.627-6.094,3.993-7.25.525-3.362-.841,3.573-3.047-6.935.315,4.518-3.993,3.993.21L615,31.02l5.148.315Z" transform="translate(-150.012 582.501)" fill="#69772f" stroke="#fff" stroke-linecap="round" stroke-linejoin="round" stroke-width="0.2"/>
        <path id="Tracé_237" data-name="Tracé 237" d="M582.84,33.347l-.735,1.786,4.623-.841,3.783.21-2.417,2.627-5.359,2.417-14.6.841L555.206,42.7l-6.3.105,1.576-1.681,11.243-2.417-18.808.63L538.5,38.39l12.293-5.043,5.674-1.471,8.721,1.786,3.047,3.047,6.409.42.736-4.938,6.094-1.891,3.257.525Z" transform="translate(-153.049 582.485)" fill="#69772f" stroke="#fff" stroke-linecap="round" stroke-linejoin="round" stroke-width="0.2"/>
        <path id="Tracé_238" data-name="Tracé 238" d="M636.958,28.815l2.417,1.681h7.775l1.471,1.681-2.942,1.891,3.257,1.156,1.261,1.261,5.149.21,5.359.42,7.46-1.051,8.511-.525,6.094.42,2.417,2-1.051,2.1-3.783,1.471-7.04,1.156-4.518-.735-12.4.841-8.406.105-5.884-.63-9.036-1.681,1.681-2.942,2.207-2.522-1.471-2.312-7.355-.63L625.4,30.6l3.993-2.1Z" transform="translate(-148.643 582.394)" fill="#69772f" stroke="#fff" stroke-linecap="round" stroke-linejoin="round" stroke-width="0.2"/>
        <path id="Tracé_239" data-name="Tracé 239" d="M562.5,26.2l-6.094,3.888-5.569,1.786-3.993.21-10.4,2.206-7.46.841L525.2,33.975l12.293-3.888,12.818-3.257,5.779.105Z" transform="translate(-153.724 582.278)" fill="#69772f" stroke="#fff" stroke-linecap="round" stroke-linejoin="round" stroke-width="0.2"/>
        <path id="Tracé_246" data-name="Tracé 246" d="M762.519,2.92l9.141.315,7.04.525,5.464,1.051-1.156,1.051-10.3,1.786-9.456.841-4.2.946h7.88L755.9,12.061l-7.145,1.261L738.983,17l-8.511.735-3.257,1.051-11.873.42,4.623.63-3.467.841.735,2.417-5.253,1.681-7.25,1.366-3.677,1.891-6.935,1.576-.525,1.156,6.83-.21-1.156,1.261-13.344,3.047-8.931-1.471-12.293.841-5.253-.63-7.145-.315,2.207-2.417,8.406-1.156,2.1-3.572,2.732-.315,7.88,2.1-1.786-3.152-5.148-.946,5.253-1.891,7.985-1.156,2.942-1.681-3.152-1.786L682.875,15l9.877.105,2.312.525,7.67-1.681-7.67-.525-13.239.315L677.2,12.272l-.841-1.786-2.627-1.261,1.156-1.366,6.3-.841,4.413-.105,7.775-.63,7.145-1.576,4.1.21,2.522,1.156,5.254-2.1,5.464-.63,6.83-.42,10.927-.21,1.366.42,10.822-.63,7.355.21Z" transform="translate(-147.28 581.076)" fill="#69772f" stroke="#fff" stroke-linecap="round" stroke-linejoin="round" stroke-width="0.2"/>
        <path id="CU" d="M546.326,355.842l2,2.417,5.464-.736,1.891,1.576,4.413,4.2,3.362,3.047,1.891-.105,3.362,1.366-.63,1.891,4.2.315,4.1,2.732-.841,1.576-3.993.841-3.993.315-3.888-.525-8.511.63,4.413-3.677-2.206-1.786-3.783-.42-1.786-2-.841-3.783-3.362.21-5.253-1.786-1.576-1.471-7.46-1.051-1.891-1.261,2.417-1.681-5.674-.315-4.623,3.467-2.417.105-1.051,1.681-2.942.735-2.417-.735,3.362-2,1.576-2.522,2.837-1.471,3.152-1.261,4.518-.63,1.471-.841,4.938.525,4.623.105,5.148,2.312Z" transform="translate(-154.256 598.842)" fill="#69772f" stroke="#fff" stroke-linecap="round" stroke-linejoin="round" stroke-width="0.2"/>
        <path id="DO" d="M585.751,386.6l.315-1.891-1.366-2,1.576-1.156.735-2.627-.1-3.572.841-1.156h4.518l3.362,1.681,1.576-.105.736,2.417,3.257-.21-.42,2,2.627.315,2.627,2.417-2.417,2.732-2.732-1.471-2.732.315-1.891-.315-1.156,1.261-2.312.42-.735-1.681-2,.946-2.837,4.623-1.366-1.051-.105-1.891Z" transform="translate(-150.707 599.922)" fill="#69772f" stroke="#fff" stroke-linecap="round" stroke-linejoin="round" stroke-width="0.2"/>
        <path id="GL" d="M905.259,1.42l20.909,3.152-7.04,1.471-13.659.21-19.438.42,1.471.735,12.924-.525,10.192,1.471,7.355-1.261,2.522,1.471-4.728,2.522,9.666-1.681L943.4,7.83l10.507.841,1.786,1.786L940.142,13.5l-2.312,1.051-11.978.841,8.511.21-5.148,3.362-3.783,3.047-1.261,5.464,3.888,3.362-6.2.105-6.83,1.681,6.619,2.732-.105,4.413-4.413.525,4.308,4.518-9.141.42,4.2,2.1-1.681,1.891-5.989.841-5.779.105,4.413,3.572-.525,2.522-7.67-2.312-2.522,1.471L902,56.792l4.833,3.362.63,4.518-7.775,1.051-2.837-2.206-4.413-3.152.525,3.783-5.674,2.942,11.243.21,5.779.315-12.5,4.938-12.819,4.518-13.344,1.891-4.833.105-5.148,2.206-7.88,6.094-10.717,4.1-3.152.315-6.409,1.366-6.935,1.471-5.043,3.572-1.471,4.2-3.572,3.993-9.036,4.833.315,4.728-3.783,5.043-4.308,5.989-6.829.42-5.254-5.043-9.456-.105-3.362-3.362L767.932,113l-5.043-7.565-.736-3.888,1.576-5.359-3.888-5.359,3.467-4.308-2-2.1,7.355-6.725,7.565-2.206,2.732-2.312,2.942-4.413-5.779,2-2.732.841-4.308.735-4.413-1.786,1.576-3.888,3.152-2.942,3.993-.105,7.985,1.576-5.569-3.572-2.837-1.891-4.623.735L765.621,59.1l7.355-5.043-1.366-2.1-1.156-3.677-1.471-5.674-3.782-2,1.471-2.206-8.511-3.047-8.09-.42-10.612.21-9.982.42-3.257-1.681-3.993-3.257,11.558-1.576,7.985-.21-15.34-1.366-6.83-2,2.312-1.891,16.5-2.312,15.76-2.312,2.942-1.681L748.6,15.6l4.833-1.786,15.445-3.047,5.674-.42.21-1.891L784.218,7.3l11.558-.63H806.7l2.942,1.261,11.137-2.312,7.46,1.576,4.833.315L839.59,8.88l-7.04-2.206,1.681-1.786,13.344-2.312,12.188.21,5.359-1.471L877.625,1l27.633.42Z" transform="translate(-143.867 581)" fill="#69772f" stroke="#fff" stroke-linecap="round" stroke-linejoin="round" stroke-width="0.2"/>
        <path id="GT" d="M489.1,387.505l-.736,5.359L487,400.429h1.786l1.786,1.261.63-1.051,1.576.841-2.942,2.627L486.792,406l-.525,1.261.315,1.366-1.366,1.681-1.471.42.315.841-1.261.736-2.1,1.681-.315.946-2.942-1.156-3.677-.105-2.522-1.366L468.3,409.57l.42-2,.841-1.576-.736-1.261,3.467-5.464h7.565l.42-2.312-.841-.42-.525-1.471-2-1.576-1.891-2.206,2.627-.105.525-3.783h5.464l5.464.105Z" transform="translate(-156.608 600.591)" fill="#69772f" stroke="#fff" stroke-linecap="round" stroke-linejoin="round" stroke-width="0.2"/>
        <path id="HN" d="M521.385,405.824l-2-.105-.946.946-2.1.841H514.87l-1.366.841-1.156-.21-.946-1.051-.63.21-.946,1.576-.525-.105-.21,1.471-2.206,1.786-1.261.841-.63.841-1.576-1.366-1.471,1.786h-1.261l-1.366.105-.21,3.362h-.841l-.841,1.576-1.891.315-.841-2.1-1.786-.63.736-2.732-.736-.736-1.261-.42-2.627.736-.105-.841-1.681-1.156-1.156-1.261-1.681-.63,1.366-1.681-.315-1.366.525-1.261,3.047-1.891,2.942-2.627.63.315,1.366-1.156,1.681-.105.525.525.946-.315,2.732.63,2.732-.21,1.891-.736.841-.735,1.786.315,1.366.42,1.576-.1,1.261-.63,2.627.946.84.21,1.681,1.261,1.576,1.471,2,1.051,1.366,1.786Z" transform="translate(-155.792 601.184)" fill="#69772f" stroke="#fff" stroke-linecap="round" stroke-linejoin="round" stroke-width="0.2"/>
        <path id="HT" d="M587.626,375.366l.105,3.572L587,381.565l-1.576,1.156,1.366,2-.315,1.891-3.782-1.156-2.837.42-3.572-.42-2.837,1.261-2.942-2.1.735-2.206,5.359.946,4.308.525,2.312-1.471-2.417-2.942.42-2.627-3.677-1.051L579.116,374l3.572.21Z" transform="translate(-151.427 599.911)" fill="#69772f" stroke="#fff" stroke-linecap="round" stroke-linejoin="round" stroke-width="0.2"/>
        <path id="JM" d="M556.89,387.313,555,388.469l-3.152-1.156L548.8,384.9l.841-1.576,2.522-.42,1.366.21,3.888.63,2.837,1.576.84,1.891-4.2.105Z" transform="translate(-152.527 600.363)" fill="#69772f" stroke="#fff" stroke-linecap="round" stroke-linejoin="round" stroke-width="0.2"/>
        <path id="Tracé_316" data-name="Tracé 316" d="M549.792,194.936l-6.409,2.1-4.938,2.627-4.833,2.837-.525.946,5.989-1.366,2.207,2.206,4.833-1.576,5.148-2.206,5.674-2.206-3.257,3.467,2.627.841,2.627,2.522,5.359-1.471,5.359-.525.315,1.891,1.576.21,1.261.21,1.576,2.627-4.938.63h-.105l-3.888-.735-4.728,1.261-3.888.63-4.938,4.308-3.152,2.417.42.735,5.779-4.308h.735l-4.938,5.148-3.047,4.623-2.627,3.783-.63,3.257-.841,1.576-.63,1.786.1,3.467.315.525,1.891-.105,1.681-.736,1.471-.841,3.467-3.257,1.891-4.413-.1-4.1,1.471-2.837,2.732-3.257,2.206-2.312,2.837-1.576-.42,2.206,2.311-3.257,1.366-.63,1.786-2.522,3.993,1.366,2.942,2.522-.841,3.047-1.681,3.047-3.993,2.627-.42,1.681h1.051l4.518-2.837,1.681.63-.525,3.888-.735,2.732-3.888,3.677-2.1,2.312-2.837,2.522,2.837,1.366,2.627.42,4.2-.946,3.888-1.786,3.152-.946,4.833-1.891,6.094-3.993.105-.63.315-2,2.837-.841,4.1.315,4.2.525,4.833-2.206.63-2.627-.21-.946,7.145-4.623,2.837-1.156,8.2-.105h9.772l1.156-1.576,1.786-.315,2.627-1.051,2.942-3.047,3.362-5.148,5.779-4.938,1.156,1.681,3.888-1.051,1.681,1.891-3.047,8.931,2.311,3.783.21,2.206-6.725,3.152-6.3,2.312-6.3,2-4.2,3.993-1.366,1.471-1.261,3.572.735,3.467,2.206.21.21-2.417,1.156,1.471-1.051,1.891-3.993,1.051-2.627-.105-4.413,1.156-2.417.315-3.257.315-5.254,2,8.511-1.261,1.156,1.261-8.3,2H614.41l.42-.841-2.206,1.891,1.471.315-2.627,4.833-5.569,5.148L606,253.46l-1.156-.315-1.261-1.681v3.677l1.051,1.156-.63,2.522-2.522,2.627-4.728,5.359-.42-.21,3.047-4.623-2.1-2.522,1.051-5.674-2,2.942v4.308l-3.362-1.051,3.152,2.1-1.576,6.409,1.471.525v2.312l-1.051,6.724-4.833,4.938-6.409,2-4.623,3.993-2.942.42-3.572,2.522-1.366,2.206-7.25,4.413-3.993,3.257-3.677,3.993-2,4.728v4.728l.631,5.779,1.576,4.728-.525,2.942,1.366,7.775-1.051,4.623-.631,2.627-2.1,4.1-1.891.84-2.732-.84-.42-2.942L546.64,343.3l-2.1-5.779-1.681-5.149-.42-2.627,2.1-4.518-.84-3.677-3.257-5.674-2-1.051-6.409,3.152-.946-.42-2.1-3.152-3.152-1.681-6.725.946-4.833-.841-4.518.525-2.627,1.051.63,1.786-.736,2.732.841,1.366-1.261.841-1.891-.946L502.3,321.44l-4.1-.21-3.467-3.572-5.148.841-3.783-1.576-3.677.525-5.254,1.576-6.409,4.938-6.409,2.942-3.888,3.152-2,3.047-1.051,4.728-.42,3.152.63,2.312-2.312.21-3.782-1.471-4.1-2.1-.946-3.152-.21-4.728-2.522-3.783-.946-3.993-1.681-4.623-3.362-2.732-4.728.21-5.043,5.254-4.2-2-2.417-2-.42-3.783-.841-3.467L417.3,308.2,415.092,306l-1.366-2.417H403.85l-.841,2.837H387.144l-11.453-4.728-7.355-3.257.946-1.366-7.46.735-6.619.525.315-3.362-2.207-3.888L351,290.235l.105-1.891-3.047-.42-1.261-1.786-5.043-.63-.946-1.156.841-3.677-2.627-6.724L338.5,264.6l.946-1.576-1.366-2.206-1.576-5.674,1.891-5.464L337.446,246l4.1-5.569,2.942-5.674,1.156-5.148,5.779-6.3,4.2-5.989,4.2-5.989,4.518-8.931,1.891-5.569.42-3.047,1.471-1.366,6.094,2.312-1.051,6.2,2.312-1.786,2.627-5.359,1.681-5.359H523.84l1.366-2.522h1.786l-.946,3.572,1.051,1.051,3.467.42,4.833,1.051,4.1,2,4.623-.841Z" transform="translate(-163.291 590.375)" fill="#69772f" stroke="#fff" stroke-linecap="round" stroke-linejoin="round" stroke-width="0.2"/>
        <path id="Tracé_317" data-name="Tracé 317" d="M275.4,138.859l-7.355,2.417-.841-1.681,2.417-2.942,6.724-2.206,3.677-.946,2.732.42v2Z" transform="translate(-166.804 587.718)" fill="#69772f" stroke="#fff" stroke-linecap="round" stroke-linejoin="round" stroke-width="0.2"/>
        <path id="Tracé_320" data-name="Tracé 320" d="M420.531,67.041,394.683,88.475l-37.4,34.358,4.413.21,2.942,1.681.525,2.732.315,3.993,7.985-3.467,6.83-2-.63,3.257.841,2.522,1.681,2.837-1.156,4.413-1.471,7.25,4.833,3.993-3.362,3.993-5.359,3.047-.63-2.312-2.627-2.1,3.467-5.464-1.681-5.148,2.837-5.884-4.308-.42-7.46-.105-3.993-1.891-3.467-6.409-3.467-1.156-5.989-2.206-7.145.525-6.3-2.837-2.837-2.627-6.619,1.261-3.677,4.308-3.047.42-6.935,1.261-6.514,2.1-6.725,1.366,3.362-3.677,8.826-6.094,7.145-1.891.42-1.471-9.877,3.362-7.775,4.1-11.768,4.413.21,3.047-9.456,4.413-8.09,2.627-6.935,2-4.2,2.732-11.137,3.257-4.728,2.942-8.616,2.732-2.837-.42-6.514,1.681-7.355,2.206-6.409,2.1L202.3,159.923l.42-1.156,8.616-2.942,6.935-2,9.036-3.467,6.83-.63,5.254-2.627,10.927-3.783,2.417-1.261,5.989-2.206,6.094-4.728,6.514-3.677-7.67,1.891-.315-1.156L258.2,134.5l.42-3.152-3.783,2.206,1.681-3.047-7.67,2.417H245.9l3.888-3.677,3.467-2.312-.42-2.206-7.565,1.261-.63-2.942-1.366-1.471,4.2-3.467-.42-2.627,6.2-3.467,8.09-3.467,5.569-3.047,4.308-.42,1.891.946,7.46-2.942,2.627.525,5.884-1.891,2.627-2.732-1.156-1.051,6.3-2.312-2.942.105-6.514,1.261-3.047,1.366-1.891-1.366-7.25.736-4.833-1.471,1.261-2.417L270.6,90.472l9.667-2.522,13.869-2.837h3.677l-4.518,2.942,9.666-.21,1.261-3.677L301.8,81.961l.841-2.942-.735-2.417-3.467-1.786,6.83-3.047,7.88-.21,9.246-2.522,5.043-2.732,8.3-2.732,5.043-.63,11.768-2.522,3.257.42L366.735,57.9l4.623,1.156-.525,2.522,3.467-1.051,6.619.315-2,1.261,5.148.946,5.148-.525,6.514,1.681,7.565.63,2.312.63,6.935-.841,4.308,1.681Z" transform="translate(-170.095 583.885)" fill="#69772f" stroke="#fff" stroke-linecap="round" stroke-linejoin="round" stroke-width="0.2"/>
        <path id="AI" d="M634.21,384.92H634l.315-.42h.315l-.21.315Z" transform="translate(-148.207 600.444)" fill="#69772f" stroke="#fff" stroke-linecap="round" stroke-linejoin="round" stroke-width="0.2"/>
        <path id="Tracé_323" data-name="Tracé 323" d="M640.736,391.915l.63.315-.21.315h-.21l-.735.105-.21-.105v-.525l.315-.105.105-.315h.21Z" transform="translate(-147.903 600.804)" fill="#69772f" stroke="#fff" stroke-linecap="round" stroke-linejoin="round" stroke-width="0.2"/>
        <path id="Tracé_324" data-name="Tracé 324" d="M640.71,388.2h.21l.21.21.105.42-.105.315-.21.105-.105-.21-.315-.21V388.3Z" transform="translate(-147.878 600.631)" fill="#69772f" stroke="#fff" stroke-linecap="round" stroke-linejoin="round" stroke-width="0.2"/>
        <path id="Tracé_325" data-name="Tracé 325" d="M580.593,366.056l-.42.525-.21.525-.63.315h-.525l-.105-.105-.42.21-.525.105-.63-.21-.42.105L576.6,367l.315-.21.21-.315.42-.21.315-.42h.42l.315-.21.21.315.525.21.525-.21.736-1.051h.315v.21Z" transform="translate(-151.118 599.45)" fill="#69772f" stroke="#fff" stroke-linecap="round" stroke-linejoin="round" stroke-width="0.2"/>
        <path id="Tracé_326" data-name="Tracé 326" d="M580.61,364.346l-.21-.63.63-.315.315.315v.21l-.315.105Z" transform="translate(-150.925 599.374)" fill="#69772f" stroke="#fff" stroke-linecap="round" stroke-linejoin="round" stroke-width="0.2"/>
        <path id="Tracé_327" data-name="Tracé 327" d="M581.02,357.81l.21-.105.525.315h.42l.42.105.315.21v.315l-.21.105-.525-.42h-.42l-.105-.105-.525.21-.525-.21v-.105l.21-.525Z" transform="translate(-150.915 599.08)" fill="#69772f" stroke="#fff" stroke-linecap="round" stroke-linejoin="round" stroke-width="0.2"/>
        <path id="Tracé_328" data-name="Tracé 328" d="M577.216,356l-.21.42v.735l-.105.42-.42.315-.21.42-.42.315-.736.315-.1.21-.21-.21.105-.21.42-.105.21-.21v-.21l.42-.105.21-.42.42-.105.315-.42-.21-.315h-.42l-.21-.21.42-.525.1-.105Z" transform="translate(-151.209 598.999)" fill="#69772f" stroke="#fff" stroke-linecap="round" stroke-linejoin="round" stroke-width="0.2"/>
        <path id="Tracé_329" data-name="Tracé 329" d="M575.246,355.725l.105.105h.42l.42.21-.42.42-.1-.21h-.21l-.42-.105-.42-.21-.315-.63.315-.105.42.105Z" transform="translate(-151.234 598.958)" fill="#69772f" stroke="#fff" stroke-linecap="round" stroke-linejoin="round" stroke-width="0.2"/>
        <path id="Tracé_330" data-name="Tracé 330" d="M566.015,349.8l.63.736.315.21.315.525-.315-.105-.105-.21-.315-.105-.42-.42-.21-.105-.21-.42Z" transform="translate(-151.67 598.685)" fill="#69772f" stroke="#fff" stroke-linecap="round" stroke-linejoin="round" stroke-width="0.2"/>
        <path id="Tracé_331" data-name="Tracé 331" d="M569.705,349.8l.315.63.21.525v.42l.21.21.21.735v.946l.21.315.525.21.42.63v.841l-.42-.736v-.21l-.315-.42-.63-.21.21-.21-.315-.315v-.315l.21-.315-.1-.525-.315-.42.105-.105-.315-.42-.105-.63-.21.105Z" transform="translate(-151.472 598.685)" fill="#69772f" stroke="#fff" stroke-linecap="round" stroke-linejoin="round" stroke-width="0.2"/>
        <path id="Tracé_332" data-name="Tracé 332" d="M572.635,349.815l-.315.21-.315-.105-.1-.21.63-.21Z" transform="translate(-151.356 598.669)" fill="#69772f" stroke="#fff" stroke-linecap="round" stroke-linejoin="round" stroke-width="0.2"/>
        <path id="Tracé_333" data-name="Tracé 333" d="M564.42,347.941l-.105-.105L564,347.1h.21Z" transform="translate(-151.756 598.548)" fill="#69772f" stroke="#fff" stroke-linecap="round" stroke-linejoin="round" stroke-width="0.2"/>
        <path id="Tracé_334" data-name="Tracé 334" d="M574.941,347.43l-.42.63h-.42l.21-.315.105-.63.42-.315.105.42Z" transform="translate(-151.244 598.532)" fill="#69772f" stroke="#fff" stroke-linecap="round" stroke-linejoin="round" stroke-width="0.2"/>
        <path id="Tracé_335" data-name="Tracé 335" d="M556.441,346.205l-.315.105-.21.315-.315-.105.63-.42Z" transform="translate(-152.182 598.497)" fill="#69772f" stroke="#fff" stroke-linecap="round" stroke-linejoin="round" stroke-width="0.2"/>
        <path id="Tracé_336" data-name="Tracé 336" d="M556.646,346.956l.42.21.21-.21.105-.525.21-.105.21.63v.525l-.105.315.105.63v.315l-.42.841-.21.105-.42-.21.21-.315.42-.21-.105-.105-.63.42-.21-.21.42-.315h-.42l-.21.105-.21-.21V347.9l.105-.21-.42-.525v-.21l.42-.21.105-.315.315-.105.105-.21.63-.315.105.42-.525.42Z" transform="translate(-152.177 598.482)" fill="#69772f" stroke="#fff" stroke-linecap="round" stroke-linejoin="round" stroke-width="0.2"/>
        <path id="Tracé_337" data-name="Tracé 337" d="M570.2,346.457l.105.525-.21-.105-.525.105-.42.105-.1-.21.315-.21.42-.315v-.21l-.42-.21-.21-.63-.1-.63-.42-.42v-.21l-.525-.525.315-.315.42.42v.525l.21.315.1.525.315.525.42.315.105.315Z" transform="translate(-151.549 598.35)" fill="#69772f" stroke="#fff" stroke-linecap="round" stroke-linejoin="round" stroke-width="0.2"/>
        <path id="Tracé_338" data-name="Tracé 338" d="M559.866,340.8l.315.21-.63.315-.315-.105-.21.21-.525-.105.21-.315.42-.21Z" transform="translate(-152.035 598.228)" fill="#69772f" stroke="#fff" stroke-linecap="round" stroke-linejoin="round" stroke-width="0.2"/>
        <path id="Tracé_339" data-name="Tracé 339" d="M555.722,340.315l.42-.21.315.315-.105.21.105.21-.21.42.315.315.21.946.21.315.42.525-.21.735.105.63-.21.315-.315.105-.42.42-.315.21h-.315l-.315.21h-.315v-.42l-.315-.21.1-.63-.315.315-.21-.105-.63-.42-.315-.315-.21-.315.735-.315.525.736.105-.63-.315-.105-.105-.315.105-.315.63-.63.21-.42-.105-.105.315-.42v-.525l-.21-.735.1-.105h.315Z" transform="translate(-152.304 598.188)" fill="#69772f" stroke="#fff" stroke-linecap="round" stroke-linejoin="round" stroke-width="0.2"/>
        <path id="Tracé_340" data-name="Tracé 340" d="M563.725,337.7l.1.21.315.42.841.736.525.105.1.105.21.42.315.42.525.42v.21l-.21.841-.105.21v.315l-.105.525-.21.315-.105.735-.105.105-.21-.63-.42-.315.105-.21.525.105.21-.21-.105-.21.105-.42.315-.42.105-.525v-.315l-.525-.42-.42-.735-.315-.21-.63-.315-.315-.315-.631-.21-.42.21.42-.946Z" transform="translate(-151.797 598.071)" fill="#69772f" stroke="#fff" stroke-linecap="round" stroke-linejoin="round" stroke-width="0.2"/>
        <path id="Tracé_341" data-name="Tracé 341" d="M555.022,330.225l.525.21h.105l.735.105.21-.21.21.105h.525l.42-.21h.42l.315-.21.1.525-.1.21h-.735l-1.156.21h-.315l-1.576.42-.735.42h-.42l-.21-.105-.315-.315-.525-.63.63.315.1.21h.525l.525-.21.42-.63-.315-.105.21-.315.105-.315Z" transform="translate(-152.339 597.665)" fill="#69772f" stroke="#fff" stroke-linecap="round" stroke-linejoin="round" stroke-width="0.2"/>
        <path id="Tracé_342" data-name="Tracé 342" d="M559.225,328.9l.841.21.21-.105.42.315.946,1.051.21.63.42.105.735.525v.21l-.21.525.21.736h-.42l-.525.42-.105.21-.315,1.051-.105.946-.21.21-.315-.21-.105-.42-.42-.105.315-.525h.21l.525-.42-.105-.42.21-.42V333.1l.21-.315v-.63l.21-.105.21-.315.105-.315-.315-.105-.525-.105-.105-.315v-.21l-.42-.21v-.315l-.315-.735-.21-.105-.315.105-.525-.105h-.315l-.63-.42Z" transform="translate(-152.025 597.625)" fill="#69772f" stroke="#fff" stroke-linecap="round" stroke-linejoin="round" stroke-width="0.2"/>
        <path id="BL" d="M635.2,387.015l-.1-.315.315.105Z" transform="translate(-148.151 600.556)" fill="#69772f" stroke="#fff" stroke-linecap="round" stroke-linejoin="round" stroke-width="0.2"/>
        <path id="BM" d="M637.34,294.005h-.315l-.105.105.105.21-.42.21-.1-.105.21-.105h.105l.1-.315.315-.105.1.105Z" transform="translate(-148.081 595.85)" fill="#69772f" stroke="#fff" stroke-linecap="round" stroke-linejoin="round" stroke-width="0.2"/>
        <path id="Tracé_355" data-name="Tracé 355" d="M532.71,377.815l.315.105.21-.42.42.105h.525l.105.21-.21.21-.21-.105-.42.105-.21.105H532.5Z" transform="translate(-153.354 600.089)" fill="#69772f" stroke="#fff" stroke-linecap="round" stroke-linejoin="round" stroke-width="0.2"/>
        <path id="Tracé_356" data-name="Tracé 356" d="M540.835,375.3l-.735.315.21-.315Z" transform="translate(-152.968 599.977)" fill="#69772f" stroke="#fff" stroke-linecap="round" stroke-linejoin="round" stroke-width="0.2"/>
        <path id="Tracé_357" data-name="Tracé 357" d="M541.405,375.42l-.105-.105.841-.315-.21.315Z" transform="translate(-152.907 599.962)" fill="#69772f" stroke="#fff" stroke-linecap="round" stroke-linejoin="round" stroke-width="0.2"/>
        <path id="Tracé_381" data-name="Tracé 381" d="M636.32,392.03h-.315l-.105-.21.21-.42h.21l.105.21Z" transform="translate(-148.111 600.794)" fill="#69772f" stroke="#fff" stroke-linecap="round" stroke-linejoin="round" stroke-width="0.2"/>
        <path id="Tracé_382" data-name="Tracé 382" d="M635.646,390.525l-.105.315h-.21l-.42-.21-.21-.21.315-.42.525.42Z" transform="translate(-148.172 600.723)" fill="#69772f" stroke="#fff" stroke-linecap="round" stroke-linejoin="round" stroke-width="0.2"/>
        <path id="MF" d="M634.22,386.025l-.42-.105.21-.315.315-.105Z" transform="translate(-148.217 600.495)" fill="#69772f" stroke="#fff" stroke-linecap="round" stroke-linejoin="round" stroke-width="0.2"/>
        <path id="MS" d="M638.215,393.9l.21.42v.315l-.21.21-.21-.105-.1-.315Z" transform="translate(-148.01 600.921)" fill="#69772f" stroke="#fff" stroke-linecap="round" stroke-linejoin="round" stroke-width="0.2"/>
        <path id="Tracé_401" data-name="Tracé 401" d="M607.115,385.92l-.315-.21.1-.21h.315l.1.105Z" transform="translate(-149.586 600.495)" fill="#69772f" stroke="#fff" stroke-linecap="round" stroke-linejoin="round" stroke-width="0.2"/>
        <path id="Tracé_402" data-name="Tracé 402" d="M621.786,385.41h-.21l-.946.315H620l.21-.21.42-.21.42-.1.63.1Z" transform="translate(-148.917 600.479)" fill="#69772f" stroke="#fff" stroke-linecap="round" stroke-linejoin="round" stroke-width="0.2"/>
        <path id="Tracé_403" data-name="Tracé 403" d="M612.276,383.005l.63.105h.63l.315.105.63-.105.315.105.42-.105.21.105.525-.105.42.105h.315l.841.21v-.21l.63.21.105-.105.84.105.21.21h.21l.63.315.21-.105-.105.736.21.315-.946.315-.315.42-.315.63-.315.21-.315.105h-.42l-.63.105-.315.21-.735-.105-.21-.21-.525.21-.315-.315-.735.21-.946-.105-.315.105-.63.105-.21.105-.21-.21-.42-.105-.315.21-.63-.105.315-.736v-.42l.21-.42-.21-.63-.21-.105-.105-.42.42-.21.21-.105v-.525l.42-.21Z" transform="translate(-149.389 600.363)" fill="#69772f" stroke="#fff" stroke-linecap="round" stroke-linejoin="round" stroke-width="0.2"/>
        <path id="SX" d="M634.22,386.005v.105l-.42-.105V385.9Z" transform="translate(-148.217 600.515)" fill="#69772f" stroke="#fff" stroke-linecap="round" stroke-linejoin="round" stroke-width="0.2"/>
        <path id="Tracé_457" data-name="Tracé 457" d="M587.71,361.6h.736l.315.42h-.315l-.315-.105-.525.105-.105-.315Z" transform="translate(-150.565 599.283)" fill="#69772f" stroke="#fff" stroke-linecap="round" stroke-linejoin="round" stroke-width="0.2"/>
        <path id="Tracé_458" data-name="Tracé 458" d="M585.015,361.5l.315.42.63-.105-.21.21h-.63l-.42-.21Z" transform="translate(-150.707 599.278)" fill="#69772f" stroke="#fff" stroke-linecap="round" stroke-linejoin="round" stroke-width="0.2"/>
        <path id="Tracé_459" data-name="Tracé 459" d="M587.23,360.905v.525l-.525-.21-.105-.315.105-.105Z" transform="translate(-150.611 599.242)" fill="#69772f" stroke="#fff" stroke-linecap="round" stroke-linejoin="round" stroke-width="0.2"/>
        <path id="VG" d="M626.146,383.405l-.42.21h-.105l-.315.21-.1-.105.1-.315.63-.105Z" transform="translate(-148.654 600.383)" fill="#69772f" stroke="#fff" stroke-linecap="round" stroke-linejoin="round" stroke-width="0.2"/>
        <path id="Tracé_467" data-name="Tracé 467" d="M624.546,387.81l.315.315-1.156.21-.105-.525.736-.21Z" transform="translate(-148.734 600.601)" fill="#69772f" stroke="#fff" stroke-linecap="round" stroke-linejoin="round" stroke-width="0.2"/>
        <path id="Tracé_468" data-name="Tracé 468" d="M625.236,384.005l-.21.21H624.5v-.21l.315-.105Z" transform="translate(-148.689 600.413)" fill="#69772f" stroke="#fff" stroke-linecap="round" stroke-linejoin="round" stroke-width="0.2"/>
        <path id="Tracé_469" data-name="Tracé 469" d="M623.83,383.8l.42.315-.21.21-.315-.21H623.2l.21-.21Z" transform="translate(-148.755 600.408)" fill="#69772f" stroke="#fff" stroke-linecap="round" stroke-linejoin="round" stroke-width="0.2"/>
        <path id="BQSE" d="M634.31,389.61l-.21.105v-.21l.105-.105.1.21Z" transform="translate(-148.202 600.692)" fill="#69772f" stroke="#fff" stroke-linecap="round" stroke-linejoin="round" stroke-width="0.2"/>
        <path id="BQSA" d="M632.8,388.71H632.7l.105-.21.105.105Z" transform="translate(-148.273 600.647)" fill="#69772f" stroke="#fff" stroke-linecap="round" stroke-linejoin="round" stroke-width="0.2"/>
        <path id="Tracé_497" data-name="Tracé 497" d="M643.025,399.946h-.315l-.21-.42.1-.21.315-.315.315.21.105.315v.21Z" transform="translate(-147.776 601.179)" fill="#69772f" stroke="#fff" stroke-linecap="round" stroke-linejoin="round" stroke-width="0.2"/>
        <path id="Tracé_498" data-name="Tracé 498" d="M641.256,397.325h.315v.315l-.21.105v1.261l-.21.21-.63.315v-.21l-.21-.21-.105-.525v-.525l-.105-.525v-.315l.21-.315.315-.105.525.315Z" transform="translate(-147.898 601.068)" fill="#69772f" stroke="#fff" stroke-linecap="round" stroke-linejoin="round" stroke-width="0.2"/>
        <path id="Tracé_499" data-name="Tracé 499" d="M642.656,396.956l.42.105.525.42-1.366.315-.315.105-.42-.315.105-.63.21-.105-.105-.63.105-.21.315-.21.315.42v.42Z" transform="translate(-147.827 601.017)" fill="#69772f" stroke="#fff" stroke-linecap="round" stroke-linejoin="round" stroke-width="0.2"/>
      </g>
      <path id="MX" d="M454.117,338.141l2.312-.21-3.362,5.989-1.891,4.833-1.891,9.036-1.156,3.257.42,3.677,1.366,3.362.42,5.148,3.152,5.043.841,3.888,1.786,3.257,5.989,1.786,2,2.837,5.464-1.891,4.518-.63,4.623-1.261,3.783-1.156,4.1-2.732,1.891-3.888,1.261-5.674,1.261-2,4.2-1.786,6.409-1.576,5.148.315,3.572-.63,1.261,1.471-.63,3.257-3.677,3.993-1.891,4.1.946,1.156-1.261,2.942-2.207,5.254-1.261-1.786-1.156.105-1.156.105-2.627,4.1-.946-.841-.735.315-.105,1.051-5.464-.105h-5.464l-.525,3.783-2.627.105,1.891,2.206,2,1.576.525,1.471.841.42-.42,2.312h-7.565l-3.467,5.464.735,1.261-.84,1.576-.42,2-5.884-7.25-2.732-2.206-4.623-1.786-3.362.525-5.043,2.522-3.047.63-3.888-1.786-4.308-1.261-5.043-3.047-4.308-.946-6.2-3.152-4.518-3.257-1.156-1.786-3.257-.42-5.674-2.1-2-3.047-5.674-3.888-2.312-4.2-.84-3.362,2-.63-.315-1.891,1.681-1.786.42-2.311-1.576-3.047v-2.627l-1.366-3.467-3.993-6.724-4.833-5.254-2-4.2-4.308-2.732-.736-1.681,1.786-4.1-2.522-1.576-2.627-3.362-.21-4.623-2.942-.63-2.417-3.467-1.786-3.362.315-2.1-1.576-5.043-.315-5.148.841-2.627-3.257-2.732-2,.315L365.963,298l-1.891,2.732-.105,3.152-1.051,5.148,1.051,2.732,2.942,4.623.42,1.681.736.42.105,2.312,1.051-.105v4.413l1.366,1.681.525,2.417,2.837,3.362.42,6.3,1.051,2.942.946,3.152-.315,3.572,2.732.21,1.681,3.047,1.576,3.047-.315,1.261-2.942,2.417h-1.051l-.736-4.1-3.047-3.888-3.572-3.257-2.627-1.681,1.261-4.938-.105-3.677-2.206-2.1-3.257-2.942-.946.841L361.445,331l-3.152-1.576-2.312-3.993.525-.42,2.206.315,2.837-2.522,1.051-3.047-3.047-4.833-2.732-1.786-.841-4.2-.63-4.518-.841-5.359-.21-6.094,6.619-.525,7.46-.735-.946,1.366,7.355,3.257,11.453,4.728h15.866l.841-2.837h9.877l1.366,2.417,2.206,2.206,2.522,2.942.841,3.467.42,3.783,2.417,2,4.2,2,5.043-5.254,4.728-.21,3.362,2.732,1.681,4.623.946,3.993,2.522,3.783.21,4.728.946,3.152,4.1,2.1,3.783,1.471Z" transform="translate(-194.593 13.739)" fill="#69772f" stroke="#fff" stroke-linecap="round" stroke-linejoin="round" stroke-width="0.2"/>
    </g>
  </g>
</svg>
