<svg xmlns="http://www.w3.org/2000/svg" xmlns:xlink="http://www.w3.org/1999/xlink" width="855" height="703" viewBox="0 0 855 703">
  <defs>
    <clipPath id="clip-Plan_de_travail_15">
      <rect width="855" height="703"/>
    </clipPath>
  </defs>
  <g id="Plan_de_travail_15" data-name="Plan de travail – 15" clip-path="url(#clip-Plan_de_travail_15)">
    <g id="Composant_2_32" data-name="Composant 2 – 32" transform="translate(142.729 99.338)">
      <path id="GM" d="M891.6,417.638l.841-3.047,6.409-.105,1.366-1.681,1.891-.105,2.312,1.681H906.2l2-1.051,1.156,1.891L906.73,416.8l-2.522-.21-2.522-1.366L899.48,416.8h-1.051l-1.471.946-5.359-.105Z" transform="translate(-855.876 -254.464)" fill="#fcae37" stroke="#fff" stroke-linecap="round" stroke-linejoin="round" stroke-width="0.2"/>
      <path id="GW" d="M910.052,421.015l-.105,2.312-.63.735.42,2.206-.946.841-1.261.105-1.576,1.051-1.786-.105-2.732,3.257-3.047-2.732-2.522-.525-1.366-1.891.105-1.051-1.786-1.366-.42-1.471,3.152-1.051,2,.21,1.576-.841,10.927.315Z" transform="translate(-855.836 -254.059)" fill="#fcae37" stroke="#fff" stroke-linecap="round" stroke-linejoin="round" stroke-width="0.2"/>
      <path id="Tracé_350" data-name="Tracé 350" d="M858.33,397.81l.315-.21.525.21.105.21v.735l-.42.315-.315.21h-.315l-.525-.21v-.525l.21-.21v-.63l.1-.105Z" transform="translate(-857.595 -255.23)" fill="#fcae37" stroke="#fff" stroke-linecap="round" stroke-linejoin="round" stroke-width="0.2"/>
      <path id="Tracé_352" data-name="Tracé 352" d="M858.125,394.546l.105.105-.105.63-.21.105v-.525l-.21-.315v-.315l-.105-.315.42-.315.21.21-.105.63Z" transform="translate(-857.6 -255.433)" fill="#fcae37" stroke="#fff" stroke-linecap="round" stroke-linejoin="round" stroke-width="0.2"/>
      <path id="Tracé_490" data-name="Tracé 490" d="M888.481,323.42l-.315.525-.42.525-.315-.42h-.42l-.21-.21.21-.315.42.105.42-.42.315-.21.21.105Z" transform="translate(-856.119 -259.012)" fill="#fcae37" stroke="#fff" stroke-linecap="round" stroke-linejoin="round" stroke-width="0.2"/>
      <path id="Tracé_491" data-name="Tracé 491" d="M902.117,321.105v.525l.21.42-.21.736.1.315-.42.42-.525.21-.21.21-.63-.21-.525-.525-.21-.42v-.63l.63-.42.105-.525V321l.63.105h.42l.315.105Z" transform="translate(-855.465 -259.114)" fill="#fcae37" stroke="#fff" stroke-linecap="round" stroke-linejoin="round" stroke-width="0.2"/>
      <path id="Tracé_492" data-name="Tracé 492" d="M892.135,321.961h-.21l-.315-.21-.21-.315.105-.42.105-.315h.63l.525.42.1.315-.525.525Z" transform="translate(-855.886 -259.129)" fill="#fcae37" stroke="#fff" stroke-linecap="round" stroke-linejoin="round" stroke-width="0.2"/>
      <path id="Tracé_493" data-name="Tracé 493" d="M898.423,318.405v.21l-.63.315-.42.525-.315.21v.42l-.42.736-.105.42-.525.63-.105.21h-.21l-.63.21-.105-.105-.105-.42-.315-.42-.105-.21-.21-.315v-.315l-.42-.63.525-.315.315.21.63-.21h.42l.525-.21.525-.42v-.21l.63-.315H898l.315-.105Z" transform="translate(-855.765 -259.251)" fill="#fcae37" stroke="#fff" stroke-linecap="round" stroke-linejoin="round" stroke-width="0.2"/>
      <path id="Tracé_494" data-name="Tracé 494" d="M908.471,321.4l-.315.42-.42.105-.315-.105H907v-.21h.315l.63-.21.42-.315.315-.315.105-.525.105-.315.21-.525.315-.42.315-.63.21-.841.21-.21.42-.105.315.315.105.525-.105.525-.105.525v.525l-.105.105-.315.736-.315.315-.63.105-.736.315Z" transform="translate(-855.095 -259.306)" fill="#fcae37" stroke="#fff" stroke-linecap="round" stroke-linejoin="round" stroke-width="0.2"/>
      <path id="Tracé_495" data-name="Tracé 495" d="M888.841,316.705l.315-.105.21.315.21.525-.21.315.105.42-.63,1.051-.105-.105-.105-.42-.42-.946-.105-.315-.105-.21.21-.42.315-.21Z" transform="translate(-856.059 -259.337)" fill="#fcae37" stroke="#fff" stroke-linecap="round" stroke-linejoin="round" stroke-width="0.2"/>
      <g id="Groupe_24" data-name="Groupe 24" transform="translate(-684.729 -783.55)">
        <path id="Tracé_209" data-name="Tracé 209" d="M1124.734,573.648l.63,2.1-.735,3.257.946,3.152-.946,2.522.42,2.311-12.293-.105-.84,21.539,3.782,5.464,3.782,4.2-10.927,2.732-14.184-.946-3.993-3.152-23.851.21-.841.525-3.468-3.047-3.782-.21-3.573,1.156-2.837,1.261-.525-4.2.946-5.989,2.1-6.2.315-2.837,2-6.094,1.471-2.732,3.467-4.413,2-3.047.63-4.938-.315-3.888-1.681-2.417-1.576-4.1-1.366-3.993.315-1.471,1.786-2.627-1.681-6.514-1.261-4.518-2.942-4.308.63-1.261,2.417-.946,1.786.105,2.1-.735,17.547.105,1.366,4.938,1.681,4.1,1.366,2.207,2.207,3.467,3.993-.526,1.891-.946,3.257.946.945-1.681,1.576-3.888,3.677-.315.315-1.156h3.047l-.525,2.417,7.145-.105.105,4.308,1.156,2.522-.946,4.1.42,4.2,1.891,2.522-.42,7.985,1.471-.63,2.522.21,3.677-1.051Z" transform="translate(-163.039 535.514)" fill="#fcae37" stroke="#fff" stroke-linecap="round" stroke-linejoin="round" stroke-width="0.2"/>
        <path id="Tracé_210" data-name="Tracé 210" d="M1055.376,539.441,1053.8,534.4l2.416-2.942L1058,530.3l2.206,2.312-2.1,1.471-1.051,1.681-.21,2.942Z" transform="translate(-162.923 535.048)" fill="#fcae37" stroke="#fff" stroke-linecap="round" stroke-linejoin="round" stroke-width="0.2"/>
        <path id="BI" d="M1155.108,531.085l-.63.1v-.315l-2.1-6.409-.01-.063-.094-1.093-1.471-3.047,3.678.525,1.786-3.888,3.257.42.315,2.627,1.261,1.576v2.206l-1.471,1.366-2.417,3.572-2.1,2.417Z" transform="translate(-158.005 534.368)" fill="#fcae37" stroke="#fff" stroke-linecap="round" stroke-linejoin="round" stroke-width="0.2"/>
        <path id="BJ" d="M1007.511,427.188l-.21,2.206,1.366,3.993-1.156,2.732.63,1.786-2.942,4.2-1.786,2.1-1.156,4.2.21,4.308-.315,10.822-4.938.841-1.471-4.623.315-15.55-1.261-1.366-.21-3.362-2.1-2.312-1.786-2,.735-3.572,2.1-.735,1.156-2.942,2.942-.63,1.261-2,2-2h2.1l4.518,3.888Z" transform="translate(-166.122 529.623)" fill="#fcae37" stroke="#fff" stroke-linecap="round" stroke-linejoin="round" stroke-width="0.2"/>
        <path id="BF" d="M990.173,406.061l-.525,3.257.841,3.047,3.257,4.413.21,3.257,6.829,1.576-.1,4.623-1.261,2-2.942.63-1.156,2.942-2.1.736-5.149-.105-2.732-.525-1.891,1.051-2.627-.525-10.3.315-.21,3.888.84,5.043-4.1-1.681-2.732.21-2.1,1.681-2.627-1.366-1.051-2.312-2.627-1.471-.42-3.888,1.681-2.837-.21-2.311,4.728-5.569.946-4.623,1.576-1.681,2.837.946,2.522-1.366.841-1.786,4.518-2.942,1.156-2.1,5.569-2.837,3.257-.946,1.471,1.261h3.783Z" transform="translate(-167.907 528.685)" fill="#fcae37" stroke="#fff" stroke-linecap="round" stroke-linejoin="round" stroke-width="0.2"/>
        <path id="BW" d="M1129.192,615.725l2,5.359,1.156,1.261,1.681,3.888,6.409,7.355,2.417.735-.1,2.417,1.576,4.308,4.518,1.051,3.573,3.047-8.511,4.938-5.463,5.043-2.1,4.518-1.891,2.522-3.152.525-1.261,3.257-.63,2.1-3.783,1.471-4.728-.315-2.627-1.891-2.417-.736-2.942,1.471-1.576,3.257-2.837,2-2.942,3.047-4.2.735-1.156-2.417.63-4.1-3.152-6.409-1.471-1.051.631-19.648,5.779-.21.84-24.061,4.413-.21,9.141-2.417,2.1,2.837,3.887-2.627h1.786l3.362-1.576,1.051.525Z" transform="translate(-160.773 539.353)" fill="#fcae37" stroke="#fff" stroke-linecap="round" stroke-linejoin="round" stroke-width="0.2"/>
        <path id="CF" d="M1123.992,447.321l4.1,2.627,3.257,2.732.1,2.207,4.1,3.467,2.522,2.942,1.471,3.993,4.518,2.732.945,2.1-1.891.735-3.888-.105-4.413-.735-2.206.525-.946,1.681-1.891.21-2.311-1.471-6.619,3.362-2.732-.63-.84.525-1.681,4.1-4.518-1.366-4.308-.63-3.782-2.522-4.938-2.312-3.152,2.206-2.311,3.362-.525,4.728-3.782-.315-4.1-1.156-3.467,3.572-3.152,6.3-.631-2-.315-3.047-2.732-2.206-2.206-3.467-.525-2.417-2.837-3.572.525-2-.63-2.837.42-5.253,1.471-1.156,2.942-6.83,4.833-.525,1.051-1.786,1.051.21,1.471,1.471,7.46-2.522,2.522-2.627,3.047-2.417-.63-2.312,1.681-.63,5.779.42,5.464-3.152,4.2-7.355,2.942-2.732,3.783-1.156.736,2.837,3.467,4.2v2.837l-.841,2.732.42,2.1,2,2,.525.315Z" transform="translate(-162.193 529.978)" fill="#fcae37" stroke="#fff" stroke-linecap="round" stroke-linejoin="round" stroke-width="0.2"/>
        <path id="CI" d="M956.823,435.246l2.627,1.471,1.051,2.311,2.627,1.366,2.1-1.681,2.732-.21,4.1,1.681,1.576,9.667-2.522,5.569-1.576,7.67,2.522,5.779-.21,2.732h-2.732l-4.1-1.261h-3.888l-7.04,1.261-4.1,1.891-5.884,2.522-1.156-.21.42-5.569.63-.841-.21-2.627-2.522-2.837-1.891-.42-1.681-1.891,1.261-3.047-.525-3.257.21-1.891h.946l.42-2.942-.42-1.366.525-.946,2.206-.736-1.471-5.464-1.366-2.732.525-2.312,1.156-.525.841-.63,1.576,1.051h4.623l1.051-1.891,1.051.105,1.681-.736.946,2.837,1.366-.84Z" transform="translate(-168.809 530.181)" fill="#fcae37" stroke="#fff" stroke-linecap="round" stroke-linejoin="round" stroke-width="0.2"/>
        <path id="CM" d="M1074.747,455.97l-2.942,6.83-1.471,1.156-.42,5.253.63,2.837-.525,2,2.837,3.572.525,2.417,2.206,3.467,2.732,2.207.315,3.047.63,2-.42,3.572-4.728-1.576-4.833-1.786-7.46-.21-.736-.42-3.572.841-3.572-.841-2.837.42-9.771-.105.946-5.359-2.417-4.518-2.732-1.051-1.156-3.047-1.576-.946.1-1.891,1.471-4.833,2.837-6.514h1.681l3.572-3.993,2.207-.105,3.362,2.837,4.1-2.312.525-2.837,1.366-2.732.841-3.362,3.152-2.732,1.156-4.728,1.261-1.576.841-3.467,1.471-4.308,4.938-5.254.315-2.206.63-1.261-2.417-2.627.21-2.206,1.576-.315,2.417,4.308.525,4.413-.21,4.518,3.362,6.094h-3.362l-1.681.42-2.732-.63-1.261,3.152,3.572,3.993,2.627,1.156.84,2.732,1.891,4.623-.841,1.891Z" transform="translate(-163.906 529.42)" fill="#fcae37" stroke="#fff" stroke-linecap="round" stroke-linejoin="round" stroke-width="0.2"/>
        <path id="CD" d="M1145.66,468.205l3.677,5.569,2.732.841,1.576-1.156,2.732.42,3.257-1.366,1.471,2.837,5.359,4.518-.315,7.88,2.417.946-2,2.312-2.207,1.891-2.312,3.467-1.261,3.152-.315,5.359-1.366,2.627-.1,5.043-1.681,1.891-.21,3.993-.841.525-.63,3.783,1.471,3.047.105,1.051-1.261,10.822,1.576,3.782-1.051,2.837,1.892,4.833,3.572,3.677.735,3.677,1.681,1.786-.315,1.156-.946-.315-8.09,1.156-1.576.841-1.786,4.308,1.261,2.942-1.156,7.985-.946,6.725,1.576,1.261,4.1,2.627,1.681-1.261.21,7.25h-4.518l-2.311-3.677-2.1-2.942-4.518-.946-1.261-3.467-3.677,2.1-4.623-.946-2-3.047-3.677-.63-2.837.105-.315-2.1-2-.105-2.732-.42-3.677,1.051-2.522-.21-1.471.63.42-7.985-1.891-2.522-.42-4.2.946-4.1-1.156-2.522-.1-4.308-7.145.1.525-2.417h-3.047l-.315,1.156-3.677.315-1.576,3.888-.946,1.681-3.257-.946-1.891.946-3.993.525-2.207-3.467-1.366-2.207-1.681-4.1-1.366-4.938-17.546-.105-2.1.735-1.786-.1-2.417.946-.841-2.1,1.471-.735.21-2.942,1.051-1.681,2.1-1.471,1.576.736,2.1-2.627,3.257.105.315,1.891,2.206,1.156,3.573-4.2,3.467-3.257,1.471-2.206-.1-5.569,2.627-6.514,2.732-3.467,3.887-3.257.736-2.1.1-2.522.946-2.312-.315-3.888.736-5.989,1.156-4.2,1.786-3.572.315-4.1.526-4.728,2.311-3.362,3.152-2.206,4.938,2.311,3.783,2.522,4.308.63,4.518,1.366,1.681-4.1.841-.525,2.732.63,6.62-3.362,2.312,1.471,1.891-.21.946-1.681,2.207-.525,4.413.736,3.888.105,1.891-.736Z" transform="translate(-162.847 531.894)" fill="#fcae37" stroke="#fff" stroke-linecap="round" stroke-linejoin="round" stroke-width="0.2"/>
        <path id="CG" d="M1093.014,479.371l-.315,4.1-1.786,3.572-1.156,4.2-.735,5.989.315,3.888-.946,2.311-.1,2.522-.735,2.1-3.888,3.257-2.732,3.467-2.627,6.514.1,5.569-1.471,2.206-3.467,3.257-3.572,4.2-2.207-1.156-.315-1.891-3.257-.1-2.1,2.627-1.576-.735-2.207-2.312-1.786,1.156-2.417,2.942-4.833-7.145,4.518-3.782-2.206-4.413,2.1-1.681,3.993-.841.42-3.047,3.257,3.257,5.254.315,1.786-3.152.735-4.518-.63-5.254-2.837-3.993,2.627-7.88-1.471-1.261-4.413.525-1.681-3.467.42-2.942,7.46.21,4.833,1.786,4.728,1.576.421-3.572,3.152-6.3,3.467-3.572,4.1,1.156,3.782.315Z" transform="translate(-163.156 532.391)" fill="#fcae37" stroke="#fff" stroke-linecap="round" stroke-linejoin="round" stroke-width="0.2"/>
        <path id="DZ" d="M1035.68,264.656l-1.051,3.467,1.051,6.409-1.156,5.569-3.362,3.783.63,5.043,4.728,4.1.105,1.576,3.572,2.732,2.732,12.083,2,5.989.421,3.152-.841,5.464.42,3.152-.63,3.677.63,4.2-2.311,2.837,3.572,4.938.21,2.837,2.206,3.783,2.627-1.261,4.728,3.152,2.627,4.2-19.753,12.924L1022.021,381.7l-8.2,2.942-6.514.736-.105-4.308-2.732-1.156-3.677-1.891-1.366-3.152-19.648-14.71-19.543-14.71L938.7,329.064l.105-1.261.105-.42.1-7.985,9.351-5.043,5.674-1.051,4.728-1.786,2.206-3.362,6.725-2.627.315-5.043,3.257-.63,2.627-2.417,7.46-1.156,1.051-2.627-1.471-1.471-2-7.145-.315-4.1-2-4.308,5.359-3.677,6.094-1.156,3.467-2.732,5.359-2.1,9.456-1.156,9.246-.525,2.837.946,5.149-2.627,5.989-.105,2.311,1.576,3.782-.42Z" transform="translate(-168.759 521.521)" fill="#fcae37" stroke="#fff" stroke-linecap="round" stroke-linejoin="round" stroke-width="0.2"/>
        <path id="EG" d="M1174.7,301.522l4.1,9.877.736,1.681-1.366,2.732-.735,5.043-1.261,3.572-1.261,1.156-2.1-2.206-2.837-2.942-4.938-9.666-.525.63,2.942,7.04,4.1,6.83,5.148,10.507,2.417,3.677,2.1,3.783,5.674,7.46-1.051,1.156.42,4.413,7.145,6.094,1.156,1.366h-69.241l-1.051-24.9-1.366-23.956-2.1-5.464,1.156-4.1-1.051-2.942,1.786-3.257,7.565-.105,5.674,1.786,5.779,2,2.732,1.051,4.2-2.1,2.206-1.891,4.938-.63,4.1.841,1.891,3.362,1.156-2.206,4.623,1.576,4.518.42,2.627-1.681Z" transform="translate(-159.526 523.321)" fill="#fcae37" stroke="#fff" stroke-linecap="round" stroke-linejoin="round" stroke-width="0.2"/>
        <path id="ER" d="M1230.857,422.024l-1.786,1.681-2.522-.63-2.1-2.206-2.627-3.888-2.732-2.207-1.576-2.311-5.253-2.732-4.1-.105-1.471-1.366-3.362,1.576-3.782-3.047-1.576,5.043-6.935-1.471-.735-2.627,2.1-9.982.315-4.413,1.786-2.1,4.2-1.156,2.837-3.783,3.782,7.775,2,6.2,3.362,3.257,8.406,6.409,3.467,3.783,3.362,3.993,1.891,2.312,3.047,2Z" transform="translate(-156.002 527.747)" fill="#fcae37" stroke="#fff" stroke-linecap="round" stroke-linejoin="round" stroke-width="0.2"/>
        <path id="ET" d="M1209.059,408.637l4.1.105,5.254,2.732,1.576,2.312,2.732,2.207,2.627,3.888,2.1,2.206-2,2.942-1.891,3.152.525,1.891.21,2.1,3.362.105,1.366-.525,1.366,1.261-1.261,2.312,2.312,3.783,2.311,3.257,2.312,2.417,19.648,7.985,5.044-.105-16.391,20.278-7.67.315-5.254,4.728-3.782.105-1.576,2.206h-4.1l-2.417-2.312-5.464,2.837-1.681,2.837-3.993-.63-1.366-.735-1.366.21-1.891-.105-7.565-5.674h-4.2l-2-2.206-.1-3.783-3.047-1.156-3.677-7.355-2.732-1.576-1.051-2.732-3.152-3.257-3.677-.525,2-3.783,3.152-.21.84-2-.21-5.254v-.841l1.576-7.04,2.732-1.891.525-2.732,2.417-5.253,3.468-3.257,2.1-6.725.735-5.779,6.935,1.471,1.576-5.043,3.783,3.047,3.362-1.576,1.471,1.366Z" transform="translate(-156.9 528.736)" fill="#fcae37" stroke="#fff" stroke-linecap="round" stroke-linejoin="round" stroke-width="0.2"/>
        <path id="GA" d="M1061.732,487.32l-.421,2.942,1.681,3.467,4.413-.525,1.471,1.261-2.627,7.88,2.837,3.993.63,5.254-.735,4.518-1.786,3.152-5.254-.315-3.257-3.257-.42,3.047-3.993.841-2.1,1.681,2.207,4.413-4.518,3.782-6.094-6.83-3.888-5.569-3.677-6.935.21-2.312,1.366-2.1,1.366-4.938,1.261-5.043,2-.315h8.616v-8.09l2.837-.42,3.572.841L1061,486.9l.736.42Z" transform="translate(-163.815 532.848)" fill="#fcae37" stroke="#fff" stroke-linecap="round" stroke-linejoin="round" stroke-width="0.2"/>
        <path id="GH" d="M987.438,431.125l-.421,2.1,2.417,3.467v4.938l.63,5.253,1.471,2.522L990.17,455.4l.525,3.362,1.576,4.308,1.366,2.417-9.351,3.888-3.362,2.312-5.359,2-5.253-1.891.21-2.732L968,463.277l1.576-7.67,2.522-5.569-1.576-9.666-.84-5.043.21-3.888,10.3-.315,2.627.525,1.891-1.051,2.732.525Z" transform="translate(-167.273 529.993)" fill="#fcae37" stroke="#fff" stroke-linecap="round" stroke-linejoin="round" stroke-width="0.2"/>
        <path id="GN" d="M922.539,421.946l.315,2.522h.946l1.576-.946.946.21L928,425.518l2.522.525,1.576-1.471,2-.946,1.366-.946,1.156.21,1.366,1.471.63,1.891,2.417,2.837-1.156,1.681-.315,2.206,1.261-.63.735.735-.315,2,1.786,2-1.156.525-.525,2.312,1.366,2.732,1.471,5.464-2.206.735-.525.946.42,1.366-.42,2.942h-.946l-1.681-.21-1.156,2.732h-1.681l-1.156-1.471.42-2.732-2.522-4.1-1.471.736-1.366.21-1.576.315.1-2.417-.946-1.786.21-2-1.261-2.837-1.681-2.417h-4.728l-1.366,1.261-1.681.21-1.051,1.471-.63,1.786-3.257,3.047-2.522-3.993-2.312-2.627-1.471-.946-1.471-1.366-.63-2.942-.841-1.471L901,431.4l2.732-3.257,1.786.105,1.576-1.051,1.261-.105.946-.841-.42-2.206.63-.736.1-2.312,2.837.105,4.308,1.576,1.261-.105.42-.736,3.257.525.841-.42Z" transform="translate(-170.67 529.506)" fill="#fcae37" stroke="#fff" stroke-linecap="round" stroke-linejoin="round" stroke-width="0.2"/>
        <path id="GQ" d="M1050.868,487.305v8.09h-8.616l-2,.315-1.156-.946,2-7.565Z" transform="translate(-163.668 532.863)" fill="#fcae37" stroke="#fff" stroke-linecap="round" stroke-linejoin="round" stroke-width="0.2"/>
        <path id="KE" d="M1225.781,477.217l-5.148,7.565.21,24.586,3.468,5.569-4.2,2.732-1.471,2.837-2.311.42-.841,4.833-2,2.732-1.156,4.413-2.417,2.207-8.511-6.725-.315-3.888-21.539-13.764.42-4.938-1.471-2.627v-.315l1.681-2.732,2.942-4.413,2.207-4.938L1182.6,483l-.735-3.362-2.837-4.728,3.572-3.993,3.993-4.413,3.047,1.156.105,3.783,2,2.206h4.2l7.565,5.674,1.891.105,1.366-.21,1.366.736,3.993.63,1.681-2.837,5.464-2.837,2.416,2.311h4.1Z" transform="translate(-156.601 531.813)" fill="#fcae37" stroke="#fff" stroke-linecap="round" stroke-linejoin="round" stroke-width="0.2"/>
        <path id="LR" d="M939.462,452.779l-.21,1.891.525,3.257-1.261,3.047,1.681,1.891,1.891.42,2.522,2.837.21,2.627-.63.841-.42,5.569-1.576.105-6.094-3.257-5.464-5.148-5.043-3.677-3.993-4.308,1.471-2.206.315-2,2.732-3.572,2.732-3.152,1.366-.21,1.471-.736,2.522,4.1-.42,2.732,1.156,1.471h1.681l1.156-2.732,1.681.21Z" transform="translate(-169.626 530.824)" fill="#fcae37" stroke="#fff" stroke-linecap="round" stroke-linejoin="round" stroke-width="0.2"/>
        <path id="LY" d="M1126.91,299.607l-1.786,3.257,1.05,2.942-1.156,4.1,2.1,5.464,1.366,23.956,1.051,24.9.525,13.449h-6.724v2.837l-23.746-12.924-23.641-12.924-5.779,3.677-3.993,2.522-3.362-3.677-9.246-2.942-2.627-4.2-4.728-3.152-2.627,1.261-2.206-3.783-.21-2.837-3.572-4.938,2.312-2.837-.63-4.2.63-3.677-.42-3.152.841-5.464-.42-3.152-2-5.989,2.732-1.471.42-2.942-.63-2.732,3.782-2.627,1.681-2.206,2.732-1.891.1-5.148,6.725,2.312,2.417-.63,4.728,1.156,7.67,3.047,2.942,5.989,5.148,1.261,8.2,2.837,6.3,3.362,2.626-1.786,2.627-3.047-1.681-5.148,1.576-3.362,3.888-3.152,3.887-.841,7.775,1.366,2.1,2.942,2.1.105,1.891,1.156,5.674.735,1.576,2.207Z" transform="translate(-163.744 522.819)" fill="#fcae37" stroke="#fff" stroke-linecap="round" stroke-linejoin="round" stroke-width="0.2"/>
        <path id="LS" d="M1139.389,698.519l-2.1.736L1133.4,694l3.362-4.2,3.257-2.627,2.837-1.471,2.312,2.1,1.786,2.1-2,3.257-1.156,2.206-3.257,1.051-1.156,2.1Z" transform="translate(-158.887 542.927)" fill="#fcae37" stroke="#fff" stroke-linecap="round" stroke-linejoin="round" stroke-width="0.2"/>
        <path id="MA" d="M979.008,276.193l2,4.308.315,4.1,2,7.145,1.471,1.471-1.051,2.627L976.276,297l-2.627,2.417-3.257.63-.315,5.043-6.725,2.627-2.206,3.362-4.728,1.786-5.674,1.051-9.351,5.043-.105,7.985h-.946l.105,3.572-3.572.21-1.891,1.576h-2.627l-2.1-.946-4.833.736-2,5.254-1.891.525L918.7,346.38l-8.3,7.25-2.1,9.351-2.522,3.047-.735,2.417-13.134.525H891.8l.315-3.152,2.312-1.786,2-3.572-.315-2.312,2.1-4.728,3.362-4.308,2-1.051,1.681-3.888.21-3.677,2.206-4.1,3.993-2.522,3.783-6.83.1-.105,3.047-2.627,5.359-.735,4.623-4.623,2.942-1.786,4.938-5.674-1.261-8.3,2.312-5.884.946-3.572,3.782-4.518,5.674-3.047,4.308-2.837L956.1,276.4l1.891-4.2,4.1.105,3.257,2.837,5.359-.42,5.779,1.471h2.522Z" transform="translate(-171.136 521.962)" fill="#fcae37" stroke="#fff" stroke-linecap="round" stroke-linejoin="round" stroke-width="0.2"/>
        <path id="MG" d="M1270,589.4l.42,8.09,1.366,3.152-.735,3.257-1.261,1.891-1.681-3.888-1.261,2,.841,4.938-.736,2.942-1.786,1.471-.735,5.779-2.837,7.88-3.572,9.246-4.518,12.819-3.047,9.351-3.257,7.88-4.833,1.576-5.359,2.837-3.152-1.681-4.413-2.417-1.261-3.572v-5.989l-1.576-5.358-.21-4.938,1.366-4.833,2.732-1.156.21-2.206,3.047-5.148.841-4.308-1.156-3.152-.841-4.308-.1-6.2,2.311-3.782,1.051-4.308,2.942-.21,3.362-1.366,2.311-1.261,2.522-.105,3.572-3.782,5.149-4.2,1.891-3.362-.63-2.942,2.522.841,3.467-4.623.315-4.1,2.1-3.047,1.891,2.942,1.471,2.837,1.261,4.518Z" transform="translate(-154.172 537.522)" fill="#fcae37" stroke="#fff" stroke-linecap="round" stroke-linejoin="round" stroke-width="0.2"/>
        <path id="ML" d="M1014.875,380.691l.1,15.55-3.257,4.518-.42,4.2-5.253,1.051-8.09.525-2.1,2.417-3.782.315h-3.782l-1.471-1.261-3.257.946L978,411.792l-1.156,2.1-4.518,2.942-.84,1.786-2.522,1.366-2.837-.946-1.576,1.681-.946,4.623-4.728,5.569.21,2.312-1.681,2.837.42,3.888L955.3,441l-1.366.841L952.988,439l-1.681.736-1.051-.105-1.051,1.891h-4.623l-1.576-1.051-.84.63-1.786-2,.315-2-.736-.736-1.261.63.315-2.206,1.156-1.681-2.417-2.837-.63-1.891-1.366-1.471-1.156-.21-1.366.946-2,.946-1.576,1.471-2.522-.525-1.681-1.786-.946-.21-1.576.946h-.946l-.315-2.522.315-2.1-.525-2.522-2.1-1.891-1.156-3.888-.21-4.2,2-1.261,1.051-3.993,1.891-.105,4.1,1.891,3.362-1.366,2.206.42.946-1.471,23.641-.105,1.366-4.728-1.051-.841-2.627-29.1-2.522-29.1,8.931-.105,19.543,14.71,19.648,14.71,1.366,3.152,3.677,1.891,2.732,1.156.105,4.308,6.514-.735Z" transform="translate(-169.808 525.476)" fill="#fcae37" stroke="#fff" stroke-linecap="round" stroke-linejoin="round" stroke-width="0.2"/>
        <path id="MZ" d="M1167.253,678.844h-4.308l-.315-3.047-.63-3.047-.42-2.417,1.471-7.46-1.156-4.833-2.312-9.456,6.515-7.67,1.786-4.833.841-.631.946-3.993-.84-2,.42-5.043,1.366-4.623.421-8.616-2.942-2.1-2.837-.525-1.156-1.681-2.732-1.366-4.938.105-.21-2.522-.42-4.833,18.072-5.569,3.362,3.257,1.576-.63,2.311,1.681.21,2.732-1.366,3.152.21,4.728,3.677,4.2,2-4.728,2.627-1.366-.105-8.721-2.312-4.833-2-2.206h-.42l-.63-7.67,1.576-6.409,2.311-.21,7.04,1.891,1.576-.841,4.1-.21,2.206-2,3.572.105,6.514-2.627,4.833-3.888.946,2.942-.525,6.725.525,5.989-.21,10.507.84,3.257-2,4.833-2.522,4.728-3.887,4.2-5.569,2.522-6.83,3.257-6.935,7.25-2.312,1.261-4.413,4.833-2.417,1.471-.841,4.833,2.522,5.148.945,3.888v2.1l1.051-.42-.525,6.619-1.156,3.152,1.261,1.156-1.051,2.837-2.522,2.417-4.938,2.206-7.25,3.677-2.627,2.522.315,2.837,1.366.42-.735,3.573Z" transform="translate(-157.752 536.964)" fill="#fcae37" stroke="#fff" stroke-linecap="round" stroke-linejoin="round" stroke-width="0.2"/>
        <path id="MR" d="M962.632,342.291l-8.931.105,2.522,29.1,2.627,29.1,1.051.841-1.366,4.728-23.641.105-.946,1.471-2.207-.42L928.38,408.7l-4.1-1.891-1.891.105L921.34,410.9l-2,1.261-3.783-4.623-3.572-5.043-3.782-1.786-2.837-1.891h-3.257l-2.942,1.471-2.837-.525-2.1,2.1-.42-3.572,1.681-3.362.841-6.3-.42-6.724-.63-3.362.63-3.362-1.471-3.152-2.942-2.942,1.366-2.206h22.8l-.945-9.772,1.576-3.467,5.464-.525.21-17.337,18.913.42.21-10.3,21.539,16.391Z" transform="translate(-171.152 524.685)" fill="#fcae37" stroke="#fff" stroke-linecap="round" stroke-linejoin="round" stroke-width="0.2"/>
        <path id="MW" d="M1182.919,590.31h.42l2,2.206,2.312,4.833.1,8.721-2.627,1.366-2,4.728-3.677-4.2-.21-4.728,1.366-3.152-.21-2.732-2.312-1.681-1.576.63-3.362-3.257-3.047-1.681,2.1-6.3,1.891-2.312-.946-5.674,1.366-5.464,1.05-1.786-1.366-5.674-2.732-3.047,5.779,1.261,1.051,1.786-.105.84,1.891,4.308.21,8.09-1.891,3.782,1.681,4.938-.21,2.942,1.261,2-.1,2.522.945,1.471,1.051-1.681,2,2.627.21-.841-1.051-3.572-1.156-.315-.1-.946Z" transform="translate(-157.026 536.61)" fill="#fcae37" stroke="#fff" stroke-linecap="round" stroke-linejoin="round" stroke-width="0.2"/>
        <path id="NA" d="M1119.455,614.488l4.833-1.471,3.782.315,2.312,1.576v.525l-3.362,1.576h-1.786l-3.887,2.627-2.1-2.837-9.141,2.417-4.413.21-.841,24.061-5.779.21-.63,19.648-1.156,24.9-5.254,3.467-3.047.525-3.573-1.261-2.627-.525-.84-2.837-2.1-1.891-2.942,3.362-4.1-5.148-2.1-4.833-1.051-6.619-1.261-4.833-1.681-10.4.105-8.09-.631-3.677-2.206-2.837-2.942-5.569-2.942-8.09-1.156-4.2-4.623-6.619-.315-5.149,2.837-1.261,3.572-1.156,3.783.21,3.467,3.047.841-.525,23.851-.21,3.993,3.152,14.185.946,10.927-2.732Z" transform="translate(-163.014 539.119)" fill="#fcae37" stroke="#fff" stroke-linecap="round" stroke-linejoin="round" stroke-width="0.2"/>
        <path id="NE" d="M1072.686,355.2l1.681,10.507,2.312,1.786.1,2.1,2.522,2.312-1.261,2.942-1.891,13.659-.21,8.826-7.355,6.3-2.417,8.931,2.522,2.522V419.4l3.888.105-.63,3.257-1.576.315-.21,2.206-1.051.105-4.1-7.355-1.471-.315-4.518,3.783-4.623-2-3.152-.315-1.681.946-3.467-.21-3.467,2.837-3.047.21-7.145-3.467-2.837,1.576-3.047-.105-2.206-2.522-5.884-2.522-6.409.841-1.471,1.366-.841,3.888-1.681,2.732-.42,6.094-4.518-3.888h-2.1l-2,2,.105-4.623-6.83-1.576-.21-3.257-3.257-4.413-.84-3.047.525-3.257,3.782-.315,2.1-2.417,8.09-.525,5.253-1.051.42-4.2,3.257-4.518-.105-15.55,8.2-2.942,16.811-13.239,19.753-12.924,9.246,2.942,3.362,3.677,3.993-2.522Z" transform="translate(-166.259 525.962)" fill="#fcae37" stroke="#fff" stroke-linecap="round" stroke-linejoin="round" stroke-width="0.2"/>
        <path id="NG" d="M1069.475,422.151l2.417,2.627-.63,1.261-.315,2.206-4.938,5.254-1.471,4.308-.841,3.467-1.261,1.576-1.156,4.728-3.152,2.732-.841,3.362-1.366,2.732-.525,2.837-4.1,2.312-3.362-2.837-2.206.1-3.572,3.993h-1.681l-2.837,6.514-1.471,4.833-6.2,2.417-2.207-.315-2.312,1.471-4.728-.105-3.257-4.308-2-4.833-4.2-4.413H1001.6l.315-10.822-.21-4.308,1.156-4.2,1.786-2.1,2.942-4.2-.63-1.786,1.156-2.732-1.366-3.993.21-2.206.42-6.094,1.681-2.732.841-3.888,1.471-1.366,6.409-.841,5.884,2.522,2.206,2.522,3.047.105,2.837-1.576,7.145,3.467,3.047-.21,3.467-2.837,3.468.21,1.681-.946,3.152.315,4.623,2,4.518-3.783,1.471.315,4.1,7.355,1.051-.105Z" transform="translate(-165.569 529.091)" fill="#fcae37" stroke="#fff" stroke-linecap="round" stroke-linejoin="round" stroke-width="0.2"/>
        <path id="RW" d="M1159.206,509.1l2.311,3.783-.315,3.993-1.681.841-3.257-.42-1.786,3.888-3.678-.525.631-3.783.841-.525.21-3.993,1.681-1.891,1.471.735Z" transform="translate(-158.005 533.973)" fill="#fcae37" stroke="#fff" stroke-linecap="round" stroke-linejoin="round" stroke-width="0.2"/>
        <path id="EH" d="M941.3,324.3l-.1.42-.105,1.261-.21,10.3-18.913-.42-.21,17.337-5.464.525-1.576,3.467.946,9.771h-22.8l-1.366,2.206.315-2.837h.105l13.134-.525.736-2.417,2.522-3.047,2.1-9.351,8.3-7.25,2.837-8.511,1.891-.525,2-5.254,4.833-.735,2.1.946H935l1.891-1.576,3.573-.21-.1-3.572h.946Z" transform="translate(-171.152 524.604)" fill="#fcae37" stroke="#fff" stroke-linecap="round" stroke-linejoin="round" stroke-width="0.2"/>
        <path id="SD" d="M1195.112,411.664l-.735,5.779-2.1,6.725-3.467,3.257-2.417,5.253-.525,2.732-2.732,1.891-1.576,7.04v.841l-.84-.21.105-3.362-.841-2.312-3.047-2.627-.946-4.833.63-5.043-2.732-.42-.42,1.471-3.572.42,1.576,1.891.525,4.1-3.152,3.677-2.837,4.833-3.047.735-5.043-3.888-2.207,1.366-.525,1.891-3.047,1.366-.21,1.366h-5.884l-.841-1.366-4.308-.315-2.1,1.156-1.681-.525-3.047-3.993-1.05-1.786-4.308.946-1.576,3.047-1.366,6.094-2.1,1.261-1.786.736-.525-.315-2-2-.42-2.1.841-2.732v-2.837l-3.467-4.2-.736-2.837v-1.681l-2.206-2-.1-3.888-1.366-2.627-2,.42.525-2.522,1.471-2.732-.735-2.837,1.891-2.1-1.261-1.576,1.366-4.1,2.627-5.043,5.043.525-1.156-26.793v-2.837h6.724l-.525-13.449h69.241l2.207,6.619-1.261,1.156,1.261,7.04,2.627,7.985,2.312,1.681,3.362,2.522-2.837,3.783-4.2,1.156-1.786,2.1-.315,4.413-2.1,9.982.735,2.627Z" transform="translate(-160.079 526.444)" fill="#fcae37" stroke="#fff" stroke-linecap="round" stroke-linejoin="round" stroke-width="0.2"/>
        <path id="SS" d="M1180.98,442.008l.21,5.253-.841,2-3.152.21-2,3.782,3.677.525,3.152,3.257,1.051,2.732,2.732,1.576,3.678,7.355-3.993,4.413-3.573,3.993-3.677,3.152h-4.2l-4.728,1.576-3.782-1.576-2.417,1.891-5.359-4.518-1.471-2.837-3.257,1.366-2.732-.42-1.576,1.156-2.732-.841-3.678-5.569-.946-2.1-4.518-2.732-1.471-3.993-2.522-2.942-4.1-3.467-.105-2.207-3.257-2.732-4.1-2.627,1.786-.735,2.1-1.261,1.366-6.094,1.576-3.047,4.308-.946,1.051,1.786,3.047,3.993,1.681.525,2.1-1.156,4.308.315.841,1.366h5.884l.21-1.366,3.047-1.366.525-1.891,2.207-1.366,5.043,3.888,3.047-.736,2.837-4.833,3.152-3.677-.525-4.1-1.576-1.891,3.573-.42.42-1.471,2.732.42-.63,5.043.946,4.833,3.047,2.627.841,2.312-.105,3.362.841.21Z" transform="translate(-159.501 529.618)" fill="#fcae37" stroke="#fff" stroke-linecap="round" stroke-linejoin="round" stroke-width="0.2"/>
        <path id="SN" d="M919.552,408.644l.21,4.2,1.156,3.888,2.1,1.891.525,2.522-.315,2.1-.841.42-3.257-.525-.42.736-1.261.105-4.308-1.576-2.837-.105-10.927-.315-1.576.841-2-.21-3.152,1.051-.84-5.148,5.358.105,1.471-.946h1.051L901.9,416.1l2.522,1.366,2.522.21,2.627-1.576-1.156-1.891-2,1.051h-1.786l-2.312-1.681-1.891.105-1.366,1.681-6.409.105-2.417-5.254-2.837-2.312,2.627-1.366,2.942-4.728,1.471-3.467,2.1-2.1,2.837.525,2.942-1.471h3.257l2.837,1.891,3.782,1.786,3.572,5.043,3.783,4.623Z" transform="translate(-171.36 528.203)" fill="#fcae37" stroke="#fff" stroke-linecap="round" stroke-linejoin="round" stroke-width="0.2"/>
        <path id="SL" d="M929.362,448.437l-2.732,3.152-2.732,3.572-.315,2-1.471,2.206-1.576-.525-4.2-2.732-3.152-3.572-.946-2.522-.736-4.938,3.257-3.047.63-1.786,1.051-1.471,1.681-.21,1.366-1.261h4.728l1.681,2.417,1.261,2.837-.21,2,.946,1.786-.105,2.417,1.576-.315Z" transform="translate(-170.138 530.333)" fill="#fcae37" stroke="#fff" stroke-linecap="round" stroke-linejoin="round" stroke-width="0.2"/>
        <path id="SZ" d="M1162.045,667.756l.63,3.047.315,3.047-1.471,2.942-3.362.735-3.257-3.677.1-2.312,1.786-2.522.63-2,1.786-.42,2.837,1.156Z" transform="translate(-157.797 541.958)" fill="#fcae37" stroke="#fff" stroke-linecap="round" stroke-linejoin="round" stroke-width="0.2"/>
        <path id="TD" d="M1122.08,377.347l1.156,26.793-5.043-.525-2.627,5.043-1.366,4.1,1.261,1.576-1.891,2.1.735,2.837L1112.833,422l-.525,2.522,2-.42,1.366,2.627.105,3.888,2.206,2V434.3l-3.782,1.156-2.942,2.732-4.2,7.355-5.464,3.152-5.779-.42-1.681.63.63,2.312-3.047,2.417-2.522,2.627-7.46,2.522-1.471-1.471-1.051-.21-1.051,1.786-4.833.525.84-1.891-1.891-4.623-.841-2.732-2.627-1.156-3.573-3.993,1.261-3.152,2.732.63,1.681-.42h3.362l-3.362-6.094.21-4.518-.526-4.413-2.417-4.308.63-3.257-3.888-.105v-4.308l-2.522-2.522,2.417-8.931,7.355-6.3.21-8.826,1.891-13.659,1.261-2.942-2.522-2.312-.105-2.1-2.312-1.786-1.681-10.507,5.779-3.677,23.641,12.924,23.746,12.924Z" transform="translate(-162.487 525.983)" fill="#fcae37" stroke="#fff" stroke-linecap="round" stroke-linejoin="round" stroke-width="0.2"/>
        <path id="TG" d="M991.669,431.205l-.736,3.572,1.786,2,2.1,2.312.21,3.362,1.261,1.366-.315,15.55,1.471,4.623-4.728,1.471-1.366-2.417-1.576-4.308-.525-3.362,1.366-5.989-1.471-2.522-.63-5.253v-4.938L986.1,433.2l.42-2.1Z" transform="translate(-166.355 530.018)" fill="#fcae37" stroke="#fff" stroke-linecap="round" stroke-linejoin="round" stroke-width="0.2"/>
        <path id="TN" d="M1049.29,290.469l-.1,5.148-2.732,1.891-1.681,2.206-3.782,2.627.63,2.732-.42,2.942-2.732,1.471-2.732-12.083-3.572-2.732-.105-1.576-4.728-4.1-.63-5.043,3.362-3.783,1.156-5.569-1.051-6.409,1.051-3.467,5.989-2.627,3.888.735V266.3l4.623-2.522.42,1.261-2.627,3.362.1,3.047,2,1.681-.525,5.884-3.677,3.362,1.261,3.677,2.942.105,1.471,3.257,2.206,1.051Z" transform="translate(-164.297 521.45)" fill="#fcae37" stroke="#fff" stroke-linecap="round" stroke-linejoin="round" stroke-width="0.2"/>
        <path id="TZ" d="M1167.659,508.405l-.21,4.1-1.156,4.728,1.681,2.627,2.627-1.576,3.467-.42.735.84,3.467-1.681-2.417-2.311,2-3.047,2.942-3.047,21.539,13.764.315,3.888,8.511,6.725-2.942,8.406.315,3.783,3.677,2.417.21,1.786-1.786,4.1.315,2-.42,3.257,1.891,4.2,2.311,6.724,2.1,1.471L1212,575.019l-6.514,2.627-3.573-.1-2.207,2-4.1.21-1.576.841-7.04-1.891-2.311.21.105-.1-1.891-2.522-.315-7.145-3.047-3.573-.42,1.261-1.051-1.786-5.779-1.261-3.362-2-3.783-1.156-2.312-1.156-.315-.21-2.837-6.934-.42-4.1-4.728-4.623,1.471-2.522-1.156-2.732.21-2.837-1.051-.946.315-2.942.63-.1,2.1-2.417,2.417-3.572,1.471-1.366v-2.206l-1.261-1.576-.315-2.627,1.681-.841.315-3.993-2.311-3.782,2.1-.841,6.514.1Z" transform="translate(-157.843 533.932)" fill="#fcae37" stroke="#fff" stroke-linecap="round" stroke-linejoin="round" stroke-width="0.2"/>
        <path id="UG" d="M1180.268,474.5l2.837,4.728.736,3.362,2.732,7.775-2.207,4.938-2.942,4.413-1.681,2.732v.315l-.21-.42-3.152-1.366-2.522,1.681-3.783.946-2.732,3.888.315,2.627-6.514-.105-2.1.841-3.572,2.1L1154,512.22l.105-5.043,1.366-2.627.315-5.359,1.261-3.152,2.311-3.467,2.206-1.891,2-2.312-2.417-.946.315-7.88,2.417-1.891,3.782,1.576,4.728-1.576h4.2l3.677-3.152Z" transform="translate(-157.843 532.219)" fill="#fcae37" stroke="#fff" stroke-linecap="round" stroke-linejoin="round" stroke-width="0.2"/>
        <path id="ZM" d="M1164.792,556.906l.315.21,2.312,1.156,3.782,1.156,3.362,2,2.732,3.047,1.366,5.674-1.051,1.786-1.366,5.464.946,5.674-1.891,2.312-2.1,6.3,3.047,1.681-18.072,5.569.42,4.833-4.518.946-3.467,2.627-.841,2.312-2.1.63-5.359,5.464-3.362,4.413-2,.105-1.891-.735-6.514-.736-1.051-.525v-.525l-2.312-1.576-3.782-.315-4.833,1.471-3.783-4.2L1109,607.655l.841-21.54,12.293.105-.42-2.312.946-2.522-.946-3.152.735-3.257-.63-2.1,2,.105.315,2.1,2.837-.105,3.677.63,2,3.047,4.623.946,3.677-2.1,1.261,3.467,4.518.946,2.1,2.942,2.312,3.677h4.518l-.21-7.25-1.681,1.261-4.1-2.627-1.576-1.261.946-6.724,1.156-7.985L1148.927,561l1.786-4.308,1.576-.841,8.09-1.156.946.315-.315,1.471,2,.525,1.261,1.366,1.051-.315Z" transform="translate(-160.124 536.285)" fill="#fcae37" stroke="#fff" stroke-linecap="round" stroke-linejoin="round" stroke-width="0.2"/>
        <path id="ZW" d="M1161.012,646.9l-3.047-.735-2,.841-2.837-1.156h-2.312l-3.572-3.047-4.518-1.051-1.576-4.308.105-2.417-2.417-.736-6.41-7.355-1.681-3.888-1.156-1.261-2-5.359,6.514.735,1.891.736,2-.1,3.362-4.413,5.359-5.464,2.1-.63.841-2.312,3.467-2.627,4.518-.946.21,2.522,4.938-.105,2.732,1.366,1.156,1.681,2.837.525,2.942,2.1-.42,8.616-1.366,4.623-.42,5.043.841,2-.946,3.993-.841.63-1.786,4.833-6.514,7.67Z" transform="translate(-159.181 538.653)" fill="#fcae37" stroke="#fff" stroke-linecap="round" stroke-linejoin="round" stroke-width="0.2"/>
        <path id="SO" d="M1222.277,517.062l-3.468-5.569-.21-24.586,5.149-7.565,1.576-2.207,3.782-.105,5.254-4.728,7.67-.315,16.391-20.279-5.044.105-19.648-7.985-2.312-2.417-2.312-3.257-2.311-3.783,1.261-2.312,2-3.678,2,1.261,1.261,2.837,2.837,2.837h2.942l5.463-1.786,6.409-.735,5.148-2.1,2.942-.42,2.1-1.261,3.362-.21,1.891-.21,2.627-.946,3.152-.735,2.627-2.312h2.311l.21,1.891-.42,3.888.21,3.572-1.156,2.417-1.471,7.355-2.522,7.46-3.467,8.616-4.833,9.877-4.938,7.565-6.935,9.246-5.884,5.464-8.826,6.724-5.569,5.043-6.514,8.2-1.366,3.572-1.366,1.576Z" transform="translate(-154.567 529.689)" fill="#fcae37" stroke="#fff" stroke-linecap="round" stroke-linejoin="round" stroke-width="0.2"/>
        <path id="ZA" d="M1163.644,644.751l2.311,9.456,1.156,4.833-1.471,7.46.421,2.417-2.837-1.156-1.786.42-.63,2-1.786,2.522-.1,2.312,3.257,3.677,3.362-.735,1.471-2.942h4.308l-1.786,4.938-1.051,5.569-1.786,3.047-4.2,3.467-1.156.946-2.732,3.467-1.891,3.467-3.677,4.833-7.04,6.935-4.308,3.993-4.518,3.152-6.2,2.522-2.837.42-.946,1.891-3.362-1.051-2.837,1.261L1115,722.608l-3.468.84-2.311-.42-6.094,2.732-4.833,1.051-3.677,2.522-2.522.21-2.207-2.417-1.891-.105-2.312-3.047-.315.946-.63-1.786.315-3.993-1.576-4.518,1.891-1.261.1-5.148-3.467-6.3-2.522-5.674v-.105l-3.782-8.721,2.942-3.362,2.1,1.891.841,2.837,2.627.525,3.573,1.261,3.047-.525,5.254-3.467,1.156-24.9,1.471,1.051,3.152,6.409-.63,4.1,1.156,2.417,4.2-.735,2.942-3.047,2.837-2,1.576-3.257,2.942-1.471,2.417.736,2.627,1.891,4.728.315,3.783-1.471.63-2.1,1.261-3.257,3.152-.525,1.891-2.522,2.1-4.518,5.464-5.043,8.511-4.938h2.311l2.837,1.156,2-.841,3.047.736Zm-21.329,55.9,1.156-2.1,3.257-1.051,1.156-2.206,2-3.257-1.786-2.1-2.312-2.1-2.837,1.471-3.257,2.627-3.362,4.2,3.887,5.254,2.1-.736Z" transform="translate(-161.813 540.797)" fill="#fcae37" stroke="#fff" stroke-linecap="round" stroke-linejoin="round" stroke-width="0.2"/>
        <path id="Tracé_343" data-name="Tracé 343" d="M1233.256,581.341l-.945-.105-.21-.42V580.5l.525.1.735.525Z" transform="translate(-153.883 537.593)" fill="#fcae37" stroke="#fff" stroke-linecap="round" stroke-linejoin="round" stroke-width="0.2"/>
        <path id="Tracé_344" data-name="Tracé 344" d="M1236.976,579.4l.21,1.051v.735l-.1.21-.21-.315-.42-.315-.105-.21-.315-.1-.63-.421.1-.105.526.21.315-.1.21-.42v-.21l.315-.1Z" transform="translate(-153.716 537.532)" fill="#fcae37" stroke="#fff" stroke-linecap="round" stroke-linejoin="round" stroke-width="0.2"/>
        <path id="Tracé_345" data-name="Tracé 345" d="M1231.266,578.583l-.525-.42-.315-.105-.315-.21-.21-.63.105-.315v-.21l.21-1.261-.105-.105.21-.42.525-.105.21.315-.21,1.261.1.315.21.42.1.525.21.63Z" transform="translate(-153.994 537.304)" fill="#fcae37" stroke="#fff" stroke-linecap="round" stroke-linejoin="round" stroke-width="0.2"/>
        <path id="Tracé_391" data-name="Tracé 391" d="M1307.821,630.835l.42.946-.21.63-.42.42.1.315-.315.315-.525.21h-.525l-.63-.105-.105.105-.315-.315.21-.21.105-.42.105-.735.21-.42.525-.42.105-.21.21-.525.421-.315.42.105Z" transform="translate(-150.171 540.108)" fill="#fcae37" stroke="#fff" stroke-linecap="round" stroke-linejoin="round" stroke-width="0.2"/>
        <path id="Tracé_452" data-name="Tracé 452" d="M1023.946,501.406h-.21l-.21.315h-.21l-.1-.42-.21-.841v-.315l.42-.525.315-.1.315-.315.42.105.21.42.105.315-.105.42-.21.315-.315.42Z" transform="translate(-164.485 533.471)" fill="#fcae37" stroke="#fff" stroke-linecap="round" stroke-linejoin="round" stroke-width="0.2"/>
        <path id="Tracé_453" data-name="Tracé 453" d="M1028.531,491.53l-.105.315-.21.1-.315-.1v-.315l.21-.105v-.315l.21-.21.315.1Z" transform="translate(-164.236 533.05)" fill="#fcae37" stroke="#fff" stroke-linecap="round" stroke-linejoin="round" stroke-width="0.2"/>
        <path id="Tracé_454" data-name="Tracé 454" d="M1249.081,562.11l-.315.21h-.525l-.42.21h-.42v-.21h.525l.42-.1.42-.315h.21Z" transform="translate(-153.107 536.65)" fill="#fcae37" stroke="#fff" stroke-linecap="round" stroke-linejoin="round" stroke-width="0.2"/>
        <path id="Tracé_455" data-name="Tracé 455" d="M1248.53,561.8l-.21.105h-.42v-.21Z" transform="translate(-153.082 536.64)" fill="#fcae37" stroke="#fff" stroke-linecap="round" stroke-linejoin="round" stroke-width="0.2"/>
        <path id="Tracé_456" data-name="Tracé 456" d="M1300.415,531.515l.42.42-.21.315-.21-.315-.315-.21.21-.525Z" transform="translate(-150.435 535.094)" fill="#fcae37" stroke="#fff" stroke-linecap="round" stroke-linejoin="round" stroke-width="0.2"/>
        <path id="YT" d="M1240.215,583.1l.21.315.525.21v.315l-.21.21.1.21-.315.63.105.21-.315.105-.21-.315v-.315l.21-.21-.21-.736-.105-.1-.1-.21Z" transform="translate(-153.487 537.725)" fill="#fcae37" stroke="#fff" stroke-linecap="round" stroke-linejoin="round" stroke-width="0.2"/>
        <path id="RE" d="M1295.081,635.8h.42l.42.21.315.315v.315l.1.525.315.21.21.21.105.21-.21.63-.1.42-.21.21-.42.105h-.946l-.21-.21-.841-.42-.315-.525v-.315l-.315-.63.105-.42.21-.21.21-.42h.105l.525-.21h.525Z" transform="translate(-150.775 540.397)" fill="#fcae37" stroke="#fff" stroke-linecap="round" stroke-linejoin="round" stroke-width="0.2"/>
      </g>
    </g>
  </g>
</svg>
