<svg xmlns="http://www.w3.org/2000/svg" xmlns:xlink="http://www.w3.org/1999/xlink" width="855" height="703" viewBox="0 0 855 703">
  <defs>
    <clipPath id="clip-Plan_de_travail_12">
      <rect width="855" height="703"/>
    </clipPath>
  </defs>
  <g id="Plan_de_travail_12" data-name="Plan de travail – 12" clip-path="url(#clip-Plan_de_travail_12)">
    <g id="Composant_4_19" data-name="Composant 4 – 19" transform="translate(83.727 77.667)">
      <path id="Tracé_274" data-name="Tracé 274" d="M1564.893,462.037l1.471.63,3.677,4.1,2.627,4.518.63,4.518-.526,3.047.63,2.312.525,3.993,2.207,1.891,2.417,5.989v2.206l-4.2.525-5.779-5.043-7.145-5.359-.84-3.467-3.572-4.518-1.051-5.569-2.312-3.677.42-4.938-1.471-2.837.946-1.156,5.044,2.942.63,3.467,3.888-.841Z" transform="translate(-1081.36 12.565)" fill="#d3613a" stroke="#fff" stroke-linecap="round" stroke-linejoin="round" stroke-width="0.2"/>
      <path id="Tracé_275" data-name="Tracé 275" d="M1656.438,476.213l-5.254-1.156h-6.83l-1.786,7.67-2.207,2.312-2.732,9.351-4.833,1.471-5.674-1.891-2.837.63-3.467,3.362-3.783-.42-3.887,1.366-4.1-3.888L1608,490.5l4.413,2.312,4.518-1.261,1.051-5.674,2.522-1.261,7.145-1.471,3.993-5.359,2.732-4.2,2.942,3.467,1.156-2.312,2.837.21.105-4.308.105-3.362,4.308-4.623,2.732-5.254,2.417-.105,3.257,3.467.42,2.942,3.993,1.891,5.043,2-.21,2.627-3.993.315,1.156,3.362Z" transform="translate(-1078.552 12.468)" fill="#d3613a" stroke="#fff" stroke-linecap="round" stroke-linejoin="round" stroke-width="0.2"/>
      <g id="Groupe_25" data-name="Groupe 25" transform="translate(-943.727 -518.878)">
        <path id="AF" d="M1386.62,261.945l1.576,1.891-3.047.841-2.522,1.156-6.2.841-5.569,1.366-2.522,2.942,2,2.837,1.471,3.362-2.1,2.837.841,2.627-.946,2.417-5.464-.21,3.257,4.413-3.257,1.786-1.471,3.993,1.156,4.1-1.891,1.891-2.206-.63-4.2.946-.21,1.786H1351l-2.417,3.888.84,5.674-6.935,2.837-4.1-.63-.946,1.471-3.572-.841-5.569,1.051-10.087-3.467,4.1-6.094-1.156-4.308-4.518-1.156-1.261-4.308-2.837-5.359,1.681-3.677-2.627-1.051.526-4.938.63-8.406,6.2,2.627,4.1-.946.42-3.047,4.2-.946,2.732-2.1-.21-5.359,4.413-1.366.315-2.312,3.047,1.786,1.681.21h3.152l4.518,1.471,1.891.736,3.572-2.1,2.207,1.261.946-3.047,3.362.105.63-.946-.21-2.732,1.786-2.312,3.467,1.471-.105,2.1,1.786.315.946,5.674,2.837,2.206,1.576-1.471,2.311-.63,2.627-3.047,3.993.525h5.674Z" transform="translate(-149.852 521.08)" fill="#d3613a" stroke="#fff" stroke-linecap="round" stroke-linejoin="round" stroke-width="0.2"/>
        <path id="AE" d="M1297.457,336.812l1.366,5.359h-2.942v4.413l1.156.946-2.522,1.366.21,2.732-1.366,2.732v2.732l-1.051,1.471-17.757-3.362-2.837-6.935-.315-1.471.946-.42.42,1.891,4.413-1.051,4.833.21,3.572.21,3.468-4.623,3.888-4.308,3.152-4.2,1.366,2.312Z" transform="translate(-151.89 525.121)" fill="#d3613a" stroke="#fff" stroke-linecap="round" stroke-linejoin="round" stroke-width="0.2"/>
        <path id="AM" d="M1231.713,253.8l-1.891.21-2.942-3.888-.21-1.051h-2.417l-2-1.786-1.051.105-2.522-1.891-4.413-1.681-.105-3.257-1.366-2.312,7.355-1.051,1.471,1.681,2.311,1.156-.735,1.681,3.362,2.312-1.156,2.206,2.732,1.786,2.627,1.051.946,4.728Z" transform="translate(-154.861 520.187)" fill="#d3613a" stroke="#fff" stroke-linecap="round" stroke-linejoin="round" stroke-width="0.2"/>
        <path id="Tracé_215" data-name="Tracé 215" d="M1229.416,253.524l-3.993-.946-3.362-3.047-1.261-2.627,1.051-.105,2,1.786h2.417l.21,1.051Z" transform="translate(-154.456 520.674)" fill="#d3613a" stroke="#fff" stroke-linecap="round" stroke-linejoin="round" stroke-width="0.2"/>
        <path id="Tracé_216" data-name="Tracé 216" d="M1236.086,236.347l2.627-2.732,3.677,3.467,3.782,4.833,2.627.315,2,1.786-4.413.525.1,5.253-.42,2.312-1.786,1.576.841,3.257-1.366.42-4.1-3.572,1.261-3.257-2-2-2,.525L1231.358,254l-.946-4.728-2.627-1.051-2.732-1.786,1.156-2.206-3.362-2.312.735-1.681-2.312-1.156L1219.8,237.4l1.156-1.156,4.413,2,3.047.315.631-.735-3.467-3.677,1.261-.841,1.576.21,4.518,3.993,2.522.525Z" transform="translate(-154.507 519.99)" fill="#d3613a" stroke="#fff" stroke-linecap="round" stroke-linejoin="round" stroke-width="0.2"/>
        <path id="BD" d="M1502.045,361.735l.63,4.833-2.207-1.051,1.156,5.464-2.206-3.467-.841-3.467L1497,360.789l-2.942-3.888-5.464-.315.946,2.837-1.261,3.677-2.732-1.366-.63,1.261-1.786-.736-2.311-.63-1.681-5.569-2.732-5.043.315-4.1-3.887-1.786.946-2.417,3.152-2.522-4.833-3.572,1.261-4.623,5.149,2.942,2.837.315,1.261,4.728,5.674.946,5.359-.105,3.573,1.156-1.681,5.674-2.522.42-1.261,3.783,3.783,3.572.315-4.413h1.576l4.623,10.717Z" transform="translate(-141.715 524.994)" fill="#d3613a" stroke="#fff" stroke-linecap="round" stroke-linejoin="round" stroke-width="0.2"/>
        <path id="BT" d="M1489.571,323.667l2.732,2.206.525,4.1-4.728.21-4.938-.42-3.362,1.051-5.779-2.627-.42-1.261,2.732-5.043,2.732-1.681,4.518,1.471,3.047.21,2.942,1.786Z" transform="translate(-141.638 524.396)" fill="#d3613a" stroke="#fff" stroke-linecap="round" stroke-linejoin="round" stroke-width="0.2"/>
        <path id="Tracé_247" data-name="Tracé 247" d="M1602.717,382.361l-4.518,3.257-5.148-2.1L1592,377.738l2.312-3.047,6.094-1.891,3.467.105,1.681,2.627-2.1,2.942Z" transform="translate(-135.635 527.063)" fill="#d3613a" stroke="#fff" stroke-linecap="round" stroke-linejoin="round" stroke-width="0.2"/>
        <path id="Tracé_248" data-name="Tracé 248" d="M1638.442,186.757l9.456,4.728,6.3,6.094h7.985l2.732-2.522,7.25-2,1.366,5.989-.315,2.417,2.942,7.145.631,6.514-7.25-1.156-3.047,2.312,4.938,5.674,4.1,7.88-2.627.105,2,3.467-5.779-3.993V233.2l-6.724,2.837,2.942,3.572-4.833-.315-3.782-2.1-1.156,4.833-4.1,3.572-2.206,4.308-6.62,1.891-2.521,3.152-5.043,1.891,1.366-3.152-2.416-2.627,2.1-4.518-4.728-3.467-3.572,2.312-3.783,4.728-1.366,4.308-5.254.315-1.366,3.152,5.044,4.518,5.043,1.156,1.471,2.942,5.359,2,3.993-4.833,6.2,2.627,3.677.21,2.417,3.467-7.04,1.891-1.051,3.677-3.993,3.362-.946,4.728,7.46,3.678,4.833,6.619,5.779,6.2,5.779,5.148,1.681,5.043-2.942,1.891,2.522,3.572,4.1,2.1.841,5.464.1,5.359-2.942.63-2.206,7.25-2.417,8.931-3.573,7.985-6.724,6.2-6.935,5.779-6.409.736-3.047,2.942-2.417-2.1-2.627,3.257-7.565,3.467-6.094.946-.736,7.145-3.257.42-2.312-4.938.946-2.522-8.2-2.207-2.522,1.156-6.2-1.786-3.257-2.732.315-3.888-5.569-1.261-3.257-2.522-4.308,3.572-5.569.841-4.623-.105-2.837,1.681-2.837.946,2.1,7.775-3.152-.21-.841-1.576-.525-2.837-3.993,2-2.732-1.261-4.728-2.522.84-5.569-3.888-1.366-2.522-6.2-5.884,1.156-.735-7.985,4.413-5.674-.946-5.569-1.366-5.148-2.837-1.576-2.837-3.993-3.257.525-6.409-1.051,1.26-2.837-3.782-4.2-3.362,2.837-5.148-1.576-5.674,4.2-4.1,5.043-4.413.841-2.942-1.786-3.047-.21-4.518-1.471-2.732,1.681-2.732,5.043-1.576-5.359-3.257,1.471-6.829-.735-6.83-1.471-5.253-3.047-4.728-1.261-2.627-3.257-3.467-.946-6.724-4.413-5.043-2.1-2,1.576-9.036-4.728-6.515-4.2-3.362-7.46,4.308.946-.63-3.467-3.152-3.467-.841-5.464-8.09-7.985-9.982-2.627-3.047-5.254-4.938-3.152-1.576-1.891-1.891-3.783-.526-2.627-3.887-1.576-1.576.736-3.257-6.3,1.156-1.471-1.261-1.576,4.308-3.152,3.362-1.366,6.094.946.63-4.308,6.724-.736,1.051-2.732,7.25-3.572.21-1.471-1.786-3.888,3.047-1.681-9.246-11.558,9.561-2.627,2.1-1.471-1.051-11.873,11.348,2.206,1.681-3.047-2.627-6.514,3.992-.63,2-4.413,1.786-.525,3.467,4.623,5.989,3.467,8.616,2.417,6.094,5.359,1.471,7.67,3.152,2.942,6.83,1.156,7.565.841,8.406,4.2,3.572.735,5.254,6.094,4.938,3.993,5.884-.21,11.873,1.576,6.724-.946,5.884.946,9.877,4.1h6.514l3.467,2,4.623-3.572,7.565-2.312,7.985-.21,5.148-2.312,2.1-3.572,2.522-2.312-2-2.206-3.047-2.522.525-4.308,3.362.63,6.2,1.366,3.362-3.572,6.724-2.522,1.366-4.413,2.627-1.891,7.145-.841,4.623.735-.84-2.312-7.565-4.623-5.464-2.1-2.627,2.417-5.779-1.051-2.417.841-2.942-2.627-.315-6.619-.631-4.938,7.775,2.522,4.623-4.1-2-2.942-.21-6.83,1.366-2.1-2.627-3.572-3.888-1.471,1.786-3.257,5.359-1.156,6.514-.21,9.036,2,6.3,2.312,8.09,6.514,3.993,2.837,4.728,3.993,6.514,6.3Z" transform="translate(-146.774 516.309)" fill="#d3613a" stroke="#fff" stroke-linecap="round" stroke-linejoin="round" stroke-width="0.2"/>
        <path id="DJ" d="M1229.926,428.6l-2,3.677-1.366-1.261-1.366.525-3.362-.105-.21-2.1-.525-1.891,1.891-3.152,2-2.942,2.522.63,1.786-1.681,1.471,2.1-.1,2.732-3.257,1.681,2.521,1.786Z" transform="translate(-154.441 529.471)" fill="#d3613a" stroke="#fff" stroke-linecap="round" stroke-linejoin="round" stroke-width="0.2"/>
        <path id="GE" d="M1216.937,228.174l5.359,1.366,2.206,2.732,3.783,1.576-1.261.841,3.467,3.677-.63.736-3.047-.315-4.413-2-1.156,1.156L1213.89,239l-5.884-3.362-5.779.315.315-2.837-2.206-4.518-3.573-2.522-3.152-.735-2.311-2,.42-.841,4.833,1.156,8.09,1.051,7.985,3.257,1.261,1.261,3.047-1.051Z" transform="translate(-155.952 519.442)" fill="#d3613a" stroke="#fff" stroke-linecap="round" stroke-linejoin="round" stroke-width="0.2"/>
        <path id="Tracé_255" data-name="Tracé 255" d="M1667.982,567.889l-2.522.105-7.46-4.728,5.674-1.366,2.942,2.1,1.891,2Z" transform="translate(-132.289 536.65)" fill="#d3613a" stroke="#fff" stroke-linecap="round" stroke-linejoin="round" stroke-width="0.2"/>
        <path id="Tracé_256" data-name="Tracé 256" d="M1692.771,558.9l.525,1.366-.1,2-4.308,5.043-5.254,1.471-.63-.735.735-2.312,2.942-4.1Z" transform="translate(-131.022 536.498)" fill="#d3613a" stroke="#fff" stroke-linecap="round" stroke-linejoin="round" stroke-width="0.2"/>
        <path id="Tracé_257" data-name="Tracé 257" d="M1653.055,553.8l2,1.786,3.782-.525,1.261,2.837-7.04,1.366-4.1.945-3.257-.105,2.311-3.888h3.362Z" transform="translate(-132.913 536.239)" fill="#d3613a" stroke="#fff" stroke-linecap="round" stroke-linejoin="round" stroke-width="0.2"/>
        <path id="Tracé_258" data-name="Tracé 258" d="M1681.872,553.8l-1.156,3.783-9.036,1.891-7.88-.841.21-2.522,4.833-1.366,3.573,2,3.993-.525Z" transform="translate(-131.995 536.239)" fill="#d3613a" stroke="#fff" stroke-linecap="round" stroke-linejoin="round" stroke-width="0.2"/>
        <path id="Tracé_259" data-name="Tracé 259" d="M1601.733,545.584l11.347.735,1.471-2.837,10.823,3.257,1.891,4.413,8.826,1.261,7.04,3.993-6.934,2.522-6.409-2.732-5.359.21-6.094-.526-5.464-1.156-6.724-2.627-4.308-.63-2.522.841-10.717-2.837-.841-2.837-5.358-.525,4.413-6.409,7.145.42,4.623,2.627,2.522.525Z" transform="translate(-136.122 535.525)" fill="#d3613a" stroke="#fff" stroke-linecap="round" stroke-linejoin="round" stroke-width="0.2"/>
        <path id="Tracé_261" data-name="Tracé 261" d="M1707.655,524.106l-2.312,2.312-3.993-1.261-1.051-2.942,5.989-.315Z" transform="translate(-130.144 534.622)" fill="#d3613a" stroke="#fff" stroke-linecap="round" stroke-linejoin="round" stroke-width="0.2"/>
        <path id="Tracé_262" data-name="Tracé 262" d="M1726.445,521.8l1.891,5.148-4.833-2.837-4.939-.525-3.467.42-4.1-.21,1.576-3.677,7.355-.315Z" transform="translate(-129.602 534.516)" fill="#d3613a" stroke="#fff" stroke-linecap="round" stroke-linejoin="round" stroke-width="0.2"/>
        <path id="Tracé_264" data-name="Tracé 264" d="M1698.276,492.771l-4.728,6.725-4.518,1.261-5.674-1.261-9.982.315-5.148.946-.841,5.148,5.253,5.989,3.257-3.047,11.138-2.312-.525,3.047-2.627-.946-2.627,3.993-5.359,2.627,5.359,8.616-1.156,2.311,5.043,7.775-.315,4.413-3.257,2-2.206-2.417,3.152-5.464-5.989,2.627-1.365-1.891.84-2.627-4.1-3.993.735-6.514-4.1,2,.21,7.88-.21,9.666-3.888.946-2.417-1.891,2-6.2-.631-6.514-2.522-.105-1.681-4.623,2.627-4.413.946-5.359,3.152-10.192,1.156-2.732,5.043-5.043,4.728,2,7.46.946,6.83-.315,5.884-4.833Z" transform="translate(-132.218 533.071)" fill="#d3613a" stroke="#fff" stroke-linecap="round" stroke-linejoin="round" stroke-width="0.2"/>
        <path id="Tracé_265" data-name="Tracé 265" d="M1716.37,494.94l-.315,5.884-3.047-.735-.946,4.1,2.416,3.572-1.681.841-2.312-4.308-1.786-8.616,1.051-5.359,1.891-2.417.525,3.677,3.572.525Z" transform="translate(-129.719 532.898)" fill="#d3613a" stroke="#fff" stroke-linecap="round" stroke-linejoin="round" stroke-width="0.2"/>
        <path id="Tracé_266" data-name="Tracé 266" d="M1608.2,489.645l1.051,4.518,4.1,3.888,3.888-1.366,3.782.42,3.467-3.362,2.837-.63,5.674,1.891,4.833-1.471,2.732-9.351,2.207-2.312,1.786-7.67h6.829l5.253,1.156-3.152,6.094,4.623,6.3-.945,3.152,6.724,6.2-7.04.841-1.891,4.623.21,6.094-5.779,4.623-.42,6.724-2.627,10.3-.735-2.417-6.935,3.047-2.206-4.1-4.2-.42-2.942-2.206-7.145,2.522-2-3.362-3.993.42-4.833-.735-.63-9.036-2.942-1.891-2.837-5.779-.841-5.884.63-6.3Z" transform="translate(-135.022 532.204)" fill="#d3613a" stroke="#fff" stroke-linecap="round" stroke-linejoin="round" stroke-width="0.2"/>
        <path id="Tracé_267" data-name="Tracé 267" d="M1588.211,543.091l-6.514.105-4.728-5.569-7.46-5.569-2.417-4.1-4.308-5.464-2.837-5.043L1555.535,508l-5.148-5.674-1.786-5.779-2.312-5.254-5.464-4.2-3.257-5.779-4.623-3.783-6.514-7.46-.63-3.467,3.783.315,9.351,1.261,5.464,6.619,4.833,4.623,3.362,2.732,5.779,7.25,6.094.105,5.044,4.623,3.572,5.674,4.518,3.152-2.416,5.464,3.467,2.312,2.1.21.946,4.728,2,3.677,4.308.63,2.732,4.308-1.786,8.406Z" transform="translate(-138.992 531.818)" fill="#d3613a" stroke="#fff" stroke-linecap="round" stroke-linejoin="round" stroke-width="0.2"/>
        <path id="IN" d="M1430.85,309.729l-2.942,3.152-.946,6.3,6.094,2.522,6.094,3.257,8.2,3.783,8.09.946,3.992,3.362,4.518.63,7.25,1.576,4.833-.105.105-2.627-1.576-4.308-.21-2.837,3.257-1.471,1.576,5.359.42,1.261,5.779,2.627,3.362-1.051,4.938.42,4.728-.21-.525-4.1-2.732-2.206,4.413-.841,4.1-5.043,5.673-4.2,5.149,1.576,3.362-2.837,3.782,4.2-1.261,2.837,6.409,1.051,1.051,2.522-1.786,1.261,1.471,4.1-4.413-1.156-6.514,4.623.946,3.888-2.1,5.674.315,3.257-1.681,5.569-4.833-1.576.946,7.04-1.051,2.312,1.051,2.837-2.627,1.576-4.623-10.717h-1.576l-.315,4.413-3.782-3.572,1.261-3.783,2.522-.42,1.681-5.674-3.572-1.156-5.359.105-5.674-.946-1.261-4.728-2.837-.315-5.149-2.942-1.261,4.623,4.833,3.572-3.152,2.522-.946,2.417,3.888,1.786-.315,4.1,2.732,5.043,1.681,5.569-.525,2.522-3.993-.105-6.935,1.366.946,5.043-2.522,3.993-7.88,4.623-5.569,7.88-3.992,4.308-5.254,4.413.315,3.047-2.732,1.681-5.043,2.417-2.732.315-1.261,5.148,2,8.826.736,5.569-2,6.409.735,11.453-3.047.315-2.417,5.148,2,2.312-5.359,1.891-1.786,4.518-2.312,2-5.884-6.3-3.257-9.456-2.627-6.83-2.312-3.152-3.573-6.514-2.1-8.406-1.471-4.2-6.2-9.246-3.677-13.134-2.732-8.616-.841-8.2-1.786-6.3-8.09,4.1-4.2-.841-8.511-8.2,2.522-2.417-2-2.627-7.46-5.779,3.362-4.518h12.713l-1.891-5.779-3.677-3.362-1.471-5.254-4.2-2.942,5.149-7.145,6.829.525,4.728-7.04,2.311-6.83,4.1-6.83-1.051-4.833,3.993-3.888-5.359-3.257-3.047-4.623-3.468-5.884,2.1-2.942,8.931,1.681,5.989-1.051,3.993-5.674,8.09,7.985.841,5.464,3.152,3.467.63,3.467-4.308-.946,3.362,7.46,6.514,4.2,9.036,4.728Z" transform="translate(-147.221 522.048)" fill="#d3613a" stroke="#fff" stroke-linecap="round" stroke-linejoin="round" stroke-width="0.2"/>
        <path id="IR" d="M1229.583,253.519l1.891-.21,5.569-4.938,2-.525,2,2-1.261,3.257,4.1,3.572,1.366-.42,2.627,5.043,5.569,1.366,4.518,3.362,8.09,1.156,8.406-1.786.21-1.576,4.623-1.261,3.152-3.888,3.783.21,2.1-1.261,4.1.63,6.935,3.467,4.518.736,7.67,5.884,4.2.315,1.786,5.569-.63,8.406-.525,4.938,2.627,1.051-1.681,3.677,2.837,5.359,1.261,4.308,4.518,1.156,1.156,4.308-4.1,6.094,3.362,3.572,2.942,4.1,5.989,2.942,1.051,5.884,2.837,1.156.946,3.047-7.88,3.572-1.156,7.775-11.137-2-6.514-1.576-6.62-.841-3.467-8.3-2.942-1.156-4.308,1.156-5.359,3.257-7.355-2.206-6.409-5.253-5.779-1.891-4.623-6.409-5.464-8.931-2.942,1.051-3.887-2.206-1.786,2.627-3.678-3.572-.525-3.572H1246.5l.21-4.938-3.678-5.043-7.46-3.783-4.833-6.409.526-5.254,2.417-2.311-.946-3.888-3.993-2.1-4.938-7.985-3.993-5.359.735-2.1-3.047-7.67,3.468-2,1.261,2.627,3.362,3.047,3.993.946Z" transform="translate(-154.623 520.679)" fill="#d3613a" stroke="#fff" stroke-linecap="round" stroke-linejoin="round" stroke-width="0.2"/>
        <path id="IQ" d="M1224.945,263.271l4.938,7.985,3.993,2.1.946,3.888-2.417,2.311-.525,5.254,4.833,6.409,7.46,3.783,3.678,5.043-.21,4.938h1.786l.525,3.572,3.677,3.572-3.467-.315-3.888-.63-3.467,6.514-10.717-.525-17.652-13.554-9.036-4.728L1198.257,297,1195,288.8l11.558-7.04,1.051-8.09-1.261-4.938,2.837-1.681,2.206-4.2,2.207-1.051,6.62.946,2.206,1.681,2.522-1.156Z" transform="translate(-155.764 521.435)" fill="#d3613a" stroke="#fff" stroke-linecap="round" stroke-linejoin="round" stroke-width="0.2"/>
        <path id="Tracé_271" data-name="Tracé 271" d="M1709.022,282.671l1.681,2.312-1.366,4.1-3.257-2.206-2.206,1.576.1,3.888-4.518-1.891-1.261-3.152,1.366-4.1,3.572.841,1.051-2.837Z" transform="translate(-130.251 522.418)" fill="#d3613a" stroke="#fff" stroke-linecap="round" stroke-linejoin="round" stroke-width="0.2"/>
        <path id="Tracé_272" data-name="Tracé 272" d="M1735.655,264.774l.63,5.359,2.627,3.362-.63,4.728-5.674,3.152-9.667.42-4.623,7.775-4.938-2.627-2.522-5.043-9.036,1.471-5.359,3.152-6.515.21,7.776,4.938.84,11.453-2.627,2.837-3.782-2.627-.946-6.094-4.308-1.891-4.2-4.623,4.518-2.1,1.156-4.308,4.1-3.467,2.1-4.623,10.192-2,6.62,1.366V263.618l5.359,3.257,4.728-6.724,1.786-2.627-1.051-8.2-5.359-7.565-.21-4.2,5.043-1.261,8.616,9.351,2.942,5.359-1.366,6.83Z" transform="translate(-131.037 520.142)" fill="#d3613a" stroke="#fff" stroke-linecap="round" stroke-linejoin="round" stroke-width="0.2"/>
        <path id="Tracé_273" data-name="Tracé 273" d="M1722,219.041l4.728,1.366,1.891-2.732,6.3,7.46-6.725,1.786-.42,6.619-11.453-4.518,1.681,7.25-5.989.105-4.938-6.619-.63-5.148,5.464-.315-4.623-9.246L1705.4,209.9l11.032,6.935Z" transform="translate(-129.886 518.803)" fill="#d3613a" stroke="#fff" stroke-linecap="round" stroke-linejoin="round" stroke-width="0.2"/>
        <path id="KZ" d="M1344.43,161.083l4.623-.315,9.666-6.094-.84,2.1,8.826,4.938,19.228,16.391,1.156-3.362,8.826,3.677,6.515-1.681,3.467,1.156,4.308,3.783,4.2,1.261,3.468,2.837,6.3-.946,4.623,3.993-2,4.413-3.992.63,2.626,6.514-1.681,3.047-11.348-2.206,1.051,11.873-2.1,1.471-9.561,2.627,9.246,11.558L1408,230.429l1.786,3.888-3.677-1.051-3.573-2.417-8.3-.63-9.036-.21-1.681.735-8.616-2.837-2.627,1.471.525,3.888-9.667-2.312-3.257.946-.315,2.942-2.732,1.261-5.674,4.623-.946,4.833h-2.1l-2.416-3.152-7.04-.21-2.627-5.464-2.732-.105-1.576-6.724-7.985-4.833-9.036.525-5.989.946-6.935-5.989-5.044-2.522-9.667-4.728-1.156-.525-12.609,3.888,6.514,24.586-2.732.315-5.043-5.254-4.1-1.891-5.884,1.366-1.891,2.312-.63-1.681.63-2.732-1.576-2.312-6.83-2.312-3.888-5.989-3.362-1.681-.63-2.206,5.359.63-1.051-4.833,4.308-1.051,4.938.946-.735-6.409-2-4.1-5.253.315-4.938-1.576-5.359,2.837-4.623,1.471-2.942-1.156-.21-3.362-4.518-4.413-3.782.21-5.569-4.413,1.786-5.043-1.891-1.261,2.311-7.25,6.3,3.783-.631-4.728,8.511-7.04,7.985-.21,12.609,4.518,6.934,2.627,4.623-2.732,8.09-.105,7.67,3.362.841-2,7.355.315.21-3.047-9.877-4.518,3.677-3.152-1.576-1.681,4.2-1.681-5.359-4.413,1.471-2.206,17.862-2.206,1.786-1.576,11.453-2.417,3.257-2.627,9.561,1.366,4.623,6.619,4.518-1.576,7.46,2.206,1.156,3.467Z" transform="translate(-154.628 515.716)" fill="#d3613a" stroke="#fff" stroke-linecap="round" stroke-linejoin="round" stroke-width="0.2"/>
        <path id="KG" d="M1403.081,230.509l-.21,1.471-7.25,3.572-1.051,2.732-6.724.736-.63,4.308-6.094-.946-3.362,1.366-4.308,3.152,1.261,1.576-1.156,1.471L1363.469,251l-7.46-2.206-5.779.525-.63-3.783,6.3,1.051,1.471-2,4.308.63,5.569-4.833-7.565-3.572-3.362,1.681-4.833-2.522,3.152-4.308-1.786-.63.315-2.942,3.257-.946,9.667,2.312-.526-3.888,2.627-1.471,8.616,2.837,1.681-.735,9.036.21,8.3.63,3.572,2.417,3.677,1.051Z" transform="translate(-147.926 519.523)" fill="#d3613a" stroke="#fff" stroke-linecap="round" stroke-linejoin="round" stroke-width="0.2"/>
        <path id="KH" d="M1591.21,410.717l1.891,4.518.105,8.09-9.456,5.253,2.942,3.993-6.2.525-4.833,2.732-5.044-.946-2.732-3.572-3.678-6.935-2.206-8.2,3.257-5.569,7.46-1.261,5.569.946,5.254,2.627,2.1-4.623,5.569,2.417Z" transform="translate(-137.157 528.862)" fill="#d3613a" stroke="#fff" stroke-linecap="round" stroke-linejoin="round" stroke-width="0.2"/>
        <path id="KR" d="M1652.9,259.779v-.63l2.627.21.63-2.942,3.782-.42,2.1-.42V254l8.721,7.88,3.467,4.413,3.572,7.775-.525,3.678-4.518,1.261-3.257,2.837-4.833.525-2.207-3.677-1.156-5.043-5.568-6.935,3.572-1.156-6.409-5.779Z" transform="translate(-132.548 521.039)" fill="#d3613a" stroke="#fff" stroke-linecap="round" stroke-linejoin="round" stroke-width="0.2"/>
        <path id="KW" d="M1247.855,309.43l1.576,2.942-.316,1.576,2.522,5.043-4.1.21-1.786-3.257-5.253-.63,3.467-6.514,3.888.63Z" transform="translate(-153.457 523.818)" fill="#d3613a" stroke="#fff" stroke-linecap="round" stroke-linejoin="round" stroke-width="0.2"/>
        <path id="LA" d="M1592.148,413.287l-5.569-2.417-2.1,4.623-5.254-2.627,1.576-3.047-.42-5.674-5.569-5.884-1.366-6.724-5.254-5.464-4.518-.42-.841,2.312-3.362.21-2-1.156-5.569,3.993-1.051-6.094.42-7.04-3.993-.315-.946-4.1-2.837-2.1.841-2.417,4.308-4.413.841,1.576,3.152.21-2.1-7.775,2.837-.946,4.2,5.359,3.678,6.094h7.145l3.152,5.884-3.468,1.786-1.261,2.417,7.67,4.1,5.989,7.985,4.623,5.884,5.149,4.728,2.1,4.728-.21,6.724Z" transform="translate(-138.095 526.292)" fill="#d3613a" stroke="#fff" stroke-linecap="round" stroke-linejoin="round" stroke-width="0.2"/>
        <path id="LK" d="M1446.361,463.176l-5.043,1.576-3.047-5.359-1.471-9.666,2.1-10.927,4.308,3.677,2.942,4.728,3.257,7.04-.63,7.04-2.417,1.891Z" transform="translate(-143.504 530.409)" fill="#d3613a" stroke="#fff" stroke-linecap="round" stroke-linejoin="round" stroke-width="0.2"/>
        <path id="MM" d="M1550.9,366.446l-4.308,4.413-.84,2.417-3.152,1.576-2.942,2.942-4.1.315-1.576,7.25-2.311,1.261,3.677,5.884,4.308,4.938,3.047,4.518-1.471,5.779L1539.342,409l1.891,3.362,4.518,5.359,1.05,3.783.21,3.152,2.837,6.2-2.732,6.3-2.312,6.935-.945-5.043,1.366-5.148-2.312-3.993-.21-7.355-2.732-3.572L1537.135,411l-2.1-8.511-3.257-5.674-3.362,3.467-6.094,4.728-3.467-.525-3.783-1.576.946-8.406-2.1-6.3-5.569-7.775.315-2.417-3.573-.946-4.833-5.464-1.156-5.464,2.207,1.051-.63-4.833,2.627-1.576-1.051-2.837,1.051-2.312-.946-7.04,4.833,1.576,1.681-5.569-.315-3.257,2.1-5.674-.945-3.888,6.514-4.623,4.413,1.156-1.471-4.1,1.786-1.261-1.051-2.522,3.257-.525,2.837,3.993,2.837,1.576,1.366,5.148.946,5.569-4.413,5.674.735,7.985,5.884-1.156,2.522,6.2,3.888,1.366-.841,5.569,4.728,2.522,2.732,1.261,3.993-2,.525,2.837Z" transform="translate(-140.345 524.38)" fill="#d3613a" stroke="#fff" stroke-linecap="round" stroke-linejoin="round" stroke-width="0.2"/>
        <path id="MN" d="M1500.048,182.113l4.2-1.261,5.989-.841,5.674.946,6.935,3.047,5.149,3.362h4.833l7.145,1.051,3.783-1.681,6.2-1.051,4.623-4.623,3.572.736,4.1,2.206,5.884-.63.63,4.938.315,6.619,2.942,2.627,2.417-.841,5.779,1.051,2.627-2.417,5.464,2.1,7.565,4.623.841,2.312-4.623-.735-7.145.841-2.627,1.891-1.366,4.413-6.725,2.522-3.362,3.572-6.2-1.366-3.362-.63-.525,4.308,3.047,2.522,2,2.206-2.522,2.312-2.1,3.572-5.148,2.312-7.985.21-7.565,2.312-4.623,3.572-3.467-2H1525.9l-9.877-4.1-5.884-.946-6.724.946-11.873-1.576-5.884.21-4.938-3.993-5.254-6.094-3.572-.735-8.406-4.2-7.565-.841-6.829-1.156-3.152-2.942-1.471-7.67-6.094-5.359-8.616-2.417-5.989-3.467-3.468-4.623,4.938-1.156,7.04-5.569,6.2-3.047,5.569,2,5.464.105,5.043,3.047,5.254.21,8.406,1.681,2.522-4.623-4.2-3.783,1.366-6.724,7.355,2.627,5.043.841,7.04,1.681,3.783,4.833,8.931,2.732Z" transform="translate(-144.341 516.75)" fill="#d3613a" stroke="#fff" stroke-linecap="round" stroke-linejoin="round" stroke-width="0.2"/>
        <path id="NP" d="M1471.287,323.731l.21,2.837,1.576,4.308-.105,2.627-4.833.105-7.25-1.576-4.518-.63-3.993-3.362-8.09-.946-8.2-3.783-6.094-3.257-6.094-2.522.946-6.3,2.942-3.152,2-1.576,5.043,2.1,6.725,4.413,3.467.946,2.627,3.257,4.728,1.261,5.254,3.047,6.829,1.471,6.829.735Z" transform="translate(-144.158 523.701)" fill="#d3613a" stroke="#fff" stroke-linecap="round" stroke-linejoin="round" stroke-width="0.2"/>
        <path id="Tracé_280" data-name="Tracé 280" d="M1284.175,397.592l-2.312-4.728-5.464-11.137L1293.526,375l2.732-13.449-3.152-4.833v-2.732l1.366-2.732-.21-2.732,2.522-1.366-1.156-.946V341.8h2.942l3.152,4.623,3.467,2.417,4.308.946,3.573,1.156,3.047,3.888,1.786,2.206,2.1.946.21,1.471-1.786,3.993-.735,1.891-2.312,2.206-1.786,4.623-2.627-.42-1.051,1.681-.736,3.362,1.156,4.518-.526.841h-2.627l-3.467,2.522-.315,3.257-1.261,1.471-3.677-.105-2.1,1.681.21,2.732-2.732,1.891-3.257-.63-3.782,2.312Z" transform="translate(-151.637 525.491)" fill="#d3613a" stroke="#fff" stroke-linecap="round" stroke-linejoin="round" stroke-width="0.2"/>
        <path id="Tracé_281" data-name="Tracé 281" d="M1296.266,336.918l-1.366-2.312,1.471-2.207.735.525-.21,2.837Z" transform="translate(-150.699 525.014)" fill="#d3613a" stroke="#fff" stroke-linecap="round" stroke-linejoin="round" stroke-width="0.2"/>
        <path id="PK" d="M1405.844,274.432l-3.993,5.674-5.989,1.051-8.931-1.681-2.1,2.942,3.467,5.884,3.047,4.623,5.359,3.257-3.993,3.888,1.051,4.833-4.1,6.83-2.312,6.83-4.728,7.04-6.83-.525-5.149,7.145,4.2,2.942,1.471,5.253,3.677,3.362,1.891,5.779h-12.714l-3.362,4.518-4.413-1.681-2.312-4.833-5.148-5.148-10.507,1.261-9.456.105-7.985.946,1.155-7.775,7.88-3.572-.946-3.047-2.837-1.156-1.051-5.884-5.989-2.942-2.942-4.1-3.362-3.572,10.087,3.467,5.569-1.051,3.572.841.946-1.471,4.1.63,6.935-2.837-.841-5.674,2.417-3.888h4.308l.21-1.786,4.2-.946,2.206.63,1.891-1.891-1.156-4.1,1.471-3.993,3.257-1.786-3.257-4.413,5.464.21.946-2.417-.841-2.627,2.1-2.837-1.471-3.362-2-2.837,2.522-2.942,5.569-1.366,6.2-.841,2.522-1.156,3.047-.841,4.938,3.152,3.047,5.254,9.982,2.627Z" transform="translate(-149.533 521.516)" fill="#d3613a" stroke="#fff" stroke-linecap="round" stroke-linejoin="round" stroke-width="0.2"/>
        <path id="Tracé_282" data-name="Tracé 282" d="M1701.747,448.236l.946,4.518.63,3.783-1.681,6.094-2.627-6.829-2.522,3.467,2.207,4.938-1.471,3.152-7.25-3.888-2-4.938,1.576-3.152-3.993-3.257-1.681,2.837-2.732-.315-4.2,3.783-1.051-2,1.891-5.674,3.573-1.891,3.047-2.522,2.312,3.047,4.413-1.786.735-3.047,4.2-.21-.84-5.148,5.148,3.152.736,3.362Z" transform="translate(-131.382 530.429)" fill="#d3613a" stroke="#fff" stroke-linecap="round" stroke-linejoin="round" stroke-width="0.2"/>
        <path id="Tracé_283" data-name="Tracé 283" d="M1686.341,436.109l-1.891,2.206-1.471,4.308-1.681,2L1677.2,440l1.05-1.891,1.366-1.891.21-4.1,3.257-.42-.525,4.518,3.782-6.514Z" transform="translate(-131.316 529.947)" fill="#d3613a" stroke="#fff" stroke-linecap="round" stroke-linejoin="round" stroke-width="0.2"/>
        <path id="Tracé_284" data-name="Tracé 284" d="M1655.96,442.669l-7.46,6.409,2.522-4.728,3.993-4.2,3.152-4.623,2.417-6.725,1.681,5.569-3.677,3.677Z" transform="translate(-132.771 529.902)" fill="#d3613a" stroke="#fff" stroke-linecap="round" stroke-linejoin="round" stroke-width="0.2"/>
        <path id="Tracé_285" data-name="Tracé 285" d="M1673.1,425.5l3.783,2.1h3.677l.21,2.732-2.417,2.942-3.573,2-.525-3.152.105-3.467Z" transform="translate(-131.524 529.734)" fill="#d3613a" stroke="#fff" stroke-linecap="round" stroke-linejoin="round" stroke-width="0.2"/>
        <path id="Tracé_286" data-name="Tracé 286" d="M1693.565,423.827l2.522,7.565-4.728-1.786.315,2.312,1.891,4.1-2.732,1.576-.63-4.833-1.891-.315-1.261-4.1,3.467.525-.315-2.522L1686,421.2l5.674.105Z" transform="translate(-130.87 529.516)" fill="#d3613a" stroke="#fff" stroke-linecap="round" stroke-linejoin="round" stroke-width="0.2"/>
        <path id="Tracé_287" data-name="Tracé 287" d="M1670.56,418.027l-.945,5.884-2.837-3.362L1663.1,415.4l5.044.21Z" transform="translate(-132.031 529.222)" fill="#d3613a" stroke="#fff" stroke-linecap="round" stroke-linejoin="round" stroke-width="0.2"/>
        <path id="Tracé_288" data-name="Tracé 288" d="M1663.989,383l3.993,2,1.471-1.786.84,1.681-.42,2.837,2.732,4.833-.63,5.569-3.047,2.206-.1,5.464,2.1,5.359,3.152.736,2.521-.736,7.88,3.677-.105,3.677,2.207,1.681-.315,3.047-4.938-3.257-2.627-3.572-1.261,2.522-4.2-4.1-5.253,1.051-3.152-1.471-.1-2.837,1.681-1.681-2-1.576-.421,2.417-3.467-3.888-1.366-2.942L1658,397.5l2.732,2.206-1.156-10.612.84-6.094Z" transform="translate(-132.289 527.58)" fill="#d3613a" stroke="#fff" stroke-linecap="round" stroke-linejoin="round" stroke-width="0.2"/>
        <path id="KP" d="M1661.537,230.093l1.471,1.156-2.312-.42-1.051,2.312-.315,2.206,2.942,4.833-2,1.471-.315,1.156-.946,2-3.047,1.156-1.471,1.786,1.366,2.837-.315.735,2.732,1.156,4.623,2.942v1.576l-2.1.42-3.782.42-.63,2.942-2.627-.21v.63l-3.362-1.261-.105,1.261-1.366.525-.735-1.261-1.786-.63-2-1.051.105-2.942.946-.841-1.051-1.156-.42-3.677-.946-1.051-3.572-.735-3.573-1.786,2.207-4.308,4.1-3.572,1.156-4.833,3.783,2.1,4.833.315-2.942-3.572,6.724-2.837V226.1l5.779,3.993Z" transform="translate(-133.41 519.625)" fill="#d3613a" stroke="#fff" stroke-linecap="round" stroke-linejoin="round" stroke-width="0.2"/>
        <path id="QA" d="M1270.308,344.182l-1.576.525-1.891-1.366L1266,338.4l1.156-3.467,1.576-.736,1.891,2.1.525,3.888-.841,3.993Z" transform="translate(-152.164 525.105)" fill="#d3613a" stroke="#fff" stroke-linecap="round" stroke-linejoin="round" stroke-width="0.2"/>
        <path id="SA" d="M1243.77,316l5.254.63,1.786,3.257,4.1-.21,2.837,5.884,3.047,1.471,1.261,2.417,4.2,2.837.735,2.732-.42,2.312.946,2.206,1.891,1.891.946,2.207,1.051,1.681,1.891,1.366,1.576-.525,1.366,2.627.315,1.471,2.837,6.935,17.757,3.362,1.051-1.471,3.152,4.833-2.732,13.449-17.126,6.724-16.706,2.627-5.253,3.047-3.678,7.04-2.732,1.156-1.576-2.206-2.206.315-5.779-.736-1.156-.63-6.725.105-1.576.63-2.522-1.681-1.366,3.257.841,2.837-2.522,2.206-.946-2.942-1.891-2-.526-2.732-3.257-2.417-3.467-5.674-2-5.464-4.308-4.623-2.627-1.156-4.307-6.409-.946-4.623v-3.993l-3.783-7.565-2.942-2.627-3.152-1.366-2.206-3.888.21-1.471-1.892-3.572-1.786-1.471-2.627-5.043-3.993-5.359-3.257-4.623H1176l.525-3.677.1-2.417.42-2.732,6.514,1.156,2.206-2.1,1.156-2.417,4.308-.946.735-2.312,1.681-1.051-6.3-6.83,10.927-3.362.946-1.051,7.145,1.891,9.036,4.728,17.652,13.554,10.717.525Z" transform="translate(-156.727 523.133)" fill="#d3613a" stroke="#fff" stroke-linecap="round" stroke-linejoin="round" stroke-width="0.2"/>
        <path id="SY" d="M1195.867,288.752,1185.675,296l-6.62-2.732h-.1l.63-1.051-.42-2.732.946-3.677,2.837-2.627-1.261-2.627-2.627-.315-1.156-5.148,1.051-2.837,1.366-1.471,1.261-1.471-.21-3.677,2,1.261,5.884-1.891,3.152,1.261h4.623l5.989-2.522,3.047.105,6.2-1.051-2.206,4.2-2.837,1.681,1.261,4.938-1.051,8.09-11.558,7.04Z" transform="translate(-156.631 521.485)" fill="#d3613a" stroke="#fff" stroke-linecap="round" stroke-linejoin="round" stroke-width="0.2"/>
        <path id="TH" d="M1579.9,412.2l-5.569-.946-7.46,1.261-3.257,5.569,2.206,8.2-5.569-3.152-5.043.21.315-5.359h-5.148l.21,7.46-2.311,9.877-1.471,5.989.736,4.833,3.887.21,2.837,6.2,1.366,5.779,3.572,3.888,3.573.736,3.257,3.572-1.786,2.732-3.887.841-.631-3.467-5.043-2.942-.946,1.156-2.417-2.522-1.261-3.362-3.362-3.783-3.047-3.257-.736,3.993-1.366-3.783.42-4.2,1.26-6.409,2.312-6.935,2.732-6.3-2.837-6.2-.21-3.152-1.051-3.783-4.518-5.359-1.891-3.362,1.891-1.261,1.471-5.779-3.047-4.518-4.308-4.938-3.677-5.884,2.312-1.261,1.576-7.25,4.1-.315,2.942-2.942,3.152-1.576,2.837,2.1.946,4.1,3.993.315-.42,7.04,1.051,6.094,5.569-3.993,2,1.156,3.362-.21.841-2.312,4.518.42,5.253,5.464,1.366,6.724,5.569,5.884.42,5.674L1579.9,412.2Z" transform="translate(-138.774 526.956)" fill="#d3613a" stroke="#fff" stroke-linecap="round" stroke-linejoin="round" stroke-width="0.2"/>
        <path id="TJ" d="M1357.847,243.833l-1.471,2-6.3-1.051.63,3.783,5.779-.525,7.46,2.206,10.087-1.051,3.257,6.3,1.576-.735,3.887,1.576.525,2.627,1.891,3.783h-5.674l-3.993-.525-2.627,3.047-2.311.63-1.576,1.471-2.837-2.206-.946-5.674-1.786-.315.1-2.1-3.467-1.471-1.786,2.312.21,2.732-.63.946-3.362-.105-.945,3.047-2.207-1.261-3.572,2.1-1.891-.736,1.366-6.83-2.522-5.043-4.413-1.576.63-2.942,4.623.315,1.576-3.677.525-4.308,6.829-1.576-.21,3.152,1.366,1.786Z" transform="translate(-148.397 520.279)" fill="#d3613a" stroke="#fff" stroke-linecap="round" stroke-linejoin="round" stroke-width="0.2"/>
        <path id="TM" d="M1342.366,263.744l-1.681-.21-3.047-1.786-.315,2.312-4.413,1.366.21,5.359-2.732,2.1-4.2.946-.42,3.047-4.1.946-6.2-2.627-1.786-5.569-4.2-.315-7.67-5.884-4.518-.736-6.935-3.467-4.1-.63-2.1,1.261-3.783-.21-3.152,3.888-4.623,1.261-2-4.728-.63-7.04-4.833-2.311.42-4.518-3.677-.42-.105-5.674,5.569,1.681,4.308-2.1-4.938-4.1-2.522-3.783-3.993,1.681.63,4.938-2.732-4.308,1.891-2.312,5.884-1.366,4.1,1.891,5.044,5.253,2.732-.315,6.2-.105-1.786-3.362,3.993-2.312,3.572-3.888,8.3,3.572,2,5.253,2.417,1.366,5.779-.315,2.206,1.261,4.518,6.935,7.46,4.623,4.413,3.152,6.62,3.257,8.09,2.942.841,4.1Z" transform="translate(-152.565 519.701)" fill="#d3613a" stroke="#fff" stroke-linecap="round" stroke-linejoin="round" stroke-width="0.2"/>
        <path id="TL" d="M1692.72,562.465l.1-2-.525-1.366.841-1.576,5.148-1.471,4.2-.315,1.891-.84,2.207.84-2.312,1.891-6.409,2.942-5.148,1.891Z" transform="translate(-130.55 536.295)" fill="#d3613a" stroke="#fff" stroke-linecap="round" stroke-linejoin="round" stroke-width="0.2"/>
        <path id="Tracé_293" data-name="Tracé 293" d="M1205.665,235.462l5.779-.315,5.884,3.362,1.366,2.312.105,3.257,4.413,1.681,2.522,1.891-3.468,2,3.047,7.67-.736,2.1,3.993,5.359-2.522,1.156-2.206-1.681-6.619-.946-2.206,1.051-6.2,1.051-3.047-.105-5.989,2.522h-4.623l-3.152-1.261-5.884,1.891-2-1.261.21,3.677-1.261,1.471-1.366,1.471-2.417-3.047,1.786-2.522-3.362.63-4.833-1.576-3.362,3.888-8.406.736-4.938-3.572-5.989-.21-1.051,2.732-3.782.841-5.674-3.572-6.094.105-3.993-6.725-4.413-3.677,2.1-5.254-3.783-3.257,5.359-6.409,8.406-.21,1.681-5.148,10.507.946,5.884-4.308,6.094-1.891,8.931-.21,10.3,4.728,8.3,2.627,6.094-1.051,4.833.63Z" transform="translate(-159.389 519.929)" fill="#d3613a" stroke="#fff" stroke-linecap="round" stroke-linejoin="round" stroke-width="0.2"/>
        <path id="TW" d="M1658.25,356.316l-1.471,5.569-4.2-5.779L1651,351.168l2-6.619,3.467-5.148,3.152,2-.105,4.1-1.261,10.822Z" transform="translate(-132.644 525.369)" fill="#d3613a" stroke="#fff" stroke-linecap="round" stroke-linejoin="round" stroke-width="0.2"/>
        <path id="UZ" d="M1356.863,231.765l1.786.63L1355.5,236.7l4.833,2.522,3.362-1.681,7.565,3.572-5.569,4.833-4.308-.63-2.207.105-1.366-1.786.21-3.152-6.83,1.576-.525,4.308-1.576,3.677-4.623-.315-.63,2.942,4.413,1.576,2.522,5.043-1.366,6.829-4.518-1.471h-3.152l-.841-4.1-8.09-2.942-6.619-3.257-4.413-3.152-7.46-4.623-4.518-6.935-2.206-1.261-5.779.315-2.417-1.366-2-5.254-8.3-3.572-3.572,3.888-3.993,2.312,1.786,3.362-6.2.105-6.514-24.586,12.609-3.888,1.156.525,9.666,4.728,5.043,2.522,6.934,5.989,5.989-.946,9.036-.525,7.985,4.833,1.576,6.724,2.732.105,2.627,5.464,7.04.21,2.417,3.152h2.1l.946-4.833,5.674-4.623,2.732-1.261Z" transform="translate(-151.931 518.793)" fill="#d3613a" stroke="#fff" stroke-linecap="round" stroke-linejoin="round" stroke-width="0.2"/>
        <path id="VN" d="M1588.2,364.088l-6.83,5.674-3.887,6.409-.631,4.728,5.569,7.04,6.83,8.826,5.989,4.2,4.308,5.359,4.2,12.5.421,11.873-4.518,4.413-6.409,4.413-4.413,5.569-6.935,6.3-2.417-4.308,1.261-4.623-4.623-3.783,4.833-2.732,6.2-.525-2.942-3.993,9.456-5.254-.105-8.09-1.891-4.518.21-6.724-2.1-4.728-5.148-4.728-4.623-5.884-5.989-7.985-7.67-4.1,1.261-2.417,3.467-1.786-3.152-5.884h-7.145l-3.677-6.094-4.2-5.359,2.837-1.681,4.623.105,5.568-.841,4.308-3.572,3.257,2.522,5.569,1.261-.315,3.888L1582,362.3l6.2,1.786Z" transform="translate(-137.618 526.003)" fill="#d3613a" stroke="#fff" stroke-linecap="round" stroke-linejoin="round" stroke-width="0.2"/>
        <path id="YE" d="M1286.761,395.666l-4.2,1.786-.946,3.047v2.312l-5.674,2.837-9.246,3.152-4.938,4.728-2.627.42-1.786-.42-3.362,2.837-3.677,1.261-4.938.315-1.471.42-1.156,1.786-1.576.525-.841,1.681-2.942-.21-1.786.946-4.2-.315-1.681-3.993V415.1l-1.051-2-1.366-4.938-1.891-2.732,1.156-.42-.736-3.047.63-1.261-.42-2.942,2.522-2.206-.841-2.837,1.366-3.257,2.522,1.681,1.576-.63,6.725-.105,1.156.63,5.779.736,2.207-.315,1.576,2.206,2.732-1.156,3.677-7.04,5.254-3.047,16.706-2.627,5.464,11.137,2.312,4.728Z" transform="translate(-154.223 527.417)" fill="#d3613a" stroke="#fff" stroke-linecap="round" stroke-linejoin="round" stroke-width="0.2"/>
        <path id="Tracé_299" data-name="Tracé 299" d="M1690.793,178.526l14.395,11.558-9.351-2.1,3.888,9.456,10.087,6.725,3.152,4.623-6.83-3.993.105,5.148-4.938-5.569-3.993-6.409-5.884-7.04-2.522-5.043-6.724-8.616-8.406-6.409-7.145-8.826,2-2.942L1664,156.146l1.366-.946,5.148,4.2,7.25,6.2,5.464,6.409Z" transform="translate(-131.985 516.03)" fill="#d3613a" stroke="#fff" stroke-linecap="round" stroke-linejoin="round" stroke-width="0.2"/>
        <path id="Tracé_301" data-name="Tracé 301" d="M1549.2,48.367l-6.2.105-9.351-.63-1.051-.315.735-2.1,4.413-.525,8.826,2.1Z" transform="translate(-138.647 510.438)" fill="#d3613a" stroke="#fff" stroke-linecap="round" stroke-linejoin="round" stroke-width="0.2"/>
        <path id="Tracé_302" data-name="Tracé 302" d="M1562.019,38.8l-1.156,2.1-7.25-.42-10.822-2.1L1540.9,36.7l8.721.735Z" transform="translate(-138.226 510.022)" fill="#d3613a" stroke="#fff" stroke-linecap="round" stroke-linejoin="round" stroke-width="0.2"/>
        <path id="Tracé_303" data-name="Tracé 303" d="M1537.107,36.442l3.257,3.993-15.025-.21-4.833,1.261-13.134-3.467-3.572-3.572,3.677-.946,10.717.21Z" transform="translate(-140.107 509.86)" fill="#d3613a" stroke="#fff" stroke-linecap="round" stroke-linejoin="round" stroke-width="0.2"/>
        <path id="Tracé_305" data-name="Tracé 305" d="M1689.971,241.4l-1.471-1.156-2-3.467,2.627-.105-4.1-7.88-4.938-5.674,3.047-2.312,7.25,1.156-.631-6.514-2.942-7.145.315-2.417-1.366-5.989-7.25,2-2.732,2.522H1667.8l-6.3-6.094-9.456-4.728-10.507-2.1-6.514-6.3-4.728-3.993-3.993-2.837-8.09-6.514-6.3-2.312-9.036-2-6.515.21-5.359,1.156-1.786,3.257,3.888,1.471,2.627,3.572-1.366,2.1.21,6.83,2,2.942-4.623,4.1-7.775-2.522-5.884.63-4.1-2.206-3.573-.735-4.623,4.623-6.2,1.051-3.783,1.681-7.145-1.051h-4.833l-5.148-3.362-6.935-3.047-5.674-.946-5.989.841-4.2,1.261-8.931-2.732-3.783-4.833-7.04-1.681-5.043-.841-7.355-2.627-1.366,6.725,4.2,3.783-2.522,4.623-8.406-1.681-5.254-.21-5.043-3.047-5.464-.105-5.569-2-6.2,3.047-7.04,5.569-4.938,1.156-1.787.525-4.623-3.993-6.3.946-3.467-2.837-4.2-1.261-4.308-3.783-3.467-1.156-6.514,1.681-8.826-3.677-1.156,3.362-19.228-16.391-8.826-4.938.841-2.1-9.667,6.094-4.623.315-1.156-3.467-7.46-2.206-4.518,1.576-4.623-6.619-9.561-1.366-3.258,2.627-11.452,2.417-1.786,1.576-17.862,2.206-1.471,2.206,5.359,4.413-4.2,1.681,1.576,1.681-3.677,3.152,9.876,4.518-.21,3.047-7.355-.315-.841,2-7.67-3.362-8.09.105-4.623,2.732-6.935-2.627-12.609-4.518-7.985.21-8.511,7.04.63,4.728-6.3-3.783-2.312,7.25,1.891,1.261-1.786,5.043,5.569,4.413,3.782-.21,4.518,4.413.21,3.362,2.942,1.156-1.471,3.888-4.833,1.051-3.782,6.83,6.3,6.409.421,4.413,7.67,7.88-2.627,2.732-.631,1.681-2.522-.525-4.518-3.993-1.576-.21-3.782-1.576-2.207-2.732-5.359-1.366-3.047,1.051-1.261-1.261-7.985-3.257-8.09-1.051-4.833-1.156-.42.841-7.985-5.674-6.515-2.522-5.358-3.888,3.783-1.051,3.362-5.464-3.467-2.627,7.25-2.732-.42-1.471-4.518,1.051-.42-2.837,2.312-1.891,5.043-.42.315-2.206-1.891-3.677,1.366-3.362-.42-2-8.09-2.1-3.047.105-3.783-3.047-3.782,1.051-7.04-2.312-.1-1.261-2.417-2.837-4.1-.315-.841-2,.946-1.366-3.993-3.677-5.149.63-1.576-.315-1.051,1.471-1.891-.21-2.1-4.2-1.576-2.1.84-.63,4.1.21,1.681-1.366-1.786-1.681-3.572-1.156v-1.156l-2.206-1.156-3.993-4.2.735-1.681-1.156-3.047-5.043-1.471-2.522.736-.946-1.576-5.568-1.576-2.207-3.783-1.051-3.047-2.627-1.366,1.681-2-2.522-5.884,2.732-3.572-.946-1.051,4.728-3.467-5.673-2.942,8.405-7.775,3.572-3.572.946-3.047-7.775-4.1.945-3.993-5.148-4.413,1.786-5.043-6.83-6.619,3.047-4.413-7.67-3.888-.42-3.993,3.362-.525,6.724-2.206,3.888-2,8.09,3.362,12.293,1.366,18.6,6.514,4.308,2.732,1.576,3.888-3.887,3.047-6.83,1.576L1131,85.685l-3.047.735,8.511,4.308,1.051,2.732,2,6.094,6.409,1.786,3.993,1.576-.21-2.942-3.572-2.522,2.206-2.312,12.188,3.783,3.363-1.471-4.518-4.413,8.511-5.674,4.308.315,4.833,2,1.156-3.993-4.938-3.467.841-3.467-4.518-3.572,12.924,1.891,3.783,3.152-5.359.735,1.261,3.257,4.308,2,6.3-1.261-.42-3.677,8.09-2.837,13.029-4.833,3.362.21-2.627,3.467,5.674.63,2.206-2,8.09-.105,5.253-2.417,6.724,3.467,2.942-3.783-6.3-3.257,1.261-1.891,13.659,1.681,6.935,1.786L1280.2,77.91l1.156-2.942-6.2-3.047-.841-1.156-5.568-.63-.21-2.627-4.938-4.413-1.156-1.786,4.518-4.938-.63-5.043,2.312-1.051,11.978,1.471,3.047,3.047-.946,4.413,3.888,1.786,3.993,3.888,3.993,7.775,7.04,3.467.525,3.888-3.677,8.2,5.569.841.525-2.1,3.993-1.471-.525-2.837,2-2.837-4.623-3.257-.42-3.783-5.043-.42-3.047-3.152-.42-5.674L1287.867,59l4.939-3.677-3.888-3.888,2-.105,4.413,2.942,2.207,5.359,5.253,1.051-4.833-3.993,5.358-2.206,8.511-.315,10.087,3.152-7.25-4.518-5.149-5.779,6.2-1.051,9.982.21,8.2-.735L1328,42.711l1.366-3.467,4.413-.21,5.148-2.522,9.772-.735-.21-1.471,9.772-.42,4.518,1.156,5.674-2.732,7.355.105-1.576-2.312.945-2.1,6.515-2.1,8.721,1.681-3.678,1.261,9.877.735,4.308,2.522,2-1.261,11.453.105,12.188,2.522,5.779,1.891,2.627,2.732-2.522,1.576-6.935,2.942-1.156,1.576,5.884.735,7.565,1.366,2.522-1.051,6.094,3.467.21-1.366,5.464-.841,14.289.841,3.992,2.522,18.282.841-5.043-4.1,9.982.946,6.409-.105,10.4,2.837,6.3,3.467.42,2.312,10.612,4.413,9.456,2.206-3.152-5.779,9.876,2.417,5.254-1.471,10.3,1.681,1.051-1.471,7.985.735-9.877-5.148,2.207-2.312,42.448,3.572,8.3,3.257,17.126,4.2,15.55-1.051,9.772.946,6.935,2.312,5.359,4.1L1674,70.24l4.1-1.156,7.355-.105,9.771,1.051,7.25-.63,15.025,5.043,2.627-1.786-8.931-3.572-1.891-2.522,16.076,1.576,8.405-.315,16.6,2.627,9.982,2.522,34.883,23.221-2.1,2.627-6.514-.42,8.616,3.152,9.561,4.938,4.413,1.576,3.993,2.522,1.051,1.576-10.507-1.261-6.935,4.518-3.152.735-1.681,4.308-2.1,3.783,1.786,2.837-12.083-4.308-6.409,4.833-4.938-2.312-1.471,2.732-7.355-.946,3.257,4.1,1.156,6.094,3.047,2.522,7.145,1.366,9.561,9.141-4.308.315,3.573,5.254,4.938,2.732-5.254,3.257,5.674,7.355-5.989,1.576,4.728,6.514-1.786,6.094-5.989-4.518-11.032-9.351-17.021-14.29-6.829-8.721.105-3.783-2.942-2.942,5.989-1.366-.21-7.88.735-6.3,2.627-4.938-6.934-8.616-4.938.525,3.362,5.043-3.783,6.724-12.923-7.565-9.562,2.1v10.3l8.09,3.782-8.931,1.681-6.725.63-4.518-4.518-8.406-.946L1692.7,131.5l-15.866-1.051-13.869,1.786-3.677,12.293-5.254,14.92,8.616.841,5.989,3.993,6.094,1.366.42-3.152,5.884.42,13.449,7.04,4.938,5.464,1.471,6.514,5.779,7.775,5.569,10.4-1.051,9.561,1.366,4.518-2.1,7.775-2.206,7.67-.945,3.888-4.833,3.888-3.257.105-5.464-3.257-4.308,4.938Z" transform="translate(-160.373 509.474)" fill="#d3613a" stroke="#fff" stroke-linecap="round" stroke-linejoin="round" stroke-width="0.2"/>
        <path id="Tracé_306" data-name="Tracé 306" d="M1368.084,23.343l-19.018,1.891-1.366-6.409,2.312-.525,3.257.315,13.239,2.732Z" transform="translate(-148.022 509.089)" fill="#d3613a" stroke="#fff" stroke-linecap="round" stroke-linejoin="round" stroke-width="0.2"/>
        <path id="Tracé_308" data-name="Tracé 308" d="M1347.1,20.917l-7.46.63-12.293-1.366-8.511-1.786-6.935-3.362-6.2-.841,5.674-3.047,6.514-.946,10.087,2.1,14.395,4.413Z" transform="translate(-150.151 508.678)" fill="#d3613a" stroke="#fff" stroke-linecap="round" stroke-linejoin="round" stroke-width="0.2"/>
        <path id="BH" d="M1264.1,333.3l.315.105.21-.105.421.736-.1.21.1.946v.736l-.21.42-.105-.42-.63-.841.1-.42-.21-.735v-.42l.1-.21Z" transform="translate(-152.266 525.06)" fill="#d3613a" stroke="#fff" stroke-linecap="round" stroke-linejoin="round" stroke-width="0.2"/>
      </g>
    </g>
  </g>
</svg>
