<svg id="Capa_1" enable-background="new 0 0 512 512" height="512" viewBox="0 0 512 512" width="512" xmlns="http://www.w3.org/2000/svg"><path d="m8 362.25h496v138h-496z" fill="#f6cc90"/><path d="m65.027 362.25c-8.081-12.765-12.759-27.898-12.759-44.123 0-45.622 36.984-82.607 82.607-82.607s82.607 36.984 82.607 82.607c0 16.225-4.678 31.358-12.759 44.123z" fill="#f7b30c"/><path d="m134.875 235.52c-5.651 0-11.168.571-16.5 1.652 37.716 7.646 66.107 40.983 66.107 80.955 0 16.225-4.678 31.358-12.759 44.123h33c8.081-12.765 12.759-27.898 12.759-44.123 0-45.623-36.985-82.607-82.607-82.607z" fill="#e8a500"/><path d="m309.58 366.993c-4.143 0-7.5-3.358-7.5-7.5v-270.855c0-4.142 3.357-7.5 7.5-7.5s7.5 3.358 7.5 7.5v270.855c0 4.142-3.357 7.5-7.5 7.5z" fill="#b07a46"/><path d="m308.621 189.601h-113.009c-20.338 0-36.884-16.546-36.884-36.885v-28.601c0-4.142 3.357-7.5 7.5-7.5s7.5 3.358 7.5 7.5v28.601c0 12.067 9.817 21.885 21.884 21.885h113.009c4.143 0 7.5 3.358 7.5 7.5s-3.357 7.5-7.5 7.5z" fill="#b07a46"/><path d="m391.034 229.874h-81.454c-4.143 0-7.5-3.358-7.5-7.5s3.357-7.5 7.5-7.5h81.454c11.226 0 20.357-9.132 20.357-20.357v-28.689c0-4.142 3.357-7.5 7.5-7.5s7.5 3.358 7.5 7.5v28.689c.001 19.495-15.861 35.357-35.357 35.357z" fill="#b07a46"/><path d="m265 95.25c.513 1.992.951 8.947.951 11.1 0 13.769-11.162 24.931-24.931 24.931h-136.16c-13.769 0-24.931-11.162-24.931-24.931 0-13.769 11.162-24.931 24.931-24.931h67.601" fill="#c5e866"/><path d="m420.33 50.735h-33.563c9.972-2.903 17.262-12.104 17.262-23.013 0-13.239-10.733-23.972-23.972-23.972h-100.682c-13.239 0-23.972 10.733-23.972 23.972 0 10.909 7.29 20.11 17.262 23.013h-75.753c-13.239 0-23.972 10.733-23.972 23.972s10.733 23.972 23.972 23.972h223.418c13.239 0 23.972-10.733 23.972-23.972s-10.733-23.972-23.972-23.972z" fill="#9cc042"/><path d="m420.33 50.735h-33c13.239 0 23.972 10.733 23.972 23.972s-10.733 23.972-23.972 23.972h33c13.239 0 23.972-10.733 23.972-23.972s-10.733-23.972-23.972-23.972z" fill="#85aa18"/><path d="m371.029 27.722c0 10.909-7.29 20.11-17.262 23.013h33c9.972-2.903 17.262-12.104 17.262-23.013 0-13.24-10.733-23.972-23.972-23.972h-33c13.24 0 23.972 10.732 23.972 23.972z" fill="#85aa18"/><path d="m469.503 176.348h-104.099c-12.031 0-21.784-9.753-21.784-21.784v-6.294c0-12.031 9.753-21.784 21.784-21.784h104.099c12.031 0 21.784 9.753 21.784 21.784v6.294c0 12.031-9.753 21.784-21.784 21.784z" fill="#9cc042"/><path d="m469.503 126.486h-33c12.031 0 21.784 9.753 21.784 21.784v6.294c0 12.031-9.753 21.784-21.784 21.784h33c12.031 0 21.784-9.753 21.784-21.784v-6.294c0-12.031-9.753-21.784-21.784-21.784z" fill="#85aa18"/><g fill="#b07a46"><path d="m185.5 441.25h-85c-4.143 0-7.5-3.358-7.5-7.5s3.357-7.5 7.5-7.5h85c4.143 0 7.5 3.358 7.5 7.5s-3.357 7.5-7.5 7.5z"/><path d="m393.5 441.25h-41c-4.143 0-7.5-3.358-7.5-7.5s3.357-7.5 7.5-7.5h41c4.143 0 7.5 3.358 7.5 7.5s-3.357 7.5-7.5 7.5z"/><path d="m504.5 508.25h-41c-4.143 0-7.5-3.358-7.5-7.5s3.357-7.5 7.5-7.5h41c4.143 0 7.5 3.358 7.5 7.5s-3.357 7.5-7.5 7.5z"/><path d="m377.5 508.25h-228c-4.143 0-7.5-3.358-7.5-7.5s3.357-7.5 7.5-7.5h228c4.143 0 7.5 3.358 7.5 7.5s-3.357 7.5-7.5 7.5z"/><path d="m504.5 369.75h-497c-4.143 0-7.5-3.358-7.5-7.5s3.357-7.5 7.5-7.5h497c4.143 0 7.5 3.358 7.5 7.5s-3.357 7.5-7.5 7.5z"/></g><path d="m469.903 313.773c-4.143 0-7.5 3.358-7.5 7.5v17.074c0 6.46-3.763 12.044-9.204 14.717v-43.199c0-4.142-3.357-7.5-7.5-7.5s-7.5 3.358-7.5 7.5v42.909c-5.119-2.779-8.603-8.203-8.603-14.426v-17.074c0-4.142-3.357-7.5-7.5-7.5s-7.5 3.358-7.5 7.5v17.074c0 17.316 14.088 31.403 31.403 31.403s31.403-14.087 31.403-31.403v-17.074c.001-4.143-3.356-7.501-7.499-7.501z" fill="#6c8a13"/><path d="m286.903 408.773c-4.143 0-7.5 3.358-7.5 7.5v17.074c0 6.46-3.763 12.044-9.204 14.717v-43.199c0-4.142-3.357-7.5-7.5-7.5s-7.5 3.358-7.5 7.5v42.909c-5.119-2.779-8.603-8.203-8.603-14.426v-17.074c0-4.142-3.357-7.5-7.5-7.5s-7.5 3.358-7.5 7.5v17.074c0 17.316 14.088 31.403 31.403 31.403s31.403-14.087 31.403-31.403v-17.074c.001-4.143-3.356-7.501-7.499-7.501z" fill="#6c8a13"/><path d="m55.307 452.273c-4.143 0-7.5 3.358-7.5 7.5v17.074c0 6.46-3.763 12.044-9.204 14.717v-43.199c0-4.142-3.357-7.5-7.5-7.5s-7.5 3.358-7.5 7.5v42.909c-5.12-2.78-8.603-8.204-8.603-14.427v-17.074c0-4.142-3.357-7.5-7.5-7.5s-7.5 3.358-7.5 7.5v17.074c0 17.316 14.088 31.403 31.403 31.403s31.403-14.087 31.403-31.403v-17.074c.001-4.142-3.357-7.5-7.499-7.5z" fill="#6c8a13"/></svg>