<svg id="bananas" xmlns="http://www.w3.org/2000/svg" width="56" height="68" viewBox="0 0 56 68">
  <path id="Tracé_967" data-name="Tracé 967" d="M15.6,298.679l-.451,3.513-2.3,2.273c-.846-.863-1.835-1.913-1.85-2.6a8.057,8.057,0,0,1,1.025-3.019C12.722,298.292,14.584,298.745,15.6,298.679Z" transform="translate(-10.996 -257.852)" fill="#e8bf80"/>
  <path id="Tracé_968" data-name="Tracé 968" d="M319.542,105.05l.766-2.131a30.215,30.215,0,0,1,3.234,1.353c4.323,3.123,7.3,12.583,7.377,18.239.2,14.553-4.061,24.925-9.244,31.558-1.968,2.517-5.47,6.243-11.116,6.731-.277.024-.63.077-1.009.129l1.162-4.172-1.73-2.994c1.139-2.093,2.741-4.432,3.918-6.634,2.929-3.6,5.413-8.584,7.046-15.567,1.363-5.83,2.047-16.531-.855-22.179-.513-1-1.547-1.931-2.5-3.322l2.738-.4Z" transform="translate(-274.926 -93.065)" fill="#e8bf80"/>
  <path id="Tracé_969" data-name="Tracé 969" d="M335.322,122.512c-.079-5.657-3.054-15.116-7.377-18.239a30.211,30.211,0,0,0-3.234-1.353l-.766,2.131-.218.607h-.007a32,32,0,0,1,4.5,13.831c.749,14.519-3.118,25.183-8.046,32.178a20.383,20.383,0,0,1-5.1,5.219l-1.126,4.043c.379-.052.733-.106,1.009-.13,5.647-.487,9.148-4.213,11.116-6.73C331.261,147.437,335.524,137.064,335.322,122.512Z" transform="translate(-279.329 -93.065)" fill="#eab25c"/>
  <path id="Tracé_970" data-name="Tracé 970" d="M127.113,165.174,126,162.309a86.868,86.868,0,0,1,7.923-4.224c6.41-3.03,11.95-13.565,13.488-22.529.394-2.3.842-4.412,2.47-10.93a4.4,4.4,0,0,0,.115-.729l1.847.828,1.833-1.887h0c.957,1.391,1.991,2.32,2.5,3.322,2.9,5.649,2.218,16.349.855,22.179-1.633,6.983-4.117,11.971-7.046,15.567a24.449,24.449,0,0,1-10.214,7.429c-2.661,1.052-8.931,1.6-14.724-1.543Z" transform="translate(-112.015 -109.843)" fill="#e8bf80"/>
  <path id="Tracé_971" data-name="Tracé 971" d="M156.18,126.162c-.513-1-1.547-1.931-2.5-3.322h0l-1.225,1.262c1.352,6.011.346,14.391-1.008,19.237-1.913,6.847-4.594,11.635-7.663,15a23.266,23.266,0,0,1-10.5,6.632,15.661,15.661,0,0,1-6.22.324l-2.009,4.5c5.793,3.145,12.064,2.595,14.724,1.543a24.448,24.448,0,0,0,10.214-7.429c2.929-3.6,5.413-8.584,7.046-15.567,1.363-5.831,2.047-16.532-.855-22.18Z" transform="translate(-112.016 -109.844)" fill="#eab25c"/>
  <path id="Tracé_972" data-name="Tracé 972" d="M29.49,155.918l.451-3.513a1.647,1.647,0,0,0,.319-.047c1.862-.492,6.274-1.035,8.369-1.32,5.255-.715,13.77-7.978,16.854-15.83a79.7,79.7,0,0,1,4.043-9.663,3.534,3.534,0,0,0,.238-.645l3.293.718.256.013.006,0a4.4,4.4,0,0,1-.115.729c-1.627,6.518-2.075,8.63-2.47,10.93-1.538,8.964-7.078,19.5-13.488,22.529a86.863,86.863,0,0,0-7.923,4.224,14.383,14.383,0,0,1-2.37.83A20.181,20.181,0,0,1,28,159.031c-.216-.238-.5-.527-.81-.841Z" transform="translate(-25.34 -111.578)" fill="#eab25c"/>
  <path id="Tracé_973" data-name="Tracé 973" d="M77.585,124.9c-.062.23-3.49,8.294-4.281,10.308-3.084,7.852-11.6,15.116-16.854,15.83-2.095.286-6.507.828-8.369,1.32a1.634,1.634,0,0,1-.319.047l-.452,3.513s5.951,2.018,10.562.455c5.128-1.738,13.77-7.978,16.853-15.83.791-2.014,5.1-15.156,5.1-15.156Z" transform="translate(-43.161 -111.579)" fill="#e8bf80"/>
  <path id="Tracé_974" data-name="Tracé 974" d="M287.423,425.259l1.73,2.994-1.162,4.172c-1.047.145-2.291.286-2.638-.211a8.809,8.809,0,0,1-.712-3.185C284.921,427.846,286.883,426.248,287.423,425.259Z" transform="translate(-253.368 -364.561)" fill="#e8bf80"/>
  <path id="Tracé_975" data-name="Tracé 975" d="M328.218,55.184h0l-1.833,1.887-1.847-.828c.23-2.838-1.733-6.707-1.733-6.707l0-2.073s-1.235-2.557-.408-4.633a.48.48,0,0,1,.4-.3s0,0,0,0a5.431,5.431,0,0,1,2.455.861c.073.109.142.215.2.32,1.062,1.781.647,3.15.671,4.44A12.114,12.114,0,0,0,328.218,55.184Z" transform="translate(-286.558 -42.188)" fill="#e8bf80"/>
  <path id="Tracé_976" data-name="Tracé 976" d="M308.736,47.8s1.962,3.869,1.733,6.707l-.006,0-.256-.013-3.293-.718c.693-2.579-.683-6.918-.683-6.918l.679-1.916s-.688-2.835.469-4.486l1.357.339a.48.48,0,0,0-.4.3c-.827,2.076.408,4.633.408,4.633Z" transform="translate(-272.49 -40.449)" fill="#e8bf80"/>
  <path id="Tracé_977" data-name="Tracé 977" d="M137.847,384.3h-.075c-.379-.01-.68-.442-.672-.965s.321-.938.7-.928a12.705,12.705,0,0,0,3.3-.51c.371-.1.733.23.807.742a.981.981,0,0,1-.538,1.114A13.932,13.932,0,0,1,137.847,384.3Z" transform="translate(-122.689 -328.026)" fill="#e8bf80"/>
  <path id="Tracé_978" data-name="Tracé 978" d="M402.272,120.1a.707.707,0,0,1-.62-.54c-1.909-5.535-3.643-6.9-5.66-7.24a.931.931,0,0,1-.6-1.055c.046-.519.389-.887.765-.823,3.61.614,5.369,4.355,6.731,8.306a1.265,1.265,0,0,1-.039.912.671.671,0,0,1-.58.441Z" transform="translate(-351.461 -99.393)" fill="#e8bf80"/>
  <path id="Tracé_979" data-name="Tracé 979" d="M357.9,58.077l-.766,2.131-.218.607-2.738.4a12.114,12.114,0,0,1-2.083-7.035c-.024-1.29.391-2.659-.671-4.44l.134-.065c1.761.877,1.825,2.417,2.285,3.581A8.2,8.2,0,0,0,357.9,58.077Z" transform="translate(-312.516 -48.223)" fill="#e8bf80"/>
  <path id="Tracé_980" data-name="Tracé 980" d="M97.5,373.9a14.38,14.38,0,0,0,2.37-.83l1.115,2.864-2.063,4.62c-1-.541-3.112-1.494-3.315-2.418a9.356,9.356,0,0,1,.432-3.387,3.024,3.024,0,0,1,1.461-.85Z" transform="translate(-85.89 -320.603)" fill="#e8bf80"/>
</svg>
