<svg xmlns="http://www.w3.org/2000/svg" width="56" height="68.001" viewBox="0 0 56 68.001">
  <g id="Groupe_293" data-name="Groupe 293" transform="translate(2628.491 -11111.055)">
    <g id="grain" transform="translate(-2628.491 11111.055)">
      <path id="Tracé_948" data-name="Tracé 948" d="M393.383,40.048c-2.354,2.859-6.975.941-6.975.941s-1.579-5.611.775-8.47a10.429,10.429,0,0,1,9.3-3.764S397.258,35.343,393.383,40.048Z" transform="translate(-343.683 -24.87)" fill="#eab25c"/>
      <path id="Tracé_949" data-name="Tracé 949" d="M393.392,40.111c-2.354,2.858-6.975.94-6.975.94a16.409,16.409,0,0,1-.517-3.8c.786.291,4.724,1.571,6.836-.993a14.642,14.642,0,0,0,3.015-7.509,6.285,6.285,0,0,1,.74.068S397.267,35.405,393.392,40.111Z" transform="translate(-343.692 -24.932)" fill="#eab25c"/>
      <path id="Tracé_950" data-name="Tracé 950" d="M284.045,64.988c.862,3.9-2.816,7.806-2.816,7.806s-4.791-1.145-5.653-5.05a16.689,16.689,0,0,1,1.965-11.662A13.438,13.438,0,0,1,284.045,64.988Z" transform="translate(-245.125 -48.634)" fill="#eab25c"/>
      <path id="Tracé_951" data-name="Tracé 951" d="M283.973,89.685s-4.792-1.145-5.654-5.05l-.01-.045c1.976,1.516,4.508.645,5.561-1.722a7.2,7.2,0,0,0,.622-4.442,13.919,13.919,0,0,0-.962-2.866,13.653,13.653,0,0,1,3.259,6.319C287.652,85.784,283.973,89.685,283.973,89.685Z" transform="translate(-247.87 -65.525)" fill="#eab25c"/>
      <path id="Tracé_952" data-name="Tracé 952" d="M336.516,155.125c-3.216-1.046-6.428,3.42-6.428,3.42s.943,5.818,4.159,6.865c5.293,1.722,9.6-2.387,9.6-2.387S341.809,156.847,336.516,155.125Z" transform="translate(-293.985 -134.385)" fill="#eab25c"/>
      <path id="Tracé_953" data-name="Tracé 953" d="M350.728,179.789s-4.31,4.108-9.6,2.387c-1.633-.531-2.681-2.3-3.314-3.9a3.334,3.334,0,0,0,.689.315c5.294,1.721,9.6-2.387,9.6-2.387a13.646,13.646,0,0,0-.849-1.9A15.43,15.43,0,0,1,350.728,179.789Z" transform="translate(-300.862 -151.151)" fill="#eab25c"/>
      <path id="Tracé_954" data-name="Tracé 954" d="M202.871,146.162c.862,3.9-2.816,7.806-2.816,7.806s-4.791-1.145-5.653-5.05a16.689,16.689,0,0,1,1.965-11.662A13.439,13.439,0,0,1,202.871,146.162Z" transform="translate(-172.829 -119.026)" fill="#eab25c"/>
      <path id="Tracé_955" data-name="Tracé 955" d="M202.806,170.865s-4.826-1.153-5.662-5.094h0c1.974,1.514,4.5.646,5.558-1.72a7.2,7.2,0,0,0,.623-4.443,13.923,13.923,0,0,0-.963-2.866,13.636,13.636,0,0,1,3.259,6.319C206.484,166.964,202.806,170.865,202.806,170.865Z" transform="translate(-175.581 -135.923)" fill="#eab25c"/>
      <path id="Tracé_956" data-name="Tracé 956" d="M255.342,236.3c-3.216-1.046-6.428,3.42-6.428,3.42s.943,5.818,4.159,6.865c5.293,1.722,9.6-2.387,9.6-2.387S260.635,238.021,255.342,236.3Z" transform="translate(-221.689 -204.778)" fill="#eab25c"/>
      <path id="Tracé_957" data-name="Tracé 957" d="M269.539,260.95s-4.31,4.109-9.6,2.387c-1.635-.531-2.682-2.3-3.316-3.9a3.427,3.427,0,0,0,.691.316c5.293,1.723,9.6-2.387,9.6-2.387a13.86,13.86,0,0,0-.849-1.9A15.443,15.443,0,0,1,269.539,260.95Z" transform="translate(-228.552 -221.531)" fill="#eab25c"/>
      <path id="Tracé_958" data-name="Tracé 958" d="M121.073,227.959c.862,3.9-2.816,7.806-2.816,7.806s-4.791-1.145-5.653-5.05a16.689,16.689,0,0,1,1.965-11.662A13.438,13.438,0,0,1,121.073,227.959Z" transform="translate(-99.978 -189.96)" fill="#eab25c"/>
      <path id="Tracé_959" data-name="Tracé 959" d="M121,252.663s-4.792-1.145-5.654-5.05l-.01-.045c1.976,1.516,4.507.644,5.56-1.722a7.2,7.2,0,0,0,.623-4.442,14,14,0,0,0-.962-2.865,13.654,13.654,0,0,1,3.259,6.318C124.681,248.763,121,252.663,121,252.663Z" transform="translate(-102.725 -206.859)" fill="#eab25c"/>
      <path id="Tracé_960" data-name="Tracé 960" d="M173.545,318.1c-3.216-1.046-6.428,3.42-6.428,3.42s.943,5.818,4.159,6.865c5.293,1.722,9.6-2.387,9.6-2.387s-2.041-6.175-7.335-7.9Z" transform="translate(-148.839 -275.711)" fill="#eab25c"/>
      <path id="Tracé_961" data-name="Tracé 961" d="M187.749,342.742s-4.31,4.109-9.6,2.387c-1.633-.531-2.681-2.3-3.315-3.9a3.342,3.342,0,0,0,.69.315c5.294,1.723,9.6-2.387,9.6-2.387a13.705,13.705,0,0,0-.851-1.906A15.435,15.435,0,0,1,187.749,342.742Z" transform="translate(-155.708 -292.458)" fill="#eab25c"/>
      <path id="Tracé_962" data-name="Tracé 962" d="M39.9,309.133c.862,3.9-2.816,7.806-2.816,7.806s-4.791-1.145-5.653-5.05a16.689,16.689,0,0,1,1.965-11.662A13.438,13.438,0,0,1,39.9,309.133Z" transform="translate(-27.683 -260.353)" fill="#eab25c"/>
      <path id="Tracé_963" data-name="Tracé 963" d="M39.832,333.817s-4.791-1.145-5.652-5.05l-.01-.045c1.975,1.516,4.506.645,5.559-1.72a7.2,7.2,0,0,0,.623-4.444,13.882,13.882,0,0,0-.965-2.869,13.655,13.655,0,0,1,3.262,6.322C43.511,329.917,39.832,333.817,39.832,333.817Z" transform="translate(-30.433 -277.231)" fill="#eab25c"/>
      <path id="Tracé_964" data-name="Tracé 964" d="M92.371,399.271c-3.216-1.046-6.428,3.42-6.428,3.42s.943,5.818,4.159,6.865c5.293,1.722,9.6-2.387,9.6-2.387S97.664,400.993,92.371,399.271Z" transform="translate(-76.543 -346.105)" fill="#eab25c"/>
      <path id="Tracé_965" data-name="Tracé 965" d="M106.569,423.929s-4.31,4.109-9.6,2.387c-1.633-.531-2.681-2.294-3.315-3.9a3.342,3.342,0,0,0,.69.315c5.294,1.723,9.6-2.387,9.6-2.387a13.748,13.748,0,0,0-.85-1.9A15.412,15.412,0,0,1,106.569,423.929Z" transform="translate(-83.407 -362.865)" fill="#eab25c"/>
      <path id="Tracé_966" data-name="Tracé 966" d="M55.743.311a.771.771,0,0,0-1.237,0L52.473,2.779A11.178,11.178,0,0,0,42.881,6.9c-2.221,2.7-1.51,7.23-1.142,8.916l-1.828,2.22c.2-3.225-2.191-8.661-6.757-11.346l-.744-3.371a.872.872,0,0,0-1.072-.751,1.1,1.1,0,0,0-.619,1.3l.744,3.371A17.841,17.841,0,0,0,29.6,19.385a7.882,7.882,0,0,0,4.833,5.294l-3.406,4.136c.2-3.225-2.191-8.661-6.757-11.346L23.531,14.1a.872.872,0,0,0-1.072-.751,1.1,1.1,0,0,0-.619,1.3l.744,3.371a17.839,17.839,0,0,0-1.858,12.147,7.882,7.882,0,0,0,4.833,5.294l-3.474,4.219c.2-3.225-2.191-8.661-6.757-11.346l-.744-3.371a.872.872,0,0,0-1.072-.751,1.1,1.1,0,0,0-.619,1.3l.744,3.372A17.839,17.839,0,0,0,11.78,41.031a7.882,7.882,0,0,0,4.833,5.294L13.207,50.46c.2-3.225-2.191-8.66-6.757-11.346l-.744-3.371a.872.872,0,0,0-1.072-.751,1.1,1.1,0,0,0-.619,1.3l.744,3.372A17.839,17.839,0,0,0,2.9,51.812a7.882,7.882,0,0,0,4.833,5.294L.256,66.187a1.229,1.229,0,0,0,0,1.5.771.771,0,0,0,1.237,0l7.479-9.082c.594,2.009,1.882,5.063,4.36,5.869a10.635,10.635,0,0,0,10-2.257,19.111,19.111,0,0,0,3,.94.922.922,0,0,0,.845-.788,1.1,1.1,0,0,0-.619-1.3l-2.776-.9c-2.215-5.555-6.7-8.444-9.344-8.205l3.406-4.136c.594,2.009,1.882,5.063,4.36,5.869a10.632,10.632,0,0,0,10-2.256l2.777.9a.872.872,0,0,0,1.072-.751,1.1,1.1,0,0,0-.619-1.3l-2.776-.9c-2.213-5.548-6.69-8.444-9.344-8.206L26.8,36.963c.594,2.009,1.882,5.063,4.36,5.869a10.635,10.635,0,0,0,10-2.257l2.777.9a.872.872,0,0,0,1.072-.751,1.1,1.1,0,0,0-.619-1.3l-2.776-.9c-2.213-5.548-6.69-8.445-9.343-8.205l3.406-4.136c.594,2.009,1.882,5.063,4.36,5.869a10.636,10.636,0,0,0,10-2.257l2.777.9a.872.872,0,0,0,1.072-.751,1.1,1.1,0,0,0-.619-1.3l-2.776-.9c-2.213-5.548-6.69-8.445-9.344-8.205l1.828-2.22c2.489.8,5.52.825,7.342-1.387,3.517-4.271,3.5-9.884,3.392-11.648l2.033-2.468a1.23,1.23,0,0,0,0-1.5ZM31.295,18.836a15.475,15.475,0,0,1,1.42-10.028,12.681,12.681,0,0,1,5.359,7.822c.507,2.3-1,4.738-1.91,5.951-.13.146-.245.28-.343.4C34.7,22.6,31.859,21.39,31.295,18.836ZM22.417,29.617a15.476,15.476,0,0,1,1.42-10.028A12.682,12.682,0,0,1,29.2,27.411c.507,2.3-1,4.738-1.91,5.951-.131.147-.247.282-.345.4-1.118-.375-3.955-1.566-4.524-4.146ZM13.47,40.481a15.475,15.475,0,0,1,1.421-10.03,12.615,12.615,0,0,1,5.358,7.824c.507,2.3-1,4.738-1.91,5.951-.131.147-.247.282-.345.4-1.117-.375-3.955-1.566-4.524-4.146ZM4.591,51.262a15.476,15.476,0,0,1,1.42-10.028,12.681,12.681,0,0,1,5.359,7.822c.507,2.3-1,4.738-1.91,5.951-.131.147-.247.282-.345.4C8,55.033,5.161,53.841,4.591,51.262ZM15.6,54.193c3.724,1.212,5.727,4.9,6.442,6.507-1.282.958-4.535,2.936-8.258,1.724-2.125-.691-3.106-4.138-3.414-5.494C11.709,55.3,13.771,53.6,15.6,54.193Zm8.878-10.781c3.724,1.212,5.727,4.9,6.442,6.507-1.282.958-4.535,2.936-8.258,1.724-2.125-.691-3.106-4.138-3.414-5.494.1-.119.208-.258.329-.417C22.552,42.442,24.49,43.412,24.479,43.412Zm8.947-10.864c3.724,1.212,5.727,4.9,6.442,6.507-1.282.958-4.535,2.936-8.258,1.724-2.125-.691-3.106-4.138-3.414-5.494.1-.118.208-.258.329-.417C31.5,31.579,33.437,32.548,33.426,32.548ZM42.3,21.767c3.724,1.212,5.727,4.9,6.442,6.507-1.282.958-4.535,2.936-8.258,1.724-2.125-.691-3.106-4.138-3.414-5.494.1-.118.208-.258.329-.417,1-1.1,3.007-2.937,4.9-2.32Zm6.776-7.339c-1.566,1.9-4.544,1.188-5.648.836-.284-1.341-.865-4.979.686-6.862a9.705,9.705,0,0,1,7.864-3.52C52.029,6.7,51.821,11.1,49.081,14.428Z" transform="translate(0.001 0)" fill="#eab25c"/>
    </g>
  </g>
</svg>
