<svg xmlns="http://www.w3.org/2000/svg" width="36.049" height="28.924" viewBox="0 0 36.049 28.924">
  <path id="Icon_awesome-fish" data-name="Icon awesome-fish" d="M17.965,6.75c-4.941,0-9.257,3.008-11.659,5.582L1.51,8.7A.914.914,0,0,0,.02,9.509l1.328,6.028L.019,21.567a.914.914,0,0,0,1.491.805l4.8-3.628c2.4,2.573,6.718,5.581,11.659,5.581,7.55,0,13.67-7.03,13.67-8.788S25.515,6.75,17.965,6.75Zm4.8,10.106a1.318,1.318,0,1,1,1.318-1.318A1.318,1.318,0,0,1,22.767,16.856Z" transform="matrix(0.914, 0.407, -0.407, 0.914, 9.894, -6.166)" fill="gray"/>
</svg>
